<?xml version="1.0" encoding="UTF-8" standalone="no"?><!DOCTYPE svg PUBLIC "-//W3C//DTD SVG 1.1//EN" "http://www.w3.org/Graphics/SVG/1.1/DTD/svg11.dtd"><svg width="100%" height="100%" viewBox="0 0 3403 5313" version="1.1" xmlns="http://www.w3.org/2000/svg" xmlns:xlink="http://www.w3.org/1999/xlink" xml:space="preserve" xmlns:serif="http://www.serif.com/" style="fill-rule:evenodd;clip-rule:evenodd;stroke-linejoin:round;stroke-miterlimit:2;"><g><g><rect x="1170.31" y="4394.57" width="1068.25" height="200.326" style="fill:url(#_Linear1);fill-rule:nonzero;"/><rect x="1298.7" y="4753.32" width="811.458" height="200.326" style="fill:url(#_Linear2);fill-rule:nonzero;"/><rect x="1453.78" y="5112.04" width="501.194" height="200.347" style="fill:url(#_Linear3);fill-rule:nonzero;"/></g><path d="M1687.59,291.211c56.684,-21.68 97.179,-76.237 97.179,-140.56c0.13,-83.008 -67.535,-150.651 -150.651,-150.651c-83.138,0 -150.803,67.643 -150.803,150.781c-0,64.193 40.494,118.859 97.309,140.538c16.688,6.446 34.657,10.243 53.494,10.243c18.923,0 36.783,-3.927 53.472,-10.351Z" style="fill:url(#_Linear4);fill-rule:nonzero;"/><path d="M2452.34,437.457c56.705,-21.68 97.309,-76.216 97.309,-140.539c-0,-83.138 -67.643,-150.781 -150.781,-150.781c-83.138,0 -150.782,67.643 -150.782,150.781c0,64.193 40.495,118.75 97.179,140.43c16.688,6.424 34.657,10.243 53.472,10.243c19.076,0.109 36.936,-3.689 53.603,-10.134Z" style="fill:url(#_Linear5);fill-rule:nonzero;"/><path d="M1206.64,392.925c56.684,-21.679 97.309,-76.237 97.309,-140.56c-0,-83.116 -67.644,-150.781 -150.782,-150.781c-83.138,0 -150.781,67.665 -150.781,150.781c0,64.215 40.495,118.881 97.179,140.56c16.667,6.424 34.657,10.243 53.472,10.243c19.054,0 36.936,-3.819 53.603,-10.243Z" style="fill:url(#_Linear6);fill-rule:nonzero;"/><path d="M1514.41,2019.4c59.548,-20.139 102.777,-75.998 102.777,-142.209c0,-83.138 -67.643,-150.781 -150.781,-150.781c-83.138,-0 -150.781,67.643 -150.781,150.781c-0,62.174 37.869,115.647 91.71,138.628c18.099,7.748 38.108,12.153 59.071,12.153c16.906,0 32.878,-3.45 48.004,-8.572Z" style="fill:url(#_Linear7);fill-rule:nonzero;"/><path d="M2793.1,742.122c16.688,6.446 34.657,10.243 53.602,10.243c83.138,0 150.782,-67.643 150.782,-150.781c-0,-83.138 -67.644,-150.781 -150.782,-150.781c-83.138,-0 -150.781,67.643 -150.781,150.781c0,24.892 6.662,48.112 17.383,68.837c16.905,32.769 45.139,58.485 79.796,71.701Z" style="fill:url(#_Linear8);fill-rule:nonzero;"/><path d="M2067.17,1368.86c95.16,-36.806 162.825,-128.516 162.825,-236.654c0,-140.43 -113.867,-254.297 -254.297,-254.297c-140.429,-0 -254.296,113.867 -254.296,254.297c-0,109.809 69.921,202.474 167.469,238.086c27.279,10.004 56.207,16.189 86.936,16.189c32.292,0 62.891,-6.662 91.363,-17.621Zm-91.472,-328.125c50.5,-0 91.472,40.972 91.472,91.471c-0,50.499 -40.972,91.471 -91.472,91.471c-50.499,0 -91.471,-40.972 -91.471,-91.471c0,-50.499 40.972,-91.471 91.471,-91.471Z" style="fill:url(#_Linear9);fill-rule:nonzero;"/><path d="M1474.39,2867.53c19.64,-36.09 31.793,-76.823 31.793,-120.769c-0,-140.429 -113.867,-254.275 -254.275,-254.275c-140.43,0 -254.297,113.846 -254.297,254.275c-0,140.43 113.867,254.297 254.297,254.297c30.837,0 60.134,-6.315 87.413,-16.449c58.246,-21.311 105.772,-63.13 135.069,-117.079Zm-313.954,-120.638c0,-50.499 40.951,-91.472 91.472,-91.472c50.499,0 91.471,40.973 91.471,91.472c0,50.499 -40.972,91.471 -91.471,91.471c-50.521,0 -91.472,-40.972 -91.472,-91.471Z" style="fill:url(#_Linear10);fill-rule:nonzero;"/><path d="M2713.3,670.551l-260.959,260.959l-0,-494.053c-16.667,6.445 -34.657,10.243 -53.472,10.243c-18.946,-0 -36.806,-3.928 -53.473,-10.243l0,888.758l-277.994,277.995l-0,-235.59c-28.581,11.067 -59.31,17.99 -91.711,17.99c-30.729,0 -59.309,-6.315 -86.935,-16.449l-0,487.847l-201.064,-201.042l0,-1365.76c-16.666,6.424 -34.657,10.243 -53.472,10.243c-18.945,-0 -36.805,-3.928 -53.472,-10.243l-0,608.377l-373.872,-373.872l0,-132.791c-16.666,6.424 -34.657,10.243 -53.472,10.243c-18.945,0 -36.805,-3.928 -53.494,-10.243l0,177.105l480.946,480.947l0,650.303l273.46,273.46l-205.317,205.338l-134.245,-134.245l-0,-26.54c-15.126,5.121 -31.076,8.572 -48.004,8.572c-20.963,-0 -40.972,-4.297 -59.071,-12.153l0,74.436l214.627,214.626l0,710.46l-147.569,-147.808c-29.297,53.82 -76.823,95.747 -135.07,117.188l282.639,282.877l0,986.893l178.668,-0l-0,-1973.55l266.666,-267.144l0,-258.117l385.07,-385.047l-0,-287.652l340.625,-340.625c-34.896,-13.347 -63.13,-39.063 -80.035,-71.702Z" style="fill:url(#_Linear11);fill-rule:nonzero;"/><path d="M3252.13,1058.59c-83.138,-0 -150.782,67.643 -150.782,150.781c0,64.193 40.495,118.859 97.179,140.538l0,610.048l-316.558,316.58l0,-612.435c97.895,-35.373 168.164,-128.277 168.164,-238.325c0,-140.408 -113.867,-254.275 -254.297,-254.275c-140.408,0 -254.275,113.867 -254.275,254.275c0,107.791 67.296,199.393 161.871,236.437c12.022,4.752 24.522,8.572 37.391,11.545c-12.869,-2.865 -25.369,-6.662 -37.391,-11.306l-0,999.739l-247.027,-247.005l-0,-373.763c50.13,-24.414 85.156,-75.26 85.156,-134.809c0,-83.138 -67.643,-150.803 -150.781,-150.803c-83.138,-0 -150.781,67.665 -150.781,150.803c-0,64.193 40.494,118.858 97.287,140.538c3.819,1.432 7.986,2.257 12.044,3.451l0,408.528l349.913,349.913l-253.32,221.55l-339.323,-338.846l0,-136.979c1.411,-0.477 3.082,-0.716 4.514,-1.302c56.706,-21.679 97.201,-76.237 97.201,-140.56c-0,-83.116 -67.665,-150.781 -150.803,-150.781c-83.117,0 -150.782,67.665 -150.782,150.781c0,62.414 38.477,115.539 92.665,138.282l0,184.505l365.3,365.278l-321.224,280.967l-0,872.57l178.646,-0l-0,-791.45l269.292,-235.351l81.12,-70.508l252.865,-221.528l56.684,-49.327l-0,-458.42l423.524,-423.546l-0,-654.341c56.706,-21.679 97.2,-76.237 97.2,-140.559c0.109,-83.247 -67.534,-150.89 -150.672,-150.89Zm-547.635,367.079c0,-50.499 40.972,-91.472 91.472,-91.472c50.499,0 91.471,40.973 91.471,91.472c-0,50.499 -40.972,91.471 -91.471,91.471c-50.5,0 -91.472,-40.864 -91.472,-91.471Z" style="fill:url(#_Linear12);fill-rule:nonzero;"/><path d="M1087.65,2425.2l178.667,-179.145l0,-529.297c98.026,-35.243 168.533,-128.276 168.533,-238.433c0,-140.429 -113.867,-254.297 -254.296,-254.297c-140.43,0 -254.276,113.868 -254.276,254.297c0,107.552 67.036,199.132 161.502,236.177l0,140.907l-516.927,-516.927l407.227,-407.205c2.625,1.193 5.36,2.495 8.094,3.45c16.558,6.315 34.31,10.135 52.995,10.135c83.138,-0 150.803,-67.665 150.803,-150.803c-0.13,-83.247 -67.665,-150.89 -150.803,-150.89c-83.116,0 -150.781,67.643 -150.781,150.781c-0,22.027 5.251,42.752 13.932,61.567l-353.602,353.624l-0,-417.1c56.684,-21.68 97.178,-76.237 97.178,-140.539c0,-83.138 -67.643,-150.781 -150.781,-150.781c-83.138,0 -150.781,67.643 -150.781,150.781c-0,64.193 40.495,118.75 97.179,140.539l-0,568.489l646.137,646.137l-0,166.146l-280.36,281.445l-146.376,145.79l-0.13,0.109l-0,-433.898c93.381,-37.63 159.353,-128.754 159.353,-235.59c-0,-140.408 -113.846,-254.275 -254.275,-254.275c-140.43,-0 -254.297,113.867 -254.297,254.275c-0,111.133 71.701,204.514 170.92,239.171l-0,131.597l-268.229,-268.207l-0,-692.47c51.454,-24.067 87.305,-75.868 87.305,-136.263c-0,-83.138 -67.644,-150.781 -150.782,-150.781c-83.138,-0 -150.781,67.643 -150.781,150.781c0,67.882 45.378,124.827 107.183,143.642l0,729.514l375.304,375.282l-0,313.259l683.42,683.42l0,805.144l178.407,-0l0,-879.124l-603.255,-603.255l191.884,-192.361l154.709,-154.818Zm92.904,-1038.48c50.499,-0 91.471,40.972 91.471,91.471c-0,50.499 -40.972,91.471 -91.471,91.471c-50.5,0 -91.472,-40.972 -91.472,-91.471c0,-50.499 40.972,-91.471 91.472,-91.471Zm-617.318,622.569c-50.499,0 -91.472,-40.972 -91.472,-91.493c0,-50.499 40.973,-91.471 91.472,-91.471c50.499,-0 91.471,40.972 91.471,91.471c0,50.521 -40.972,91.493 -91.471,91.493Z" style="fill:url(#_Linear13);fill-rule:nonzero;"/></g><defs><linearGradient id="_Linear1" x1="0" y1="0" x2="1" y2="0" gradientUnits="userSpaceOnUse" gradientTransform="matrix(3.2529e-13,-5312.39,5312.39,3.2529e-13,1701.4,5312.39)"><stop offset="0" style="stop-color:#c026d3;stop-opacity:1"/><stop offset="1" style="stop-color:#4f46e5;stop-opacity:1"/></linearGradient><linearGradient id="_Linear2" x1="0" y1="0" x2="1" y2="0" gradientUnits="userSpaceOnUse" gradientTransform="matrix(3.2529e-13,-5312.39,5312.39,3.2529e-13,1701.4,5312.39)"><stop offset="0" style="stop-color:#c026d3;stop-opacity:1"/><stop offset="1" style="stop-color:#4f46e5;stop-opacity:1"/></linearGradient><linearGradient id="_Linear3" x1="0" y1="0" x2="1" y2="0" gradientUnits="userSpaceOnUse" gradientTransform="matrix(3.2529e-13,-5312.39,5312.39,3.2529e-13,1701.4,5312.39)"><stop offset="0" style="stop-color:#c026d3;stop-opacity:1"/><stop offset="1" style="stop-color:#4f46e5;stop-opacity:1"/></linearGradient><linearGradient id="_Linear4" x1="0" y1="0" x2="1" y2="0" gradientUnits="userSpaceOnUse" gradientTransform="matrix(3.2529e-13,-5312.39,5312.39,3.2529e-13,1701.4,5312.39)"><stop offset="0" style="stop-color:#c026d3;stop-opacity:1"/><stop offset="1" style="stop-color:#4f46e5;stop-opacity:1"/></linearGradient><linearGradient id="_Linear5" x1="0" y1="0" x2="1" y2="0" gradientUnits="userSpaceOnUse" gradientTransform="matrix(3.2529e-13,-5312.39,5312.39,3.2529e-13,1701.4,5312.39)"><stop offset="0" style="stop-color:#c026d3;stop-opacity:1"/><stop offset="1" style="stop-color:#4f46e5;stop-opacity:1"/></linearGradient><linearGradient id="_Linear6" x1="0" y1="0" x2="1" y2="0" gradientUnits="userSpaceOnUse" gradientTransform="matrix(3.2529e-13,-5312.39,5312.39,3.2529e-13,1701.4,5312.39)"><stop offset="0" style="stop-color:#c026d3;stop-opacity:1"/><stop offset="1" style="stop-color:#4f46e5;stop-opacity:1"/></linearGradient><linearGradient id="_Linear7" x1="0" y1="0" x2="1" y2="0" gradientUnits="userSpaceOnUse" gradientTransform="matrix(3.2529e-13,-5312.39,5312.39,3.2529e-13,1701.4,5312.39)"><stop offset="0" style="stop-color:#c026d3;stop-opacity:1"/><stop offset="1" style="stop-color:#4f46e5;stop-opacity:1"/></linearGradient><linearGradient id="_Linear8" x1="0" y1="0" x2="1" y2="0" gradientUnits="userSpaceOnUse" gradientTransform="matrix(3.2529e-13,-5312.39,5312.39,3.2529e-13,1701.4,5312.39)"><stop offset="0" style="stop-color:#c026d3;stop-opacity:1"/><stop offset="1" style="stop-color:#4f46e5;stop-opacity:1"/></linearGradient><linearGradient id="_Linear9" x1="0" y1="0" x2="1" y2="0" gradientUnits="userSpaceOnUse" gradientTransform="matrix(3.2529e-13,-5312.39,5312.39,3.2529e-13,1701.4,5312.39)"><stop offset="0" style="stop-color:#c026d3;stop-opacity:1"/><stop offset="1" style="stop-color:#4f46e5;stop-opacity:1"/></linearGradient><linearGradient id="_Linear10" x1="0" y1="0" x2="1" y2="0" gradientUnits="userSpaceOnUse" gradientTransform="matrix(3.2529e-13,-5312.39,5312.39,3.2529e-13,1701.4,5312.39)"><stop offset="0" style="stop-color:#c026d3;stop-opacity:1"/><stop offset="1" style="stop-color:#4f46e5;stop-opacity:1"/></linearGradient><linearGradient id="_Linear11" x1="0" y1="0" x2="1" y2="0" gradientUnits="userSpaceOnUse" gradientTransform="matrix(3.2529e-13,-5312.39,5312.39,3.2529e-13,1701.4,5312.39)"><stop offset="0" style="stop-color:#c026d3;stop-opacity:1"/><stop offset="1" style="stop-color:#4f46e5;stop-opacity:1"/></linearGradient><linearGradient id="_Linear12" x1="0" y1="0" x2="1" y2="0" gradientUnits="userSpaceOnUse" gradientTransform="matrix(3.2529e-13,-5312.39,5312.39,3.2529e-13,1701.4,5312.39)"><stop offset="0" style="stop-color:#c026d3;stop-opacity:1"/><stop offset="1" style="stop-color:#4f46e5;stop-opacity:1"/></linearGradient><linearGradient id="_Linear13" x1="0" y1="0" x2="1" y2="0" gradientUnits="userSpaceOnUse" gradientTransform="matrix(3.2529e-13,-5312.39,5312.39,3.2529e-13,1701.4,5312.39)"><stop offset="0" style="stop-color:#c026d3;stop-opacity:1"/><stop offset="1" style="stop-color:#4f46e5;stop-opacity:1"/></linearGradient></defs></svg>