<?xml version="1.0" encoding="UTF-8" standalone="no"?><!DOCTYPE svg PUBLIC "-//W3C//DTD SVG 1.1//EN" "http://www.w3.org/Graphics/SVG/1.1/DTD/svg11.dtd"><svg width="100%" height="100%" viewBox="0 0 4266 2228" version="1.1" xmlns="http://www.w3.org/2000/svg" xmlns:xlink="http://www.w3.org/1999/xlink" xml:space="preserve" xmlns:serif="http://www.serif.com/" style="fill-rule:evenodd;clip-rule:evenodd;stroke-linejoin:round;stroke-miterlimit:2;"><g><g><path d="M618.657,13.194c81.988,0 160.091,12.566 234.288,37.674c74.175,25.065 142.274,60.482 204.253,106.25c62.023,45.725 115.907,99.436 161.632,161.111c45.769,61.632 81.185,129.579 106.25,203.82c25.109,74.197 37.674,151.953 37.674,233.246c-0,82.704 -12.739,161.502 -38.195,236.372c-25.412,74.891 -61.002,143.533 -106.77,205.902c-45.725,62.327 -99.914,116.363 -162.587,162.066c-62.674,45.725 -131.294,81.142 -205.816,106.25c-74.544,25.066 -152.821,37.587 -234.809,37.587l-555.035,0l0,-1490.28l559.115,0Zm-0,1313.37c62.326,-0 121.788,-9.636 178.385,-28.907c56.597,-19.314 108.42,-46.441 155.469,-81.337c47.092,-34.895 87.934,-76.215 122.482,-123.958c34.592,-47.786 61.394,-100.173 80.382,-157.118c18.967,-56.944 28.473,-116.927 28.473,-179.948c-0,-61.675 -9.679,-120.79 -28.993,-177.344c-19.336,-56.597 -46.268,-108.441 -80.816,-155.555c-34.549,-47.092 -75.565,-88.108 -123.004,-123.004c-47.461,-34.895 -99.653,-61.827 -156.597,-80.816c-56.901,-18.967 -116.84,-28.472 -179.861,-28.472l-372.049,0l0,1136.46l376.129,-0Z" style="fill:url(#_Linear1);fill-rule:nonzero;"/><path d="M2212.58,761.372l-0,-186.025l740.017,0l0,206.424c0,109.787 -17.795,209.592 -53.385,299.392c-35.591,89.757 -86.09,167.34 -151.476,232.726c-65.408,65.408 -143.186,115.712 -233.333,150.955c-90.104,35.243 -190.061,52.864 -299.827,52.864c-83.333,0 -162.804,-12.717 -238.368,-38.107c-75.586,-25.391 -144.878,-61.48 -207.899,-108.247c-63.021,-46.745 -117.752,-101.649 -164.149,-164.67c-46.42,-63.064 -82.335,-132.552 -107.726,-208.42c-25.412,-75.912 -38.108,-155.556 -38.108,-238.889c0,-84.028 12.696,-163.824 38.108,-239.41c25.391,-75.564 61.306,-145.008 107.726,-208.333c46.397,-63.368 101.128,-118.425 164.149,-165.191c63.021,-46.745 132.465,-82.834 208.333,-108.247c75.912,-25.455 155.925,-38.194 240.018,-38.194c75.173,0 146.81,10.503 214.93,31.51c68.099,21.007 131.988,49.827 191.667,86.459l-91.493,158.507c-44.054,-28.407 -93.012,-50.912 -146.875,-67.535c-53.885,-16.602 -109.961,-24.913 -168.229,-24.913c-79.992,-0 -154.731,14.909 -224.219,44.705c-69.445,29.817 -130.447,71.158 -182.986,124.045c-52.496,52.843 -93.49,114.019 -123.004,183.507c-29.47,69.444 -44.184,143.815 -44.184,223.09c0,79.297 14.714,153.516 44.184,222.656c29.514,69.097 70.183,129.926 122.049,182.466c51.845,52.495 112.326,93.663 181.424,123.524c69.14,29.818 143.359,45.03 222.656,45.66c62.326,0.694 122.265,-8.442 179.861,-27.431c57.639,-18.967 110.503,-45.92 158.594,-80.816c48.133,-34.896 90.147,-76.389 126.041,-124.479c35.938,-48.134 63.889,-100.825 83.854,-158.073c20.009,-57.292 30.382,-117.795 31.077,-181.51l-579.427,-0Z" style="fill:url(#_Linear2);fill-rule:nonzero;"/><path d="M3686.51,958.594c46.116,-0 89.67,-8.789 130.643,-26.389c41.015,-17.643 77.278,-42.209 108.767,-73.698c31.532,-31.532 56.272,-67.795 74.219,-108.767c17.925,-41.016 26.909,-84.918 26.909,-131.684l0,-87.414c0,-48.09 -8.984,-92.795 -26.909,-134.114c-17.947,-41.363 -42.687,-77.626 -74.219,-108.768c-31.489,-31.184 -67.752,-55.577 -108.767,-73.177c-40.973,-17.643 -84.527,-26.475 -130.643,-26.475l-139.236,-0c-46.072,-0 -89.627,8.832 -130.642,26.475c-40.972,17.6 -77.235,41.819 -108.768,72.657c-31.488,30.794 -56.228,66.71 -74.218,107.725c-17.947,40.973 -26.91,84.853 -26.91,131.598l-0,976.909l-178.906,0l-0,-978.906c-0,-70.486 13.715,-136.892 41.146,-199.219c27.43,-62.37 65.191,-117.122 113.281,-164.236c48.133,-47.092 103.559,-84.028 166.232,-110.764c62.717,-26.779 129.645,-40.191 200.782,-40.191l135.243,0c71.81,0 139.236,13.585 202.257,40.712c63.021,27.083 118.402,64.714 166.146,112.847c47.786,48.091 85.243,103.516 112.326,166.233c27.127,62.674 40.712,129.579 40.712,200.694l-0,87.414c-0,71.875 -13.585,139.322 -40.712,202.343c-27.083,63.021 -64.54,118.446 -112.326,166.233c-47.744,47.743 -103.125,85.2 -166.146,112.326c-63.021,27.084 -130.447,40.625 -202.257,40.625l-273.438,0l0,363.889l-180.989,0l-0,-544.878l456.423,-0Z" style="fill:url(#_Linear3);fill-rule:nonzero;"/><path d="M614.577,213.455c75.217,-0 145.855,14.062 211.892,42.187c66.081,28.125 124.045,67.101 173.872,116.927c49.826,49.827 88.932,107.444 117.361,172.83c28.472,65.408 42.708,135.374 42.708,209.896c0,75.933 -14.236,146.94 -42.708,213.021c-28.429,66.037 -67.535,124.132 -117.361,174.306c-49.827,50.13 -107.791,89.409 -173.872,117.881c-66.037,28.473 -136.675,42.709 -211.892,42.709l-352.778,-0l0,-1089.76l352.778,-0Zm4.08,913.889c50.108,-0 97.178,-9.636 141.232,-28.906c44.098,-19.315 82.726,-46.094 115.886,-80.296c33.203,-34.244 59.136,-73.741 77.778,-118.489c18.619,-44.727 27.951,-92.839 27.951,-144.358c-0,-48.785 -9.332,-95.182 -27.951,-139.236c-18.642,-44.032 -44.575,-83.16 -77.778,-117.361c-33.16,-34.245 -71.788,-61.046 -115.886,-80.382c-44.054,-19.314 -91.124,-28.993 -141.232,-28.993l-178.907,-0l0,738.021l178.907,-0Z" style="fill:url(#_Linear4);fill-rule:nonzero;"/><path d="M2216.66,207.378c56.25,0 110.264,7.987 162.066,23.959c51.844,15.929 99.479,38.086 142.882,66.493l-88.455,160.677c-31.207,-21.007 -65.256,-37.782 -102.17,-50.347c-36.936,-12.544 -75.044,-18.837 -114.323,-18.837c-50.868,-0 -98.85,9.505 -143.924,28.472c-45.03,18.989 -84.505,45.443 -118.403,79.34c-33.854,33.855 -60.46,73.156 -79.774,117.882c-19.336,44.749 -28.993,92.861 -28.993,144.358c-0,50.825 9.483,98.589 28.472,143.316c18.967,44.748 45.399,84.071 79.254,117.969c33.897,33.854 73.22,60.46 117.968,79.774c44.727,19.336 92.492,29.319 143.316,29.948c61.676,-0 120.139,-14.714 175.348,-44.184c55.251,-29.514 99.826,-69.662 133.68,-120.486l-311.024,-0l-0,-183.941l555.989,-0c-2.669,73.155 -19.249,141.927 -49.739,206.337c-30.512,64.366 -71.181,120.79 -122.049,169.27c-50.824,48.438 -109.093,86.372 -174.826,113.803c-65.755,27.43 -135.547,41.145 -209.375,41.145c-75.933,-0.629 -147.114,-15.364 -213.542,-44.184c-66.384,-28.819 -124.653,-68.446 -174.826,-118.923c-50.13,-50.521 -89.41,-109.137 -117.882,-175.868c-28.472,-66.71 -42.709,-138.043 -42.709,-213.976c0,-76.563 14.237,-148.199 42.709,-214.931c28.472,-66.775 68.099,-125.39 118.923,-175.868c50.803,-50.52 109.571,-90.017 176.302,-118.489c66.776,-28.472 138.477,-42.709 215.105,-42.709Z" style="fill:url(#_Linear5);fill-rule:nonzero;"/><path d="M3230.09,530.642c-0,-42.708 7.769,-83.355 23.35,-121.961c15.625,-38.651 37.804,-72.874 66.58,-102.691c28.82,-29.796 62.522,-53.321 101.129,-70.573c38.65,-17.296 80.685,-25.955 126.128,-25.955l139.236,-0c44.032,-0 85.2,8.485 123.525,25.434c38.303,16.905 72.178,40.104 101.649,69.618c29.514,29.47 52.539,63.52 69.097,102.17c16.602,38.607 24.913,79.926 24.913,123.958l0,87.414c0,43.402 -8.311,84.44 -24.913,123.09c-16.558,38.607 -39.583,72.309 -69.097,101.128c-29.471,28.776 -63.346,51.454 -101.649,68.056c-38.325,16.623 -79.493,24.913 -123.525,24.913l-456.423,0l-0,-404.601Zm592.621,0c0,-26.432 -6.293,-50.173 -18.837,-71.18c-12.5,-21.007 -28.906,-37.761 -49.218,-50.261c-20.313,-12.543 -43.034,-18.836 -68.143,-18.836l-139.236,-0c-25.065,-0 -47.96,6.293 -68.663,18.836c-20.66,12.5 -37.109,29.254 -49.306,50.261c-12.152,21.007 -18.229,44.748 -18.229,71.18l0,225.695l275.434,-0c25.109,-0 47.83,-6.25 68.143,-18.75c20.312,-12.544 36.718,-29.34 49.218,-50.347c12.544,-21.051 18.837,-44.119 18.837,-69.184l0,-87.414Z" style="fill:url(#_Linear6);fill-rule:nonzero;"/></g><g><clipPath id="_clip7"><path d="M57.639,1660.94l4150.22,0c15.278,0 29.948,6.055 40.755,16.884c10.807,10.807 16.884,25.456 16.884,40.755c-0,15.278 -6.077,29.948 -16.884,40.755c-10.807,10.808 -25.477,16.884 -40.755,16.884l-4150.22,-0c-15.3,-0 -29.948,-6.076 -40.755,-16.884c-10.829,-10.807 -16.884,-25.477 -16.884,-40.755c-0,-15.299 6.055,-29.948 16.884,-40.755c10.807,-10.829 25.455,-16.884 40.755,-16.884Z"/></clipPath><g clip-path="url(#_clip7)"><g><g><g><g><clipPath id="_clip8"><path d="M57.639,1660.94l4150.22,0c15.278,0 29.948,6.055 40.755,16.884c10.807,10.807 16.884,25.456 16.884,40.755c-0,15.278 -6.077,29.948 -16.884,40.755c-10.807,10.808 -25.477,16.884 -40.755,16.884l-4150.22,-0c-15.3,-0 -29.948,-6.076 -40.755,-16.884c-10.829,-10.807 -16.884,-25.477 -16.884,-40.755c-0,-15.299 6.055,-29.948 16.884,-40.755c10.807,-10.829 25.455,-16.884 40.755,-16.884Z"/></clipPath><g clip-path="url(#_clip8)"><rect x="0" y="1660.94" width="4265.49" height="115.278" style="fill:url(#_Linear9);fill-rule:nonzero;"/></g></g></g></g></g></g></g><g><g><g><path d="M46.12,1917.19l105.295,-0c25.694,-0 48.524,4.991 68.49,14.93c19.965,9.961 35.438,24.089 46.44,42.362c11.046,18.229 16.58,39.279 16.58,63.107c0,23.915 -5.534,44.965 -16.58,63.195c-11.002,18.229 -26.475,32.356 -46.44,42.361c-19.966,9.961 -42.796,14.93 -68.49,14.93l-105.295,0l-0,-240.885Zm103.212,203.038c17.708,0 33.246,-3.385 46.614,-10.156c13.412,-6.771 23.741,-16.406 30.99,-28.906c7.226,-12.5 10.85,-27.019 10.85,-43.577c0,-16.493 -3.624,-30.989 -10.85,-43.489c-7.249,-12.5 -17.578,-22.136 -30.99,-28.907c-13.368,-6.77 -28.906,-10.156 -46.614,-10.156l-58.507,0l-0,165.191l58.507,0Z" style="fill:url(#_Linear10);fill-rule:nonzero;"/></g></g><g><g><path d="M326.228,1974.31l43.055,-0l0,183.767l-43.055,0l-0,-183.767Zm21.701,-30.295c-7.812,-0 -14.388,-2.452 -19.705,-7.379c-5.273,-4.969 -7.899,-11.132 -7.899,-18.489c-0,-7.292 2.626,-13.39 7.899,-18.316c5.317,-4.97 11.893,-7.465 19.705,-7.465c7.747,-0 14.258,2.387 19.531,7.118c5.317,4.687 7.986,10.59 7.986,17.708c0,7.53 -2.604,13.889 -7.812,19.097c-5.165,5.165 -11.719,7.726 -19.705,7.726Z" style="fill:url(#_Linear11);fill-rule:nonzero;"/></g></g><g><g><path d="M608.155,1974.31l-0,155.903c-0,64.692 -33.052,97.048 -99.132,97.048c-17.709,0 -34.506,-2.257 -50.348,-6.77c-15.798,-4.471 -28.862,-10.916 -39.149,-19.358l19.271,-32.379c8.029,6.641 18.186,11.98 30.469,15.973c12.261,4.036 24.696,6.076 37.326,6.076c20.182,0 34.983,-4.601 44.358,-13.802c9.418,-9.201 14.149,-23.199 14.149,-42.014l0,-9.635c-7.357,8.051 -16.319,14.149 -26.91,18.316c-10.547,4.123 -22.113,6.163 -34.722,6.163c-17.426,-0 -33.203,-3.733 -47.309,-11.198c-14.128,-7.465 -25.26,-17.969 -33.42,-31.511c-8.116,-13.541 -12.153,-29.014 -12.153,-46.441c0,-17.404 4.037,-32.834 12.153,-46.267c8.16,-13.411 19.292,-23.806 33.42,-31.163c14.106,-7.335 29.883,-11.024 47.309,-11.024c13.303,-0 25.391,2.213 36.285,6.597c10.937,4.34 20.074,10.981 27.43,19.878l0,-24.392l40.973,-0Zm-98.091,139.062c16.255,0 29.601,-4.861 40.018,-14.583c10.46,-9.765 15.711,-22.483 15.711,-38.108c0,-15.386 -5.251,-27.886 -15.711,-37.5c-10.417,-9.657 -23.763,-14.496 -40.018,-14.496c-16.558,-0 -30.078,4.839 -40.538,14.496c-10.417,9.614 -15.625,22.114 -15.625,37.5c0,15.625 5.208,28.343 15.625,38.108c10.46,9.722 23.98,14.583 40.538,14.583Z" style="fill:url(#_Linear12);fill-rule:nonzero;"/></g></g><g><g><path d="M664.535,1974.31l43.056,-0l-0,183.767l-43.056,0l-0,-183.767Zm21.701,-30.295c-7.812,-0 -14.388,-2.452 -19.705,-7.379c-5.273,-4.969 -7.899,-11.132 -7.899,-18.489c0,-7.292 2.626,-13.39 7.899,-18.316c5.317,-4.97 11.893,-7.465 19.705,-7.465c7.748,-0 14.258,2.387 19.532,7.118c5.316,4.687 7.986,10.59 7.986,17.708c-0,7.53 -2.604,13.889 -7.813,19.097c-5.165,5.165 -11.719,7.726 -19.705,7.726Z" style="fill:url(#_Linear13);fill-rule:nonzero;"/></g></g><g><g><path d="M874.5,2148.09c-5.035,4.123 -11.176,7.205 -18.403,9.288c-7.248,2.083 -14.887,3.125 -22.916,3.125c-20.204,-0 -35.808,-5.252 -46.789,-15.799c-11.002,-10.59 -16.493,-25.976 -16.493,-46.18l0,-88.455l-30.295,-0l0,-34.375l30.295,-0l0,-42.014l42.969,-0l0,42.014l49.219,-0l-0,34.375l-49.219,-0l0,87.413c0,8.984 2.17,15.799 6.511,20.486c4.383,4.688 10.72,7.031 19.01,7.031c9.592,0 17.621,-2.517 24.045,-7.552l12.066,30.643Z" style="fill:url(#_Linear14);fill-rule:nonzero;"/></g></g><g><g><path d="M980.145,1972.22c27.084,-0 47.765,6.488 62.066,19.444c14.345,12.977 21.528,32.53 21.528,58.681l0,107.725l-40.538,0l-0,-22.396c-5.339,8.052 -12.891,14.215 -22.656,18.49c-9.723,4.21 -21.485,6.337 -35.243,6.337c-13.716,-0 -25.76,-2.344 -36.112,-7.031c-10.308,-4.731 -18.294,-11.285 -23.958,-19.618c-5.621,-8.377 -8.42,-17.882 -8.42,-28.473c-0,-16.493 6.12,-29.709 18.403,-39.67c12.326,-10.004 31.684,-15.017 58.073,-15.017l47.482,-0l0,-2.778c0,-12.847 -3.863,-22.7 -11.545,-29.601c-7.704,-6.879 -19.097,-10.329 -34.201,-10.329c-10.373,-0 -20.551,1.627 -30.556,4.861c-9.961,3.19 -18.381,7.639 -25.26,13.368l-16.84,-31.25c9.592,-7.335 21.18,-12.956 34.722,-16.841c13.541,-3.928 27.886,-5.902 43.055,-5.902Zm-5.816,156.944c10.764,0 20.313,-2.452 28.646,-7.378c8.377,-4.97 14.323,-12.023 17.795,-21.181l0,-21.354l-44.444,-0c-24.783,-0 -37.153,8.16 -37.153,24.479c0,7.769 3.082,13.954 9.288,18.576c6.185,4.579 14.801,6.858 25.868,6.858Z" style="fill:url(#_Linear15);fill-rule:nonzero;"/></g></g><g><g><rect x="1118.82" y="1902.69" width="43.056" height="255.382" style="fill:url(#_Linear16);fill-rule:nonzero;"/></g></g><g><g><path d="M1481.94,2034.89l42.361,0l0,96.007c-12.391,9.853 -26.866,17.426 -43.403,22.743c-16.493,5.252 -33.485,7.9 -50.954,7.9c-24.545,-0 -46.68,-5.317 -66.407,-15.973c-19.748,-10.698 -35.243,-25.455 -46.527,-44.271c-11.242,-18.793 -16.841,-40.039 -16.841,-63.715c0,-23.611 5.599,-44.813 16.841,-63.628c11.284,-18.794 26.844,-33.529 46.701,-44.184c19.835,-10.699 42.144,-16.059 66.927,-16.059c20.182,-0 38.542,3.342 55.035,9.982c16.536,6.663 30.425,16.407 41.666,29.254l-28.211,27.517c-18.36,-18.338 -40.495,-27.517 -66.407,-27.517c-16.97,-0 -32.031,3.559 -45.225,10.677c-13.195,7.118 -23.525,17.101 -30.99,29.948c-7.465,12.847 -11.198,27.517 -11.198,44.01c0,16.103 3.733,30.556 11.198,43.403c7.465,12.847 17.795,22.96 30.99,30.295c13.194,7.357 28.146,11.024 44.878,11.024c18.794,0 35.33,-4.123 49.566,-12.413l0,-75Z" style="fill:url(#_Linear17);fill-rule:nonzero;"/></g></g><g><g><path d="M1619.93,2001.13c12.37,-19.271 34.158,-28.906 65.365,-28.906l-0,40.972c-3.646,-0.695 -6.988,-1.042 -9.983,-1.042c-16.732,0 -29.818,4.905 -39.236,14.67c-9.375,9.723 -14.063,23.763 -14.063,42.101l0,89.149l-43.055,0l-0,-183.767l40.972,-0l0,26.823Z" style="fill:url(#_Linear18);fill-rule:nonzero;"/></g></g><g><g><path d="M1802.71,2160.5c-18.576,-0 -35.329,-4.015 -50.26,-12.066c-14.931,-8.03 -26.606,-19.206 -34.983,-33.507c-8.333,-14.345 -12.5,-30.599 -12.5,-48.785c0,-18.099 4.167,-34.288 12.5,-48.524c8.377,-14.236 20.052,-25.347 34.983,-33.333c14.931,-8.03 31.684,-12.066 50.26,-12.066c18.794,-0 35.634,4.036 50.521,12.066c14.931,7.986 26.584,19.097 34.983,33.333c8.377,14.236 12.587,30.425 12.587,48.524c-0,18.186 -4.21,34.44 -12.587,48.785c-8.399,14.301 -20.052,25.477 -34.983,33.507c-14.887,8.051 -31.727,12.066 -50.521,12.066Zm0,-36.806c15.799,0 28.842,-5.251 39.15,-15.798c10.351,-10.591 15.538,-24.501 15.538,-41.754c-0,-17.187 -5.187,-31.033 -15.538,-41.58c-10.308,-10.59 -23.351,-15.885 -39.15,-15.885c-15.863,-0 -28.906,5.295 -39.149,15.885c-10.2,10.547 -15.278,24.393 -15.278,41.58c0,17.253 5.078,31.163 15.278,41.754c10.243,10.547 23.286,15.798 39.149,15.798Z" style="fill:url(#_Linear19);fill-rule:nonzero;"/></g></g><g><g><path d="M2223.61,1974.31l-67.796,183.767l-41.319,0l-47.483,-126.649l-48.177,126.649l-41.319,0l-67.448,-183.767l40.625,-0l48.524,135.59l50.608,-135.59l36.111,-0l49.566,136.285l49.913,-136.285l38.195,-0Z" style="fill:url(#_Linear20);fill-rule:nonzero;"/></g></g><g><g><path d="M2368.83,2148.09c-5.034,4.123 -11.176,7.205 -18.402,9.288c-7.249,2.083 -14.888,3.125 -22.917,3.125c-20.204,-0 -35.807,-5.252 -46.788,-15.799c-11.003,-10.59 -16.493,-25.976 -16.493,-46.18l-0,-88.455l-30.296,-0l0,-34.375l30.296,-0l-0,-42.014l42.968,-0l0,42.014l49.219,-0l0,34.375l-49.219,-0l0,87.413c0,8.984 2.17,15.799 6.511,20.486c4.383,4.688 10.72,7.031 19.01,7.031c9.592,0 17.622,-2.517 24.045,-7.552l12.066,30.643Z" style="fill:url(#_Linear21);fill-rule:nonzero;"/></g></g><g><g><path d="M2508.59,1972.22c23.134,-0 41.71,6.77 55.729,20.312c13.997,13.542 21.007,33.637 21.007,60.243l-0,105.295l-43.056,0l0,-99.826c0,-16.016 -3.797,-28.125 -11.371,-36.285c-7.596,-8.16 -18.36,-12.239 -32.292,-12.239c-15.864,-0 -28.385,4.774 -37.587,14.323c-9.158,9.505 -13.715,23.177 -13.715,41.059l0,92.968l-43.055,0l-0,-255.382l43.055,0l0,92.969c7.118,-7.574 15.886,-13.368 26.302,-17.361c10.417,-4.036 22.071,-6.076 34.983,-6.076Z" style="fill:url(#_Linear22);fill-rule:nonzero;"/></g></g><g><g><path d="M2838.29,1917.19c20.834,-0 38.998,3.45 54.514,10.33c15.495,6.836 27.366,16.666 35.59,29.514c8.269,12.847 12.414,28.125 12.414,45.833c-0,17.426 -4.145,32.617 -12.414,45.573c-8.224,12.977 -20.095,22.895 -35.59,29.774c-15.516,6.901 -33.68,10.33 -54.514,10.33l-54.427,0l0,69.531l-44.705,0l0,-240.885l99.132,-0Zm-2.083,133.507c19.488,-0 34.288,-4.123 44.358,-12.413c10.112,-8.269 15.191,-20.074 15.191,-35.417c-0,-15.386 -5.079,-27.192 -15.191,-35.417c-10.07,-8.268 -24.87,-12.413 -44.358,-12.413l-52.344,0l0,95.66l52.344,-0Z" style="fill:url(#_Linear23);fill-rule:nonzero;"/></g></g><g><g><path d="M3049.91,1972.22c27.084,-0 47.765,6.488 62.066,19.444c14.345,12.977 21.528,32.53 21.528,58.681l0,107.725l-40.538,0l-0,-22.396c-5.339,8.052 -12.891,14.215 -22.656,18.49c-9.723,4.21 -21.485,6.337 -35.243,6.337c-13.716,-0 -25.76,-2.344 -36.111,-7.031c-10.309,-4.731 -18.295,-11.285 -23.959,-19.618c-5.62,-8.377 -8.42,-17.882 -8.42,-28.473c0,-16.493 6.12,-29.709 18.403,-39.67c12.326,-10.004 31.684,-15.017 58.073,-15.017l47.482,-0l0,-2.778c0,-12.847 -3.862,-22.7 -11.545,-29.601c-7.704,-6.879 -19.097,-10.329 -34.201,-10.329c-10.373,-0 -20.551,1.627 -30.556,4.861c-9.961,3.19 -18.381,7.639 -25.26,13.368l-16.84,-31.25c9.592,-7.335 21.18,-12.956 34.722,-16.841c13.542,-3.928 27.886,-5.902 43.055,-5.902Zm-5.816,156.944c10.764,0 20.313,-2.452 28.646,-7.378c8.377,-4.97 14.323,-12.023 17.795,-21.181l0,-21.354l-44.444,-0c-24.783,-0 -37.153,8.16 -37.153,24.479c0,7.769 3.082,13.954 9.288,18.576c6.185,4.579 14.801,6.858 25.868,6.858Z" style="fill:url(#_Linear24);fill-rule:nonzero;"/></g></g><g><g><path d="M3229.56,2001.13c12.37,-19.271 34.158,-28.906 65.365,-28.906l-0,40.972c-3.646,-0.695 -6.988,-1.042 -9.983,-1.042c-16.732,0 -29.818,4.905 -39.236,14.67c-9.375,9.723 -14.063,23.763 -14.063,42.101l0,89.149l-43.055,0l-0,-183.767l40.972,-0l-0,26.823Z" style="fill:url(#_Linear25);fill-rule:nonzero;"/></g></g><g><g><path d="M3448.8,2148.09c-5.035,4.123 -11.176,7.205 -18.403,9.288c-7.248,2.083 -14.887,3.125 -22.916,3.125c-20.204,-0 -35.808,-5.252 -46.789,-15.799c-11.002,-10.59 -16.493,-25.976 -16.493,-46.18l0,-88.455l-30.295,-0l0,-34.375l30.295,-0l0,-42.014l42.969,-0l0,42.014l49.219,-0l-0,34.375l-49.219,-0l0,87.413c0,8.984 2.17,15.799 6.511,20.486c4.383,4.688 10.72,7.031 19.01,7.031c9.592,0 17.621,-2.517 24.045,-7.552l12.066,30.643Z" style="fill:url(#_Linear26);fill-rule:nonzero;"/></g></g><g><g><path d="M3588.56,1972.22c23.134,-0 41.71,6.77 55.729,20.312c13.997,13.542 21.007,33.637 21.007,60.243l-0,105.295l-43.056,0l0,-99.826c0,-16.016 -3.797,-28.125 -11.371,-36.285c-7.596,-8.16 -18.359,-12.239 -32.292,-12.239c-15.863,-0 -28.385,4.774 -37.587,14.323c-9.158,9.505 -13.715,23.177 -13.715,41.059l0,92.968l-43.055,0l-0,-183.767l40.972,-0l-0,23.698c7.118,-8.442 16.059,-14.844 26.823,-19.184c10.807,-4.384 23.003,-6.597 36.545,-6.597Z" style="fill:url(#_Linear27);fill-rule:nonzero;"/></g></g><g><g><path d="M3894.52,2067.19c-0,3.016 -0.239,7.27 -0.695,12.76l-144.271,0c2.539,13.542 9.137,24.284 19.792,32.205c10.699,7.878 23.958,11.806 39.757,11.806c20.182,-0 36.827,-6.641 49.913,-19.966l23.09,26.563c-8.289,9.852 -18.728,17.318 -31.336,22.396c-12.631,5.035 -26.867,7.552 -42.709,7.552c-20.204,-0 -37.999,-4.015 -53.385,-12.066c-15.343,-8.03 -27.214,-19.206 -35.59,-33.507c-8.334,-14.345 -12.5,-30.599 -12.5,-48.785c-0,-17.882 4.036,-33.984 12.152,-48.35c8.16,-14.345 19.467,-25.521 33.941,-33.507c14.453,-8.03 30.751,-12.066 48.872,-12.066c17.882,-0 33.876,3.971 48.003,11.892c14.106,7.878 25.131,18.989 33.073,33.333c7.921,14.367 11.893,30.946 11.893,49.74Zm-92.969,-60.59c-13.78,-0 -25.434,4.079 -34.983,12.239c-9.505,8.16 -15.278,19.011 -17.361,32.552l104.34,0c-1.866,-13.303 -7.508,-24.088 -16.927,-32.378c-9.375,-8.268 -21.072,-12.413 -35.069,-12.413Z" style="fill:url(#_Linear28);fill-rule:nonzero;"/></g></g><g><g><path d="M3976.73,2001.13c12.37,-19.271 34.158,-28.906 65.365,-28.906l-0,40.972c-3.646,-0.695 -6.988,-1.042 -9.983,-1.042c-16.732,0 -29.818,4.905 -39.236,14.67c-9.375,9.723 -14.062,23.763 -14.062,42.101l-0,89.149l-43.056,0l0,-183.767l40.972,-0l0,26.823Z" style="fill:url(#_Linear29);fill-rule:nonzero;"/></g></g><g><g><path d="M4136.04,2160.5c-14.887,-0 -29.427,-1.953 -43.664,-5.816c-14.236,-3.928 -25.607,-8.876 -34.114,-14.844l16.58,-32.726c8.203,5.513 18.099,9.94 29.687,13.282c11.632,3.298 23.047,4.948 34.288,4.948c25.695,-0 38.542,-6.771 38.542,-20.313c0,-6.423 -3.277,-10.872 -9.809,-13.368c-6.554,-2.539 -17.057,-4.97 -31.51,-7.292c-15.104,-2.257 -27.431,-4.861 -36.979,-7.812c-9.506,-2.995 -17.752,-8.247 -24.74,-15.712c-7.01,-7.465 -10.504,-17.838 -10.504,-31.163c0,-17.405 7.249,-31.337 21.789,-41.754c14.583,-10.46 34.244,-15.711 59.027,-15.711c12.674,-0 25.304,1.454 37.934,4.34c12.609,2.843 22.917,6.662 30.903,11.458l-16.493,32.726c-15.581,-9.201 -33.116,-13.802 -52.604,-13.802c-12.674,-0 -22.287,1.91 -28.819,5.729c-6.554,3.776 -9.809,8.746 -9.809,14.931c-0,6.901 3.493,11.783 10.503,14.67c6.988,2.843 17.839,5.534 32.552,8.073c14.692,2.322 26.736,4.991 36.111,7.986c9.419,2.951 17.535,7.986 24.306,15.104c6.771,7.118 10.156,17.231 10.156,30.295c0,17.188 -7.465,30.968 -22.396,41.319c-14.93,10.309 -35.243,15.452 -60.937,15.452Z" style="fill:url(#_Linear30);fill-rule:nonzero;"/></g></g></g></g><defs><linearGradient id="_Linear1" x1="0" y1="0" x2="1" y2="0" gradientUnits="userSpaceOnUse" gradientTransform="matrix(4223.94,0,0,4223.94,8.17837,1113.63)"><stop offset="0" style="stop-color:#4f46e5;stop-opacity:1"/><stop offset="1" style="stop-color:#c026d3;stop-opacity:1"/></linearGradient><linearGradient id="_Linear2" x1="0" y1="0" x2="1" y2="0" gradientUnits="userSpaceOnUse" gradientTransform="matrix(4223.94,0,0,4223.94,8.17837,1113.63)"><stop offset="0" style="stop-color:#4f46e5;stop-opacity:1"/><stop offset="1" style="stop-color:#c026d3;stop-opacity:1"/></linearGradient><linearGradient id="_Linear3" x1="0" y1="0" x2="1" y2="0" gradientUnits="userSpaceOnUse" gradientTransform="matrix(4223.94,0,0,4223.94,8.17837,1113.63)"><stop offset="0" style="stop-color:#4f46e5;stop-opacity:1"/><stop offset="1" style="stop-color:#c026d3;stop-opacity:1"/></linearGradient><linearGradient id="_Linear4" x1="0" y1="0" x2="1" y2="0" gradientUnits="userSpaceOnUse" gradientTransform="matrix(4223.94,0,0,4223.94,8.17837,1113.63)"><stop offset="0" style="stop-color:#4f46e5;stop-opacity:1"/><stop offset="1" style="stop-color:#c026d3;stop-opacity:1"/></linearGradient><linearGradient id="_Linear5" x1="0" y1="0" x2="1" y2="0" gradientUnits="userSpaceOnUse" gradientTransform="matrix(4223.94,0,0,4223.94,8.17837,1113.63)"><stop offset="0" style="stop-color:#4f46e5;stop-opacity:1"/><stop offset="1" style="stop-color:#c026d3;stop-opacity:1"/></linearGradient><linearGradient id="_Linear6" x1="0" y1="0" x2="1" y2="0" gradientUnits="userSpaceOnUse" gradientTransform="matrix(4223.94,0,0,4223.94,8.17837,1113.63)"><stop offset="0" style="stop-color:#4f46e5;stop-opacity:1"/><stop offset="1" style="stop-color:#c026d3;stop-opacity:1"/></linearGradient><linearGradient id="_Linear9" x1="0" y1="0" x2="1" y2="0" gradientUnits="userSpaceOnUse" gradientTransform="matrix(4223.94,0,0,4223.94,-3.28626e-14,1100.09)"><stop offset="0" style="stop-color:#4f46e5;stop-opacity:1"/><stop offset="1" style="stop-color:#c026d3;stop-opacity:1"/></linearGradient><linearGradient id="_Linear10" x1="0" y1="0" x2="1" y2="0" gradientUnits="userSpaceOnUse" gradientTransform="matrix(4223.94,0,0,4223.94,-11.6875,1113.63)"><stop offset="0" style="stop-color:#4f46e5;stop-opacity:1"/><stop offset="1" style="stop-color:#c026d3;stop-opacity:1"/></linearGradient><linearGradient id="_Linear11" x1="0" y1="0" x2="1" y2="0" gradientUnits="userSpaceOnUse" gradientTransform="matrix(4223.94,0,0,4223.94,-11.6875,1113.63)"><stop offset="0" style="stop-color:#4f46e5;stop-opacity:1"/><stop offset="1" style="stop-color:#c026d3;stop-opacity:1"/></linearGradient><linearGradient id="_Linear12" x1="0" y1="0" x2="1" y2="0" gradientUnits="userSpaceOnUse" gradientTransform="matrix(4223.94,0,0,4223.94,-11.6875,1113.63)"><stop offset="0" style="stop-color:#4f46e5;stop-opacity:1"/><stop offset="1" style="stop-color:#c026d3;stop-opacity:1"/></linearGradient><linearGradient id="_Linear13" x1="0" y1="0" x2="1" y2="0" gradientUnits="userSpaceOnUse" gradientTransform="matrix(4223.94,0,0,4223.94,-11.6875,1113.63)"><stop offset="0" style="stop-color:#4f46e5;stop-opacity:1"/><stop offset="1" style="stop-color:#c026d3;stop-opacity:1"/></linearGradient><linearGradient id="_Linear14" x1="0" y1="0" x2="1" y2="0" gradientUnits="userSpaceOnUse" gradientTransform="matrix(4223.94,0,0,4223.94,-11.6875,1113.63)"><stop offset="0" style="stop-color:#4f46e5;stop-opacity:1"/><stop offset="1" style="stop-color:#c026d3;stop-opacity:1"/></linearGradient><linearGradient id="_Linear15" x1="0" y1="0" x2="1" y2="0" gradientUnits="userSpaceOnUse" gradientTransform="matrix(4223.94,0,0,4223.94,-11.6875,1113.63)"><stop offset="0" style="stop-color:#4f46e5;stop-opacity:1"/><stop offset="1" style="stop-color:#c026d3;stop-opacity:1"/></linearGradient><linearGradient id="_Linear16" x1="0" y1="0" x2="1" y2="0" gradientUnits="userSpaceOnUse" gradientTransform="matrix(4223.94,0,0,4223.94,-11.6875,1113.63)"><stop offset="0" style="stop-color:#4f46e5;stop-opacity:1"/><stop offset="1" style="stop-color:#c026d3;stop-opacity:1"/></linearGradient><linearGradient id="_Linear17" x1="0" y1="0" x2="1" y2="0" gradientUnits="userSpaceOnUse" gradientTransform="matrix(4223.94,0,0,4223.94,-11.6875,1113.63)"><stop offset="0" style="stop-color:#4f46e5;stop-opacity:1"/><stop offset="1" style="stop-color:#c026d3;stop-opacity:1"/></linearGradient><linearGradient id="_Linear18" x1="0" y1="0" x2="1" y2="0" gradientUnits="userSpaceOnUse" gradientTransform="matrix(4223.94,0,0,4223.94,-11.6875,1113.63)"><stop offset="0" style="stop-color:#4f46e5;stop-opacity:1"/><stop offset="1" style="stop-color:#c026d3;stop-opacity:1"/></linearGradient><linearGradient id="_Linear19" x1="0" y1="0" x2="1" y2="0" gradientUnits="userSpaceOnUse" gradientTransform="matrix(4223.94,0,0,4223.94,-11.6875,1113.63)"><stop offset="0" style="stop-color:#4f46e5;stop-opacity:1"/><stop offset="1" style="stop-color:#c026d3;stop-opacity:1"/></linearGradient><linearGradient id="_Linear20" x1="0" y1="0" x2="1" y2="0" gradientUnits="userSpaceOnUse" gradientTransform="matrix(4223.94,0,0,4223.94,-11.6875,1113.63)"><stop offset="0" style="stop-color:#4f46e5;stop-opacity:1"/><stop offset="1" style="stop-color:#c026d3;stop-opacity:1"/></linearGradient><linearGradient id="_Linear21" x1="0" y1="0" x2="1" y2="0" gradientUnits="userSpaceOnUse" gradientTransform="matrix(4223.94,0,0,4223.94,-11.6875,1113.63)"><stop offset="0" style="stop-color:#4f46e5;stop-opacity:1"/><stop offset="1" style="stop-color:#c026d3;stop-opacity:1"/></linearGradient><linearGradient id="_Linear22" x1="0" y1="0" x2="1" y2="0" gradientUnits="userSpaceOnUse" gradientTransform="matrix(4223.94,0,0,4223.94,-11.6875,1113.63)"><stop offset="0" style="stop-color:#4f46e5;stop-opacity:1"/><stop offset="1" style="stop-color:#c026d3;stop-opacity:1"/></linearGradient><linearGradient id="_Linear23" x1="0" y1="0" x2="1" y2="0" gradientUnits="userSpaceOnUse" gradientTransform="matrix(4223.94,0,0,4223.94,-11.6875,1113.63)"><stop offset="0" style="stop-color:#4f46e5;stop-opacity:1"/><stop offset="1" style="stop-color:#c026d3;stop-opacity:1"/></linearGradient><linearGradient id="_Linear24" x1="0" y1="0" x2="1" y2="0" gradientUnits="userSpaceOnUse" gradientTransform="matrix(4223.94,0,0,4223.94,-11.6875,1113.63)"><stop offset="0" style="stop-color:#4f46e5;stop-opacity:1"/><stop offset="1" style="stop-color:#c026d3;stop-opacity:1"/></linearGradient><linearGradient id="_Linear25" x1="0" y1="0" x2="1" y2="0" gradientUnits="userSpaceOnUse" gradientTransform="matrix(4223.94,0,0,4223.94,-11.6875,1113.63)"><stop offset="0" style="stop-color:#4f46e5;stop-opacity:1"/><stop offset="1" style="stop-color:#c026d3;stop-opacity:1"/></linearGradient><linearGradient id="_Linear26" x1="0" y1="0" x2="1" y2="0" gradientUnits="userSpaceOnUse" gradientTransform="matrix(4223.94,0,0,4223.94,-11.6875,1113.63)"><stop offset="0" style="stop-color:#4f46e5;stop-opacity:1"/><stop offset="1" style="stop-color:#c026d3;stop-opacity:1"/></linearGradient><linearGradient id="_Linear27" x1="0" y1="0" x2="1" y2="0" gradientUnits="userSpaceOnUse" gradientTransform="matrix(4223.94,0,0,4223.94,-11.6875,1113.63)"><stop offset="0" style="stop-color:#4f46e5;stop-opacity:1"/><stop offset="1" style="stop-color:#c026d3;stop-opacity:1"/></linearGradient><linearGradient id="_Linear28" x1="0" y1="0" x2="1" y2="0" gradientUnits="userSpaceOnUse" gradientTransform="matrix(4223.94,0,0,4223.94,-11.6875,1113.63)"><stop offset="0" style="stop-color:#4f46e5;stop-opacity:1"/><stop offset="1" style="stop-color:#c026d3;stop-opacity:1"/></linearGradient><linearGradient id="_Linear29" x1="0" y1="0" x2="1" y2="0" gradientUnits="userSpaceOnUse" gradientTransform="matrix(4223.94,0,0,4223.94,-11.6875,1113.63)"><stop offset="0" style="stop-color:#4f46e5;stop-opacity:1"/><stop offset="1" style="stop-color:#c026d3;stop-opacity:1"/></linearGradient><linearGradient id="_Linear30" x1="0" y1="0" x2="1" y2="0" gradientUnits="userSpaceOnUse" gradientTransform="matrix(4223.94,0,0,4223.94,-11.6875,1113.63)"><stop offset="0" style="stop-color:#4f46e5;stop-opacity:1"/><stop offset="1" style="stop-color:#c026d3;stop-opacity:1"/></linearGradient></defs></svg>