<?xml version="1.0" encoding="UTF-8" standalone="no"?><!DOCTYPE svg PUBLIC "-//W3C//DTD SVG 1.1//EN" "http://www.w3.org/Graphics/SVG/1.1/DTD/svg11.dtd"><svg width="100%" height="100%" viewBox="0 0 4147 2013" version="1.1" xmlns="http://www.w3.org/2000/svg" xmlns:xlink="http://www.w3.org/1999/xlink" xml:space="preserve" xmlns:serif="http://www.serif.com/" style="fill-rule:evenodd;clip-rule:evenodd;stroke-linejoin:round;stroke-miterlimit:2;"><g><path d="M559.115,13.194c81.987,0 160.091,12.566 234.288,37.674c74.175,25.065 142.274,60.482 204.253,106.25c62.023,45.725 115.907,99.436 161.632,161.111c45.768,61.632 81.185,129.579 106.25,203.82c25.109,74.197 37.674,151.953 37.674,233.246c-0,82.704 -12.739,161.502 -38.195,236.372c-25.412,74.891 -61.002,143.533 -106.77,205.902c-45.725,62.327 -99.914,116.363 -162.587,162.066c-62.674,45.725 -131.294,81.142 -205.816,106.25c-74.545,25.066 -152.821,37.587 -234.809,37.587l-555.035,0l0,-1490.28l559.115,0Zm-0,1313.37c62.326,-0 121.788,-9.636 178.385,-28.907c56.597,-19.314 108.42,-46.441 155.469,-81.337c47.092,-34.895 87.934,-76.215 122.482,-123.958c34.592,-47.786 61.394,-100.173 80.382,-157.118c18.967,-56.944 28.473,-116.927 28.473,-179.948c-0,-61.675 -9.679,-120.79 -28.993,-177.344c-19.336,-56.597 -46.268,-108.441 -80.816,-155.555c-34.549,-47.092 -75.565,-88.108 -123.004,-123.004c-47.461,-34.895 -99.653,-61.827 -156.597,-80.816c-56.901,-18.967 -116.84,-28.472 -179.861,-28.472l-372.049,0l0,1136.46l376.129,-0Z" style="fill:url(#_Linear1);fill-rule:nonzero;"/><path d="M2153.03,761.372l-0,-186.025l740.017,0l0,206.424c0,109.787 -17.795,209.592 -53.385,299.392c-35.591,89.757 -86.09,167.34 -151.476,232.726c-65.408,65.408 -143.186,115.712 -233.333,150.955c-90.105,35.243 -190.061,52.864 -299.827,52.864c-83.333,0 -162.804,-12.717 -238.368,-38.107c-75.586,-25.391 -144.878,-61.48 -207.899,-108.247c-63.021,-46.745 -117.752,-101.649 -164.149,-164.67c-46.42,-63.064 -82.336,-132.552 -107.726,-208.42c-25.412,-75.912 -38.108,-155.556 -38.108,-238.889c0,-84.028 12.696,-163.824 38.108,-239.41c25.39,-75.564 61.306,-145.008 107.726,-208.333c46.397,-63.368 101.128,-118.425 164.149,-165.191c63.021,-46.745 132.465,-82.834 208.333,-108.247c75.912,-25.455 155.925,-38.194 240.018,-38.194c75.173,0 146.809,10.503 214.93,31.51c68.099,21.007 131.988,49.827 191.667,86.459l-91.493,158.507c-44.054,-28.407 -93.012,-50.912 -146.875,-67.535c-53.885,-16.602 -109.961,-24.913 -168.229,-24.913c-79.992,-0 -154.731,14.909 -224.219,44.705c-69.445,29.817 -130.447,71.158 -182.986,124.045c-52.496,52.843 -93.49,114.019 -123.004,183.507c-29.47,69.444 -44.184,143.815 -44.184,223.09c0,79.297 14.714,153.516 44.184,222.656c29.514,69.097 70.182,129.926 122.049,182.466c51.844,52.495 112.326,93.663 181.423,123.524c69.141,29.818 143.36,45.03 222.657,45.66c62.326,0.694 122.265,-8.442 179.861,-27.431c57.639,-18.967 110.503,-45.92 158.594,-80.816c48.133,-34.896 90.147,-76.389 126.041,-124.479c35.938,-48.134 63.889,-100.825 83.854,-158.073c20.009,-57.292 30.382,-117.795 31.077,-181.51l-579.427,-0Z" style="fill:url(#_Linear2);fill-rule:nonzero;"/><path d="M3626.97,958.594c46.116,-0 89.67,-8.789 130.643,-26.389c41.015,-17.643 77.278,-42.209 108.767,-73.698c31.532,-31.532 56.272,-67.795 74.219,-108.767c17.925,-41.016 26.909,-84.918 26.909,-131.684l0,-87.414c0,-48.09 -8.984,-92.795 -26.909,-134.114c-17.947,-41.363 -42.687,-77.626 -74.219,-108.768c-31.489,-31.184 -67.752,-55.577 -108.767,-73.177c-40.973,-17.643 -84.527,-26.475 -130.643,-26.475l-139.236,-0c-46.072,-0 -89.627,8.832 -130.642,26.475c-40.973,17.6 -77.236,41.819 -108.768,72.657c-31.488,30.794 -56.228,66.71 -74.218,107.725c-17.947,40.973 -26.91,84.853 -26.91,131.598l-0,976.909l-178.906,0l-0,-978.906c-0,-70.486 13.715,-136.892 41.145,-199.219c27.431,-62.37 65.191,-117.122 113.282,-164.236c48.133,-47.092 103.559,-84.028 166.232,-110.764c62.717,-26.779 129.644,-40.191 200.782,-40.191l135.243,0c71.81,0 139.236,13.585 202.257,40.712c63.02,27.083 118.402,64.714 166.145,112.847c47.787,48.091 85.243,103.516 112.327,166.233c27.127,62.674 40.712,129.579 40.712,200.694l-0,87.414c-0,71.875 -13.585,139.322 -40.712,202.343c-27.084,63.021 -64.54,118.446 -112.327,166.233c-47.743,47.743 -103.125,85.2 -166.145,112.326c-63.021,27.084 -130.447,40.625 -202.257,40.625l-273.438,0l0,363.889l-180.989,0l-0,-544.878l456.423,-0Z" style="fill:url(#_Linear3);fill-rule:nonzero;"/><path d="M555.035,213.455c75.217,-0 145.855,14.062 211.892,42.187c66.081,28.125 124.045,67.101 173.872,116.927c49.826,49.827 88.932,107.444 117.361,172.83c28.472,65.408 42.708,135.374 42.708,209.896c0,75.933 -14.236,146.94 -42.708,213.021c-28.429,66.037 -67.535,124.132 -117.361,174.306c-49.827,50.13 -107.791,89.409 -173.872,117.881c-66.037,28.473 -136.675,42.709 -211.892,42.709l-352.778,-0l-0,-1089.76l352.778,-0Zm4.08,913.889c50.108,-0 97.178,-9.636 141.232,-28.906c44.097,-19.315 82.726,-46.094 115.886,-80.296c33.203,-34.244 59.136,-73.741 77.777,-118.489c18.62,-44.727 27.952,-92.839 27.952,-144.358c-0,-48.785 -9.332,-95.182 -27.952,-139.236c-18.641,-44.032 -44.574,-83.16 -77.777,-117.361c-33.16,-34.245 -71.789,-61.046 -115.886,-80.382c-44.054,-19.314 -91.124,-28.993 -141.232,-28.993l-178.907,-0l0,738.021l178.907,-0Z" style="fill:url(#_Linear4);fill-rule:nonzero;"/><path d="M2157.12,207.378c56.25,0 110.264,7.987 162.066,23.959c51.844,15.929 99.479,38.086 142.881,66.493l-88.454,160.677c-31.207,-21.007 -65.256,-37.782 -102.171,-50.347c-36.935,-12.544 -75.043,-18.837 -114.322,-18.837c-50.869,-0 -98.85,9.505 -143.924,28.472c-45.03,18.989 -84.505,45.443 -118.403,79.34c-33.854,33.855 -60.46,73.156 -79.774,117.882c-19.336,44.749 -28.993,92.861 -28.993,144.358c-0,50.825 9.483,98.589 28.472,143.316c18.967,44.748 45.399,84.071 79.253,117.969c33.898,33.854 73.221,60.46 117.969,79.774c44.727,19.336 92.492,29.319 143.316,29.948c61.676,-0 120.139,-14.714 175.347,-44.184c55.252,-29.514 99.827,-69.662 133.681,-120.486l-311.024,-0l-0,-183.941l555.989,-0c-2.669,73.155 -19.249,141.927 -49.739,206.337c-30.512,64.366 -71.181,120.79 -122.049,169.27c-50.825,48.438 -109.093,86.372 -174.826,113.803c-65.756,27.43 -135.547,41.145 -209.375,41.145c-75.933,-0.629 -147.114,-15.364 -213.542,-44.184c-66.385,-28.819 -124.653,-68.446 -174.826,-118.923c-50.131,-50.521 -89.41,-109.137 -117.882,-175.868c-28.473,-66.71 -42.709,-138.043 -42.709,-213.976c0,-76.563 14.236,-148.199 42.709,-214.931c28.472,-66.775 68.099,-125.39 118.923,-175.868c50.803,-50.52 109.571,-90.017 176.302,-118.489c66.776,-28.472 138.477,-42.709 215.105,-42.709Z" style="fill:url(#_Linear5);fill-rule:nonzero;"/><path d="M3170.54,530.642c-0,-42.708 7.769,-83.355 23.35,-121.961c15.625,-38.651 37.804,-72.874 66.58,-102.691c28.82,-29.796 62.522,-53.321 101.129,-70.573c38.65,-17.296 80.685,-25.955 126.128,-25.955l139.236,-0c44.032,-0 85.2,8.485 123.524,25.434c38.303,16.905 72.179,40.104 101.65,69.618c29.514,29.47 52.539,63.52 69.097,102.17c16.602,38.607 24.913,79.926 24.913,123.958l0,87.414c0,43.402 -8.311,84.44 -24.913,123.09c-16.558,38.607 -39.583,72.309 -69.097,101.128c-29.471,28.776 -63.347,51.454 -101.65,68.056c-38.324,16.623 -79.492,24.913 -123.524,24.913l-456.423,0l-0,-404.601Zm592.621,0c0,-26.432 -6.293,-50.173 -18.837,-71.18c-12.5,-21.007 -28.906,-37.761 -49.218,-50.261c-20.313,-12.543 -43.034,-18.836 -68.143,-18.836l-139.236,-0c-25.065,-0 -47.96,6.293 -68.663,18.836c-20.66,12.5 -37.11,29.254 -49.306,50.261c-12.152,21.007 -18.229,44.748 -18.229,71.18l0,225.695l275.434,-0c25.109,-0 47.83,-6.25 68.143,-18.75c20.312,-12.544 36.718,-29.34 49.218,-50.347c12.544,-21.051 18.837,-44.119 18.837,-69.184l0,-87.414Z" style="fill:url(#_Linear6);fill-rule:nonzero;"/><g><path d="M-0,1704.01l104.618,-0c25.529,-0 48.212,4.959 68.049,14.834c19.837,9.897 35.21,23.934 46.142,42.089c10.975,18.112 16.473,39.027 16.473,62.702c0,23.761 -5.498,44.676 -16.473,62.787c-10.932,18.112 -26.305,32.149 -46.142,42.089c-19.837,9.897 -42.52,14.835 -68.049,14.835l-104.618,-0l-0,-239.336Zm102.548,201.732c17.594,-0 33.033,-3.364 46.315,-10.091c13.325,-6.727 23.588,-16.301 30.79,-28.72c7.18,-12.42 10.781,-26.845 10.781,-43.296c-0,-16.387 -3.601,-30.791 -10.781,-43.21c-7.202,-12.42 -17.465,-21.993 -30.79,-28.721c-13.282,-6.727 -28.721,-10.091 -46.315,-10.091l-58.131,0l0,164.129l58.131,-0Z" style="fill:#4f46e5;fill-rule:nonzero;"/><path d="M823.052,1933.42c-5.003,4.097 -11.105,7.159 -18.285,9.229c-7.201,2.07 -14.791,3.105 -22.769,3.105c-20.074,-0 -35.577,-5.218 -46.487,-15.697c-10.932,-10.523 -16.387,-25.81 -16.387,-45.884l-0,-87.886l-30.1,0l-0,-34.154l30.1,0l-0,-41.743l42.692,-0l0,41.743l48.902,0l0,34.154l-48.902,0l0,86.851c0,8.927 2.156,15.697 6.469,20.354c4.355,4.658 10.651,6.986 18.888,6.986c9.53,0 17.508,-2.501 23.89,-7.503l11.989,30.445Z" style="fill:#4f46e5;fill-rule:nonzero;"/><path d="M928.017,1758.69c26.909,0 47.458,6.447 61.667,19.32c14.252,12.894 21.389,32.321 21.389,58.303l0,107.033l-40.277,-0l-0,-22.252c-5.304,7.999 -12.808,14.123 -22.511,18.371c-9.659,4.182 -21.346,6.296 -35.016,6.296c-13.627,-0 -25.594,-2.329 -35.879,-6.986c-10.242,-4.701 -18.176,-11.213 -23.804,-19.492c-5.584,-8.323 -8.366,-17.767 -8.366,-28.289c0,-16.387 6.08,-29.519 18.284,-39.415c12.248,-9.94 31.481,-14.921 57.7,-14.921l47.177,-0l0,-2.76c0,-12.765 -3.838,-22.554 -11.471,-29.41c-7.654,-6.835 -18.974,-10.264 -33.981,-10.264c-10.307,0 -20.419,1.617 -30.359,4.83c-9.897,3.17 -18.263,7.59 -25.098,13.282l-16.732,-31.049c9.53,-7.288 21.044,-12.872 34.499,-16.732c13.454,-3.902 27.707,-5.865 42.778,-5.865Zm-5.778,155.935c10.694,0 20.182,-2.436 28.461,-7.331c8.323,-4.937 14.231,-11.945 17.681,-21.044l0,-21.217l-44.159,0c-24.623,0 -36.913,8.107 -36.913,24.322c-0,7.719 3.061,13.864 9.228,18.457c6.145,4.549 14.705,6.813 25.702,6.813Z" style="fill:#4f46e5;fill-rule:nonzero;"/><rect x="1065.8" y="1689.6" width="42.779" height="253.739" style="fill:#4f46e5;fill-rule:nonzero;"/><path d="M1426.58,1820.96l42.089,-0l-0,95.389c-12.312,9.789 -26.694,17.314 -43.124,22.597c-16.387,5.218 -33.269,7.849 -50.627,7.849c-24.386,-0 -46.379,-5.283 -65.979,-15.87c-19.621,-10.63 -35.016,-25.292 -46.228,-43.986c-11.169,-18.673 -16.732,-39.782 -16.732,-63.305c-0,-23.46 5.563,-44.526 16.732,-63.22c11.212,-18.672 26.672,-33.313 46.401,-43.899c19.707,-10.63 41.873,-15.956 66.496,-15.956c20.053,-0 38.294,3.32 54.681,9.918c16.43,6.62 30.23,16.301 41.399,29.066l-28.031,27.34c-18.241,-18.22 -40.234,-27.34 -65.979,-27.34c-16.861,-0 -31.825,3.536 -44.935,10.608c-13.109,7.072 -23.373,16.991 -30.79,29.755c-7.417,12.765 -11.126,27.341 -11.126,43.728c0,15.998 3.709,30.359 11.126,43.123c7.417,12.765 17.681,22.813 30.79,30.1c13.11,7.31 27.966,10.954 44.59,10.954c18.673,-0 35.103,-4.097 49.247,-12.334l0,-74.517Z" style="fill:#4f46e5;fill-rule:nonzero;"/><path d="M1563.69,1787.41c12.29,-19.147 33.938,-28.721 64.944,-28.721l-0,40.709c-3.623,-0.69 -6.943,-1.035 -9.919,-1.035c-16.624,0 -29.625,4.873 -38.983,14.576c-9.315,9.66 -13.972,23.61 -13.972,41.83l-0,88.576l-42.779,-0l0,-182.586l40.709,0l-0,26.651Z" style="fill:#4f46e5;fill-rule:nonzero;"/><path d="M1745.29,1945.76c-18.457,-0 -35.102,-3.989 -49.937,-11.989c-14.834,-7.978 -26.435,-19.082 -34.757,-33.291c-8.28,-14.253 -12.42,-30.402 -12.42,-48.471c0,-17.983 4.14,-34.068 12.42,-48.212c8.322,-14.145 19.923,-25.184 34.757,-33.119c14.835,-7.978 31.48,-11.989 49.937,-11.989c18.673,0 35.405,4.011 50.196,11.989c14.835,7.935 26.413,18.974 34.758,33.119c8.323,14.144 12.506,30.229 12.506,48.212c-0,18.069 -4.183,34.218 -12.506,48.471c-8.345,14.209 -19.923,25.313 -34.758,33.291c-14.791,8 -31.523,11.989 -50.196,11.989Zm0,-36.569c15.697,-0 28.656,-5.218 38.898,-15.697c10.285,-10.522 15.438,-24.344 15.438,-41.485c0,-17.077 -5.153,-30.833 -15.438,-41.313c-10.242,-10.522 -23.201,-15.783 -38.898,-15.783c-15.761,0 -28.72,5.261 -38.897,15.783c-10.134,10.48 -15.18,24.236 -15.18,41.313c0,17.141 5.046,30.963 15.18,41.485c10.177,10.479 23.136,15.697 38.897,15.697Z" style="fill:#4f46e5;fill-rule:nonzero;"/><path d="M2163.48,1760.76l-67.359,182.586l-41.054,-0l-47.177,-125.835l-47.867,125.835l-41.054,-0l-67.014,-182.586l40.364,0l48.212,134.718l50.282,-134.718l35.879,0l49.247,135.408l49.592,-135.408l37.949,0Z" style="fill:#4f46e5;fill-rule:nonzero;"/><path d="M2307.77,1933.42c-5.003,4.097 -11.105,7.159 -18.285,9.229c-7.201,2.07 -14.791,3.105 -22.769,3.105c-20.074,-0 -35.577,-5.218 -46.487,-15.697c-10.932,-10.523 -16.387,-25.81 -16.387,-45.884l-0,-87.886l-30.101,0l0,-34.154l30.101,0l-0,-41.743l42.692,-0l0,41.743l48.902,0l0,34.154l-48.902,0l0,86.851c0,8.927 2.156,15.697 6.469,20.354c4.355,4.658 10.651,6.986 18.888,6.986c9.53,0 17.508,-2.501 23.89,-7.503l11.989,30.445Z" style="fill:#4f46e5;fill-rule:nonzero;"/><path d="M2446.63,1758.69c22.985,0 41.442,6.728 55.371,20.182c13.907,13.455 20.872,33.421 20.872,59.856l-0,104.618l-42.779,-0l-0,-99.185c-0,-15.912 -3.773,-27.944 -11.298,-36.051c-7.547,-8.107 -18.242,-12.161 -32.084,-12.161c-15.762,0 -28.203,4.744 -37.345,14.231c-9.099,9.444 -13.627,23.028 -13.627,40.795l-0,92.371l-42.779,-0l-0,-253.74l42.779,0l-0,92.371c7.072,-7.525 15.783,-13.282 26.132,-17.249c10.35,-4.011 21.929,-6.038 34.758,-6.038Z" style="fill:#4f46e5;fill-rule:nonzero;"/><path d="M2774.21,1704.01c20.699,-0 38.746,3.428 54.163,10.263c15.395,6.792 27.189,16.56 35.361,29.324c8.215,12.765 12.334,27.944 12.334,45.539c-0,17.314 -4.119,32.407 -12.334,45.279c-8.172,12.894 -19.966,22.748 -35.361,29.583c-15.417,6.857 -33.464,10.264 -54.163,10.264l-54.077,-0l-0,69.084l-44.417,-0l-0,-239.336l98.494,-0Zm-2.07,132.648c19.362,-0 34.067,-4.097 44.072,-12.333c10.048,-8.216 15.093,-19.945 15.093,-35.189c0,-15.288 -5.045,-27.017 -15.093,-35.189c-10.005,-8.215 -24.71,-12.334 -44.072,-12.334l-52.007,0l-0,95.045l52.007,-0Z" style="fill:#4f46e5;fill-rule:nonzero;"/><path d="M2984.47,1758.69c26.909,0 47.457,6.447 61.666,19.32c14.253,12.894 21.39,32.321 21.39,58.303l-0,107.033l-40.278,-0l0,-22.252c-5.304,7.999 -12.807,14.123 -22.51,18.371c-9.66,4.182 -21.346,6.296 -35.017,6.296c-13.627,-0 -25.593,-2.329 -35.878,-6.986c-10.242,-4.701 -18.177,-11.213 -23.805,-19.492c-5.584,-8.323 -8.366,-17.767 -8.366,-28.289c0,-16.387 6.081,-29.519 18.285,-39.415c12.247,-9.94 31.48,-14.921 57.699,-14.921l47.177,-0l0,-2.76c0,-12.765 -3.838,-22.554 -11.471,-29.41c-7.654,-6.835 -18.974,-10.264 -33.981,-10.264c-10.306,0 -20.419,1.617 -30.359,4.83c-9.897,3.17 -18.263,7.59 -25.098,13.282l-16.732,-31.049c9.53,-7.288 21.044,-12.872 34.499,-16.732c13.455,-3.902 27.707,-5.865 42.779,-5.865Zm-5.779,155.935c10.695,0 20.182,-2.436 28.462,-7.331c8.322,-4.937 14.23,-11.945 17.68,-21.044l0,-21.217l-44.158,0c-24.624,0 -36.914,8.107 -36.914,24.322c-0,7.719 3.062,13.864 9.228,18.457c6.146,4.549 14.706,6.813 25.702,6.813Z" style="fill:#4f46e5;fill-rule:nonzero;"/><path d="M3162.97,1787.41c12.29,-19.147 33.938,-28.721 64.944,-28.721l-0,40.709c-3.623,-0.69 -6.943,-1.035 -9.919,-1.035c-16.624,0 -29.626,4.873 -38.983,14.576c-9.315,9.66 -13.973,23.61 -13.973,41.83l0,88.576l-42.778,-0l-0,-182.586l40.709,0l-0,26.651Z" style="fill:#4f46e5;fill-rule:nonzero;"/><path d="M3380.79,1933.42c-5.002,4.097 -11.104,7.159 -18.284,9.229c-7.202,2.07 -14.791,3.105 -22.769,3.105c-20.074,-0 -35.577,-5.218 -46.488,-15.697c-10.931,-10.523 -16.386,-25.81 -16.386,-45.884l-0,-87.886l-30.101,0l0,-34.154l30.101,0l-0,-41.743l42.692,-0l-0,41.743l48.902,0l0,34.154l-48.902,0l-0,86.851c-0,8.927 2.156,15.697 6.468,20.354c4.356,4.658 10.652,6.986 18.889,6.986c9.53,0 17.508,-2.501 23.89,-7.503l11.988,30.445Z" style="fill:#4f46e5;fill-rule:nonzero;"/><path d="M3519.66,1758.69c22.985,0 41.442,6.728 55.371,20.182c13.907,13.455 20.872,33.421 20.872,59.856l-0,104.618l-42.779,-0l0,-99.185c0,-15.912 -3.773,-27.944 -11.298,-36.051c-7.547,-8.107 -18.242,-12.161 -32.084,-12.161c-15.762,0 -28.203,4.744 -37.345,14.231c-9.099,9.444 -13.627,23.028 -13.627,40.795l-0,92.371l-42.779,-0l0,-182.586l40.709,0l-0,23.546c7.072,-8.388 15.955,-14.748 26.65,-19.061c10.738,-4.355 22.856,-6.555 36.31,-6.555Z" style="fill:#4f46e5;fill-rule:nonzero;"/><path d="M3823.65,1853.04c-0,2.997 -0.237,7.223 -0.69,12.678l-143.343,0c2.523,13.455 9.078,24.128 19.664,31.998c10.63,7.827 23.805,11.729 39.502,11.729c20.052,0 36.59,-6.597 49.592,-19.836l22.942,26.391c-8.237,9.789 -18.608,17.207 -31.136,22.252c-12.549,5.002 -26.693,7.504 -42.433,7.504c-20.074,-0 -37.755,-3.989 -53.042,-11.989c-15.245,-7.978 -27.039,-19.082 -35.362,-33.291c-8.279,-14.253 -12.419,-30.402 -12.419,-48.471c-0,-17.767 4.01,-33.766 12.074,-48.04c8.108,-14.252 19.341,-25.356 33.723,-33.291c14.36,-7.978 30.553,-11.989 48.557,-11.989c17.767,0 33.658,3.946 47.695,11.816c14.015,7.827 24.968,18.867 32.86,33.119c7.87,14.274 11.816,30.747 11.816,49.42Zm-92.371,-60.201c-13.692,0 -25.27,4.054 -34.757,12.161c-9.445,8.107 -15.18,18.888 -17.25,32.343l103.669,-0c-1.854,-13.218 -7.46,-23.934 -16.818,-32.17c-9.315,-8.215 -20.936,-12.334 -34.844,-12.334Z" style="fill:#4f46e5;fill-rule:nonzero;"/><path d="M3905.33,1787.41c12.29,-19.147 33.938,-28.721 64.944,-28.721l-0,40.709c-3.623,-0.69 -6.943,-1.035 -9.919,-1.035c-16.624,0 -29.626,4.873 -38.983,14.576c-9.315,9.66 -13.972,23.61 -13.972,41.83l-0,88.576l-42.779,-0l0,-182.586l40.709,0l-0,26.651Z" style="fill:#4f46e5;fill-rule:nonzero;"/><path d="M4063.61,1945.76c-14.791,-0 -29.237,-1.941 -43.382,-5.779c-14.145,-3.903 -25.443,-8.819 -33.895,-14.748l16.473,-32.515c8.15,5.476 17.983,9.875 29.497,13.195c11.557,3.278 22.898,4.916 34.067,4.916c25.529,0 38.294,-6.727 38.294,-20.181c-0,-6.383 -3.256,-10.803 -9.746,-13.282c-6.512,-2.523 -16.948,-4.938 -31.308,-7.245c-15.007,-2.243 -27.254,-4.83 -36.741,-7.762c-9.444,-2.976 -17.638,-8.194 -24.58,-15.611c-6.965,-7.417 -10.436,-17.724 -10.436,-30.963c-0,-17.293 7.201,-31.135 21.648,-41.485c14.489,-10.393 34.024,-15.611 58.648,-15.611c12.592,0 25.141,1.445 37.69,4.313c12.527,2.824 22.769,6.619 30.704,11.384l-16.387,32.516c-15.482,-9.143 -32.903,-13.714 -52.266,-13.714c-12.592,0 -22.144,1.898 -28.634,5.693c-6.512,3.751 -9.746,8.689 -9.746,14.834c0,6.857 3.471,11.708 10.436,14.576c6.943,2.824 17.724,5.498 32.343,8.021c14.597,2.307 26.564,4.959 35.878,7.935c9.358,2.932 17.422,7.934 24.15,15.007c6.727,7.072 10.091,17.12 10.091,30.1c-0,17.077 -7.418,30.769 -22.252,41.054c-14.835,10.241 -35.017,15.352 -60.546,15.352Z" style="fill:#4f46e5;fill-rule:nonzero;"/><path d="M278.306,1760.76l42.779,0l-0,182.586l-42.779,-0l0,-182.586Zm21.562,-30.1c-7.762,0 -14.296,-2.436 -19.578,-7.331c-5.24,-4.938 -7.849,-11.061 -7.849,-18.371c0,-7.244 2.609,-13.303 7.849,-18.198c5.282,-4.937 11.816,-7.417 19.578,-7.417c7.697,0 14.166,2.372 19.405,7.072c5.283,4.658 7.935,10.522 7.935,17.595c0,7.482 -2.587,13.799 -7.762,18.974c-5.132,5.132 -11.643,7.676 -19.578,7.676Z" style="fill:#4f46e5;fill-rule:nonzero;"/><path d="M558.419,1760.76l0,154.9c0,64.276 -32.838,96.425 -98.494,96.425c-17.594,-0 -34.283,-2.243 -50.023,-6.728c-15.697,-4.441 -28.677,-10.845 -38.898,-19.233l19.147,-32.17c7.978,6.598 18.069,11.902 30.273,15.87c12.182,4.01 24.537,6.037 37.086,6.037c20.053,-0 34.758,-4.571 44.073,-13.713c9.357,-9.143 14.058,-23.05 14.058,-41.744l-0,-9.574c-7.31,8 -16.215,14.059 -26.737,18.199c-10.479,4.096 -21.971,6.123 -34.499,6.123c-17.314,0 -32.989,-3.708 -47.004,-11.126c-14.037,-7.417 -25.098,-17.853 -33.205,-31.307c-8.065,-13.455 -12.075,-28.829 -12.075,-46.143c-0,-17.292 4.01,-32.623 12.075,-45.969c8.107,-13.326 19.168,-23.654 33.205,-30.963c14.015,-7.288 29.69,-10.954 47.004,-10.954c13.218,0 25.228,2.2 36.052,6.555c10.867,4.313 19.944,10.91 27.254,19.751l-0,-24.236l40.708,0Zm-97.459,138.168c16.15,0 29.41,-4.83 39.76,-14.489c10.393,-9.703 15.611,-22.338 15.611,-37.863c-0,-15.287 -5.218,-27.707 -15.611,-37.258c-10.35,-9.595 -23.61,-14.404 -39.76,-14.404c-16.451,0 -29.884,4.809 -40.277,14.404c-10.35,9.551 -15.525,21.971 -15.525,37.258c0,15.525 5.175,28.16 15.525,37.863c10.393,9.659 23.826,14.489 40.277,14.489Z" style="fill:#4f46e5;fill-rule:nonzero;"/><path d="M614.437,1760.76l42.779,0l-0,182.586l-42.779,-0l0,-182.586Zm21.562,-30.1c-7.762,0 -14.295,-2.436 -19.578,-7.331c-5.24,-4.938 -7.849,-11.061 -7.849,-18.371c0,-7.244 2.609,-13.303 7.849,-18.198c5.283,-4.937 11.816,-7.417 19.578,-7.417c7.698,0 14.166,2.372 19.406,7.072c5.282,4.658 7.934,10.522 7.934,17.595c0,7.482 -2.587,13.799 -7.762,18.974c-5.132,5.132 -11.643,7.676 -19.578,7.676Z" style="fill:#4f46e5;fill-rule:nonzero;"/></g></g><defs><linearGradient id="_Linear1" x1="0" y1="0" x2="1" y2="0" gradientUnits="userSpaceOnUse" gradientTransform="matrix(1.23204e-13,-2012.08,2012.08,1.23204e-13,2073.21,2012.08)"><stop offset="0" style="stop-color:#4f46e5;stop-opacity:1"/><stop offset="1" style="stop-color:#c026d3;stop-opacity:1"/></linearGradient><linearGradient id="_Linear2" x1="0" y1="0" x2="1" y2="0" gradientUnits="userSpaceOnUse" gradientTransform="matrix(1.23204e-13,-2012.08,2012.08,1.23204e-13,2073.21,2012.08)"><stop offset="0" style="stop-color:#4f46e5;stop-opacity:1"/><stop offset="1" style="stop-color:#c026d3;stop-opacity:1"/></linearGradient><linearGradient id="_Linear3" x1="0" y1="0" x2="1" y2="0" gradientUnits="userSpaceOnUse" gradientTransform="matrix(1.23204e-13,-2012.08,2012.08,1.23204e-13,2073.21,2012.08)"><stop offset="0" style="stop-color:#4f46e5;stop-opacity:1"/><stop offset="1" style="stop-color:#c026d3;stop-opacity:1"/></linearGradient><linearGradient id="_Linear4" x1="0" y1="0" x2="1" y2="0" gradientUnits="userSpaceOnUse" gradientTransform="matrix(1.23204e-13,-2012.08,2012.08,1.23204e-13,2073.21,2012.08)"><stop offset="0" style="stop-color:#4f46e5;stop-opacity:1"/><stop offset="1" style="stop-color:#c026d3;stop-opacity:1"/></linearGradient><linearGradient id="_Linear5" x1="0" y1="0" x2="1" y2="0" gradientUnits="userSpaceOnUse" gradientTransform="matrix(1.23204e-13,-2012.08,2012.08,1.23204e-13,2073.21,2012.08)"><stop offset="0" style="stop-color:#4f46e5;stop-opacity:1"/><stop offset="1" style="stop-color:#c026d3;stop-opacity:1"/></linearGradient><linearGradient id="_Linear6" x1="0" y1="0" x2="1" y2="0" gradientUnits="userSpaceOnUse" gradientTransform="matrix(1.23204e-13,-2012.08,2012.08,1.23204e-13,2073.21,2012.08)"><stop offset="0" style="stop-color:#4f46e5;stop-opacity:1"/><stop offset="1" style="stop-color:#c026d3;stop-opacity:1"/></linearGradient></defs></svg>