<?xml version="1.0" encoding="UTF-8" standalone="no"?><!DOCTYPE svg PUBLIC "-//W3C//DTD SVG 1.1//EN" "http://www.w3.org/Graphics/SVG/1.1/DTD/svg11.dtd"><svg width="100%" height="100%" viewBox="0 0 4688 2081" version="1.1" xmlns="http://www.w3.org/2000/svg" xmlns:xlink="http://www.w3.org/1999/xlink" xml:space="preserve" xmlns:serif="http://www.serif.com/" style="fill-rule:evenodd;clip-rule:evenodd;stroke-linejoin:round;stroke-miterlimit:2;"><g><g><g><path d="M-0,33.333l718.403,0c162.37,0 305.686,29.514 429.948,88.542c124.24,58.984 220.703,143.294 289.409,252.951c68.75,109.679 103.125,238.781 103.125,387.327c0,148.502 -34.375,277.582 -103.125,387.239c-68.706,109.679 -165.169,194.011 -289.409,253.039c-124.262,58.984 -267.578,88.454 -429.948,88.454l-718.403,0l-0,-1457.55Zm697.569,1074.39c105.491,-0 189.801,-30.165 252.952,-90.538c63.194,-60.352 94.792,-145.356 94.792,-255.035c-0,-109.657 -31.598,-194.662 -94.792,-255.035c-63.151,-60.417 -147.461,-90.625 -252.952,-90.625l-206.163,0l0,691.233l206.163,-0Z" style="fill:url(#_Linear1);fill-rule:nonzero;"/></g></g><g><g><path d="M2683.93,722.569l426.91,0l0,616.32c-86.111,59.679 -186.089,105.469 -299.913,137.413c-113.78,31.945 -225.499,47.917 -335.156,47.917c-155.512,-0 -295.031,-32.27 -418.577,-96.788c-123.567,-64.584 -220.377,-154.818 -290.451,-270.747c-70.096,-115.907 -105.122,-247.418 -105.122,-394.531c0,-147.157 35.026,-278.689 105.122,-394.618c70.074,-115.907 167.925,-206.12 293.576,-270.66c125.63,-64.583 267.557,-96.875 425.782,-96.875c142.99,0 271.05,23.958 384.201,71.875c113.129,47.873 207.161,117.622 282.118,209.288l-314.41,276.91c-91.623,-106.879 -200.586,-160.33 -326.909,-160.33c-108.29,0 -194.336,32.639 -258.16,97.917c-63.846,65.234 -95.747,154.058 -95.747,266.493c0,109.679 31.554,197.808 94.705,264.41c63.13,66.623 147.439,99.913 252.952,99.913c62.5,-0 122.178,-11.806 179.079,-35.417l0,-368.49Z" style="fill:url(#_Linear2);fill-rule:nonzero;"/></g></g><g><g><path d="M4022.79,33.333c134.657,0 251.953,22.223 351.91,66.667c99.935,44.401 176.953,108.247 231.076,191.58c54.167,83.29 81.25,180.447 81.25,291.493c0,111.068 -27.083,208.225 -81.25,291.493c-54.123,83.29 -131.141,147.135 -231.076,191.58c-99.957,44.401 -217.253,66.58 -351.91,66.58l-210.33,-0l0,358.159l-491.406,0l0,-1457.55l701.736,0Zm-31.25,720.486c66.602,0 116.58,-14.93 149.913,-44.791c33.334,-29.861 50,-71.832 50,-125.955c0,-54.167 -16.666,-96.137 -50,-125.955c-33.333,-29.861 -83.311,-44.792 -149.913,-44.792l-179.08,0l0,341.493l179.08,0Z" style="fill:url(#_Linear3);fill-rule:nonzero;"/></g></g></g><g><g><g><path d="M15.645,1735.26l117.357,-0c28.657,-0 54.111,5.59 76.359,16.726c22.295,11.158 39.566,26.907 51.816,47.27c12.294,20.317 18.453,43.77 18.453,70.36c0,26.612 -6.159,50.088 -18.453,70.45c-12.25,20.317 -29.521,36.043 -51.816,47.179c-22.248,11.09 -47.702,16.636 -76.359,16.636l-117.357,-0l0,-268.621Zm115.084,226.441c19.681,0 37.021,-3.75 51.997,-11.272c14.954,-7.568 26.476,-18.317 34.544,-32.271c8.045,-13.931 12.09,-30.112 12.09,-48.542c0,-18.408 -4.045,-34.589 -12.09,-48.543c-8.068,-13.931 -19.59,-24.658 -34.544,-32.18c-14.976,-7.568 -32.316,-11.363 -51.997,-11.363l-65.178,-0l0,184.171l65.178,0Z" style="fill:#fff;fill-rule:nonzero;"/></g></g><g><g><path d="M327.941,1798.98l47.998,0l-0,204.898l-47.998,-0l0,-204.898Zm24.181,-33.725c-8.727,-0 -16.045,-2.75 -21.908,-8.272c-5.886,-5.5 -8.818,-12.363 -8.818,-20.545c0,-8.181 2.932,-15.022 8.818,-20.544c5.863,-5.5 13.181,-8.272 21.908,-8.272c8.658,-0 15.931,2.636 21.817,7.908c5.863,5.227 8.817,11.795 8.817,19.727c0,8.499 -2.886,15.612 -8.635,21.362c-5.773,5.772 -13.091,8.636 -21.999,8.636Z" style="fill:#fff;fill-rule:nonzero;"/></g></g><g><g><path d="M642.182,1798.98l-0,173.808c-0,72.11 -36.817,108.176 -110.449,108.176c-19.703,0 -38.407,-2.5 -56.087,-7.454c-17.636,-4.977 -32.226,-12.181 -43.725,-21.635l21.544,-36.089c8.909,7.386 20.203,13.317 33.907,17.817c13.681,4.477 27.567,6.727 41.634,6.727c22.544,0 39.043,-5.136 49.543,-15.363c10.476,-10.249 15.726,-25.839 15.726,-46.815l0,-10.727c-8.181,8.977 -18.181,15.772 -29.998,20.363c-11.772,4.613 -24.681,6.908 -38.725,6.908c-19.454,0 -37.066,-4.136 -52.815,-12.454c-15.704,-8.363 -28.09,-20.089 -37.18,-35.179c-9.09,-15.09 -13.636,-32.362 -13.636,-51.816c0,-19.385 4.546,-36.566 13.636,-51.542c9.09,-14.954 21.476,-26.544 37.18,-34.725c15.749,-8.182 33.361,-12.272 52.815,-12.272c14.84,-0 28.316,2.431 40.452,7.272c12.181,4.863 22.362,12.272 30.544,22.271l-0,-27.271l45.634,0Zm-109.358,154.991c18.181,0 33.089,-5.408 44.725,-16.271c11.636,-10.909 17.453,-25.044 17.453,-42.453c0,-17.089 -5.817,-30.998 -17.453,-41.724c-11.636,-10.773 -26.544,-16.181 -44.725,-16.181c-18.431,-0 -33.453,5.408 -45.088,16.181c-11.636,10.726 -17.454,24.635 -17.454,41.724c0,17.409 5.818,31.544 17.454,42.453c11.635,10.863 26.657,16.271 45.088,16.271Z" style="fill:#fff;fill-rule:nonzero;"/></g></g><g><g><path d="M705.114,1798.98l47.997,0l0,204.898l-47.997,-0l0,-204.898Zm24.181,-33.725c-8.727,-0 -16.045,-2.75 -21.908,-8.272c-5.886,-5.5 -8.818,-12.363 -8.818,-20.545c0,-8.181 2.932,-15.022 8.818,-20.544c5.863,-5.5 13.181,-8.272 21.908,-8.272c8.658,-0 15.93,2.636 21.817,7.908c5.863,5.227 8.817,11.795 8.817,19.727c0,8.499 -2.886,15.612 -8.636,21.362c-5.772,5.772 -13.09,8.636 -21.998,8.636Z" style="fill:#fff;fill-rule:nonzero;"/></g></g><g><g><path d="M939.177,1992.79c-5.636,4.614 -12.499,8.068 -20.544,10.363c-8.068,2.296 -16.545,3.455 -25.453,3.455c-22.545,-0 -39.975,-5.864 -52.27,-17.636c-12.249,-11.817 -18.363,-28.953 -18.363,-51.451l0,-98.631l-33.816,0l-0,-38.361l33.816,-0l0,-46.816l47.998,0l-0,46.816l54.815,-0l-0,38.361l-54.815,0l-0,97.449c-0,9.999 2.408,17.635 7.272,22.908c4.84,5.227 11.863,7.818 21.09,7.818c10.726,-0 19.657,-2.818 26.816,-8.455l13.454,34.18Z" style="fill:#fff;fill-rule:nonzero;"/></g></g><g><g><path d="M1056.96,1796.71c30.18,-0 53.27,7.249 69.269,21.726c15.999,14.431 23.999,36.225 23.999,65.36l-0,120.084l-45.27,-0l-0,-24.908c-5.886,8.909 -14.272,15.772 -25.181,20.544c-10.863,4.727 -23.953,7.091 -39.27,7.091c-15.408,-0 -28.862,-2.636 -40.362,-7.909c-11.454,-5.272 -20.339,-12.567 -26.634,-21.908c-6.25,-9.317 -9.364,-19.862 -9.364,-31.634c0,-18.408 6.818,-33.18 20.454,-44.271c13.681,-11.135 35.271,-16.726 64.723,-16.726l52.906,0l0,-3.091c0,-14.294 -4.317,-25.271 -12.908,-32.907c-8.545,-7.681 -21.249,-11.545 -38.089,-11.545c-11.522,0 -22.862,1.796 -33.998,5.364c-11.09,3.59 -20.499,8.545 -28.18,14.908l-18.817,-34.907c10.772,-8.181 23.726,-14.408 38.816,-18.726c15.09,-4.364 31.044,-6.545 47.906,-6.545Zm-6.545,174.899c12.045,-0 22.749,-2.727 32.089,-8.182c9.318,-5.499 15.909,-13.385 19.726,-23.635l0,-23.816l-49.451,-0c-27.635,-0 -41.452,9.09 -41.452,27.271c-0,8.726 3.454,15.635 10.363,20.726c6.908,5.09 16.476,7.636 28.725,7.636Z" style="fill:#fff;fill-rule:nonzero;"/></g></g><g><g><rect x="1211.59" y="1719.16" width="47.997" height="284.711" style="fill:#fff;fill-rule:nonzero;"/></g></g><g><g><path d="M1616.37,1866.52l47.27,-0l0,107.085c-13.817,10.976 -29.952,19.408 -48.36,25.271c-18.431,5.863 -37.362,8.818 -56.815,8.818c-27.408,-0 -52.088,-5.932 -74.087,-17.818c-21.999,-11.863 -39.271,-28.293 -51.815,-49.269c-12.5,-21.022 -18.727,-44.68 -18.727,-70.996c0,-26.363 6.227,-50.02 18.727,-70.996c12.544,-20.954 29.862,-37.385 51.997,-49.27c22.18,-11.931 47.042,-17.908 74.632,-17.908c22.544,-0 43.02,3.727 61.451,11.181c18.408,7.408 33.907,18.249 46.452,32.543l-31.544,30.726c-20.431,-20.476 -45.088,-30.726 -73.996,-30.726c-18.976,0 -35.816,3.977 -50.542,11.909c-14.681,7.954 -26.158,19.09 -34.453,33.452c-8.318,14.318 -12.454,30.681 -12.454,49.089c0,17.885 4.136,33.998 12.454,48.36c8.295,14.318 19.772,25.544 34.453,33.726c14.726,8.181 31.453,12.272 50.179,12.272c20.953,-0 39.361,-4.591 55.178,-13.818l0,-83.631Z" style="fill:#fff;fill-rule:nonzero;"/></g></g><g><g><path d="M1770.23,1828.89c13.817,-21.454 38.111,-32.18 72.905,-32.18l-0,45.633c-4.068,-0.772 -7.772,-1.181 -11.09,-1.181c-18.681,-0 -33.249,5.454 -43.725,16.362c-10.5,10.863 -15.727,26.522 -15.727,46.998l0,99.358l-47.997,-0l0,-204.898l45.634,0l-0,29.908Z" style="fill:#fff;fill-rule:nonzero;"/></g></g><g><g><path d="M1977.83,2006.6c-20.726,-0 -39.407,-4.477 -55.997,-13.454c-16.613,-8.954 -29.612,-21.453 -38.998,-37.452c-9.34,-16 -13.999,-34.089 -13.999,-54.27c0,-20.181 4.659,-38.202 13.999,-54.088c9.386,-15.863 22.385,-28.271 38.998,-37.18c16.59,-8.954 35.271,-13.453 55.997,-13.453c20.953,-0 39.748,4.499 56.36,13.453c16.658,8.909 29.658,21.317 38.998,37.18c9.318,15.886 13.999,33.907 13.999,54.088c0,20.181 -4.681,38.27 -13.999,54.27c-9.34,15.999 -22.34,28.498 -38.998,37.452c-16.612,8.977 -35.407,13.454 -56.36,13.454Zm-0,-41.089c17.635,0 32.203,-5.863 43.725,-17.635c11.499,-11.75 17.271,-27.226 17.271,-46.452c0,-19.204 -5.772,-34.68 -17.271,-46.452c-11.522,-11.749 -26.09,-17.635 -43.725,-17.635c-17.636,-0 -32.157,5.886 -43.543,17.635c-11.409,11.772 -17.09,27.248 -17.09,46.452c-0,19.226 5.681,34.702 17.09,46.452c11.386,11.772 25.907,17.635 43.543,17.635Z" style="fill:#fff;fill-rule:nonzero;"/></g></g><g><g><path d="M2452.85,1798.98l-75.541,204.898l-46.088,-0l-52.907,-141.174l-53.724,141.174l-46.088,-0l-75.178,-204.898l45.271,0l54.087,151.173l56.452,-151.173l40.27,0l55.27,151.992l55.633,-151.992l42.543,0Z" style="fill:#fff;fill-rule:nonzero;"/></g></g><g><g><path d="M2609.02,1992.79c-5.636,4.614 -12.5,8.068 -20.545,10.363c-8.067,2.296 -16.544,3.455 -25.453,3.455c-22.544,-0 -39.975,-5.864 -52.269,-17.636c-12.25,-11.817 -18.363,-28.953 -18.363,-51.451l-0,-98.631l-33.816,0l-0,-38.361l33.816,-0l-0,-46.816l47.997,0l0,46.816l54.815,-0l0,38.361l-54.815,0l0,97.449c0,9.999 2.409,17.635 7.273,22.908c4.84,5.227 11.862,7.818 21.089,7.818c10.727,-0 19.658,-2.818 26.817,-8.455l13.454,34.18Z" style="fill:#fff;fill-rule:nonzero;"/></g></g><g><g><path d="M2764.8,1796.71c25.817,-0 46.497,7.545 62.087,22.635c15.636,15.09 23.453,37.452 23.453,67.087l0,117.448l-47.906,-0l0,-111.267c0,-17.931 -4.25,-31.407 -12.726,-40.452c-8.432,-9.09 -20.431,-13.636 -35.998,-13.636c-17.704,0 -31.68,5.318 -41.907,15.909c-10.181,10.613 -15.272,25.884 -15.272,45.815l0,103.631l-47.997,-0l-0,-284.711l47.997,-0l0,103.63c7.931,-8.477 17.726,-14.931 29.362,-19.363c11.636,-4.477 24.59,-6.726 38.907,-6.726Z" style="fill:#fff;fill-rule:nonzero;"/></g></g><g><g><path d="M3132.35,1735.26c23.317,-0 43.589,3.863 60.815,11.544c17.272,7.704 30.498,18.704 39.725,32.998c9.204,14.318 13.818,31.317 13.818,50.998c-0,19.453 -4.614,36.429 -13.818,50.906c-9.227,14.431 -22.453,25.498 -39.725,33.18c-17.226,7.636 -37.498,11.454 -60.815,11.454l-60.542,-0l0,77.541l-49.906,-0l0,-268.621l110.448,-0Zm-2.272,148.9c21.749,0 38.225,-4.59 49.452,-13.817c11.272,-9.204 16.908,-22.385 16.908,-39.543c-0,-17.09 -5.636,-30.226 -16.908,-39.453c-11.227,-9.204 -27.703,-13.817 -49.452,-13.817l-58.27,-0l0,106.63l58.27,0Z" style="fill:#fff;fill-rule:nonzero;"/></g></g><g><g><path d="M3374.09,1796.71c30.18,-0 53.27,7.249 69.269,21.726c15.999,14.431 23.999,36.225 23.999,65.36l-0,120.084l-45.27,-0l-0,-24.908c-5.886,8.909 -14.272,15.772 -25.181,20.544c-10.863,4.727 -23.953,7.091 -39.27,7.091c-15.408,-0 -28.862,-2.636 -40.362,-7.909c-11.453,-5.272 -20.339,-12.567 -26.634,-21.908c-6.25,-9.317 -9.364,-19.862 -9.364,-31.634c0,-18.408 6.818,-33.18 20.454,-44.271c13.681,-11.135 35.271,-16.726 64.723,-16.726l52.906,0l0,-3.091c0,-14.294 -4.317,-25.271 -12.908,-32.907c-8.545,-7.681 -21.249,-11.545 -38.089,-11.545c-11.522,0 -22.862,1.796 -33.998,5.364c-11.09,3.59 -20.499,8.545 -28.18,14.908l-18.817,-34.907c10.772,-8.181 23.726,-14.408 38.816,-18.726c15.09,-4.364 31.044,-6.545 47.906,-6.545Zm-6.545,174.899c12.045,-0 22.749,-2.727 32.089,-8.182c9.318,-5.499 15.909,-13.385 19.726,-23.635l0,-23.816l-49.451,-0c-27.635,-0 -41.452,9.09 -41.452,27.271c-0,8.726 3.454,15.635 10.363,20.726c6.908,5.09 16.476,7.636 28.725,7.636Z" style="fill:#fff;fill-rule:nonzero;"/></g></g><g><g><path d="M3574.36,1828.89c13.817,-21.454 38.111,-32.18 72.905,-32.18l-0,45.633c-4.068,-0.772 -7.772,-1.181 -11.09,-1.181c-18.681,-0 -33.248,5.454 -43.725,16.362c-10.499,10.863 -15.726,26.522 -15.726,46.998l-0,99.358l-47.998,-0l0,-204.898l45.634,0l0,29.908Z" style="fill:#fff;fill-rule:nonzero;"/></g></g><g><g><path d="M3813.06,1992.79c-5.636,4.614 -12.499,8.068 -20.544,10.363c-8.068,2.296 -16.545,3.455 -25.453,3.455c-22.544,-0 -39.975,-5.864 -52.27,-17.636c-12.249,-11.817 -18.362,-28.953 -18.362,-51.451l-0,-98.631l-33.817,0l0,-38.361l33.817,-0l-0,-46.816l47.997,0l-0,46.816l54.815,-0l-0,38.361l-54.815,0l-0,97.449c-0,9.999 2.409,17.635 7.272,22.908c4.841,5.227 11.863,7.818 21.09,7.818c10.726,-0 19.658,-2.818 26.816,-8.455l13.454,34.18Z" style="fill:#fff;fill-rule:nonzero;"/></g></g><g><g><path d="M3968.83,1796.71c25.817,-0 46.498,7.545 62.088,22.635c15.635,15.09 23.453,37.452 23.453,67.087l-0,117.448l-47.907,-0l0,-111.267c0,-17.931 -4.249,-31.407 -12.726,-40.452c-8.431,-9.09 -20.431,-13.636 -35.998,-13.636c-17.704,0 -31.68,5.318 -41.907,15.909c-10.181,10.613 -15.272,25.884 -15.272,45.815l0,103.631l-47.997,-0l0,-204.898l45.634,0l-0,26.453c7.931,-9.454 17.908,-16.59 29.907,-21.453c12.045,-4.841 25.635,-7.272 40.725,-7.272Z" style="fill:#fff;fill-rule:nonzero;"/></g></g><g><g><path d="M4308.02,1902.61c-0,3.34 -0.25,8.067 -0.727,14.181l-160.809,-0c2.772,15.09 10.113,27.066 21.998,35.907c11.932,8.795 26.726,13.181 44.362,13.181c22.544,-0 41.088,-7.409 55.633,-22.272l25.726,29.544c-9.227,11.045 -20.863,19.363 -34.908,24.999c-14.067,5.636 -29.907,8.454 -47.542,8.454c-22.544,-0 -42.407,-4.477 -59.542,-13.454c-17.09,-8.954 -30.34,-21.453 -39.725,-37.452c-9.341,-16 -14,-34.089 -14,-54.27c0,-19.931 4.546,-37.907 13.636,-53.906c9.09,-15.999 21.681,-28.453 37.816,-37.362c16.113,-8.954 34.271,-13.453 54.452,-13.453c19.998,-0 37.838,4.431 53.542,13.272c15.749,8.795 28.021,21.18 36.816,37.179c8.84,15.999 13.272,34.498 13.272,55.452Zm-103.63,-67.542c-15.341,0 -28.317,4.545 -38.907,13.636c-10.613,9.045 -17.068,21.089 -19.363,36.179l116.266,0c-2.068,-14.771 -8.34,-26.771 -18.817,-35.998c-10.499,-9.204 -23.544,-13.817 -39.179,-13.817Z" style="fill:#fff;fill-rule:nonzero;"/></g></g><g><g><path d="M4399.69,1828.89c13.817,-21.454 38.111,-32.18 72.905,-32.18l-0,45.633c-4.068,-0.772 -7.772,-1.181 -11.09,-1.181c-18.681,-0 -33.248,5.454 -43.725,16.362c-10.5,10.863 -15.727,26.522 -15.727,46.998l0,99.358l-47.997,-0l0,-204.898l45.634,0l-0,29.908Z" style="fill:#fff;fill-rule:nonzero;"/></g></g><g><g><path d="M4578.57,2006.6c-16.68,-0 -32.952,-2.182 -48.815,-6.545c-15.817,-4.364 -28.453,-9.863 -37.907,-16.545l18.363,-36.452c9.204,6.181 20.271,11.135 33.18,14.817c12.953,3.704 25.68,5.545 38.179,5.545c28.658,0 42.998,-7.545 42.998,-22.635c-0,-7.136 -3.636,-12.113 -10.909,-14.908c-7.272,-2.841 -18.976,-5.545 -35.089,-8.091c-16.908,-2.59 -30.68,-5.545 -41.27,-8.817c-10.613,-3.318 -19.817,-9.136 -27.635,-17.454c-7.818,-8.363 -11.726,-19.931 -11.726,-34.725c-0,-19.454 8.113,-34.998 24.362,-46.634c16.226,-11.636 38.18,-17.453 65.814,-17.453c14.045,-0 28.112,1.613 42.18,4.818c14.113,3.158 25.635,7.431 34.543,12.817l-18.362,36.452c-17.408,-10.226 -36.976,-15.362 -58.724,-15.362c-14.068,-0 -24.772,2.136 -32.089,6.363c-7.273,4.182 -10.909,9.727 -10.909,16.635c0,7.704 3.909,13.159 11.727,16.363c7.817,3.159 19.908,6.159 36.27,9c16.363,2.545 29.771,5.499 40.271,8.817c10.476,3.341 19.476,8.977 26.998,16.908c7.568,7.886 11.363,19.136 11.363,33.726c0,19.226 -8.34,34.589 -24.998,46.088c-16.613,11.522 -39.225,17.272 -67.815,17.272Z" style="fill:#fff;fill-rule:nonzero;"/></g></g></g><defs><linearGradient id="_Linear1" x1="0" y1="0" x2="1" y2="0" gradientUnits="userSpaceOnUse" gradientTransform="matrix(9.33315e-14,-1524.22,1524.22,9.33315e-14,2343.51,1524.22)"><stop offset="0" style="stop-color:#4f46e5;stop-opacity:1"/><stop offset="0.48" style="stop-color:#6d3de0;stop-opacity:1"/><stop offset="1" style="stop-color:#c026d3;stop-opacity:1"/></linearGradient><linearGradient id="_Linear2" x1="0" y1="0" x2="1" y2="0" gradientUnits="userSpaceOnUse" gradientTransform="matrix(9.33315e-14,-1524.22,1524.22,9.33315e-14,2343.51,1524.22)"><stop offset="0" style="stop-color:#4f46e5;stop-opacity:1"/><stop offset="0.48" style="stop-color:#6d3de0;stop-opacity:1"/><stop offset="1" style="stop-color:#c026d3;stop-opacity:1"/></linearGradient><linearGradient id="_Linear3" x1="0" y1="0" x2="1" y2="0" gradientUnits="userSpaceOnUse" gradientTransform="matrix(9.33315e-14,-1524.22,1524.22,9.33315e-14,2343.51,1524.22)"><stop offset="0" style="stop-color:#4f46e5;stop-opacity:1"/><stop offset="0.48" style="stop-color:#6d3de0;stop-opacity:1"/><stop offset="1" style="stop-color:#c026d3;stop-opacity:1"/></linearGradient></defs></svg>