<?xml version="1.0" encoding="UTF-8" standalone="no"?><!DOCTYPE svg PUBLIC "-//W3C//DTD SVG 1.1//EN" "http://www.w3.org/Graphics/SVG/1.1/DTD/svg11.dtd"><svg width="100%" height="100%" viewBox="0 0 7344 3421" version="1.1" xmlns="http://www.w3.org/2000/svg" xmlns:xlink="http://www.w3.org/1999/xlink" xml:space="preserve" xmlns:serif="http://www.serif.com/" style="fill-rule:evenodd;clip-rule:evenodd;stroke-linejoin:round;stroke-miterlimit:2;"><g><g><g><g><path d="M144.363,183.579l1038.82,0c248.166,0 467.532,47.386 658.098,142.159c190.533,94.705 338.581,228.047 444.179,400.061c105.666,172.048 158.499,372.384 158.499,601.044c0,228.693 -52.833,429.03 -158.499,601.044c-105.598,172.048 -253.646,305.424 -444.179,400.197c-190.566,94.704 -409.932,142.022 -658.098,142.022l-1038.82,0l-0,-2286.53Zm1012.68,1852.02c228.659,0 411.022,-63.658 547.121,-191.043c136.066,-127.351 204.116,-299.909 204.116,-517.709c-0,-217.766 -68.05,-390.325 -204.116,-517.71c-136.099,-127.453 -318.462,-191.179 -547.121,-191.179l-483.532,-0l0,1417.64l483.532,0Z" style="fill:#c026d3;fill-opacity:0.5;fill-rule:nonzero;"/></g></g><g><g><path d="M4387.63,1290.89l483.395,0l-0,927.711c-124.117,93.615 -267.808,165.443 -431.107,215.553c-163.333,50.11 -327.755,75.165 -493.335,75.165c-237.307,-0 -450.715,-50.587 -640.261,-151.827c-189.477,-101.309 -338.07,-241.766 -445.813,-421.439c-107.776,-179.639 -161.631,-382.699 -161.631,-609.214c0,-226.481 53.855,-429.541 161.631,-609.214c107.743,-179.64 257.425,-320.062 449.081,-421.303c191.724,-101.309 407.312,-151.963 646.797,-151.963c200.336,-0 382.154,33.769 545.487,101.308c163.402,67.472 300.591,165.444 411.635,293.986l-339.738,313.458c-163.333,-172.013 -360.402,-258.037 -591.24,-258.037c-145.904,-0 -275.467,30.501 -388.759,91.504c-113.223,61.003 -201.392,147.061 -264.573,258.174c-63.114,111.045 -94.637,238.396 -94.637,382.087c-0,141.546 31.523,267.842 94.637,378.954c63.181,111.045 150.805,197.58 262.939,259.672c112.202,62.024 240.132,93.003 383.857,93.003c152.406,-0 289.629,-32.613 411.635,-97.905l-0,-669.673Z" style="fill:#c026d3;fill-opacity:0.5;fill-rule:nonzero;"/></g></g><g><g><path d="M6350.85,183.579c202.515,0 378.341,33.77 527.513,101.309c149.138,67.471 263.961,163.265 344.504,287.45c80.611,124.117 120.917,271.075 120.917,440.911c0,167.69 -40.306,314.138 -120.917,439.413c-80.543,125.206 -195.366,221 -344.504,287.45c-149.172,66.381 -324.998,99.538 -527.513,99.538l-460.656,0l0,630.456l-529.147,0l-0,-2286.53l989.803,0Zm-29.413,1224.96c158.942,0 279.757,-34.314 362.479,-102.942c82.79,-68.629 124.185,-166.057 124.185,-292.352c-0,-128.441 -41.395,-226.992 -124.185,-295.62c-82.722,-68.629 -203.537,-102.943 -362.479,-102.943l-431.243,-0l0,793.857l431.243,0Z" style="fill:#c026d3;fill-opacity:0.5;fill-rule:nonzero;"/></g></g><g><g><path d="M0,39.216l1038.82,0c248.166,0 467.532,47.387 658.098,142.159c190.533,94.705 338.581,228.047 444.179,400.061c105.666,172.048 158.5,372.384 158.5,601.044c-0,228.694 -52.834,429.03 -158.5,601.044c-105.598,172.048 -253.646,305.424 -444.179,400.197c-190.566,94.704 -409.932,142.023 -658.098,142.023l-1038.82,-0l-0,-2286.53Zm1012.68,1852.02c228.659,-0 411.022,-63.659 547.122,-191.044c136.065,-127.35 204.115,-299.909 204.115,-517.709c-0,-217.766 -68.05,-390.325 -204.115,-517.709c-136.1,-127.453 -318.463,-191.18 -547.122,-191.18l-483.531,0l-0,1417.64l483.531,-0Z" style="fill:#4f46e5;fill-rule:nonzero;"/></g></g><g><g><path d="M4243.27,1146.53l483.395,-0l0,927.71c-124.117,93.615 -267.808,165.444 -431.107,215.553c-163.333,50.11 -327.755,75.165 -493.335,75.165c-237.306,-0 -450.715,-50.586 -640.261,-151.827c-189.477,-101.309 -338.07,-241.766 -445.812,-421.439c-107.777,-179.639 -161.631,-382.699 -161.631,-609.214c-0,-226.481 53.854,-429.541 161.631,-609.214c107.742,-179.639 257.425,-320.062 449.08,-421.303c191.725,-101.309 407.312,-151.963 646.797,-151.963c200.337,0 382.154,33.77 545.488,101.309c163.401,67.471 300.59,165.443 411.634,293.986l-339.738,313.458c-163.333,-172.014 -360.402,-258.038 -591.24,-258.038c-145.904,-0 -275.467,30.502 -388.759,91.505c-113.223,61.003 -201.392,147.061 -264.573,258.174c-63.114,111.044 -94.637,238.395 -94.637,382.086c0,141.546 31.523,267.842 94.637,378.955c63.181,111.044 150.805,197.579 262.939,259.671c112.203,62.025 240.132,93.003 383.857,93.003c152.406,-0 289.629,-32.612 411.635,-97.905l-0,-669.672Z" style="fill:#4f46e5;fill-rule:nonzero;"/></g></g><g><g><path d="M6206.49,39.216c202.515,0 378.341,33.77 527.513,101.309c149.138,67.471 263.961,163.265 344.504,287.45c80.612,124.117 120.917,271.076 120.917,440.911c0,167.69 -40.305,314.139 -120.917,439.413c-80.543,125.206 -195.366,221 -344.504,287.45c-149.172,66.382 -324.998,99.538 -527.513,99.538l-460.656,0l0,630.457l-529.147,-0l-0,-2286.53l989.803,0Zm-29.413,1224.96c158.942,-0 279.757,-34.315 362.479,-102.943c82.79,-68.629 124.185,-166.057 124.185,-292.352c-0,-128.44 -41.395,-226.992 -124.185,-295.62c-82.722,-68.629 -203.537,-102.943 -362.479,-102.943l-431.243,0l0,793.858l431.243,-0Z" style="fill:#4f46e5;fill-rule:nonzero;"/></g></g></g><g><g><g><path d="M120.589,2902.31l182.873,-0c43.641,-0 82.245,8.374 115.742,25.055c33.566,16.612 59.676,40.101 78.297,70.398c18.587,30.23 27.914,65.463 27.914,105.667c0,40.305 -9.327,75.641 -27.914,105.938c-18.621,30.229 -44.731,53.718 -78.297,70.399c-33.497,16.612 -72.101,24.918 -115.742,24.918l-182.873,0l-0,-402.375Zm178.243,325.849c40.306,0 72.373,-11.2 96.271,-33.633c23.965,-22.4 35.948,-52.765 35.948,-91.096c-0,-38.298 -11.983,-68.663 -35.948,-91.097c-23.898,-22.399 -55.965,-33.633 -96.271,-33.633l-85.105,-0l0,249.459l85.105,0Z" style="fill:#fff;fill-rule:nonzero;"/></g></g><g><g><path d="M589.204,2995.45l89.735,-0l-0,309.236l-89.735,0l0,-309.236Zm44.8,-43.166c-16.443,0 -29.821,-4.765 -40.17,-14.297c-10.349,-9.6 -15.523,-21.515 -15.523,-35.676c-0,-14.23 5.174,-26.144 15.523,-35.676c10.349,-9.6 23.727,-14.434 40.17,-14.434c16.51,0 29.956,4.63 40.305,13.889c10.349,9.192 15.523,20.664 15.523,34.451c0,14.978 -5.174,27.369 -15.523,37.173c-10.349,9.736 -23.795,14.57 -40.305,14.57Z" style="fill:#fff;fill-rule:nonzero;"/></g></g><g><g><path d="M1081.3,2995.45l-0,257.493c-0,56.713 -14.775,98.891 -44.255,126.499c-29.514,27.574 -72.645,41.395 -129.359,41.395c-29.889,0 -58.246,-3.676 -85.105,-11.029c-26.791,-7.285 -48.986,-17.804 -66.586,-31.591l35.54,-64.271c13.072,10.689 29.548,19.199 49.429,25.463c19.948,6.332 39.897,9.532 59.777,9.532c31.046,-0 53.957,-7.013 68.765,-20.97c14.774,-13.991 22.195,-35.165 22.195,-63.59l0,-13.209c-23.421,25.702 -56.033,38.536 -97.768,38.536c-28.425,-0 -54.433,-6.196 -78.024,-18.655c-23.523,-12.425 -42.178,-29.957 -55.965,-52.561c-13.821,-22.604 -20.698,-48.646 -20.698,-78.16c0,-29.582 6.877,-55.693 20.698,-78.296c13.787,-22.604 32.442,-40.102 55.965,-52.561c23.591,-12.425 49.599,-18.655 78.024,-18.655c44.833,-0 78.909,14.774 102.262,44.254l-0,-39.624l85.105,-0Zm-169.529,220.727c23.693,0 43.097,-6.978 58.28,-20.969c15.148,-13.958 22.74,-32.272 22.74,-54.876c-0,-22.672 -7.592,-41.021 -22.74,-55.012c-15.183,-13.957 -34.587,-20.97 -58.28,-20.97c-23.796,0 -43.37,7.013 -58.688,20.97c-15.353,13.991 -23.013,32.34 -23.013,55.012c0,22.604 7.66,40.918 23.013,54.876c15.318,13.991 34.892,20.969 58.688,20.969Z" style="fill:#fff;fill-rule:nonzero;"/></g></g><g><g><path d="M1164.69,2995.45l89.734,-0l0,309.236l-89.734,0l-0,-309.236Zm44.799,-43.166c-16.442,0 -29.821,-4.765 -40.169,-14.297c-10.349,-9.6 -15.524,-21.515 -15.524,-35.676c0,-14.23 5.175,-26.144 15.524,-35.676c10.348,-9.6 23.727,-14.434 40.169,-14.434c16.51,0 29.957,4.63 40.306,13.889c10.348,9.192 15.523,20.664 15.523,34.451c-0,14.978 -5.175,27.369 -15.523,37.173c-10.349,9.736 -23.796,14.57 -40.306,14.57Z" style="fill:#fff;fill-rule:nonzero;"/></g></g><g><g><path d="M1537.23,3289.7c-8.817,6.536 -19.676,11.438 -32.544,14.706c-12.8,3.268 -26.281,4.902 -40.442,4.902c-36.765,0 -65.224,-9.396 -85.377,-28.187c-20.153,-18.791 -30.229,-46.365 -30.229,-82.79l-0,-127.044l-47.659,-0l-0,-69.037l47.659,-0l-0,-75.301l89.734,0l0,75.301l77.071,-0l0,69.037l-77.071,-0l0,125.819c0,13.072 3.336,23.148 10.077,30.229c6.706,7.081 16.204,10.621 28.459,10.621c14.161,0 26.212,-3.813 36.22,-11.438l24.102,63.182Z" style="fill:#fff;fill-rule:nonzero;"/></g></g><g><g><path d="M1712.56,2990.82c47.931,-0 84.73,11.404 110.432,34.178c25.667,22.808 38.535,57.19 38.535,103.215l0,176.473l-84.015,0l-0,-38.535c-16.885,28.799 -48.306,43.165 -94.228,43.165c-23.796,0 -44.391,-4.051 -61.82,-12.119c-17.43,-8.068 -30.774,-19.2 -40.034,-33.361c-9.191,-14.161 -13.753,-30.229 -13.753,-48.203c0,-28.766 10.792,-51.37 32.408,-67.812c21.685,-16.51 55.148,-24.782 100.356,-24.782l71.352,-0c-0,-19.506 -5.958,-34.519 -17.838,-45.072c-11.915,-10.621 -29.753,-15.931 -53.514,-15.931c-16.442,-0 -32.612,2.587 -48.476,7.761c-15.897,5.174 -29.412,12.187 -40.578,20.97l-32.135,-62.637c16.782,-11.881 36.969,-21.038 60.594,-27.506c23.591,-6.536 47.829,-9.804 72.714,-9.804Zm-6.945,258.038c15.319,-0 28.936,-3.541 40.85,-10.622c11.881,-7.08 20.323,-17.497 25.328,-31.318l-0,-31.591l-61.548,0c-36.765,0 -55.148,12.085 -55.148,36.221c-0,11.54 4.493,20.663 13.481,27.369c8.987,6.639 21.31,9.941 37.037,9.941Z" style="fill:#fff;fill-rule:nonzero;"/></g></g><g><g><rect x="1942.55" y="2878.07" width="89.734" height="426.613" style="fill:#fff;fill-rule:nonzero;"/></g></g><g><g><path d="M2556.49,3097.16l85.105,-0l0,163.265c-21.787,16.442 -47.08,29.106 -75.845,37.991c-28.8,8.782 -57.735,13.208 -86.875,13.208c-41.77,-0 -79.318,-8.885 -112.611,-26.689c-33.327,-17.872 -59.471,-42.62 -78.433,-74.211c-18.995,-31.659 -28.459,-67.437 -28.459,-107.3c0,-39.83 9.464,-75.574 28.459,-107.164c18.962,-31.591 45.276,-56.272 78.978,-74.076c33.769,-17.872 71.692,-26.825 113.836,-26.825c35.301,0 67.301,5.958 95.998,17.838c28.765,11.915 52.901,29.14 72.441,51.744l-59.777,55.148c-28.8,-30.229 -63.454,-45.344 -104.032,-45.344c-25.702,0 -48.544,5.379 -68.493,16.068c-19.88,10.723 -35.403,25.872 -46.569,45.48c-11.098,19.54 -16.613,41.905 -16.613,67.131c0,24.986 5.515,47.216 16.613,66.722c11.166,19.54 26.587,34.791 46.297,45.752c19.778,10.893 42.28,16.34 67.539,16.34c26.859,0 50.995,-5.753 72.441,-17.293l0,-117.785Z" style="fill:#fff;fill-rule:nonzero;"/></g></g><g><g><path d="M2807.21,3036.16c10.69,-14.877 25.123,-26.145 43.302,-33.77c18.246,-7.693 39.25,-11.574 63.045,-11.574l0,82.79c-10.008,-0.817 -16.714,-1.226 -20.152,-1.226c-25.702,0 -45.821,7.217 -60.323,21.651c-14.536,14.366 -21.787,35.914 -21.787,64.68l0,145.971l-89.734,0l-0,-309.236l85.649,-0l0,40.714Z" style="fill:#fff;fill-rule:nonzero;"/></g></g><g><g><path d="M3111.37,3309.31c-32.612,0 -61.82,-6.808 -87.692,-20.425c-25.872,-13.617 -46.127,-32.476 -60.731,-56.646c-14.536,-24.136 -21.786,-51.539 -21.786,-82.245c-0,-30.57 7.25,-57.939 21.786,-82.109c14.604,-24.136 34.859,-43.029 60.731,-56.646c25.872,-13.617 55.08,-20.425 87.692,-20.425c32.578,-0 61.684,6.808 87.284,20.425c25.667,13.617 45.786,32.51 60.322,56.646c14.604,24.17 21.923,51.539 21.923,82.109c-0,30.706 -7.319,58.109 -21.923,82.245c-14.536,24.17 -34.655,43.029 -60.322,56.646c-25.6,13.617 -54.706,20.425 -87.284,20.425Zm0,-73.667c22.944,0 41.804,-7.761 56.51,-23.284c14.774,-15.523 22.195,-36.289 22.195,-62.365c0,-26.042 -7.421,-46.842 -22.195,-62.365c-14.706,-15.523 -33.566,-23.285 -56.51,-23.285c-23.08,0 -42.076,7.762 -57.054,23.285c-14.91,15.523 -22.332,36.323 -22.332,62.365c0,26.076 7.422,46.842 22.332,62.365c14.978,15.523 33.974,23.284 57.054,23.284Z" style="fill:#fff;fill-rule:nonzero;"/></g></g><g><g><path d="M3828.86,2995.45l-112.066,309.236l-86.33,0l-69.582,-191.996l-71.76,191.996l-86.331,0l-111.521,-309.236l84.56,-0l72.986,209.153l75.845,-209.153l75.982,-0l73.53,209.153l75.301,-209.153l79.386,-0Z" style="fill:#fff;fill-rule:nonzero;"/></g></g><g><g><path d="M4078.93,3289.7c-8.816,6.536 -19.676,11.438 -32.544,14.706c-12.799,3.268 -26.28,4.902 -40.441,4.902c-36.766,0 -65.225,-9.396 -85.378,-28.187c-20.152,-18.791 -30.229,-46.365 -30.229,-82.79l0,-127.044l-47.658,-0l-0,-69.037l47.658,-0l0,-75.301l89.735,0l-0,75.301l77.071,-0l-0,69.037l-77.071,-0l-0,125.819c-0,13.072 3.336,23.148 10.076,30.229c6.706,7.081 16.204,10.621 28.459,10.621c14.162,0 26.212,-3.813 36.221,-11.438l24.101,63.182Z" style="fill:#fff;fill-rule:nonzero;"/></g></g><g><g><path d="M4317.58,2990.82c38.297,-0 69.207,11.506 92.73,34.45c23.591,22.979 35.404,57.123 35.404,102.398l0,177.018l-89.734,0l-0,-163.265c-0,-24.51 -5.379,-42.79 -16.068,-54.875c-10.723,-12.051 -26.247,-18.111 -46.57,-18.111c-22.603,0 -40.646,7.013 -54.058,20.97c-13.345,13.991 -20.017,34.791 -20.017,62.365l0,152.916l-89.734,0l-0,-426.613l89.734,0l0,149.512c11.779,-11.881 26.144,-20.97 43.029,-27.233c16.885,-6.332 35.302,-9.532 55.284,-9.532Z" style="fill:#fff;fill-rule:nonzero;"/></g></g><g><g><path d="M4870.05,2902.31c35.574,-0 66.484,5.957 92.73,17.838c26.315,11.812 46.57,28.663 60.731,50.518c14.162,21.889 21.242,47.761 21.242,77.616c0,29.514 -7.08,55.284 -21.242,77.343c-14.161,22.059 -34.416,38.944 -60.731,50.654c-26.246,11.643 -57.156,17.43 -92.73,17.43l-81.156,-0l0,110.976l-93.138,0l-0,-402.375l174.294,-0Zm-5.174,215.553c27.948,0 49.19,-6.025 63.726,-18.11c14.604,-12.051 21.923,-29.208 21.923,-51.471c0,-22.604 -7.319,-39.932 -21.923,-52.016c-14.536,-12.051 -35.778,-18.111 -63.726,-18.111l-75.982,0l0,139.708l75.982,0Z" style="fill:#fff;fill-rule:nonzero;"/></g></g><g><g><path d="M5226.44,2990.82c47.931,-0 84.73,11.404 110.432,34.178c25.668,22.808 38.535,57.19 38.535,103.215l0,176.473l-84.015,0l-0,-38.535c-16.885,28.799 -48.305,43.165 -94.228,43.165c-23.795,0 -44.391,-4.051 -61.82,-12.119c-17.43,-8.068 -30.774,-19.2 -40.033,-33.361c-9.192,-14.161 -13.753,-30.229 -13.753,-48.203c-0,-28.766 10.791,-51.37 32.408,-67.812c21.684,-16.51 55.147,-24.782 100.355,-24.782l71.352,-0c-0,-19.506 -5.957,-34.519 -17.838,-45.072c-11.915,-10.621 -29.753,-15.931 -53.514,-15.931c-16.442,-0 -32.612,2.587 -48.476,7.761c-15.897,5.174 -29.412,12.187 -40.578,20.97l-32.135,-62.637c16.783,-11.881 36.969,-21.038 60.594,-27.506c23.592,-6.536 47.829,-9.804 72.714,-9.804Zm-6.945,258.038c15.319,-0 28.936,-3.541 40.851,-10.622c11.88,-7.08 20.323,-17.497 25.327,-31.318l-0,-31.591l-61.548,0c-36.765,0 -55.148,12.085 -55.148,36.221c0,11.54 4.494,20.663 13.481,27.369c8.987,6.639 21.31,9.941 37.037,9.941Z" style="fill:#fff;fill-rule:nonzero;"/></g></g><g><g><path d="M5542.08,3036.16c10.689,-14.877 25.122,-26.145 43.301,-33.77c18.246,-7.693 39.25,-11.574 63.045,-11.574l0,82.79c-10.008,-0.817 -16.714,-1.226 -20.152,-1.226c-25.702,0 -45.821,7.217 -60.323,21.651c-14.536,14.366 -21.786,35.914 -21.786,64.68l-0,145.971l-89.735,0l0,-309.236l85.65,-0l-0,40.714Z" style="fill:#fff;fill-rule:nonzero;"/></g></g><g><g><path d="M5912.33,3289.7c-8.816,6.536 -19.676,11.438 -32.544,14.706c-12.799,3.268 -26.28,4.902 -40.442,4.902c-36.765,0 -65.224,-9.396 -85.377,-28.187c-20.152,-18.791 -30.229,-46.365 -30.229,-82.79l0,-127.044l-47.659,-0l0,-69.037l47.659,-0l0,-75.301l89.735,0l-0,75.301l77.071,-0l-0,69.037l-77.071,-0l-0,125.819c-0,13.072 3.336,23.148 10.076,30.229c6.706,7.081 16.204,10.621 28.459,10.621c14.162,0 26.212,-3.813 36.221,-11.438l24.101,63.182Z" style="fill:#fff;fill-rule:nonzero;"/></g></g><g><g><path d="M6150.98,2990.82c38.297,-0 69.207,11.506 92.73,34.45c23.591,22.979 35.404,57.123 35.404,102.398l-0,177.018l-89.735,0l0,-163.265c0,-24.51 -5.378,-42.79 -16.067,-54.875c-10.724,-12.051 -26.247,-18.111 -46.57,-18.111c-22.604,0 -40.646,7.013 -54.058,20.97c-13.345,13.991 -20.017,34.791 -20.017,62.365l0,152.916l-89.734,0l-0,-309.236l85.649,-0l0,36.22c11.881,-13.072 26.621,-23.148 44.255,-30.229c17.599,-7.081 36.969,-10.621 58.143,-10.621Z" style="fill:#fff;fill-rule:nonzero;"/></g></g><g><g><path d="M6666.62,3151.22c0,1.09 -0.612,9.124 -1.77,24.102l-233.936,0c4.153,19.166 14.093,34.314 29.821,45.48c15.795,11.098 35.335,16.612 58.688,16.612c16.068,0 30.297,-2.382 42.757,-7.216c12.527,-4.8 24.135,-12.392 34.859,-22.74l47.794,51.743c-29.139,33.429 -71.726,50.11 -127.725,50.11c-34.859,0 -65.735,-6.808 -92.594,-20.425c-26.791,-13.617 -47.488,-32.476 -62.092,-56.646c-14.536,-24.136 -21.787,-51.539 -21.787,-82.245c-0,-30.229 7.149,-57.497 21.514,-81.837c14.434,-24.306 34.179,-43.301 59.233,-56.918c25.123,-13.617 53.242,-20.425 84.288,-20.425c30.229,-0 57.599,6.536 82.109,19.608c24.579,13.004 43.88,31.659 57.872,55.965c13.957,24.34 20.969,52.629 20.969,84.832Zm-160.405,-92.594c-20.357,0 -37.412,5.787 -51.199,17.294c-13.821,11.438 -22.196,27.165 -25.191,47.114l152.235,-0c-2.995,-19.506 -11.404,-35.132 -25.191,-46.842c-13.821,-11.71 -30.706,-17.566 -50.654,-17.566Z" style="fill:#fff;fill-rule:nonzero;"/></g></g><g><g><path d="M6812.07,3036.16c10.689,-14.877 25.123,-26.145 43.301,-33.77c18.247,-7.693 39.251,-11.574 63.046,-11.574l0,82.79c-10.008,-0.817 -16.715,-1.226 -20.153,-1.226c-25.701,0 -45.82,7.217 -60.322,21.651c-14.536,14.366 -21.787,35.914 -21.787,64.68l0,145.971l-89.734,0l-0,-309.236l85.649,-0l0,40.714Z" style="fill:#fff;fill-rule:nonzero;"/></g></g><g><g><path d="M7077.09,3309.31c-25.702,0 -50.791,-3.2 -75.301,-9.532c-24.51,-6.332 -44.084,-14.297 -58.688,-23.829l29.957,-64.407c13.787,8.816 30.433,16.033 49.973,21.65c19.608,5.549 38.74,8.307 57.463,8.307c37.923,-0 56.918,-9.396 56.918,-28.187c-0,-8.783 -5.174,-15.115 -15.523,-18.927c-10.349,-3.881 -26.246,-7.149 -47.659,-9.805c-25.327,-3.88 -46.263,-8.306 -62.773,-13.208c-16.442,-4.97 -30.706,-13.787 -42.757,-26.416c-12.085,-12.698 -18.11,-30.774 -18.11,-54.195c-0,-19.506 5.617,-36.799 16.885,-51.88c11.336,-15.149 27.846,-26.961 49.565,-35.404c21.684,-8.442 47.284,-12.663 76.798,-12.663c21.787,-0 43.472,2.417 65.088,7.217c21.685,4.732 39.659,11.302 53.923,19.744l-29.957,63.863c-27.234,-15.319 -56.918,-23.013 -89.054,-23.013c-19.165,0 -33.565,2.69 -43.165,8.034c-9.634,5.379 -14.434,12.255 -14.434,20.698c0,9.634 5.175,16.34 15.523,20.153c10.349,3.812 26.826,7.455 49.429,10.893c25.328,4.289 46.025,8.817 62.093,13.617c16.136,4.732 30.161,13.446 42.076,26.144c11.88,12.629 17.838,30.229 17.838,52.833c-0,19.166 -5.788,36.221 -17.294,51.199c-11.54,14.91 -28.323,26.485 -50.382,34.723c-21.991,8.238 -48.135,12.391 -78.432,12.391Z" style="fill:#fff;fill-rule:nonzero;"/></g></g></g></g></svg>