<svg xmlns="http://www.w3.org/2000/svg" xmlns:xlink="http://www.w3.org/1999/xlink" width="1633" zoomAndPan="magnify" viewBox="0 0 1224.75 1228.499963" height="1638" preserveAspectRatio="xMidYMid meet" version="1.2"><defs><clipPath id="308e6abe7b"><path d="M 215 752 L 289 752 L 289 781.675781 L 215 781.675781 Z M 215 752 "/></clipPath><clipPath id="3de88bfcf4"><path d="M 281 155 L 501.976562 155 L 501.976562 627 L 281 627 Z M 281 155 "/></clipPath><clipPath id="be40c8efc7"><path d="M 1.164062 73 L 213 73 L 213 627 L 1.164062 627 Z M 1.164062 73 "/></clipPath><clipPath id="4c2f98af68"><rect x="0" width="1086" y="0" height="1158"/></clipPath></defs><g id="9bd2b5ff66"><g transform="matrix(1,0,0,1,56,0)"><g clip-path="url(#4c2f98af68)"><path style=" stroke:none;fill-rule:nonzero;fill:#8000ff;fill-opacity:1;" d="M 173.371094 646.730469 L 330.554688 646.730469 L 330.554688 676.207031 L 173.371094 676.207031 Z M 173.371094 646.730469 "/><path style=" stroke:none;fill-rule:nonzero;fill:#00cc66;fill-opacity:1;" d="M 192.261719 699.515625 L 311.664062 699.515625 L 311.664062 728.992188 L 192.261719 728.992188 Z M 192.261719 699.515625 "/><g clip-rule="nonzero" clip-path="url(#308e6abe7b)"><path style=" stroke:none;fill-rule:nonzero;fill:#0080ff;fill-opacity:1;" d="M 215.082031 752.300781 L 288.828125 752.300781 L 288.828125 781.78125 L 215.082031 781.78125 Z M 215.082031 752.300781 "/></g><path style=" stroke:none;fill-rule:nonzero;fill:#00cc66;fill-opacity:1;" d="M 249.484375 42.945312 C 257.824219 39.757812 263.785156 31.730469 263.785156 22.265625 C 263.800781 10.050781 253.847656 0.0976562 241.613281 0.0976562 C 229.382812 0.0976562 219.425781 10.050781 219.425781 22.285156 C 219.425781 31.730469 225.386719 39.773438 233.746094 42.964844 C 236.199219 43.910156 238.84375 44.472656 241.613281 44.472656 C 244.398438 44.472656 247.027344 43.894531 249.484375 42.945312 Z M 249.484375 42.945312 "/><path style=" stroke:none;fill-rule:nonzero;fill:#00cc66;fill-opacity:1;" d="M 362.011719 64.46875 C 370.355469 61.277344 376.332031 53.25 376.332031 43.789062 C 376.332031 31.554688 366.375 21.601562 354.144531 21.601562 C 341.910156 21.601562 331.957031 31.554688 331.957031 43.789062 C 331.957031 53.234375 337.914062 61.261719 346.257812 64.449219 C 348.710938 65.394531 351.359375 65.957031 354.125 65.957031 C 356.929688 65.972656 359.558594 65.414062 362.011719 64.46875 Z M 362.011719 64.46875 "/><path style=" stroke:none;fill-rule:nonzero;fill:#00cc66;fill-opacity:1;" d="M 178.714844 57.914062 C 187.058594 54.722656 193.035156 46.695312 193.035156 37.234375 C 193.035156 25 183.078125 15.046875 170.847656 15.046875 C 158.613281 15.046875 148.660156 25 148.660156 37.234375 C 148.660156 46.679688 154.617188 54.722656 162.960938 57.914062 C 165.414062 58.859375 168.058594 59.421875 170.828125 59.421875 C 173.632812 59.421875 176.261719 58.859375 178.714844 57.914062 Z M 178.714844 57.914062 "/><path style=" stroke:none;fill-rule:nonzero;fill:#00cc66;fill-opacity:1;" d="M 224 297.238281 C 232.761719 294.277344 239.125 286.058594 239.125 276.3125 C 239.125 264.082031 229.171875 254.125 216.9375 254.125 C 204.707031 254.125 194.75 264.082031 194.75 276.3125 C 194.75 285.460938 200.324219 293.332031 208.246094 296.714844 C 210.910156 297.851562 213.855469 298.5 216.9375 298.5 C 219.425781 298.5 221.773438 297.992188 224 297.238281 Z M 224 297.238281 "/><path style=" stroke:none;fill-rule:nonzero;fill:#00cc66;fill-opacity:1;" d="M 412.152344 109.296875 C 414.605469 110.242188 417.253906 110.804688 420.039062 110.804688 C 432.273438 110.804688 442.226562 100.851562 442.226562 88.617188 C 442.226562 76.382812 432.273438 66.429688 420.039062 66.429688 C 407.808594 66.429688 397.851562 76.382812 397.851562 88.617188 C 397.851562 92.28125 398.832031 95.699219 400.410156 98.746094 C 402.898438 103.566406 407.054688 107.351562 412.152344 109.296875 Z M 412.152344 109.296875 "/><path style=" stroke:none;fill-rule:nonzero;fill:#00cc66;fill-opacity:1;" d="M 305.335938 201.515625 C 319.339844 196.101562 329.292969 182.605469 329.292969 166.691406 C 329.292969 146.03125 312.539062 129.277344 291.875 129.277344 C 271.214844 129.277344 254.460938 146.03125 254.460938 166.691406 C 254.460938 182.851562 264.746094 196.484375 279.101562 201.726562 C 283.113281 203.199219 287.371094 204.109375 291.894531 204.109375 C 296.644531 204.109375 301.148438 203.128906 305.335938 201.515625 Z M 291.875 153.234375 C 299.308594 153.234375 305.335938 159.261719 305.335938 166.691406 C 305.335938 174.125 299.308594 180.152344 291.875 180.152344 C 284.445312 180.152344 278.417969 174.125 278.417969 166.691406 C 278.417969 159.261719 284.445312 153.234375 291.875 153.234375 Z M 291.875 153.234375 "/><path style=" stroke:none;fill-rule:nonzero;fill:#00cc66;fill-opacity:1;" d="M 218.113281 422.039062 C 221.003906 416.726562 222.792969 410.734375 222.792969 404.265625 C 222.792969 383.605469 206.039062 366.851562 185.375 366.851562 C 164.710938 366.851562 147.957031 383.605469 147.957031 404.265625 C 147.957031 424.929688 164.710938 441.683594 185.375 441.683594 C 189.914062 441.683594 194.226562 440.753906 198.238281 439.265625 C 206.808594 436.128906 213.800781 429.976562 218.113281 422.039062 Z M 171.914062 404.285156 C 171.914062 396.851562 177.945312 390.824219 185.375 390.824219 C 192.804688 390.824219 198.835938 396.851562 198.835938 404.285156 C 198.835938 411.714844 192.804688 417.742188 185.375 417.742188 C 177.945312 417.742188 171.914062 411.714844 171.914062 404.285156 Z M 171.914062 404.285156 "/><path style=" stroke:none;fill-rule:nonzero;fill:#00cc66;fill-opacity:1;" d="M 400.410156 98.765625 L 362.011719 137.164062 L 362.011719 64.46875 C 359.558594 65.414062 356.914062 65.972656 354.144531 65.972656 C 351.359375 65.972656 348.730469 65.394531 346.273438 64.46875 L 346.273438 195.242188 L 305.371094 236.144531 L 305.371094 201.480469 C 301.164062 203.109375 296.644531 204.128906 291.875 204.128906 C 287.355469 204.128906 283.148438 203.199219 279.082031 201.707031 L 279.082031 273.492188 L 249.5 243.910156 L 249.5 42.945312 C 247.046875 43.894531 244.398438 44.453125 241.632812 44.453125 C 238.84375 44.453125 236.214844 43.875 233.761719 42.945312 L 233.761719 132.464844 L 178.75 77.453125 L 178.75 57.914062 C 176.296875 58.859375 173.648438 59.421875 170.882812 59.421875 C 168.09375 59.421875 165.464844 58.839844 163.011719 57.914062 L 163.011719 83.972656 L 233.78125 154.742188 L 233.78125 250.429688 L 274.019531 290.667969 L 243.804688 320.882812 L 224.054688 301.128906 L 224.054688 297.222656 C 221.828125 297.976562 219.480469 298.484375 216.992188 298.484375 C 213.90625 298.484375 210.960938 297.851562 208.296875 296.695312 L 208.296875 307.648438 L 239.878906 339.230469 L 239.878906 443.769531 L 218.164062 422.019531 C 213.851562 429.941406 206.859375 436.109375 198.289062 439.265625 L 239.878906 480.886719 L 239.878906 626.101562 L 266.167969 626.101562 L 266.167969 335.707031 L 305.40625 296.398438 L 305.40625 258.421875 L 362.066406 201.761719 L 362.066406 159.4375 L 412.1875 109.316406 C 407.054688 107.351562 402.898438 103.566406 400.410156 98.765625 Z M 400.410156 98.765625 "/><g clip-rule="nonzero" clip-path="url(#3de88bfcf4)"><path style=" stroke:none;fill-rule:nonzero;fill:#8000ff;fill-opacity:1;" d="M 479.695312 155.863281 C 467.464844 155.863281 457.507812 165.816406 457.507812 178.050781 C 457.507812 187.496094 463.46875 195.539062 471.808594 198.730469 L 471.808594 288.492188 L 425.226562 335.078125 L 425.226562 244.960938 C 439.632812 239.757812 449.972656 226.085938 449.972656 209.894531 C 449.972656 189.230469 433.21875 172.476562 412.554688 172.476562 C 391.894531 172.476562 375.140625 189.230469 375.140625 209.894531 C 375.140625 225.753906 385.042969 239.230469 398.957031 244.679688 C 400.726562 245.382812 402.566406 245.941406 404.460938 246.378906 C 402.566406 245.960938 400.726562 245.398438 398.957031 244.714844 L 398.957031 391.824219 L 362.609375 355.476562 L 362.609375 300.480469 C 369.988281 296.890625 375.140625 289.40625 375.140625 280.644531 C 375.140625 268.410156 365.183594 258.457031 352.953125 258.457031 C 340.71875 258.457031 330.765625 268.410156 330.765625 280.644531 C 330.765625 290.089844 336.722656 298.132812 345.082031 301.324219 C 345.644531 301.53125 346.257812 301.65625 346.851562 301.832031 L 346.851562 361.941406 L 398.34375 413.433594 L 361.066406 446.03125 L 311.136719 396.167969 L 311.136719 376.015625 C 311.347656 375.945312 311.59375 375.910156 311.804688 375.824219 C 320.144531 372.632812 326.101562 364.605469 326.101562 355.144531 C 326.101562 342.910156 316.148438 332.957031 303.917969 332.957031 C 291.683594 332.957031 281.730469 342.910156 281.730469 355.144531 C 281.730469 364.328125 287.390625 372.140625 295.363281 375.488281 L 295.363281 402.636719 L 349.113281 456.386719 L 301.847656 497.730469 L 301.847656 626.121094 L 328.136719 626.121094 L 328.136719 509.664062 L 367.761719 475.035156 L 379.695312 464.660156 L 416.902344 432.0625 L 425.246094 424.804688 L 425.246094 357.351562 L 487.566406 295.03125 L 487.566406 198.746094 C 495.90625 195.558594 501.867188 187.53125 501.867188 178.066406 C 501.882812 165.816406 491.929688 155.863281 479.695312 155.863281 Z M 399.113281 209.875 C 399.113281 202.445312 405.144531 196.414062 412.574219 196.414062 C 420.003906 196.414062 426.03125 202.445312 426.03125 209.875 C 426.03125 217.304688 420.003906 223.335938 412.574219 223.335938 C 405.144531 223.335938 399.113281 217.324219 399.113281 209.875 Z M 399.113281 209.875 "/></g><g clip-rule="nonzero" clip-path="url(#be40c8efc7)"><path style=" stroke:none;fill-rule:nonzero;fill:#0080ff;fill-opacity:1;" d="M 161.207031 356.949219 L 187.496094 330.589844 L 187.496094 252.707031 C 201.917969 247.519531 212.292969 233.832031 212.292969 217.621094 C 212.292969 196.960938 195.539062 180.203125 174.878906 180.203125 C 154.214844 180.203125 137.460938 196.960938 137.460938 217.621094 C 137.460938 233.445312 147.328125 246.925781 161.226562 252.375 L 161.226562 273.105469 L 85.164062 197.046875 L 145.085938 137.128906 C 145.46875 137.304688 145.871094 137.496094 146.277344 137.636719 C 148.710938 138.566406 151.324219 139.125 154.074219 139.125 C 166.308594 139.125 176.261719 129.171875 176.261719 116.9375 C 176.246094 104.6875 166.308594 94.734375 154.074219 94.734375 C 141.84375 94.734375 131.886719 104.6875 131.886719 116.921875 C 131.886719 120.164062 132.660156 123.210938 133.9375 125.980469 L 81.90625 178.015625 L 81.90625 116.640625 C 90.246094 113.449219 96.207031 105.425781 96.207031 95.960938 C 96.207031 83.726562 86.25 73.773438 74.019531 73.773438 C 61.785156 73.773438 51.832031 83.726562 51.832031 95.960938 C 51.832031 105.40625 57.789062 113.433594 66.132812 116.640625 L 66.132812 200.289062 L 161.207031 295.363281 L 161.207031 319.8125 L 119.953125 361.222656 L 98.414062 382.675781 L 98.398438 382.691406 L 98.398438 318.847656 C 112.136719 313.308594 121.84375 299.902344 121.84375 284.183594 C 121.84375 263.519531 105.089844 246.765625 84.429688 246.765625 C 63.765625 246.765625 47.011719 263.519531 47.011719 284.183594 C 47.011719 300.535156 57.5625 314.273438 72.160156 319.375 L 72.160156 338.738281 L 32.695312 299.273438 L 32.695312 197.378906 C 40.265625 193.839844 45.539062 186.214844 45.539062 177.332031 C 45.539062 165.097656 35.585938 155.144531 23.351562 155.144531 C 11.121094 155.144531 1.164062 165.097656 1.164062 177.332031 C 1.164062 187.320312 7.84375 195.699219 16.9375 198.464844 L 16.9375 305.808594 L 72.160156 361.03125 L 72.160156 407.125 L 172.722656 507.683594 L 172.722656 626.15625 L 198.972656 626.15625 L 198.972656 496.800781 L 110.207031 408.035156 L 138.441406 379.730469 Z M 174.878906 204.144531 C 182.308594 204.144531 188.335938 210.171875 188.335938 217.605469 C 188.335938 225.035156 182.308594 231.0625 174.878906 231.0625 C 167.445312 231.0625 161.417969 225.035156 161.417969 217.605469 C 161.417969 210.171875 167.445312 204.144531 174.878906 204.144531 Z M 84.042969 295.75 C 76.613281 295.75 70.582031 289.722656 70.582031 282.289062 C 70.582031 274.859375 76.613281 268.832031 84.042969 268.832031 C 91.472656 268.832031 97.503906 274.859375 97.503906 282.289062 C 97.503906 289.722656 91.472656 295.75 84.042969 295.75 Z M 84.042969 295.75 "/></g><g style="fill:#0080ff;fill-opacity:1;"><g transform="translate(360.696191, 755.731981)"><path style="stroke:none" d="M 15.5625 4.734375 C 14.894531 4.609375 14.40625 4.269531 14.09375 3.71875 C 13.789062 3.175781 13.640625 2.570312 13.640625 1.90625 C 13.640625 1.363281 13.765625 0.878906 14.015625 0.453125 L 25.203125 -20.921875 C 25.265625 -21.171875 25.367188 -22.113281 25.515625 -23.75 C 25.671875 -25.382812 25.835938 -27.429688 26.015625 -29.890625 C 26.203125 -32.347656 26.398438 -35.09375 26.609375 -38.125 C 26.828125 -41.15625 27.054688 -44.15625 27.296875 -47.125 C 27.535156 -50.101562 27.757812 -52.941406 27.96875 -55.640625 C 28.1875 -58.335938 28.382812 -60.59375 28.5625 -62.40625 C 28.625 -63.132812 28.710938 -64.242188 28.828125 -65.734375 C 28.953125 -67.222656 29.078125 -68.9375 29.203125 -70.875 C 29.328125 -72.8125 29.476562 -74.898438 29.65625 -77.140625 C 29.84375 -79.390625 30.023438 -81.640625 30.203125 -83.890625 L 31.484375 -102.90625 C 29.835938 -102.539062 28.132812 -102.160156 26.375 -101.765625 C 24.625 -101.367188 22.910156 -101.019531 21.234375 -100.71875 C 19.566406 -100.414062 17.988281 -100.15625 16.5 -99.9375 C 15.019531 -99.726562 13.734375 -99.625 12.640625 -99.625 C 11.972656 -99.625 11.472656 -99.925781 11.140625 -100.53125 C 10.804688 -101.132812 10.640625 -101.769531 10.640625 -102.4375 C 10.640625 -103.226562 10.820312 -103.804688 11.1875 -104.171875 L 34.296875 -125.734375 C 36.179688 -127.429688 38.046875 -128.8125 39.890625 -129.875 C 41.742188 -130.9375 43.972656 -131.769531 46.578125 -132.375 C 49.191406 -132.976562 52.390625 -133.382812 56.171875 -133.59375 C 59.960938 -133.8125 64.769531 -133.921875 70.59375 -133.921875 C 80.539062 -133.921875 89.363281 -132.890625 97.0625 -130.828125 C 104.769531 -128.765625 111.296875 -125.820312 116.640625 -122 C 120.578125 -119.269531 124.09375 -116.421875 127.1875 -113.453125 C 130.28125 -110.484375 132.890625 -107.191406 135.015625 -103.578125 C 137.140625 -99.972656 138.742188 -96 139.828125 -91.65625 C 140.921875 -87.320312 141.46875 -82.425781 141.46875 -76.96875 C 141.46875 -66.59375 139.921875 -57.375 136.828125 -49.3125 C 133.734375 -41.25 129.519531 -34.195312 124.1875 -28.15625 C 118.851562 -22.125 112.617188 -17.015625 105.484375 -12.828125 C 98.359375 -8.640625 90.75 -5.238281 82.65625 -2.625 C 74.5625 -0.0195312 66.191406 1.851562 57.546875 3 C 48.898438 4.15625 40.421875 4.734375 32.109375 4.734375 Z M 68.421875 -104.8125 L 67.328125 -93.796875 C 66.960938 -89.972656 66.582031 -85.894531 66.1875 -81.5625 C 65.789062 -77.226562 65.410156 -72.832031 65.046875 -68.375 C 64.679688 -63.914062 64.316406 -59.515625 63.953125 -55.171875 C 63.585938 -50.835938 63.253906 -46.789062 62.953125 -43.03125 C 62.648438 -39.269531 62.378906 -35.90625 62.140625 -32.9375 C 61.898438 -29.96875 61.6875 -27.601562 61.5 -25.84375 L 61.234375 -23.109375 C 68.566406 -23.109375 74.765625 -24.289062 79.828125 -26.65625 C 84.898438 -29.019531 89.007812 -32.28125 92.15625 -36.4375 C 95.3125 -40.59375 97.601562 -45.457031 99.03125 -51.03125 C 100.457031 -56.613281 101.171875 -62.617188 101.171875 -69.046875 C 101.171875 -73.660156 100.53125 -78.101562 99.25 -82.375 C 97.976562 -86.65625 96.128906 -90.738281 93.703125 -94.625 C 91.285156 -98.5 88.316406 -101.40625 84.796875 -103.34375 C 81.273438 -105.289062 77.300781 -106.265625 72.875 -106.265625 C 72.144531 -106.265625 71.351562 -106.097656 70.5 -105.765625 C 69.65625 -105.429688 68.960938 -105.113281 68.421875 -104.8125 Z M 68.421875 -104.8125 "/></g><g transform="translate(501.164446, 755.731981)"><path style="stroke:none" d="M 12.640625 2.90625 L 17.203125 -59.3125 C 18.710938 -80.175781 19.832031 -95.488281 20.5625 -105.25 C 21.289062 -115.019531 21.65625 -119.878906 21.65625 -119.828125 C 21.71875 -120.910156 21.773438 -121.816406 21.828125 -122.546875 C 21.890625 -123.273438 22.007812 -123.878906 22.1875 -124.359375 C 22.375 -124.847656 22.617188 -125.210938 22.921875 -125.453125 C 23.222656 -125.703125 23.679688 -125.890625 24.296875 -126.015625 L 55.765625 -133.5625 C 56.554688 -133.800781 57.378906 -133.921875 58.234375 -133.921875 C 59.078125 -133.921875 59.648438 -133.660156 59.953125 -133.140625 C 60.253906 -132.628906 60.40625 -131.585938 60.40625 -130.015625 C 59.988281 -126.253906 59.65625 -122.734375 59.40625 -119.453125 C 59.164062 -116.179688 58.96875 -113.054688 58.8125 -110.078125 C 58.664062 -107.109375 58.53125 -104.242188 58.40625 -101.484375 C 58.289062 -98.722656 58.140625 -95.976562 57.953125 -93.25 C 57.585938 -90.28125 57.269531 -87.304688 57 -84.328125 C 56.726562 -81.359375 56.46875 -78.28125 56.21875 -75.09375 C 55.976562 -71.914062 55.722656 -68.550781 55.453125 -65 C 55.179688 -61.457031 54.863281 -57.59375 54.5 -53.40625 L 50.5 -5.453125 C 50.4375 -4.910156 50.328125 -4.378906 50.171875 -3.859375 C 50.023438 -3.347656 49.617188 -2.941406 48.953125 -2.640625 C 48.890625 -2.640625 48.523438 -2.515625 47.859375 -2.265625 C 47.191406 -2.023438 46.3125 -1.707031 45.21875 -1.3125 C 44.125 -0.925781 42.847656 -0.519531 41.390625 -0.09375 C 39.941406 0.332031 38.394531 0.726562 36.75 1.09375 C 34.019531 1.695312 31.640625 2.300781 29.609375 2.90625 C 27.578125 3.519531 25.769531 4.082031 24.1875 4.59375 C 22.613281 5.113281 21.160156 5.523438 19.828125 5.828125 C 18.492188 6.128906 17.160156 6.28125 15.828125 6.28125 C 14.921875 6.28125 14.160156 6.035156 13.546875 5.546875 C 12.941406 5.066406 12.640625 4.1875 12.640625 2.90625 Z M 12.640625 2.90625 "/></g><g transform="translate(561.936982, 755.731981)"><path style="stroke:none" d="M 11.375 -58.765625 C 11.375 -65.742188 12.175781 -72.429688 13.78125 -78.828125 C 15.382812 -85.234375 17.671875 -91.207031 20.640625 -96.75 C 23.617188 -102.300781 27.210938 -107.335938 31.421875 -111.859375 C 35.640625 -116.378906 40.359375 -120.257812 45.578125 -123.5 C 50.796875 -126.75 56.453125 -129.253906 62.546875 -131.015625 C 68.640625 -132.773438 75.054688 -133.65625 81.796875 -133.65625 C 87.128906 -133.65625 91.8125 -133.304688 95.84375 -132.609375 C 99.875 -131.910156 103.390625 -131.03125 106.390625 -129.96875 C 109.398438 -128.90625 111.921875 -127.734375 113.953125 -126.453125 C 115.984375 -125.179688 117.664062 -123.972656 119 -122.828125 C 118.9375 -122.828125 118.90625 -122.613281 118.90625 -122.1875 C 118.90625 -121.28125 118.976562 -119.613281 119.125 -117.1875 C 119.28125 -114.757812 119.460938 -112.054688 119.671875 -109.078125 C 119.890625 -106.109375 120.070312 -103.09375 120.21875 -100.03125 C 120.375 -96.96875 120.453125 -94.316406 120.453125 -92.078125 C 120.453125 -91.710938 120.332031 -91.300781 120.09375 -90.84375 C 119.851562 -90.382812 119.25 -90.15625 118.28125 -90.15625 C 117.726562 -90.15625 117.054688 -90.25 116.265625 -90.4375 C 114.992188 -90.800781 113.390625 -91.632812 111.453125 -92.9375 C 109.515625 -94.238281 107.253906 -95.601562 104.671875 -97.03125 C 102.097656 -98.457031 99.21875 -99.726562 96.03125 -100.84375 C 92.84375 -101.96875 89.367188 -102.53125 85.609375 -102.53125 C 80.640625 -102.53125 76.117188 -101.484375 72.046875 -99.390625 C 67.984375 -97.296875 64.523438 -94.382812 61.671875 -90.65625 C 58.828125 -86.925781 56.613281 -82.5 55.03125 -77.375 C 53.457031 -72.25 52.671875 -66.6875 52.671875 -60.6875 C 52.671875 -55.40625 53.15625 -50.457031 54.125 -45.84375 C 55.101562 -41.238281 56.578125 -37.253906 58.546875 -33.890625 C 60.515625 -30.523438 62.953125 -27.867188 65.859375 -25.921875 C 68.773438 -23.984375 72.207031 -23.015625 76.15625 -23.015625 C 79.96875 -23.015625 84.300781 -23.832031 89.15625 -25.46875 L 91.25 -38.296875 L 73.875 -38.296875 C 75.207031 -45.640625 76.359375 -51.398438 77.328125 -55.578125 C 78.304688 -59.765625 79.21875 -62.921875 80.0625 -65.046875 C 80.914062 -67.171875 81.796875 -68.503906 82.703125 -69.046875 C 83.609375 -69.597656 84.671875 -69.875 85.890625 -69.875 L 133.734375 -69.875 C 135.128906 -69.875 136.144531 -69.78125 136.78125 -69.59375 C 137.425781 -69.414062 137.75 -68.78125 137.75 -67.6875 C 137.75 -67.144531 137.6875 -66.492188 137.5625 -65.734375 C 137.4375 -64.972656 137.285156 -64.046875 137.109375 -62.953125 L 132.5625 -47.671875 C 132.007812 -45.734375 131.550781 -44.234375 131.1875 -43.171875 C 130.820312 -42.109375 130.367188 -41.316406 129.828125 -40.796875 C 129.285156 -40.285156 128.539062 -39.984375 127.59375 -39.890625 C 126.65625 -39.804688 125.304688 -39.765625 123.546875 -39.765625 C 122.578125 -39.765625 122 -39.367188 121.8125 -38.578125 C 121.632812 -37.785156 121.488281 -36.96875 121.375 -36.125 C 121.007812 -33.445312 120.644531 -30.789062 120.28125 -28.15625 C 119.914062 -25.519531 119.566406 -23.0625 119.234375 -20.78125 C 118.898438 -18.507812 118.550781 -16.507812 118.1875 -14.78125 C 117.820312 -13.050781 117.457031 -11.796875 117.09375 -11.015625 C 112.96875 -8.398438 109.222656 -6.109375 105.859375 -4.140625 C 102.492188 -2.171875 99.140625 -0.535156 95.796875 0.765625 C 92.460938 2.078125 88.945312 3.066406 85.25 3.734375 C 81.550781 4.398438 77.304688 4.734375 72.515625 4.734375 C 63.960938 4.734375 55.953125 3.1875 48.484375 0.09375 C 41.023438 -3 34.550781 -7.347656 29.0625 -12.953125 C 23.570312 -18.566406 19.25 -25.253906 16.09375 -33.015625 C 12.945312 -40.785156 11.375 -49.367188 11.375 -58.765625 Z M 11.375 -58.765625 "/></g><g transform="translate(695.036111, 755.731981)"><path style="stroke:none" d="M 12.640625 2.90625 L 17.203125 -59.3125 C 18.710938 -80.175781 19.832031 -95.488281 20.5625 -105.25 C 21.289062 -115.019531 21.65625 -119.878906 21.65625 -119.828125 C 21.71875 -120.910156 21.773438 -121.816406 21.828125 -122.546875 C 21.890625 -123.273438 22.007812 -123.878906 22.1875 -124.359375 C 22.375 -124.847656 22.617188 -125.210938 22.921875 -125.453125 C 23.222656 -125.703125 23.679688 -125.890625 24.296875 -126.015625 L 55.765625 -133.5625 C 56.554688 -133.800781 57.378906 -133.921875 58.234375 -133.921875 C 59.078125 -133.921875 59.648438 -133.660156 59.953125 -133.140625 C 60.253906 -132.628906 60.40625 -131.585938 60.40625 -130.015625 C 59.988281 -126.253906 59.65625 -122.734375 59.40625 -119.453125 C 59.164062 -116.179688 58.96875 -113.054688 58.8125 -110.078125 C 58.664062 -107.109375 58.53125 -104.242188 58.40625 -101.484375 C 58.289062 -98.722656 58.140625 -95.976562 57.953125 -93.25 C 57.585938 -90.28125 57.269531 -87.304688 57 -84.328125 C 56.726562 -81.359375 56.46875 -78.28125 56.21875 -75.09375 C 55.976562 -71.914062 55.722656 -68.550781 55.453125 -65 C 55.179688 -61.457031 54.863281 -57.59375 54.5 -53.40625 L 50.5 -5.453125 C 50.4375 -4.910156 50.328125 -4.378906 50.171875 -3.859375 C 50.023438 -3.347656 49.617188 -2.941406 48.953125 -2.640625 C 48.890625 -2.640625 48.523438 -2.515625 47.859375 -2.265625 C 47.191406 -2.023438 46.3125 -1.707031 45.21875 -1.3125 C 44.125 -0.925781 42.847656 -0.519531 41.390625 -0.09375 C 39.941406 0.332031 38.394531 0.726562 36.75 1.09375 C 34.019531 1.695312 31.640625 2.300781 29.609375 2.90625 C 27.578125 3.519531 25.769531 4.082031 24.1875 4.59375 C 22.613281 5.113281 21.160156 5.523438 19.828125 5.828125 C 18.492188 6.128906 17.160156 6.28125 15.828125 6.28125 C 14.921875 6.28125 14.160156 6.035156 13.546875 5.546875 C 12.941406 5.066406 12.640625 4.1875 12.640625 2.90625 Z M 12.640625 2.90625 "/></g><g transform="translate(755.808647, 755.731981)"><path style="stroke:none" d="M 32.578125 2.90625 C 32.878906 -1.519531 33.179688 -5.796875 33.484375 -9.921875 C 33.785156 -14.046875 34.054688 -18.046875 34.296875 -21.921875 L 37.578125 -64.875 C 37.941406 -68.144531 38.242188 -71.128906 38.484375 -73.828125 C 38.722656 -76.523438 38.914062 -79.160156 39.0625 -81.734375 C 39.21875 -84.316406 39.375 -86.925781 39.53125 -89.5625 C 39.6875 -92.207031 39.851562 -95.132812 40.03125 -98.34375 C 38.03125 -98.40625 35.921875 -98.4375 33.703125 -98.4375 C 31.492188 -98.4375 29.175781 -98.4375 26.75 -98.4375 L 9.1875 -98.4375 C 8.519531 -98.4375 8.109375 -98.691406 7.953125 -99.203125 C 7.804688 -99.722656 7.734375 -100.195312 7.734375 -100.625 L 7.734375 -101.265625 L 17.734375 -127.5625 L 17.65625 -127.921875 C 17.65625 -128.222656 17.847656 -128.476562 18.234375 -128.6875 C 18.628906 -128.90625 19.523438 -129.070312 20.921875 -129.1875 C 29.296875 -129.675781 37.410156 -130.144531 45.265625 -130.59375 C 53.117188 -131.050781 60.878906 -131.460938 68.546875 -131.828125 C 76.222656 -132.191406 83.894531 -132.554688 91.5625 -132.921875 C 99.238281 -133.285156 107.140625 -133.617188 115.265625 -133.921875 C 115.992188 -133.921875 116.769531 -133.828125 117.59375 -133.640625 C 118.414062 -133.460938 118.828125 -132.800781 118.828125 -131.65625 C 118.828125 -131.53125 118.796875 -131.40625 118.734375 -131.28125 C 118.671875 -131.164062 118.640625 -131.046875 118.640625 -130.921875 C 117.671875 -128.429688 116.773438 -126.0625 115.953125 -123.8125 C 115.128906 -121.570312 114.320312 -119.359375 113.53125 -117.171875 C 112.75 -114.992188 111.945312 -112.78125 111.125 -110.53125 C 110.3125 -108.289062 109.421875 -105.925781 108.453125 -103.4375 C 108.390625 -103.382812 108.265625 -103.097656 108.078125 -102.578125 C 107.898438 -102.066406 107.628906 -101.488281 107.265625 -100.84375 C 106.898438 -100.207031 106.414062 -99.617188 105.8125 -99.078125 C 105.207031 -98.535156 104.445312 -98.234375 103.53125 -98.171875 C 103.226562 -98.234375 102.925781 -98.265625 102.625 -98.265625 C 102.320312 -98.265625 101.988281 -98.265625 101.625 -98.265625 L 77.328125 -98.265625 C 77.023438 -95.171875 76.738281 -91.894531 76.46875 -88.4375 C 76.195312 -84.976562 75.878906 -81.609375 75.515625 -78.328125 L 68.875 -7.28125 C 68.8125 -6.726562 68.703125 -6.179688 68.546875 -5.640625 C 68.398438 -5.097656 67.992188 -4.703125 67.328125 -4.453125 L 41.578125 4.828125 C 40.910156 5.066406 40.03125 5.367188 38.9375 5.734375 C 37.84375 6.097656 36.78125 6.28125 35.75 6.28125 C 34.90625 6.28125 34.164062 6.066406 33.53125 5.640625 C 32.894531 5.210938 32.578125 4.425781 32.578125 3.28125 Z M 32.578125 2.90625 "/></g><g transform="translate(861.250815, 755.731981)"><path style="stroke:none" d="M 6.09375 -6.640625 C 6.882812 -8.210938 7.703125 -9.984375 8.546875 -11.953125 C 9.398438 -13.929688 10.191406 -16.070312 10.921875 -18.375 L 13.375 -24.375 C 12.28125 -26.019531 11.171875 -27.796875 10.046875 -29.703125 C 8.929688 -31.617188 7.914062 -33.578125 7 -35.578125 C 6.09375 -37.578125 5.347656 -39.578125 4.765625 -41.578125 C 4.191406 -43.578125 3.90625 -45.519531 3.90625 -47.40625 C 3.90625 -47.519531 4.375 -47.625 5.3125 -47.71875 C 6.257812 -47.8125 7.445312 -47.882812 8.875 -47.9375 C 10.300781 -48 11.847656 -48.046875 13.515625 -48.078125 C 15.179688 -48.109375 16.722656 -48.140625 18.140625 -48.171875 C 19.566406 -48.203125 20.75 -48.234375 21.6875 -48.265625 C 22.632812 -48.296875 23.109375 -48.3125 23.109375 -48.3125 C 24.503906 -51.945312 25.867188 -55.398438 27.203125 -58.671875 C 28.535156 -61.953125 29.867188 -65.257812 31.203125 -68.59375 C 32.535156 -71.9375 33.867188 -75.347656 35.203125 -78.828125 C 36.546875 -82.316406 37.882812 -86.066406 39.21875 -90.078125 C 41.757812 -97.597656 44.242188 -104.207031 46.671875 -109.90625 C 49.097656 -115.601562 51.375 -120.910156 53.5 -125.828125 C 53.738281 -126.429688 54.144531 -126.988281 54.71875 -127.5 C 55.300781 -128.019531 55.925781 -128.460938 56.59375 -128.828125 C 57.257812 -129.191406 57.910156 -129.492188 58.546875 -129.734375 C 59.179688 -129.984375 59.679688 -130.164062 60.046875 -130.28125 C 60.285156 -130.34375 61.207031 -130.613281 62.8125 -131.09375 C 64.425781 -131.582031 66.265625 -132.097656 68.328125 -132.640625 C 70.390625 -133.191406 72.4375 -133.675781 74.46875 -134.09375 C 76.5 -134.519531 78.117188 -134.734375 79.328125 -134.734375 L 80.96875 -134.734375 C 81.9375 -134.734375 82.859375 -134.503906 83.734375 -134.046875 C 84.617188 -133.597656 85.210938 -132.707031 85.515625 -131.375 C 88.429688 -123.914062 91.539062 -115.769531 94.84375 -106.9375 C 98.15625 -98.113281 101.382812 -88.394531 104.53125 -77.78125 C 106.226562 -72.082031 107.894531 -66.6875 109.53125 -61.59375 C 111.175781 -56.5 112.816406 -51.523438 114.453125 -46.671875 C 116.085938 -41.816406 117.738281 -36.960938 119.40625 -32.109375 C 121.070312 -27.265625 122.785156 -22.265625 124.546875 -17.109375 C 125.097656 -14.921875 125.660156 -13.191406 126.234375 -11.921875 C 126.804688 -10.648438 127.335938 -9.648438 127.828125 -8.921875 C 128.316406 -8.191406 128.710938 -7.660156 129.015625 -7.328125 C 129.316406 -6.992188 129.46875 -6.644531 129.46875 -6.28125 C 129.46875 -5.914062 128.890625 -5.550781 127.734375 -5.1875 L 108.171875 1.1875 C 106.722656 1.726562 105.238281 2.269531 103.71875 2.8125 C 102.195312 3.363281 100.769531 3.847656 99.4375 4.265625 C 98.101562 4.691406 96.9375 5.039062 95.9375 5.3125 C 94.9375 5.59375 94.222656 5.734375 93.796875 5.734375 L 93.25 5.734375 C 92.40625 5.734375 91.800781 5.472656 91.4375 4.953125 C 91.070312 4.441406 90.828125 3.941406 90.703125 3.453125 C 90.097656 1.453125 89.492188 -0.347656 88.890625 -1.953125 C 88.285156 -3.554688 87.691406 -5.160156 87.109375 -6.765625 C 86.535156 -8.378906 85.957031 -10.09375 85.375 -11.90625 C 84.800781 -13.726562 84.242188 -15.882812 83.703125 -18.375 C 83.578125 -18.675781 83.238281 -18.929688 82.6875 -19.140625 C 82.144531 -19.359375 81.492188 -19.523438 80.734375 -19.640625 C 79.984375 -19.765625 79.179688 -19.84375 78.328125 -19.875 C 77.484375 -19.90625 76.695312 -19.921875 75.96875 -19.921875 C 73.664062 -19.921875 71.800781 -19.90625 70.375 -19.875 C 68.945312 -19.84375 67.6875 -19.8125 66.59375 -19.78125 C 65.5 -19.757812 64.453125 -19.734375 63.453125 -19.703125 C 62.453125 -19.671875 61.226562 -19.65625 59.78125 -19.65625 C 58.019531 -19.65625 56.210938 -19.671875 54.359375 -19.703125 C 52.515625 -19.734375 50.832031 -19.773438 49.3125 -19.828125 L 44.125 -20.015625 C 42.550781 -15.648438 40.972656 -11.554688 39.390625 -7.734375 C 37.816406 -3.910156 36.117188 0.03125 34.296875 4.09375 C 34.179688 4.582031 33.894531 4.976562 33.4375 5.28125 C 32.976562 5.582031 32.507812 5.734375 32.03125 5.734375 C 31.664062 5.734375 31.453125 5.703125 31.390625 5.640625 C 25.503906 3.515625 20.554688 1.421875 16.546875 -0.640625 C 12.546875 -2.703125 9.0625 -4.703125 6.09375 -6.640625 Z M 67.421875 -88.4375 C 65.960938 -83.03125 64.519531 -78.128906 63.09375 -73.734375 C 61.664062 -69.335938 60.359375 -65.441406 59.171875 -62.046875 C 57.992188 -58.648438 56.976562 -55.785156 56.125 -53.453125 C 55.28125 -51.117188 54.675781 -49.3125 54.3125 -48.03125 L 54.3125 -47.21875 C 54.3125 -46.851562 54.28125 -46.609375 54.21875 -46.484375 L 76.0625 -46.484375 C 75.394531 -49.460938 74.679688 -52.46875 73.921875 -55.5 C 73.160156 -58.53125 72.414062 -61.710938 71.6875 -65.046875 C 70.957031 -68.390625 70.226562 -71.96875 69.5 -75.78125 C 68.78125 -79.601562 68.085938 -83.820312 67.421875 -88.4375 Z M 67.421875 -88.4375 "/></g><g transform="translate(987.344727, 755.731981)"><path style="stroke:none" d="M 60.953125 -130.375 C 60.890625 -128.914062 60.765625 -127.109375 60.578125 -124.953125 C 60.398438 -122.804688 60.207031 -120.535156 60 -118.140625 C 59.789062 -115.742188 59.546875 -113.316406 59.265625 -110.859375 C 58.992188 -108.398438 58.753906 -106.140625 58.546875 -104.078125 C 58.335938 -102.015625 58.171875 -100.238281 58.046875 -98.75 C 57.921875 -97.269531 57.859375 -96.316406 57.859375 -95.890625 C 57.617188 -92.128906 57.363281 -88.640625 57.09375 -85.421875 C 56.820312 -82.210938 56.53125 -79.03125 56.21875 -75.875 C 55.914062 -72.71875 55.597656 -69.457031 55.265625 -66.09375 C 54.929688 -62.726562 54.582031 -59.015625 54.21875 -54.953125 C 53.851562 -50.890625 53.441406 -46.367188 52.984375 -41.390625 C 52.535156 -36.421875 52.070312 -30.722656 51.59375 -24.296875 L 89.25 -28.109375 C 90.945312 -28.296875 92.34375 -28.390625 93.4375 -28.390625 C 94.769531 -28.390625 95.601562 -28.175781 95.9375 -27.75 C 96.269531 -27.320312 96.4375 -26.65625 96.4375 -25.75 C 96.4375 -25.625 96.40625 -25.453125 96.34375 -25.234375 C 96.28125 -25.023438 96.144531 -24.617188 95.9375 -24.015625 C 95.726562 -23.410156 95.425781 -22.53125 95.03125 -21.375 C 94.632812 -20.226562 94.101562 -18.625 93.4375 -16.5625 L 91.4375 -10.546875 C 90.769531 -8.609375 90.144531 -6.863281 89.5625 -5.3125 C 88.988281 -3.769531 88.273438 -2.4375 87.421875 -1.3125 C 86.578125 -0.195312 85.519531 0.691406 84.25 1.359375 C 82.976562 2.023438 81.335938 2.453125 79.328125 2.640625 C 78.054688 2.765625 76.328125 2.867188 74.140625 2.953125 C 71.960938 3.046875 69.445312 3.132812 66.59375 3.21875 C 63.75 3.3125 60.671875 3.421875 57.359375 3.546875 C 54.054688 3.671875 50.675781 3.820312 47.21875 4 C 43.820312 4.125 40.394531 4.203125 36.9375 4.234375 C 33.476562 4.265625 30.203125 4.304688 27.109375 4.359375 C 24.015625 4.421875 21.160156 4.484375 18.546875 4.546875 C 15.941406 4.609375 13.789062 4.671875 12.09375 4.734375 C 10.519531 4.734375 9.382812 4.609375 8.6875 4.359375 C 7.988281 4.117188 7.640625 3.726562 7.640625 3.1875 C 7.640625 2.519531 7.851562 1.5625 8.28125 0.3125 C 8.707031 -0.925781 9.253906 -2.316406 9.921875 -3.859375 C 10.585938 -5.410156 11.328125 -7.019531 12.140625 -8.6875 C 12.960938 -10.351562 13.769531 -11.976562 14.5625 -13.5625 L 17.015625 -46.03125 C 17.492188 -51.550781 17.976562 -57.160156 18.46875 -62.859375 C 18.957031 -68.566406 19.382812 -74.085938 19.75 -79.421875 L 21.296875 -103.53125 C 21.648438 -109.238281 21.890625 -113.378906 22.015625 -115.953125 C 22.140625 -118.535156 22.203125 -119.945312 22.203125 -120.1875 C 22.316406 -121.28125 22.40625 -122.1875 22.46875 -122.90625 C 22.53125 -123.632812 22.632812 -124.242188 22.78125 -124.734375 C 22.9375 -125.222656 23.164062 -125.585938 23.46875 -125.828125 C 23.769531 -126.066406 24.226562 -126.25 24.84375 -126.375 L 56.765625 -133.921875 C 57.429688 -134.160156 58.253906 -134.28125 59.234375 -134.28125 C 59.898438 -134.28125 60.367188 -134.082031 60.640625 -133.6875 C 60.910156 -133.300781 61.046875 -132.5625 61.046875 -131.46875 C 61.046875 -131.34375 61.03125 -131.171875 61 -130.953125 C 60.96875 -130.742188 60.953125 -130.550781 60.953125 -130.375 Z M 60.953125 -130.375 "/></g></g><g style="fill:#00cc66;fill-opacity:1;"><g transform="translate(33.151718, 984.380174)"><path style="stroke:none" d="M 14.46875 -74.796875 C 14.46875 -83.679688 15.488281 -92.191406 17.53125 -100.328125 C 19.582031 -108.472656 22.5 -116.078125 26.28125 -123.140625 C 30.0625 -130.203125 34.632812 -136.609375 40 -142.359375 C 45.363281 -148.109375 51.363281 -153.046875 58 -157.171875 C 64.644531 -161.304688 71.847656 -164.492188 79.609375 -166.734375 C 87.367188 -168.972656 95.53125 -170.09375 104.09375 -170.09375 C 110.882812 -170.09375 116.847656 -169.648438 121.984375 -168.765625 C 127.117188 -167.878906 131.597656 -166.757812 135.421875 -165.40625 C 139.242188 -164.050781 142.445312 -162.5625 145.03125 -160.9375 C 147.613281 -159.320312 149.753906 -157.78125 151.453125 -156.3125 C 151.378906 -156.3125 151.34375 -156.039062 151.34375 -155.5 C 151.34375 -154.34375 151.4375 -152.21875 151.625 -149.125 C 151.820312 -146.039062 152.054688 -142.609375 152.328125 -138.828125 C 152.597656 -135.046875 152.828125 -131.207031 153.015625 -127.3125 C 153.210938 -123.414062 153.3125 -120.039062 153.3125 -117.1875 C 153.3125 -116.71875 153.15625 -116.191406 152.84375 -115.609375 C 152.53125 -115.035156 151.757812 -114.75 150.53125 -114.75 C 149.832031 -114.75 148.984375 -114.863281 147.984375 -115.09375 C 146.359375 -115.5625 144.3125 -116.625 141.84375 -118.28125 C 139.375 -119.9375 136.5 -121.671875 133.21875 -123.484375 C 129.9375 -125.304688 126.269531 -126.929688 122.21875 -128.359375 C 118.164062 -129.785156 113.742188 -130.5 108.953125 -130.5 C 102.628906 -130.5 96.878906 -129.164062 91.703125 -126.5 C 86.535156 -123.832031 82.132812 -120.125 78.5 -115.375 C 74.875 -110.632812 72.054688 -105.003906 70.046875 -98.484375 C 68.046875 -91.960938 67.046875 -84.878906 67.046875 -77.234375 C 67.046875 -70.515625 67.660156 -64.222656 68.890625 -58.359375 C 70.128906 -52.492188 72.003906 -47.414062 74.515625 -43.125 C 77.023438 -38.84375 80.128906 -35.46875 83.828125 -33 C 87.535156 -30.53125 91.898438 -29.296875 96.921875 -29.296875 C 101.785156 -29.296875 107.300781 -30.335938 113.46875 -32.421875 L 116.140625 -48.75 L 94.015625 -48.75 C 95.710938 -58.09375 97.179688 -65.425781 98.421875 -70.75 C 99.660156 -76.070312 100.816406 -80.082031 101.890625 -82.78125 C 102.972656 -85.488281 104.09375 -87.1875 105.25 -87.875 C 106.40625 -88.570312 107.757812 -88.921875 109.3125 -88.921875 L 170.21875 -88.921875 C 171.988281 -88.921875 173.28125 -88.804688 174.09375 -88.578125 C 174.90625 -88.347656 175.3125 -87.539062 175.3125 -86.15625 C 175.3125 -85.457031 175.234375 -84.625 175.078125 -83.65625 C 174.921875 -82.695312 174.726562 -81.519531 174.5 -80.125 L 168.703125 -60.671875 C 168.015625 -58.203125 167.4375 -56.289062 166.96875 -54.9375 C 166.507812 -53.59375 165.929688 -52.59375 165.234375 -51.9375 C 164.535156 -51.28125 163.585938 -50.890625 162.390625 -50.765625 C 161.203125 -50.648438 159.488281 -50.59375 157.25 -50.59375 C 156.007812 -50.59375 155.273438 -50.09375 155.046875 -49.09375 C 154.816406 -48.09375 154.625 -47.050781 154.46875 -45.96875 C 154 -42.570312 153.53125 -39.191406 153.0625 -35.828125 C 152.601562 -32.472656 152.160156 -29.347656 151.734375 -26.453125 C 151.316406 -23.554688 150.875 -21.007812 150.40625 -18.8125 C 149.945312 -16.613281 149.484375 -15.015625 149.015625 -14.015625 C 143.773438 -10.691406 139.007812 -7.773438 134.71875 -5.265625 C 130.4375 -2.753906 126.171875 -0.671875 121.921875 0.984375 C 117.679688 2.640625 113.207031 3.890625 108.5 4.734375 C 103.789062 5.585938 98.382812 6.015625 92.28125 6.015625 C 81.394531 6.015625 71.203125 4.046875 61.703125 0.109375 C 52.210938 -3.828125 43.972656 -9.363281 36.984375 -16.5 C 30.003906 -23.644531 24.503906 -32.15625 20.484375 -42.03125 C 16.472656 -51.914062 14.46875 -62.835938 14.46875 -74.796875 Z M 14.46875 -74.796875 "/></g><g transform="translate(202.552157, 984.380174)"><path style="stroke:none" d="M 76.1875 -9.265625 C 76.113281 -8.566406 75.976562 -7.890625 75.78125 -7.234375 C 75.59375 -6.578125 75.070312 -6.054688 74.21875 -5.671875 C 73.914062 -5.515625 72.390625 -4.953125 69.640625 -3.984375 C 66.898438 -3.023438 63.734375 -1.90625 60.140625 -0.625 C 56.554688 0.644531 53.007812 1.914062 49.5 3.1875 C 45.988281 4.457031 43.304688 5.441406 41.453125 6.140625 C 40.523438 6.523438 39.382812 6.925781 38.03125 7.34375 C 36.6875 7.769531 35.359375 7.984375 34.046875 7.984375 C 32.960938 7.984375 32.015625 7.710938 31.203125 7.171875 C 30.390625 6.640625 29.984375 5.640625 29.984375 4.171875 C 29.984375 0.773438 30.078125 -2.328125 30.265625 -5.140625 C 30.460938 -7.960938 30.71875 -10.914062 31.03125 -14 C 31.34375 -17.09375 31.671875 -20.507812 32.015625 -24.25 C 32.359375 -28 32.6875 -32.457031 33 -37.625 C 33.382812 -44.425781 33.804688 -50.972656 34.265625 -57.265625 C 34.734375 -63.554688 35.195312 -70.097656 35.65625 -76.890625 L 37.28125 -96.6875 C 37.507812 -99.925781 37.738281 -103.222656 37.96875 -106.578125 C 38.207031 -109.941406 38.441406 -113.398438 38.671875 -116.953125 L 39.953125 -131.078125 C 39.953125 -131.234375 39.71875 -131.3125 39.25 -131.3125 C 38.632812 -131.3125 37.59375 -131.175781 36.125 -130.90625 C 34.65625 -130.632812 32.914062 -130.304688 30.90625 -129.921875 C 28.90625 -129.535156 26.6875 -129.128906 24.25 -128.703125 C 21.820312 -128.273438 19.335938 -127.867188 16.796875 -127.484375 C 16.171875 -127.484375 15.566406 -127.617188 14.984375 -127.890625 C 14.410156 -128.160156 14.125 -128.488281 14.125 -128.875 C 14.125 -129.1875 14.203125 -129.421875 14.359375 -129.578125 L 33.109375 -162.34375 C 37.359375 -163.269531 41.929688 -164.210938 46.828125 -165.171875 C 51.734375 -166.140625 57.003906 -167.007812 62.640625 -167.78125 C 68.273438 -168.550781 74.253906 -169.1875 80.578125 -169.6875 C 86.910156 -170.1875 93.628906 -170.4375 100.734375 -170.4375 C 108.765625 -170.289062 116.582031 -169.5 124.1875 -168.0625 C 131.789062 -166.632812 138.546875 -164.242188 144.453125 -160.890625 C 150.359375 -157.535156 155.101562 -152.984375 158.6875 -147.234375 C 162.28125 -141.484375 164.078125 -134.207031 164.078125 -125.40625 C 164.078125 -120.539062 163.242188 -116.0625 161.578125 -111.96875 C 159.921875 -107.875 157.800781 -104.1875 155.21875 -100.90625 C 152.632812 -97.625 149.796875 -94.726562 146.703125 -92.21875 C 143.617188 -89.71875 140.664062 -87.578125 137.84375 -85.796875 C 135.03125 -84.023438 132.539062 -82.617188 130.375 -81.578125 C 128.21875 -80.535156 126.753906 -79.859375 125.984375 -79.546875 C 125.984375 -79.390625 126.039062 -79.195312 126.15625 -78.96875 C 126.269531 -78.738281 126.519531 -78.296875 126.90625 -77.640625 C 127.289062 -76.984375 127.847656 -76.054688 128.578125 -74.859375 C 129.316406 -73.660156 130.265625 -72.019531 131.421875 -69.9375 C 132.660156 -68.082031 134.128906 -65.609375 135.828125 -62.515625 C 137.523438 -59.429688 139.550781 -55.785156 141.90625 -51.578125 C 144.257812 -47.378906 146.976562 -42.691406 150.0625 -37.515625 C 153.15625 -32.347656 156.707031 -26.789062 160.71875 -20.84375 C 162.03125 -19.6875 163.535156 -18.972656 165.234375 -18.703125 C 166.929688 -18.429688 168.515625 -18.273438 169.984375 -18.234375 C 171.453125 -18.191406 172.6875 -18.113281 173.6875 -18 C 174.6875 -17.882812 175.1875 -17.40625 175.1875 -16.5625 C 175.1875 -15.9375 174.550781 -15.21875 173.28125 -14.40625 C 172.007812 -13.601562 170.523438 -12.773438 168.828125 -11.921875 C 167.128906 -11.078125 165.410156 -10.269531 163.671875 -9.5 C 161.929688 -8.726562 160.597656 -8.109375 159.671875 -7.640625 C 157.816406 -6.710938 155.882812 -5.820312 153.875 -4.96875 C 151.875 -4.125 149.710938 -3.179688 147.390625 -2.140625 C 145.078125 -1.097656 142.507812 0.113281 139.6875 1.5 C 136.875 2.894531 133.695312 4.554688 130.15625 6.484375 C 129.226562 7.023438 128.359375 7.390625 127.546875 7.578125 C 126.734375 7.773438 125.976562 7.875 125.28125 7.875 C 123.894531 7.875 122.695312 7.546875 121.6875 6.890625 C 120.6875 6.234375 119.835938 5.441406 119.140625 4.515625 C 118.453125 3.585938 117.894531 2.640625 117.46875 1.671875 C 117.039062 0.710938 116.675781 -0.0703125 116.375 -0.6875 L 81.859375 -73.40625 Z M 83.25 -87.65625 C 87.1875 -87.65625 91.273438 -88.65625 95.515625 -90.65625 C 99.765625 -92.664062 103.625 -95.253906 107.09375 -98.421875 C 110.570312 -101.585938 113.429688 -105.175781 115.671875 -109.1875 C 117.910156 -113.207031 119.03125 -117.257812 119.03125 -121.34375 C 119.03125 -132.539062 112.316406 -138.140625 98.890625 -138.140625 C 96.335938 -138.140625 94.210938 -137.960938 92.515625 -137.609375 C 90.816406 -137.265625 89.273438 -137.015625 87.890625 -136.859375 Z M 83.25 -87.65625 "/></g><g transform="translate(373.110494, 984.380174)"><path style="stroke:none" d="M 64.953125 -78.96875 C 64.953125 -73.40625 65.550781 -67.828125 66.75 -62.234375 C 67.945312 -56.640625 69.9375 -51.601562 72.71875 -47.125 C 75.5 -42.644531 79.164062 -39.015625 83.71875 -36.234375 C 88.269531 -33.460938 93.90625 -32.078125 100.625 -32.078125 C 105.789062 -32.378906 110.320312 -33.4375 114.21875 -35.25 C 118.125 -37.070312 121.484375 -39.425781 124.296875 -42.3125 C 127.117188 -45.207031 129.457031 -48.523438 131.3125 -52.265625 C 133.164062 -56.015625 134.628906 -59.953125 135.703125 -64.078125 C 136.785156 -68.210938 137.539062 -72.441406 137.96875 -76.765625 C 138.394531 -81.085938 138.609375 -85.257812 138.609375 -89.28125 C 138.609375 -94.757812 137.875 -100.0625 136.40625 -105.1875 C 134.9375 -110.320312 132.734375 -114.859375 129.796875 -118.796875 C 126.867188 -122.734375 123.222656 -125.898438 118.859375 -128.296875 C 114.492188 -130.691406 109.421875 -131.890625 103.640625 -131.890625 C 99.078125 -131.890625 94.960938 -131.039062 91.296875 -129.34375 C 87.628906 -127.644531 84.367188 -125.382812 81.515625 -122.5625 C 78.660156 -119.75 76.207031 -116.507812 74.15625 -112.84375 C 72.113281 -109.175781 70.414062 -105.390625 69.0625 -101.484375 C 67.71875 -97.585938 66.71875 -93.691406 66.0625 -89.796875 C 65.40625 -85.898438 65.035156 -82.289062 64.953125 -78.96875 Z M 87.53125 6.015625 C 75.957031 6.015625 65.613281 3.851562 56.5 -0.46875 C 47.394531 -4.789062 39.695312 -10.632812 33.40625 -18 C 27.113281 -25.375 22.285156 -33.90625 18.921875 -43.59375 C 15.566406 -53.28125 13.890625 -63.53125 13.890625 -74.34375 C 13.890625 -86.457031 15.609375 -97.628906 19.046875 -107.859375 C 22.484375 -118.085938 27.289062 -127.15625 33.46875 -135.0625 C 39.644531 -142.976562 46.992188 -149.65625 55.515625 -155.09375 C 64.046875 -160.539062 73.40625 -164.578125 83.59375 -167.203125 C 84.519531 -167.203125 85.234375 -167.9375 85.734375 -169.40625 C 86.242188 -170.875 86.691406 -172.492188 87.078125 -174.265625 C 87.460938 -176.035156 87.925781 -177.65625 88.46875 -179.125 C 89.007812 -180.59375 89.78125 -181.328125 90.78125 -181.328125 C 105.757812 -179.785156 119.226562 -177.140625 131.1875 -173.390625 C 143.15625 -169.648438 153.304688 -164.304688 161.640625 -157.359375 C 169.984375 -150.410156 176.375 -141.628906 180.8125 -131.015625 C 185.25 -120.398438 187.46875 -107.453125 187.46875 -92.171875 C 187.46875 -82.367188 186.269531 -73.144531 183.875 -64.5 C 181.476562 -55.851562 178.117188 -47.878906 173.796875 -40.578125 C 169.472656 -33.285156 164.28125 -26.765625 158.21875 -21.015625 C 152.164062 -15.265625 145.429688 -10.378906 138.015625 -6.359375 C 130.609375 -2.347656 122.640625 0.710938 114.109375 2.828125 C 105.578125 4.953125 96.71875 6.015625 87.53125 6.015625 Z M 87.53125 6.015625 "/></g><g transform="translate(560.226769, 984.380174)"><path style="stroke:none" d="M 179.59375 -157.125 C 179.976562 -158.519531 180.398438 -159.660156 180.859375 -160.546875 C 181.328125 -161.429688 182.375 -162.066406 184 -162.453125 L 218.15625 -170.328125 C 218.300781 -170.328125 218.488281 -170.363281 218.71875 -170.4375 C 218.957031 -170.519531 219.15625 -170.5625 219.3125 -170.5625 C 220.394531 -170.5625 221.144531 -170.097656 221.5625 -169.171875 C 221.988281 -168.242188 222.203125 -167.359375 222.203125 -166.515625 C 222.203125 -166.359375 222.179688 -166.046875 222.140625 -165.578125 C 222.109375 -165.117188 222.050781 -164.8125 221.96875 -164.65625 L 174.03125 -18.984375 C 172.800781 -15.828125 171.78125 -13.265625 170.96875 -11.296875 C 170.15625 -9.328125 169.34375 -7.703125 168.53125 -6.421875 C 167.71875 -5.148438 166.789062 -4.085938 165.75 -3.234375 C 164.707031 -2.390625 163.316406 -1.539062 161.578125 -0.6875 C 159.847656 0.15625 157.671875 1.132812 155.046875 2.25 C 152.421875 3.375 149.101562 4.898438 145.09375 6.828125 C 143.695312 7.523438 142.613281 7.875 141.84375 7.875 C 140.601562 7.875 139.675781 7.410156 139.0625 6.484375 C 138.445312 5.554688 137.945312 4.515625 137.5625 3.359375 L 117.765625 -67.15625 L 92.984375 -16.09375 C 92.597656 -15.164062 91.707031 -13.929688 90.3125 -12.390625 C 88.925781 -10.847656 87.363281 -9.265625 85.625 -7.640625 C 83.882812 -6.015625 82.144531 -4.445312 80.40625 -2.9375 C 78.675781 -1.4375 77.269531 -0.226562 76.1875 0.6875 C 75.1875 1.539062 74.125 2.390625 73 3.234375 C 71.882812 4.085938 70.75 4.859375 69.59375 5.546875 C 68.4375 6.242188 67.335938 6.804688 66.296875 7.234375 C 65.253906 7.660156 64.269531 7.875 63.34375 7.875 C 61.332031 7.875 60.019531 6.753906 59.40625 4.515625 L 14.46875 -153.890625 C 14.320312 -154.503906 14.148438 -155.117188 13.953125 -155.734375 C 13.753906 -156.359375 13.65625 -156.9375 13.65625 -157.46875 C 13.65625 -159.40625 14.117188 -161.03125 15.046875 -162.34375 C 15.972656 -163.65625 17.59375 -164.773438 19.90625 -165.703125 C 22.226562 -166.628906 25.316406 -167.378906 29.171875 -167.953125 C 33.035156 -168.535156 37.941406 -169.019531 43.890625 -169.40625 C 46.660156 -169.789062 48.992188 -170.054688 50.890625 -170.203125 C 52.785156 -170.359375 54.390625 -170.4375 55.703125 -170.4375 C 57.929688 -170.4375 59.394531 -170.085938 60.09375 -169.390625 C 60.789062 -168.703125 61.410156 -167.546875 61.953125 -165.921875 L 85.796875 -74.109375 L 105.609375 -108.15625 L 97.609375 -143 C 97.148438 -144.851562 96.957031 -146.242188 97.03125 -147.171875 C 97.03125 -148.941406 97.492188 -150.367188 98.421875 -151.453125 C 99.347656 -152.535156 100.890625 -153.421875 103.046875 -154.109375 C 105.210938 -154.804688 108.050781 -155.425781 111.5625 -155.96875 C 115.070312 -156.507812 119.375 -157.128906 124.46875 -157.828125 C 126.707031 -158.128906 128.640625 -158.359375 130.265625 -158.515625 C 131.890625 -158.671875 133.28125 -158.75 134.4375 -158.75 C 136.75 -158.75 138.328125 -158.398438 139.171875 -157.703125 C 140.023438 -157.015625 140.644531 -155.894531 141.03125 -154.34375 L 156.78125 -83.015625 Z M 179.59375 -157.125 "/></g><g transform="translate(772.353634, 984.380174)"><path style="stroke:none" d="M 41.453125 3.703125 C 41.835938 -1.929688 42.222656 -7.375 42.609375 -12.625 C 42.992188 -17.875 43.34375 -22.96875 43.65625 -27.90625 L 47.828125 -82.5625 C 48.285156 -86.726562 48.664062 -90.53125 48.96875 -93.96875 C 49.28125 -97.40625 49.53125 -100.757812 49.71875 -104.03125 C 49.914062 -107.3125 50.109375 -110.628906 50.296875 -113.984375 C 50.492188 -117.347656 50.710938 -121.078125 50.953125 -125.171875 C 48.398438 -125.242188 45.710938 -125.28125 42.890625 -125.28125 C 40.078125 -125.28125 37.128906 -125.28125 34.046875 -125.28125 L 11.6875 -125.28125 C 10.84375 -125.28125 10.320312 -125.609375 10.125 -126.265625 C 9.9375 -126.921875 9.84375 -127.519531 9.84375 -128.0625 L 9.84375 -128.875 L 22.578125 -162.34375 L 22.46875 -162.796875 C 22.46875 -163.179688 22.71875 -163.507812 23.21875 -163.78125 C 23.71875 -164.050781 24.851562 -164.265625 26.625 -164.421875 C 37.28125 -165.035156 47.601562 -165.632812 57.59375 -166.21875 C 67.59375 -166.800781 77.472656 -167.320312 87.234375 -167.78125 C 97.003906 -168.238281 106.769531 -168.695312 116.53125 -169.15625 C 126.300781 -169.625 136.359375 -170.050781 146.703125 -170.4375 C 147.628906 -170.4375 148.613281 -170.320312 149.65625 -170.09375 C 150.695312 -169.863281 151.21875 -169.015625 151.21875 -167.546875 C 151.21875 -167.390625 151.175781 -167.234375 151.09375 -167.078125 C 151.019531 -166.929688 150.984375 -166.78125 150.984375 -166.625 C 149.753906 -163.457031 148.617188 -160.445312 147.578125 -157.59375 C 146.535156 -154.738281 145.507812 -151.921875 144.5 -149.140625 C 143.5 -146.359375 142.476562 -143.539062 141.4375 -140.6875 C 140.394531 -137.832031 139.253906 -134.820312 138.015625 -131.65625 C 137.941406 -131.570312 137.789062 -131.203125 137.5625 -130.546875 C 137.332031 -129.898438 136.984375 -129.171875 136.515625 -128.359375 C 136.054688 -127.546875 135.4375 -126.789062 134.65625 -126.09375 C 133.882812 -125.394531 132.921875 -125.007812 131.765625 -124.9375 C 131.378906 -125.007812 130.992188 -125.046875 130.609375 -125.046875 C 130.222656 -125.046875 129.800781 -125.046875 129.34375 -125.046875 L 98.421875 -125.046875 C 98.035156 -121.117188 97.664062 -116.953125 97.3125 -112.546875 C 96.96875 -108.148438 96.566406 -103.867188 96.109375 -99.703125 L 87.65625 -9.265625 C 87.570312 -8.566406 87.429688 -7.867188 87.234375 -7.171875 C 87.046875 -6.484375 86.53125 -5.984375 85.6875 -5.671875 L 52.921875 6.140625 C 52.066406 6.441406 50.941406 6.820312 49.546875 7.28125 C 48.160156 7.75 46.8125 7.984375 45.5 7.984375 C 44.425781 7.984375 43.484375 7.710938 42.671875 7.171875 C 41.859375 6.640625 41.453125 5.640625 41.453125 4.171875 Z M 41.453125 3.703125 "/></g><g transform="translate(906.553983, 984.380174)"><path style="stroke:none" d="M 123.3125 -152.5 C 123.3125 -155.28125 123.5625 -157.191406 124.0625 -158.234375 C 124.570312 -159.273438 125.597656 -159.988281 127.140625 -160.375 L 166.96875 -169.984375 C 167.96875 -170.285156 169.007812 -170.4375 170.09375 -170.4375 C 171.175781 -170.4375 171.910156 -170.109375 172.296875 -169.453125 C 172.679688 -168.796875 172.875 -167.46875 172.875 -165.46875 L 171.484375 -147.28125 C 171.097656 -141.957031 170.671875 -136.671875 170.203125 -131.421875 C 169.742188 -126.171875 169.050781 -121.578125 168.125 -117.640625 L 166.046875 -101.203125 C 165.429688 -96.335938 164.851562 -91.066406 164.3125 -85.390625 C 163.769531 -79.722656 163.191406 -73.375 162.578125 -66.34375 L 157.125 -9.265625 C 157.050781 -8.566406 156.894531 -7.867188 156.65625 -7.171875 C 156.425781 -6.484375 155.925781 -5.984375 155.15625 -5.671875 C 154.613281 -5.441406 153.359375 -4.941406 151.390625 -4.171875 C 149.421875 -3.398438 147.085938 -2.507812 144.390625 -1.5 C 141.691406 -0.5 138.796875 0.554688 135.703125 1.671875 C 132.617188 2.796875 129.6875 3.820312 126.90625 4.75 C 124.125 5.675781 121.648438 6.445312 119.484375 7.0625 C 117.328125 7.675781 115.863281 7.984375 115.09375 7.984375 C 114.007812 7.984375 113.0625 7.691406 112.25 7.109375 C 111.445312 6.535156 111.046875 5.441406 111.046875 3.828125 C 111.046875 -5.515625 111.582031 -15.066406 112.65625 -24.828125 C 113.738281 -34.597656 114.707031 -44.304688 115.5625 -53.953125 C 115.71875 -55.035156 115.773438 -56.039062 115.734375 -56.96875 C 115.691406 -57.894531 115.75 -58.898438 115.90625 -59.984375 L 73.53125 -59.984375 L 68.78125 -9.265625 C 68.707031 -8.566406 68.570312 -7.890625 68.375 -7.234375 C 68.175781 -6.578125 67.65625 -6.054688 66.8125 -5.671875 C 66.5 -5.515625 64.972656 -4.953125 62.234375 -3.984375 C 59.492188 -3.023438 56.328125 -1.90625 52.734375 -0.625 C 49.148438 0.644531 45.601562 1.914062 42.09375 3.1875 C 38.582031 4.457031 35.898438 5.441406 34.046875 6.140625 C 33.117188 6.523438 31.976562 6.925781 30.625 7.34375 C 29.269531 7.769531 27.9375 7.984375 26.625 7.984375 C 25.550781 7.984375 24.609375 7.675781 23.796875 7.0625 C 22.984375 6.445312 22.578125 5.328125 22.578125 3.703125 C 22.578125 -0.00390625 22.710938 -4.226562 22.984375 -8.96875 C 23.253906 -13.71875 23.582031 -18.695312 23.96875 -23.90625 C 24.351562 -29.125 24.816406 -34.472656 25.359375 -39.953125 C 25.898438 -45.429688 26.441406 -50.832031 26.984375 -56.15625 L 27.21875 -59.515625 C 20.957031 -59.515625 16.414062 -59.6875 13.59375 -60.03125 C 10.78125 -60.382812 9.375 -61.296875 9.375 -62.765625 C 9.375 -63.765625 9.953125 -65.078125 11.109375 -66.703125 C 12.660156 -68.859375 14.457031 -71.457031 16.5 -74.5 C 18.539062 -77.550781 20.507812 -80.5625 22.40625 -83.53125 C 24.300781 -86.507812 26 -89.175781 27.5 -91.53125 C 29.007812 -93.882812 29.992188 -95.410156 30.453125 -96.109375 L 33.109375 -124.015625 C 33.109375 -124.171875 33.1875 -125.328125 33.34375 -127.484375 C 33.5 -129.648438 33.691406 -132.21875 33.921875 -135.1875 C 34.160156 -138.15625 34.410156 -141.222656 34.671875 -144.390625 C 34.941406 -147.554688 35.195312 -150.257812 35.4375 -152.5 C 35.582031 -155.195312 35.789062 -157.085938 36.0625 -158.171875 C 36.332031 -159.253906 37.242188 -159.988281 38.796875 -160.375 L 78.15625 -169.984375 C 79.164062 -170.285156 80.207031 -170.4375 81.28125 -170.4375 C 82.363281 -170.4375 83.097656 -170.109375 83.484375 -169.453125 C 83.867188 -168.796875 84.0625 -167.46875 84.0625 -165.46875 C 83.519531 -159.90625 83.09375 -154.847656 82.78125 -150.296875 C 82.476562 -145.742188 82.148438 -141.5 81.796875 -137.5625 C 81.453125 -133.625 81.085938 -129.878906 80.703125 -126.328125 C 80.316406 -122.773438 79.773438 -119.144531 79.078125 -115.4375 L 76.765625 -97.5 L 118.796875 -97.953125 C 119.492188 -108.222656 120.265625 -116.945312 121.109375 -124.125 C 121.960938 -131.300781 122.503906 -136.976562 122.734375 -141.15625 C 122.972656 -145.09375 123.128906 -147.910156 123.203125 -149.609375 C 123.273438 -151.304688 123.3125 -152.269531 123.3125 -152.5 Z M 123.3125 -152.5 "/></g></g><g style="fill:#8000ff;fill-opacity:1;"><g transform="translate(284.756209, 1110.967409)"><path style="stroke:none" d="M 72.5 -53.765625 C 72.46875 -50.796875 72.179688 -48.140625 71.640625 -45.796875 C 71.109375 -43.453125 70.347656 -41.335938 69.359375 -39.453125 C 68.378906 -37.578125 67.191406 -35.890625 65.796875 -34.390625 C 64.398438 -32.890625 62.804688 -31.484375 61.015625 -30.171875 C 57.566406 -27.679688 53.785156 -25.804688 49.671875 -24.546875 C 45.566406 -23.296875 41.445312 -22.671875 37.3125 -22.671875 C 36.625 -22.671875 35.941406 -22.6875 35.265625 -22.71875 C 34.597656 -22.75 33.914062 -22.800781 33.21875 -22.875 L 31.515625 -3.984375 L 30.640625 -2.375 C 30.566406 -2.238281 29.976562 -1.960938 28.875 -1.546875 C 27.769531 -1.140625 26.390625 -0.660156 24.734375 -0.109375 L 21.46875 0.984375 C 20.4375 1.359375 19.523438 1.703125 18.734375 2.015625 C 17.941406 2.328125 17.195312 2.601562 16.5 2.84375 C 15.8125 3.082031 15.140625 3.265625 14.484375 3.390625 C 13.828125 3.515625 13.140625 3.578125 12.421875 3.578125 C 11.941406 3.578125 11.5625 3.453125 11.28125 3.203125 C 11.007812 2.960938 10.875 2.5 10.875 1.8125 L 11.4375 -7.03125 C 11.539062 -8.789062 11.671875 -10.554688 11.828125 -12.328125 C 11.984375 -14.109375 12.128906 -16.140625 12.265625 -18.421875 L 13.25 -30.796875 C 13.457031 -33.304688 13.644531 -35.820312 13.8125 -38.34375 C 13.988281 -40.863281 14.160156 -43.257812 14.328125 -45.53125 C 14.503906 -47.8125 14.660156 -49.941406 14.796875 -51.921875 C 14.929688 -53.910156 15.050781 -55.644531 15.15625 -57.125 C 13.300781 -56.71875 11.8125 -56.414062 10.6875 -56.21875 C 9.5625 -56.03125 8.707031 -55.9375 8.125 -55.9375 C 7.394531 -55.9375 7.03125 -56.25 7.03125 -56.875 C 7.519531 -58.5625 7.972656 -60.21875 8.390625 -61.84375 C 8.765625 -63.21875 9.148438 -64.640625 9.546875 -66.109375 C 9.941406 -67.578125 10.28125 -68.8125 10.5625 -69.8125 C 10.726562 -70.4375 10.921875 -70.910156 11.140625 -71.234375 C 11.367188 -71.554688 11.664062 -71.8125 12.03125 -72 C 12.394531 -72.195312 12.859375 -72.375 13.421875 -72.53125 C 13.992188 -72.6875 14.695312 -72.898438 15.53125 -73.171875 C 16.1875 -73.378906 17.109375 -73.613281 18.296875 -73.875 C 19.484375 -74.132812 20.84375 -74.390625 22.375 -74.640625 C 23.914062 -74.898438 25.582031 -75.148438 27.375 -75.390625 C 29.164062 -75.640625 30.984375 -75.859375 32.828125 -76.046875 C 34.679688 -76.234375 36.503906 -76.382812 38.296875 -76.5 C 40.085938 -76.625 41.773438 -76.6875 43.359375 -76.6875 C 47.296875 -76.6875 51.023438 -76.320312 54.546875 -75.59375 C 58.066406 -74.875 61.15625 -73.644531 63.8125 -71.90625 C 66.46875 -70.164062 68.578125 -67.816406 70.140625 -64.859375 C 71.710938 -61.910156 72.5 -58.210938 72.5 -53.765625 Z M 34.671875 -38.25 C 34.671875 -37.863281 34.738281 -37.523438 34.875 -37.234375 C 35.019531 -36.941406 35.398438 -36.796875 36.015625 -36.796875 C 36.984375 -36.796875 38.128906 -37.007812 39.453125 -37.4375 C 40.785156 -37.875 42.113281 -38.519531 43.4375 -39.375 C 44.769531 -40.238281 46.003906 -41.304688 47.140625 -42.578125 C 48.285156 -43.859375 49.148438 -45.363281 49.734375 -47.09375 C 49.972656 -47.78125 50.171875 -48.660156 50.328125 -49.734375 C 50.484375 -50.804688 50.5625 -52.066406 50.5625 -53.515625 C 50.5625 -55.921875 49.722656 -57.691406 48.046875 -58.828125 C 46.378906 -59.972656 44.195312 -60.546875 41.5 -60.546875 C 41.050781 -60.546875 40.539062 -60.519531 39.96875 -60.46875 C 39.40625 -60.414062 38.875 -60.320312 38.375 -60.1875 C 37.875 -60.050781 37.453125 -59.882812 37.109375 -59.6875 C 36.765625 -59.5 36.570312 -59.25 36.53125 -58.9375 L 36.4375 -57.8125 C 36.394531 -57.351562 36.320312 -56.613281 36.21875 -55.59375 C 36.113281 -54.582031 36 -53.421875 35.875 -52.109375 C 35.757812 -50.796875 35.640625 -49.414062 35.515625 -47.96875 C 35.398438 -46.519531 35.28125 -45.140625 35.15625 -43.828125 C 35.039062 -42.515625 34.9375 -41.359375 34.84375 -40.359375 C 34.757812 -39.359375 34.703125 -38.65625 34.671875 -38.25 Z M 34.671875 -38.25 "/></g></g><g style="fill:#8000ff;fill-opacity:1;"><g transform="translate(354.193806, 1110.967409)"><path style="stroke:none" d="M 3.46875 -3.78125 C 3.914062 -4.675781 4.378906 -5.679688 4.859375 -6.796875 C 5.347656 -7.921875 5.796875 -9.140625 6.203125 -10.453125 L 7.609375 -13.875 C 6.984375 -14.800781 6.351562 -15.804688 5.71875 -16.890625 C 5.082031 -17.984375 4.503906 -19.097656 3.984375 -20.234375 C 3.460938 -21.367188 3.035156 -22.503906 2.703125 -23.640625 C 2.378906 -24.785156 2.21875 -25.894531 2.21875 -26.96875 C 2.21875 -27.03125 2.484375 -27.085938 3.015625 -27.140625 C 3.554688 -27.191406 4.234375 -27.234375 5.046875 -27.265625 C 5.859375 -27.304688 6.738281 -27.332031 7.6875 -27.34375 C 8.632812 -27.363281 9.515625 -27.378906 10.328125 -27.390625 C 11.140625 -27.410156 11.8125 -27.429688 12.34375 -27.453125 C 12.875 -27.472656 13.140625 -27.484375 13.140625 -27.484375 C 13.929688 -29.546875 14.707031 -31.507812 15.46875 -33.375 C 16.226562 -35.238281 16.988281 -37.117188 17.75 -39.015625 C 18.507812 -40.910156 19.269531 -42.847656 20.03125 -44.828125 C 20.789062 -46.816406 21.546875 -48.953125 22.296875 -51.234375 C 23.753906 -55.515625 25.171875 -59.273438 26.546875 -62.515625 C 27.929688 -65.753906 29.222656 -68.773438 30.421875 -71.578125 C 30.566406 -71.921875 30.800781 -72.238281 31.125 -72.53125 C 31.457031 -72.820312 31.8125 -73.070312 32.1875 -73.28125 C 32.570312 -73.488281 32.941406 -73.660156 33.296875 -73.796875 C 33.660156 -73.929688 33.945312 -74.035156 34.15625 -74.109375 C 34.289062 -74.140625 34.816406 -74.289062 35.734375 -74.5625 C 36.648438 -74.84375 37.691406 -75.140625 38.859375 -75.453125 C 40.035156 -75.765625 41.203125 -76.039062 42.359375 -76.28125 C 43.515625 -76.519531 44.4375 -76.640625 45.125 -76.640625 L 46.0625 -76.640625 C 46.613281 -76.640625 47.140625 -76.507812 47.640625 -76.25 C 48.140625 -75.988281 48.472656 -75.484375 48.640625 -74.734375 C 50.296875 -70.484375 52.0625 -65.847656 53.9375 -60.828125 C 55.820312 -55.804688 57.664062 -50.28125 59.46875 -44.25 C 60.425781 -41 61.367188 -37.925781 62.296875 -35.03125 C 63.234375 -32.132812 64.164062 -29.304688 65.09375 -26.546875 C 66.03125 -23.785156 66.972656 -21.023438 67.921875 -18.265625 C 68.867188 -15.503906 69.84375 -12.660156 70.84375 -9.734375 C 71.15625 -8.484375 71.472656 -7.492188 71.796875 -6.765625 C 72.128906 -6.046875 72.429688 -5.476562 72.703125 -5.0625 C 72.984375 -4.65625 73.207031 -4.351562 73.375 -4.15625 C 73.550781 -3.96875 73.640625 -3.773438 73.640625 -3.578125 C 73.640625 -3.367188 73.3125 -3.160156 72.65625 -2.953125 L 61.53125 0.671875 C 60.695312 0.984375 59.847656 1.289062 58.984375 1.59375 C 58.128906 1.90625 57.320312 2.179688 56.5625 2.421875 C 55.800781 2.671875 55.132812 2.875 54.5625 3.03125 C 54 3.1875 53.597656 3.265625 53.359375 3.265625 L 53.046875 3.265625 C 52.554688 3.265625 52.207031 3.113281 52 2.8125 C 51.800781 2.519531 51.664062 2.238281 51.59375 1.96875 C 51.25 0.832031 50.90625 -0.191406 50.5625 -1.109375 C 50.21875 -2.023438 49.878906 -2.941406 49.546875 -3.859375 C 49.222656 -4.773438 48.894531 -5.75 48.5625 -6.78125 C 48.238281 -7.8125 47.921875 -9.035156 47.609375 -10.453125 C 47.535156 -10.628906 47.34375 -10.773438 47.03125 -10.890625 C 46.726562 -11.015625 46.359375 -11.109375 45.921875 -11.171875 C 45.492188 -11.242188 45.035156 -11.285156 44.546875 -11.296875 C 44.066406 -11.316406 43.625 -11.328125 43.21875 -11.328125 C 41.90625 -11.328125 40.84375 -11.316406 40.03125 -11.296875 C 39.21875 -11.285156 38.5 -11.269531 37.875 -11.25 C 37.257812 -11.238281 36.664062 -11.222656 36.09375 -11.203125 C 35.519531 -11.179688 34.820312 -11.171875 34 -11.171875 C 33 -11.171875 31.972656 -11.179688 30.921875 -11.203125 C 29.867188 -11.222656 28.910156 -11.25 28.046875 -11.28125 L 25.09375 -11.390625 C 24.195312 -8.898438 23.300781 -6.566406 22.40625 -4.390625 C 21.507812 -2.222656 20.546875 0.015625 19.515625 2.328125 C 19.441406 2.609375 19.273438 2.832031 19.015625 3 C 18.753906 3.175781 18.488281 3.265625 18.21875 3.265625 C 18.007812 3.265625 17.890625 3.242188 17.859375 3.203125 C 14.503906 1.992188 11.6875 0.804688 9.40625 -0.359375 C 7.132812 -1.535156 5.15625 -2.675781 3.46875 -3.78125 Z M 38.34375 -50.296875 C 37.519531 -47.234375 36.703125 -44.445312 35.890625 -41.9375 C 35.078125 -39.4375 34.332031 -37.21875 33.65625 -35.28125 C 32.988281 -33.351562 32.410156 -31.722656 31.921875 -30.390625 C 31.441406 -29.066406 31.097656 -28.046875 30.890625 -27.328125 L 30.890625 -26.859375 C 30.890625 -26.648438 30.875 -26.507812 30.84375 -26.4375 L 43.265625 -26.4375 C 42.878906 -28.132812 42.472656 -29.84375 42.046875 -31.5625 C 41.617188 -33.289062 41.195312 -35.101562 40.78125 -37 C 40.363281 -38.894531 39.945312 -40.929688 39.53125 -43.109375 C 39.125 -45.285156 38.726562 -47.679688 38.34375 -50.296875 Z M 38.34375 -50.296875 "/></g></g><g style="fill:#8000ff;fill-opacity:1;"><g transform="translate(425.908045, 1110.967409)"><path style="stroke:none" d="M 34.046875 -4.140625 C 34.015625 -3.828125 33.953125 -3.523438 33.859375 -3.234375 C 33.773438 -2.941406 33.546875 -2.707031 33.171875 -2.53125 C 33.035156 -2.46875 32.351562 -2.21875 31.125 -1.78125 C 29.90625 -1.351562 28.492188 -0.851562 26.890625 -0.28125 C 25.285156 0.28125 23.695312 0.847656 22.125 1.421875 C 20.550781 1.992188 19.351562 2.4375 18.53125 2.75 C 18.113281 2.914062 17.601562 3.09375 17 3.28125 C 16.394531 3.476562 15.800781 3.578125 15.21875 3.578125 C 14.726562 3.578125 14.300781 3.453125 13.9375 3.203125 C 13.582031 2.960938 13.40625 2.515625 13.40625 1.859375 C 13.40625 0.347656 13.445312 -1.035156 13.53125 -2.296875 C 13.613281 -3.554688 13.722656 -4.875 13.859375 -6.25 C 14.003906 -7.632812 14.15625 -9.160156 14.3125 -10.828125 C 14.46875 -12.503906 14.613281 -14.5 14.75 -16.8125 C 14.914062 -19.851562 15.101562 -22.78125 15.3125 -25.59375 C 15.519531 -28.40625 15.726562 -31.328125 15.9375 -34.359375 L 16.65625 -43.21875 C 16.757812 -44.664062 16.863281 -46.140625 16.96875 -47.640625 C 17.070312 -49.140625 17.175781 -50.679688 17.28125 -52.265625 L 17.859375 -58.578125 C 17.859375 -58.648438 17.753906 -58.6875 17.546875 -58.6875 C 17.265625 -58.6875 16.796875 -58.625 16.140625 -58.5 C 15.484375 -58.382812 14.707031 -58.238281 13.8125 -58.0625 C 12.914062 -57.894531 11.925781 -57.710938 10.84375 -57.515625 C 9.757812 -57.328125 8.644531 -57.148438 7.5 -56.984375 C 7.226562 -56.984375 6.960938 -57.039062 6.703125 -57.15625 C 6.441406 -57.28125 6.3125 -57.425781 6.3125 -57.59375 C 6.3125 -57.738281 6.347656 -57.84375 6.421875 -57.90625 L 14.796875 -72.546875 C 16.691406 -72.960938 18.734375 -73.382812 20.921875 -73.8125 C 23.117188 -74.25 25.476562 -74.640625 28 -74.984375 C 30.519531 -75.328125 33.191406 -75.609375 36.015625 -75.828125 C 38.847656 -76.054688 41.847656 -76.171875 45.015625 -76.171875 C 48.609375 -76.109375 52.101562 -75.753906 55.5 -75.109375 C 58.894531 -74.472656 61.910156 -73.40625 64.546875 -71.90625 C 67.191406 -70.40625 69.316406 -68.367188 70.921875 -65.796875 C 72.523438 -63.222656 73.328125 -59.972656 73.328125 -56.046875 C 73.328125 -53.867188 72.957031 -51.863281 72.21875 -50.03125 C 71.476562 -48.207031 70.53125 -46.5625 69.375 -45.09375 C 68.21875 -43.632812 66.945312 -42.34375 65.5625 -41.21875 C 64.1875 -40.09375 62.867188 -39.132812 61.609375 -38.34375 C 60.347656 -37.550781 59.234375 -36.921875 58.265625 -36.453125 C 57.304688 -35.992188 56.648438 -35.691406 56.296875 -35.546875 C 56.296875 -35.484375 56.320312 -35.398438 56.375 -35.296875 C 56.425781 -35.191406 56.539062 -34.992188 56.71875 -34.703125 C 56.894531 -34.410156 57.144531 -33.992188 57.46875 -33.453125 C 57.789062 -32.921875 58.210938 -32.1875 58.734375 -31.25 C 59.285156 -30.425781 59.941406 -29.320312 60.703125 -27.9375 C 61.460938 -26.5625 62.367188 -24.929688 63.421875 -23.046875 C 64.472656 -21.171875 65.6875 -19.078125 67.0625 -16.765625 C 68.445312 -14.453125 70.035156 -11.96875 71.828125 -9.3125 C 72.410156 -8.789062 73.082031 -8.46875 73.84375 -8.34375 C 74.601562 -8.226562 75.3125 -8.160156 75.96875 -8.140625 C 76.625 -8.128906 77.175781 -8.097656 77.625 -8.046875 C 78.070312 -7.992188 78.296875 -7.78125 78.296875 -7.40625 C 78.296875 -7.125 78.007812 -6.800781 77.4375 -6.4375 C 76.875 -6.082031 76.210938 -5.710938 75.453125 -5.328125 C 74.691406 -4.953125 73.921875 -4.585938 73.140625 -4.234375 C 72.367188 -3.890625 71.773438 -3.617188 71.359375 -3.421875 C 70.535156 -3.003906 69.675781 -2.601562 68.78125 -2.21875 C 67.882812 -1.84375 66.914062 -1.421875 65.875 -0.953125 C 64.84375 -0.492188 63.695312 0.046875 62.4375 0.671875 C 61.175781 1.296875 59.753906 2.035156 58.171875 2.890625 C 57.753906 3.140625 57.363281 3.304688 57 3.390625 C 56.632812 3.472656 56.300781 3.515625 56 3.515625 C 55.375 3.515625 54.835938 3.367188 54.390625 3.078125 C 53.941406 2.785156 53.5625 2.429688 53.25 2.015625 C 52.9375 1.597656 52.6875 1.175781 52.5 0.75 C 52.3125 0.320312 52.148438 -0.03125 52.015625 -0.3125 L 36.59375 -32.8125 Z M 37.203125 -39.171875 C 38.960938 -39.171875 40.789062 -39.617188 42.6875 -40.515625 C 44.59375 -41.410156 46.320312 -42.566406 47.875 -43.984375 C 49.425781 -45.398438 50.703125 -47.003906 51.703125 -48.796875 C 52.703125 -50.585938 53.203125 -52.398438 53.203125 -54.234375 C 53.203125 -59.234375 50.195312 -61.734375 44.1875 -61.734375 C 43.050781 -61.734375 42.101562 -61.65625 41.34375 -61.5 C 40.582031 -61.34375 39.894531 -61.234375 39.28125 -61.171875 Z M 37.203125 -39.171875 "/></g></g><g style="fill:#8000ff;fill-opacity:1;"><g transform="translate(502.123828, 1110.967409)"><path style="stroke:none" d="M 18.53125 1.65625 C 18.695312 -0.863281 18.863281 -3.296875 19.03125 -5.640625 C 19.207031 -7.984375 19.367188 -10.257812 19.515625 -12.46875 L 21.375 -36.890625 C 21.582031 -38.753906 21.753906 -40.453125 21.890625 -41.984375 C 22.023438 -43.523438 22.132812 -45.03125 22.21875 -46.5 C 22.3125 -47.96875 22.398438 -49.453125 22.484375 -50.953125 C 22.566406 -52.453125 22.660156 -54.113281 22.765625 -55.9375 C 21.628906 -55.976562 20.429688 -56 19.171875 -56 C 17.910156 -56 16.59375 -56 15.21875 -56 L 5.234375 -56 C 4.847656 -56 4.613281 -56.144531 4.53125 -56.4375 C 4.445312 -56.726562 4.40625 -56.992188 4.40625 -57.234375 L 4.40625 -57.59375 L 10.09375 -72.546875 L 10.046875 -72.765625 C 10.046875 -72.929688 10.15625 -73.070312 10.375 -73.1875 C 10.601562 -73.3125 11.113281 -73.410156 11.90625 -73.484375 C 16.664062 -73.765625 21.28125 -74.03125 25.75 -74.28125 C 30.21875 -74.539062 34.632812 -74.773438 39 -74.984375 C 43.363281 -75.191406 47.726562 -75.398438 52.09375 -75.609375 C 56.457031 -75.816406 60.945312 -76.003906 65.5625 -76.171875 C 65.976562 -76.171875 66.414062 -76.117188 66.875 -76.015625 C 67.34375 -75.910156 67.578125 -75.53125 67.578125 -74.875 C 67.578125 -74.8125 67.5625 -74.742188 67.53125 -74.671875 C 67.5 -74.609375 67.484375 -74.539062 67.484375 -74.46875 C 66.929688 -73.050781 66.421875 -71.703125 65.953125 -70.421875 C 65.484375 -69.148438 65.023438 -67.894531 64.578125 -66.65625 C 64.128906 -65.414062 63.671875 -64.15625 63.203125 -62.875 C 62.742188 -61.601562 62.238281 -60.257812 61.6875 -58.84375 C 61.65625 -58.800781 61.585938 -58.632812 61.484375 -58.34375 C 61.378906 -58.050781 61.222656 -57.722656 61.015625 -57.359375 C 60.804688 -57.003906 60.53125 -56.671875 60.1875 -56.359375 C 59.84375 -56.046875 59.410156 -55.875 58.890625 -55.84375 C 58.722656 -55.875 58.550781 -55.890625 58.375 -55.890625 C 58.195312 -55.890625 58.007812 -55.890625 57.8125 -55.890625 L 43.984375 -55.890625 C 43.816406 -54.128906 43.65625 -52.265625 43.5 -50.296875 C 43.34375 -48.328125 43.160156 -46.414062 42.953125 -44.5625 L 39.171875 -4.140625 C 39.140625 -3.828125 39.078125 -3.515625 38.984375 -3.203125 C 38.898438 -2.898438 38.671875 -2.675781 38.296875 -2.53125 L 23.65625 2.75 C 23.269531 2.882812 22.765625 3.054688 22.140625 3.265625 C 21.523438 3.472656 20.925781 3.578125 20.34375 3.578125 C 19.851562 3.578125 19.425781 3.453125 19.0625 3.203125 C 18.707031 2.960938 18.53125 2.515625 18.53125 1.859375 Z M 18.53125 1.65625 "/></g></g><g style="fill:#8000ff;fill-opacity:1;"><g transform="translate(562.092661, 1110.967409)"><path style="stroke:none" d="M 51.28125 -69.34375 C 51.5625 -70.476562 51.800781 -71.304688 52 -71.828125 C 52.207031 -72.347656 52.660156 -72.691406 53.359375 -72.859375 L 66.75 -76.015625 C 67.164062 -76.160156 67.617188 -76.234375 68.109375 -76.234375 C 68.554688 -76.234375 68.878906 -76.078125 69.078125 -75.765625 C 69.285156 -75.453125 69.390625 -74.863281 69.390625 -74 C 69.191406 -73.175781 69.019531 -71.910156 68.875 -70.203125 C 68.738281 -68.492188 68.632812 -66.617188 68.5625 -64.578125 C 68.5 -62.546875 68.445312 -60.503906 68.40625 -58.453125 C 68.375 -56.398438 68.359375 -54.613281 68.359375 -53.09375 L 68.359375 -50.25 C 68.359375 -48.113281 68.34375 -45.785156 68.3125 -43.265625 C 68.28125 -40.742188 68.238281 -38.1875 68.1875 -35.59375 C 68.132812 -33.007812 68.070312 -30.457031 68 -27.9375 C 67.925781 -25.425781 67.859375 -23.066406 67.796875 -20.859375 L 67.484375 -12 C 67.453125 -11.832031 67.4375 -11.675781 67.4375 -11.53125 C 67.4375 -11.394531 67.4375 -11.257812 67.4375 -11.125 L 67.4375 -10.34375 C 67.4375 -9.757812 67.441406 -9.269531 67.453125 -8.875 C 67.472656 -8.476562 67.484375 -8.125 67.484375 -7.8125 C 67.484375 -7.46875 67.457031 -7.15625 67.40625 -6.875 C 67.351562 -6.601562 67.222656 -6.335938 67.015625 -6.078125 C 66.804688 -5.816406 66.519531 -5.546875 66.15625 -5.265625 C 65.800781 -4.992188 65.3125 -4.65625 64.6875 -4.25 C 64.34375 -4 63.773438 -3.640625 62.984375 -3.171875 C 62.191406 -2.710938 61.3125 -2.1875 60.34375 -1.59375 C 59.375 -1.007812 58.367188 -0.410156 57.328125 0.203125 C 56.296875 0.828125 55.347656 1.390625 54.484375 1.890625 C 53.628906 2.390625 52.929688 2.796875 52.390625 3.109375 C 51.859375 3.421875 51.59375 3.578125 51.59375 3.578125 L 27.578125 -33.375 L 25.40625 -3.109375 C 25.375 -2.828125 25.3125 -2.53125 25.21875 -2.21875 C 25.132812 -1.914062 24.90625 -1.675781 24.53125 -1.5 C 24.21875 -1.363281 23.679688 -1.144531 22.921875 -0.84375 C 22.160156 -0.550781 21.269531 -0.21875 20.25 0.15625 C 19.238281 0.53125 18.171875 0.914062 17.046875 1.3125 C 15.929688 1.71875 14.875 2.082031 13.875 2.40625 C 12.875 2.726562 11.984375 2.992188 11.203125 3.203125 C 10.429688 3.410156 9.90625 3.515625 9.625 3.515625 C 9.101562 3.515625 8.671875 3.375 8.328125 3.09375 C 7.984375 2.820312 7.8125 2.328125 7.8125 1.609375 C 8.15625 -2.703125 8.550781 -7.398438 9 -12.484375 C 9.445312 -17.578125 9.878906 -22.796875 10.296875 -28.140625 C 10.710938 -33.492188 11.097656 -38.835938 11.453125 -44.171875 C 11.816406 -49.503906 12.125 -54.566406 12.375 -59.359375 C 12.375 -59.492188 12.15625 -59.945312 11.71875 -60.71875 C 11.289062 -61.5 10.804688 -62.347656 10.265625 -63.265625 C 9.734375 -64.179688 9.25 -65.039062 8.8125 -65.84375 C 8.382812 -66.65625 8.171875 -67.164062 8.171875 -67.375 C 8.171875 -67.613281 8.300781 -67.835938 8.5625 -68.046875 C 8.820312 -68.253906 9.242188 -68.53125 9.828125 -68.875 L 23.65625 -76.6875 C 23.757812 -76.6875 23.90625 -76.703125 24.09375 -76.734375 C 24.28125 -76.773438 24.441406 -76.796875 24.578125 -76.796875 C 24.960938 -76.796875 25.265625 -76.75 25.484375 -76.65625 C 25.710938 -76.570312 25.945312 -76.304688 26.1875 -75.859375 L 51.28125 -30.578125 Z M 51.28125 -69.34375 "/></g></g><g style="fill:#8000ff;fill-opacity:1;"><g transform="translate(633.444707, 1110.967409)"><path style="stroke:none" d="M 52.9375 -42.953125 C 52.800781 -42.472656 52.539062 -41.789062 52.15625 -40.90625 C 51.78125 -40.03125 51.34375 -39.039062 50.84375 -37.9375 C 50.34375 -36.832031 49.804688 -35.648438 49.234375 -34.390625 C 48.671875 -33.128906 48.113281 -31.859375 47.5625 -30.578125 C 47.351562 -30.097656 47.160156 -29.742188 46.984375 -29.515625 C 46.816406 -29.296875 46.539062 -29.132812 46.15625 -29.03125 C 45.78125 -28.925781 45.253906 -28.863281 44.578125 -28.84375 C 43.910156 -28.832031 42.972656 -28.804688 41.765625 -28.765625 L 34.5625 -28.625 L 33.125 -12.78125 L 59.671875 -12.78125 L 59.671875 -10.765625 C 59.597656 -10.691406 59.300781 -10.234375 58.78125 -9.390625 C 58.269531 -8.546875 57.664062 -7.535156 56.96875 -6.359375 C 56.28125 -5.191406 55.554688 -4.007812 54.796875 -2.8125 C 54.046875 -1.625 53.410156 -0.671875 52.890625 0.046875 C 52.546875 0.671875 52.148438 1.160156 51.703125 1.515625 C 51.253906 1.878906 50.757812 2.148438 50.21875 2.328125 C 49.6875 2.503906 49.097656 2.609375 48.453125 2.640625 C 47.816406 2.671875 47.125 2.6875 46.375 2.6875 C 43.257812 2.6875 40.019531 2.617188 36.65625 2.484375 C 33.300781 2.347656 29.945312 2.175781 26.59375 1.96875 C 23.25 1.757812 19.976562 1.523438 16.78125 1.265625 C 13.59375 1.003906 10.640625 0.738281 7.921875 0.46875 C 7.679688 0.425781 7.460938 0.285156 7.265625 0.046875 C 7.078125 -0.191406 6.984375 -0.46875 6.984375 -0.78125 C 6.847656 -0.78125 6.941406 -1.070312 7.265625 -1.65625 C 7.597656 -2.238281 8.054688 -2.992188 8.640625 -3.921875 C 9.222656 -4.859375 9.867188 -5.921875 10.578125 -7.109375 C 11.285156 -8.304688 11.96875 -9.507812 12.625 -10.71875 L 13.453125 -22.359375 C 13.585938 -24.328125 13.695312 -25.789062 13.78125 -26.75 C 13.875 -27.71875 13.921875 -28.238281 13.921875 -28.3125 C 11.847656 -28.34375 10.300781 -28.441406 9.28125 -28.609375 C 8.269531 -28.785156 7.765625 -29.164062 7.765625 -29.75 C 7.765625 -30.03125 8.015625 -30.550781 8.515625 -31.3125 C 9.015625 -32.070312 9.625 -32.941406 10.34375 -33.921875 C 11.070312 -34.898438 11.84375 -35.925781 12.65625 -37 C 13.46875 -38.070312 14.179688 -39.054688 14.796875 -39.953125 L 16.09375 -57.546875 L 15.9375 -57.546875 C 15.175781 -57.515625 14.484375 -57.488281 13.859375 -57.46875 C 13.242188 -57.445312 12.675781 -57.4375 12.15625 -57.4375 C 10.5 -57.4375 9.316406 -57.53125 8.609375 -57.71875 C 7.910156 -57.914062 7.5625 -58.269531 7.5625 -58.78125 C 7.5625 -59.03125 7.765625 -59.53125 8.171875 -60.28125 C 8.585938 -61.039062 9.101562 -61.910156 9.71875 -62.890625 C 10.34375 -63.878906 11 -64.914062 11.6875 -66 C 12.382812 -67.09375 13.007812 -68.101562 13.5625 -69.03125 L 16.65625 -74.3125 L 38.296875 -74.3125 L 63.8125 -76.171875 C 63.84375 -76.171875 63.9375 -76.160156 64.09375 -76.140625 C 64.25 -76.128906 64.410156 -76.078125 64.578125 -75.984375 C 64.753906 -75.898438 64.921875 -75.753906 65.078125 -75.546875 C 65.234375 -75.347656 65.3125 -75.054688 65.3125 -74.671875 L 64.53125 -71.984375 C 64.289062 -71.222656 64 -70.421875 63.65625 -69.578125 C 63.3125 -68.734375 62.929688 -67.863281 62.515625 -66.96875 L 60.234375 -60.96875 C 59.992188 -60.375 59.71875 -59.921875 59.40625 -59.609375 C 59.09375 -59.304688 58.4375 -59.132812 57.4375 -59.09375 C 54.820312 -59.03125 51.898438 -58.921875 48.671875 -58.765625 C 45.441406 -58.609375 41.742188 -58.460938 37.578125 -58.328125 C 37.429688 -57.835938 37.359375 -57.445312 37.359375 -57.15625 C 37.359375 -56.863281 37.328125 -56.300781 37.265625 -55.46875 L 37 -53.09375 C 36.925781 -51.988281 36.820312 -50.796875 36.6875 -49.515625 C 36.550781 -48.242188 36.378906 -46.675781 36.171875 -44.8125 C 37.929688 -44.882812 39.644531 -44.953125 41.3125 -45.015625 C 42.988281 -45.085938 44.515625 -45.148438 45.890625 -45.203125 C 47.273438 -45.253906 48.476562 -45.296875 49.5 -45.328125 C 50.519531 -45.367188 51.234375 -45.390625 51.640625 -45.390625 C 51.921875 -45.390625 52.234375 -45.285156 52.578125 -45.078125 C 52.921875 -44.867188 53.09375 -44.472656 53.09375 -43.890625 C 53.09375 -43.609375 53.039062 -43.296875 52.9375 -42.953125 Z M 52.9375 -42.953125 "/></g></g><g style="fill:#8000ff;fill-opacity:1;"><g transform="translate(694.396661, 1110.967409)"><path style="stroke:none" d="M 34.046875 -4.140625 C 34.015625 -3.828125 33.953125 -3.523438 33.859375 -3.234375 C 33.773438 -2.941406 33.546875 -2.707031 33.171875 -2.53125 C 33.035156 -2.46875 32.351562 -2.21875 31.125 -1.78125 C 29.90625 -1.351562 28.492188 -0.851562 26.890625 -0.28125 C 25.285156 0.28125 23.695312 0.847656 22.125 1.421875 C 20.550781 1.992188 19.351562 2.4375 18.53125 2.75 C 18.113281 2.914062 17.601562 3.09375 17 3.28125 C 16.394531 3.476562 15.800781 3.578125 15.21875 3.578125 C 14.726562 3.578125 14.300781 3.453125 13.9375 3.203125 C 13.582031 2.960938 13.40625 2.515625 13.40625 1.859375 C 13.40625 0.347656 13.445312 -1.035156 13.53125 -2.296875 C 13.613281 -3.554688 13.722656 -4.875 13.859375 -6.25 C 14.003906 -7.632812 14.15625 -9.160156 14.3125 -10.828125 C 14.46875 -12.503906 14.613281 -14.5 14.75 -16.8125 C 14.914062 -19.851562 15.101562 -22.78125 15.3125 -25.59375 C 15.519531 -28.40625 15.726562 -31.328125 15.9375 -34.359375 L 16.65625 -43.21875 C 16.757812 -44.664062 16.863281 -46.140625 16.96875 -47.640625 C 17.070312 -49.140625 17.175781 -50.679688 17.28125 -52.265625 L 17.859375 -58.578125 C 17.859375 -58.648438 17.753906 -58.6875 17.546875 -58.6875 C 17.265625 -58.6875 16.796875 -58.625 16.140625 -58.5 C 15.484375 -58.382812 14.707031 -58.238281 13.8125 -58.0625 C 12.914062 -57.894531 11.925781 -57.710938 10.84375 -57.515625 C 9.757812 -57.328125 8.644531 -57.148438 7.5 -56.984375 C 7.226562 -56.984375 6.960938 -57.039062 6.703125 -57.15625 C 6.441406 -57.28125 6.3125 -57.425781 6.3125 -57.59375 C 6.3125 -57.738281 6.347656 -57.84375 6.421875 -57.90625 L 14.796875 -72.546875 C 16.691406 -72.960938 18.734375 -73.382812 20.921875 -73.8125 C 23.117188 -74.25 25.476562 -74.640625 28 -74.984375 C 30.519531 -75.328125 33.191406 -75.609375 36.015625 -75.828125 C 38.847656 -76.054688 41.847656 -76.171875 45.015625 -76.171875 C 48.609375 -76.109375 52.101562 -75.753906 55.5 -75.109375 C 58.894531 -74.472656 61.910156 -73.40625 64.546875 -71.90625 C 67.191406 -70.40625 69.316406 -68.367188 70.921875 -65.796875 C 72.523438 -63.222656 73.328125 -59.972656 73.328125 -56.046875 C 73.328125 -53.867188 72.957031 -51.863281 72.21875 -50.03125 C 71.476562 -48.207031 70.53125 -46.5625 69.375 -45.09375 C 68.21875 -43.632812 66.945312 -42.34375 65.5625 -41.21875 C 64.1875 -40.09375 62.867188 -39.132812 61.609375 -38.34375 C 60.347656 -37.550781 59.234375 -36.921875 58.265625 -36.453125 C 57.304688 -35.992188 56.648438 -35.691406 56.296875 -35.546875 C 56.296875 -35.484375 56.320312 -35.398438 56.375 -35.296875 C 56.425781 -35.191406 56.539062 -34.992188 56.71875 -34.703125 C 56.894531 -34.410156 57.144531 -33.992188 57.46875 -33.453125 C 57.789062 -32.921875 58.210938 -32.1875 58.734375 -31.25 C 59.285156 -30.425781 59.941406 -29.320312 60.703125 -27.9375 C 61.460938 -26.5625 62.367188 -24.929688 63.421875 -23.046875 C 64.472656 -21.171875 65.6875 -19.078125 67.0625 -16.765625 C 68.445312 -14.453125 70.035156 -11.96875 71.828125 -9.3125 C 72.410156 -8.789062 73.082031 -8.46875 73.84375 -8.34375 C 74.601562 -8.226562 75.3125 -8.160156 75.96875 -8.140625 C 76.625 -8.128906 77.175781 -8.097656 77.625 -8.046875 C 78.070312 -7.992188 78.296875 -7.78125 78.296875 -7.40625 C 78.296875 -7.125 78.007812 -6.800781 77.4375 -6.4375 C 76.875 -6.082031 76.210938 -5.710938 75.453125 -5.328125 C 74.691406 -4.953125 73.921875 -4.585938 73.140625 -4.234375 C 72.367188 -3.890625 71.773438 -3.617188 71.359375 -3.421875 C 70.535156 -3.003906 69.675781 -2.601562 68.78125 -2.21875 C 67.882812 -1.84375 66.914062 -1.421875 65.875 -0.953125 C 64.84375 -0.492188 63.695312 0.046875 62.4375 0.671875 C 61.175781 1.296875 59.753906 2.035156 58.171875 2.890625 C 57.753906 3.140625 57.363281 3.304688 57 3.390625 C 56.632812 3.472656 56.300781 3.515625 56 3.515625 C 55.375 3.515625 54.835938 3.367188 54.390625 3.078125 C 53.941406 2.785156 53.5625 2.429688 53.25 2.015625 C 52.9375 1.597656 52.6875 1.175781 52.5 0.75 C 52.3125 0.320312 52.148438 -0.03125 52.015625 -0.3125 L 36.59375 -32.8125 Z M 37.203125 -39.171875 C 38.960938 -39.171875 40.789062 -39.617188 42.6875 -40.515625 C 44.59375 -41.410156 46.320312 -42.566406 47.875 -43.984375 C 49.425781 -45.398438 50.703125 -47.003906 51.703125 -48.796875 C 52.703125 -50.585938 53.203125 -52.398438 53.203125 -54.234375 C 53.203125 -59.234375 50.195312 -61.734375 44.1875 -61.734375 C 43.050781 -61.734375 42.101562 -61.65625 41.34375 -61.5 C 40.582031 -61.34375 39.894531 -61.234375 39.28125 -61.171875 Z M 37.203125 -39.171875 "/></g></g><g style="fill:#8000ff;fill-opacity:1;"><g transform="translate(770.61242, 1110.967409)"><path style="stroke:none" d="M 8.171875 -19.25 C 8.171875 -19.28125 8.160156 -19.3125 8.140625 -19.34375 C 8.128906 -19.382812 8.125 -19.421875 8.125 -19.453125 C 8.125 -20.046875 8.4375 -20.34375 9.0625 -20.34375 C 9.363281 -20.34375 9.707031 -20.1875 10.09375 -19.875 C 11.957031 -18.113281 14.023438 -16.710938 16.296875 -15.671875 C 18.578125 -14.640625 21.0625 -14.125 23.75 -14.125 C 24.476562 -14.125 25.304688 -14.203125 26.234375 -14.359375 C 27.171875 -14.515625 28.050781 -14.773438 28.875 -15.140625 C 29.707031 -15.503906 30.40625 -15.976562 30.96875 -16.5625 C 31.539062 -17.144531 31.828125 -17.882812 31.828125 -18.78125 C 31.828125 -19.78125 31.582031 -20.675781 31.09375 -21.46875 C 30.613281 -22.269531 29.976562 -22.945312 29.1875 -23.5 C 28.875 -23.707031 28.40625 -24.050781 27.78125 -24.53125 C 27.164062 -25.007812 26.460938 -25.554688 25.671875 -26.171875 C 24.878906 -26.796875 24.050781 -27.460938 23.1875 -28.171875 C 22.320312 -28.878906 21.5 -29.550781 20.71875 -30.1875 C 19.945312 -30.832031 19.25 -31.410156 18.625 -31.921875 C 18.007812 -32.441406 17.546875 -32.84375 17.234375 -33.125 C 15.191406 -34.632812 13.578125 -36.164062 12.390625 -37.71875 C 11.203125 -39.269531 10.296875 -40.890625 9.671875 -42.578125 C 9.054688 -44.273438 8.660156 -46.03125 8.484375 -47.84375 C 8.316406 -49.65625 8.234375 -51.578125 8.234375 -53.609375 C 8.234375 -56.648438 8.957031 -59.53125 10.40625 -62.25 C 11.851562 -64.976562 13.894531 -67.351562 16.53125 -69.375 C 19.175781 -71.394531 22.34375 -73 26.03125 -74.1875 C 29.71875 -75.375 33.820312 -75.96875 38.34375 -75.96875 C 38.894531 -75.96875 39.722656 -75.90625 40.828125 -75.78125 C 41.929688 -75.664062 43.144531 -75.46875 44.46875 -75.1875 C 45.800781 -74.914062 47.15625 -74.535156 48.53125 -74.046875 C 49.914062 -73.566406 51.175781 -72.945312 52.3125 -72.1875 C 52.695312 -71.914062 53 -71.640625 53.21875 -71.359375 C 53.445312 -71.085938 53.597656 -70.65625 53.671875 -70.0625 C 53.835938 -67.269531 53.972656 -64.519531 54.078125 -61.8125 C 54.179688 -59.101562 54.320312 -56.234375 54.5 -53.203125 C 54.5 -52.609375 54.375 -52.21875 54.125 -52.03125 C 53.882812 -51.84375 53.578125 -51.75 53.203125 -51.75 C 52.816406 -51.75 52.519531 -51.851562 52.3125 -52.0625 C 51.3125 -53.0625 50.273438 -54.039062 49.203125 -55 C 48.140625 -55.96875 47.019531 -56.820312 45.84375 -57.5625 C 44.675781 -58.3125 43.425781 -58.910156 42.09375 -59.359375 C 40.769531 -59.804688 39.332031 -60.03125 37.78125 -60.03125 C 36.84375 -60.03125 35.90625 -59.953125 34.96875 -59.796875 C 34.039062 -59.640625 33.195312 -59.351562 32.4375 -58.9375 C 31.6875 -58.53125 31.078125 -57.960938 30.609375 -57.234375 C 30.140625 -56.515625 29.90625 -55.601562 29.90625 -54.5 C 29.90625 -53.320312 30.050781 -52.300781 30.34375 -51.4375 C 30.644531 -50.570312 31.378906 -49.757812 32.546875 -49 L 44.96875 -40.578125 C 47.25 -38.953125 49.09375 -37.335938 50.5 -35.734375 C 51.914062 -34.128906 53.019531 -32.53125 53.8125 -30.9375 C 54.613281 -29.351562 55.160156 -27.789062 55.453125 -26.25 C 55.742188 -24.71875 55.890625 -23.210938 55.890625 -21.734375 C 55.890625 -19.316406 55.492188 -17.039062 54.703125 -14.90625 C 53.910156 -12.769531 52.820312 -10.796875 51.4375 -8.984375 C 50.0625 -7.171875 48.445312 -5.546875 46.59375 -4.109375 C 44.75 -2.679688 42.773438 -1.457031 40.671875 -0.4375 C 38.566406 0.582031 36.382812 1.359375 34.125 1.890625 C 31.863281 2.421875 29.648438 2.6875 27.484375 2.6875 C 25.785156 2.6875 24.117188 2.660156 22.484375 2.609375 C 20.847656 2.554688 19.253906 2.414062 17.703125 2.1875 C 16.148438 1.96875 14.644531 1.625 13.1875 1.15625 C 11.738281 0.695312 10.363281 0.0507812 9.0625 -0.78125 Z M 8.171875 -19.25 "/></g></g></g></g></g></svg>