<svg xmlns="http://www.w3.org/2000/svg" xmlns:xlink="http://www.w3.org/1999/xlink" width="1486" zoomAndPan="magnify" viewBox="0 0 1114.5 615.749982" height="821" preserveAspectRatio="xMidYMid meet" version="1.0"><defs><g/></defs><g fill="#c026d3" fill-opacity="0.502"><g transform="translate(128.780663, 483.431512)"><g><path d="M 31.109375 -262.375 L 150.3125 -262.375 C 178.789062 -262.375 203.960938 -256.9375 225.828125 -246.0625 C 247.691406 -235.195312 264.679688 -219.894531 276.796875 -200.15625 C 288.921875 -180.414062 294.984375 -157.425781 294.984375 -131.1875 C 294.984375 -104.945312 288.921875 -81.957031 276.796875 -62.21875 C 264.679688 -42.476562 247.691406 -27.171875 225.828125 -16.296875 C 203.960938 -5.429688 178.789062 0 150.3125 0 L 31.109375 0 Z M 147.3125 -49.859375 C 173.550781 -49.859375 194.476562 -57.164062 210.09375 -71.78125 C 225.707031 -86.394531 233.515625 -106.195312 233.515625 -131.1875 C 233.515625 -156.175781 225.707031 -175.976562 210.09375 -190.59375 C 194.476562 -205.21875 173.550781 -212.53125 147.3125 -212.53125 L 91.828125 -212.53125 L 91.828125 -49.859375 Z M 147.3125 -49.859375 "/></g></g></g><g fill="#c026d3" fill-opacity="0.502"><g transform="translate(438.391201, 483.431512)"><g><path d="M 208.40625 -135.3125 L 263.875 -135.3125 L 263.875 -28.859375 C 249.632812 -18.117188 233.144531 -9.875 214.40625 -4.125 C 195.664062 1.625 176.796875 4.5 157.796875 4.5 C 130.566406 4.5 106.078125 -1.304688 84.328125 -12.921875 C 62.585938 -24.546875 45.535156 -40.664062 33.171875 -61.28125 C 20.804688 -81.894531 14.625 -105.195312 14.625 -131.1875 C 14.625 -157.175781 20.804688 -180.476562 33.171875 -201.09375 C 45.535156 -221.707031 62.710938 -237.820312 84.703125 -249.4375 C 106.703125 -261.0625 131.441406 -266.875 158.921875 -266.875 C 181.910156 -266.875 202.773438 -263 221.515625 -255.25 C 240.265625 -247.507812 256.007812 -236.265625 268.75 -221.515625 L 229.765625 -185.546875 C 211.023438 -205.285156 188.410156 -215.15625 161.921875 -215.15625 C 145.179688 -215.15625 130.3125 -211.65625 117.3125 -204.65625 C 104.320312 -197.65625 94.203125 -187.78125 86.953125 -175.03125 C 79.710938 -162.289062 76.09375 -147.675781 76.09375 -131.1875 C 76.09375 -114.945312 79.710938 -100.453125 86.953125 -87.703125 C 94.203125 -74.960938 104.257812 -65.03125 117.125 -57.90625 C 130 -50.789062 144.679688 -47.234375 161.171875 -47.234375 C 178.660156 -47.234375 194.40625 -50.976562 208.40625 -58.46875 Z M 208.40625 -135.3125 "/></g></g></g><g fill="#c026d3" fill-opacity="0.502"><g transform="translate(727.38608, 483.431512)"><g><path d="M 144.6875 -262.375 C 167.925781 -262.375 188.101562 -258.5 205.21875 -250.75 C 222.332031 -243.007812 235.507812 -232.015625 244.75 -217.765625 C 254 -203.523438 258.625 -186.660156 258.625 -167.171875 C 258.625 -147.929688 254 -131.125 244.75 -116.75 C 235.507812 -102.382812 222.332031 -91.390625 205.21875 -83.765625 C 188.101562 -76.148438 167.925781 -72.34375 144.6875 -72.34375 L 91.828125 -72.34375 L 91.828125 0 L 31.109375 0 L 31.109375 -262.375 Z M 141.3125 -121.8125 C 159.550781 -121.8125 173.414062 -125.75 182.90625 -133.625 C 192.40625 -141.5 197.15625 -152.679688 197.15625 -167.171875 C 197.15625 -181.910156 192.40625 -193.21875 182.90625 -201.09375 C 173.414062 -208.96875 159.550781 -212.90625 141.3125 -212.90625 L 91.828125 -212.90625 L 91.828125 -121.8125 Z M 141.3125 -121.8125 "/></g></g></g><g fill="#4f46e5" fill-opacity="1"><g transform="translate(112.215277, 466.866143)"><g><path d="M 31.109375 -262.375 L 150.3125 -262.375 C 178.789062 -262.375 203.960938 -256.9375 225.828125 -246.0625 C 247.691406 -235.195312 264.679688 -219.894531 276.796875 -200.15625 C 288.921875 -180.414062 294.984375 -157.425781 294.984375 -131.1875 C 294.984375 -104.945312 288.921875 -81.957031 276.796875 -62.21875 C 264.679688 -42.476562 247.691406 -27.171875 225.828125 -16.296875 C 203.960938 -5.429688 178.789062 0 150.3125 0 L 31.109375 0 Z M 147.3125 -49.859375 C 173.550781 -49.859375 194.476562 -57.164062 210.09375 -71.78125 C 225.707031 -86.394531 233.515625 -106.195312 233.515625 -131.1875 C 233.515625 -156.175781 225.707031 -175.976562 210.09375 -190.59375 C 194.476562 -205.21875 173.550781 -212.53125 147.3125 -212.53125 L 91.828125 -212.53125 L 91.828125 -49.859375 Z M 147.3125 -49.859375 "/></g></g></g><g fill="#4f46e5" fill-opacity="1"><g transform="translate(421.825815, 466.866143)"><g><path d="M 208.40625 -135.3125 L 263.875 -135.3125 L 263.875 -28.859375 C 249.632812 -18.117188 233.144531 -9.875 214.40625 -4.125 C 195.664062 1.625 176.796875 4.5 157.796875 4.5 C 130.566406 4.5 106.078125 -1.304688 84.328125 -12.921875 C 62.585938 -24.546875 45.535156 -40.664062 33.171875 -61.28125 C 20.804688 -81.894531 14.625 -105.195312 14.625 -131.1875 C 14.625 -157.175781 20.804688 -180.476562 33.171875 -201.09375 C 45.535156 -221.707031 62.710938 -237.820312 84.703125 -249.4375 C 106.703125 -261.0625 131.441406 -266.875 158.921875 -266.875 C 181.910156 -266.875 202.773438 -263 221.515625 -255.25 C 240.265625 -247.507812 256.007812 -236.265625 268.75 -221.515625 L 229.765625 -185.546875 C 211.023438 -205.285156 188.410156 -215.15625 161.921875 -215.15625 C 145.179688 -215.15625 130.3125 -211.65625 117.3125 -204.65625 C 104.320312 -197.65625 94.203125 -187.78125 86.953125 -175.03125 C 79.710938 -162.289062 76.09375 -147.675781 76.09375 -131.1875 C 76.09375 -114.945312 79.710938 -100.453125 86.953125 -87.703125 C 94.203125 -74.960938 104.257812 -65.03125 117.125 -57.90625 C 130 -50.789062 144.679688 -47.234375 161.171875 -47.234375 C 178.660156 -47.234375 194.40625 -50.976562 208.40625 -58.46875 Z M 208.40625 -135.3125 "/></g></g></g><g fill="#4f46e5" fill-opacity="1"><g transform="translate(710.820694, 466.866143)"><g><path d="M 144.6875 -262.375 C 167.925781 -262.375 188.101562 -258.5 205.21875 -250.75 C 222.332031 -243.007812 235.507812 -232.015625 244.75 -217.765625 C 254 -203.523438 258.625 -186.660156 258.625 -167.171875 C 258.625 -147.929688 254 -131.125 244.75 -116.75 C 235.507812 -102.382812 222.332031 -91.390625 205.21875 -83.765625 C 188.101562 -76.148438 167.925781 -72.34375 144.6875 -72.34375 L 91.828125 -72.34375 L 91.828125 0 L 31.109375 0 L 31.109375 -262.375 Z M 141.3125 -121.8125 C 159.550781 -121.8125 173.414062 -125.75 182.90625 -133.625 C 192.40625 -141.5 197.15625 -152.679688 197.15625 -167.171875 C 197.15625 -181.910156 192.40625 -193.21875 182.90625 -201.09375 C 173.414062 -208.96875 159.550781 -212.90625 141.3125 -212.90625 L 91.828125 -212.90625 L 91.828125 -121.8125 Z M 141.3125 -121.8125 "/></g></g></g><g fill="#ffffff" fill-opacity="1"><g transform="translate(137.684103, 579.197627)"><g><path d="M 5.46875 -46.171875 L 26.453125 -46.171875 C 31.460938 -46.171875 35.890625 -45.210938 39.734375 -43.296875 C 43.585938 -41.390625 46.582031 -38.695312 48.71875 -35.21875 C 50.851562 -31.75 51.921875 -27.707031 51.921875 -23.09375 C 51.921875 -18.46875 50.851562 -14.414062 48.71875 -10.9375 C 46.582031 -7.46875 43.585938 -4.773438 39.734375 -2.859375 C 35.890625 -0.953125 31.460938 0 26.453125 0 L 5.46875 0 Z M 25.921875 -8.78125 C 30.546875 -8.78125 34.226562 -10.066406 36.96875 -12.640625 C 39.71875 -15.210938 41.09375 -18.695312 41.09375 -23.09375 C 41.09375 -27.488281 39.71875 -30.972656 36.96875 -33.546875 C 34.226562 -36.117188 30.546875 -37.40625 25.921875 -37.40625 L 16.15625 -37.40625 L 16.15625 -8.78125 Z M 25.921875 -8.78125 "/></g></g></g><g fill="#ffffff" fill-opacity="1"><g transform="translate(192.175691, 579.197627)"><g><path d="M 4.75 -35.484375 L 15.046875 -35.484375 L 15.046875 0 L 4.75 0 Z M 9.890625 -40.4375 C 8.003906 -40.4375 6.46875 -40.984375 5.28125 -42.078125 C 4.09375 -43.179688 3.5 -44.546875 3.5 -46.171875 C 3.5 -47.804688 4.09375 -49.171875 5.28125 -50.265625 C 6.46875 -51.367188 8.003906 -51.921875 9.890625 -51.921875 C 11.785156 -51.921875 13.328125 -51.390625 14.515625 -50.328125 C 15.703125 -49.273438 16.296875 -47.957031 16.296875 -46.375 C 16.296875 -44.65625 15.703125 -43.234375 14.515625 -42.109375 C 13.328125 -40.992188 11.785156 -40.4375 9.890625 -40.4375 Z M 9.890625 -40.4375 "/></g></g></g><g fill="#ffffff" fill-opacity="1"><g transform="translate(212.032798, 579.197627)"><g><path d="M 41.359375 -35.484375 L 41.359375 -5.9375 C 41.359375 0.570312 39.664062 5.410156 36.28125 8.578125 C 32.894531 11.742188 27.945312 13.328125 21.4375 13.328125 C 18.007812 13.328125 14.753906 12.90625 11.671875 12.0625 C 8.597656 11.226562 6.050781 10.019531 4.03125 8.4375 L 8.109375 1.0625 C 9.609375 2.289062 11.5 3.265625 13.78125 3.984375 C 16.070312 4.710938 18.359375 5.078125 20.640625 5.078125 C 24.203125 5.078125 26.832031 4.273438 28.53125 2.671875 C 30.226562 1.066406 31.078125 -1.363281 31.078125 -4.625 L 31.078125 -6.140625 C 28.390625 -3.191406 24.648438 -1.71875 19.859375 -1.71875 C 16.597656 -1.71875 13.613281 -2.429688 10.90625 -3.859375 C 8.207031 -5.285156 6.066406 -7.296875 4.484375 -9.890625 C 2.898438 -12.484375 2.109375 -15.472656 2.109375 -18.859375 C 2.109375 -22.253906 2.898438 -25.25 4.484375 -27.84375 C 6.066406 -30.4375 8.207031 -32.445312 10.90625 -33.875 C 13.613281 -35.300781 16.597656 -36.015625 19.859375 -36.015625 C 25.003906 -36.015625 28.914062 -34.320312 31.59375 -30.9375 L 31.59375 -35.484375 Z M 21.90625 -10.15625 C 24.625 -10.15625 26.851562 -10.957031 28.59375 -12.5625 C 30.332031 -14.164062 31.203125 -16.265625 31.203125 -18.859375 C 31.203125 -21.460938 30.332031 -23.566406 28.59375 -25.171875 C 26.851562 -26.773438 24.625 -27.578125 21.90625 -27.578125 C 19.175781 -27.578125 16.929688 -26.773438 15.171875 -25.171875 C 13.410156 -23.566406 12.53125 -21.460938 12.53125 -18.859375 C 12.53125 -16.265625 13.410156 -14.164062 15.171875 -12.5625 C 16.929688 -10.957031 19.175781 -10.15625 21.90625 -10.15625 Z M 21.90625 -10.15625 "/></g></g></g><g fill="#ffffff" fill-opacity="1"><g transform="translate(258.212107, 579.197627)"><g><path d="M 4.75 -35.484375 L 15.046875 -35.484375 L 15.046875 0 L 4.75 0 Z M 9.890625 -40.4375 C 8.003906 -40.4375 6.46875 -40.984375 5.28125 -42.078125 C 4.09375 -43.179688 3.5 -44.546875 3.5 -46.171875 C 3.5 -47.804688 4.09375 -49.171875 5.28125 -50.265625 C 6.46875 -51.367188 8.003906 -51.921875 9.890625 -51.921875 C 11.785156 -51.921875 13.328125 -51.390625 14.515625 -50.328125 C 15.703125 -49.273438 16.296875 -47.957031 16.296875 -46.375 C 16.296875 -44.65625 15.703125 -43.234375 14.515625 -42.109375 C 13.328125 -40.992188 11.785156 -40.4375 9.890625 -40.4375 Z M 9.890625 -40.4375 "/></g></g></g><g fill="#ffffff" fill-opacity="1"><g transform="translate(278.069214, 579.197627)"><g><path d="M 27.640625 -1.71875 C 26.628906 -0.96875 25.382812 -0.40625 23.90625 -0.03125 C 22.4375 0.34375 20.890625 0.53125 19.265625 0.53125 C 15.046875 0.53125 11.78125 -0.546875 9.46875 -2.703125 C 7.15625 -4.859375 6 -8.023438 6 -12.203125 L 6 -26.78125 L 0.53125 -26.78125 L 0.53125 -34.703125 L 6 -34.703125 L 6 -43.34375 L 16.296875 -43.34375 L 16.296875 -34.703125 L 25.140625 -34.703125 L 25.140625 -26.78125 L 16.296875 -26.78125 L 16.296875 -12.34375 C 16.296875 -10.84375 16.679688 -9.6875 17.453125 -8.875 C 18.222656 -8.0625 19.3125 -7.65625 20.71875 -7.65625 C 22.34375 -7.65625 23.726562 -8.09375 24.875 -8.96875 Z M 27.640625 -1.71875 "/></g></g></g><g fill="#ffffff" fill-opacity="1"><g transform="translate(306.76636, 579.197627)"><g><path d="M 19.0625 -36.015625 C 24.5625 -36.015625 28.785156 -34.707031 31.734375 -32.09375 C 34.679688 -29.476562 36.15625 -25.53125 36.15625 -20.25 L 36.15625 0 L 26.515625 0 L 26.515625 -4.421875 C 24.578125 -1.117188 20.972656 0.53125 15.703125 0.53125 C 12.972656 0.53125 10.609375 0.0664062 8.609375 -0.859375 C 6.609375 -1.785156 5.078125 -3.0625 4.015625 -4.6875 C 2.960938 -6.3125 2.4375 -8.15625 2.4375 -10.21875 C 2.4375 -13.519531 3.675781 -16.113281 6.15625 -18 C 8.644531 -19.894531 12.484375 -20.84375 17.671875 -20.84375 L 25.859375 -20.84375 C 25.859375 -23.082031 25.175781 -24.804688 23.8125 -26.015625 C 22.445312 -27.234375 20.398438 -27.84375 17.671875 -27.84375 C 15.785156 -27.84375 13.929688 -27.546875 12.109375 -26.953125 C 10.285156 -26.359375 8.734375 -25.554688 7.453125 -24.546875 L 3.765625 -31.734375 C 5.691406 -33.097656 8.007812 -34.148438 10.71875 -34.890625 C 13.425781 -35.640625 16.207031 -36.015625 19.0625 -36.015625 Z M 18.265625 -6.40625 C 20.023438 -6.40625 21.585938 -6.8125 22.953125 -7.625 C 24.316406 -8.4375 25.285156 -9.632812 25.859375 -11.21875 L 25.859375 -14.84375 L 18.796875 -14.84375 C 14.578125 -14.84375 12.46875 -13.457031 12.46875 -10.6875 C 12.46875 -9.363281 12.984375 -8.316406 14.015625 -7.546875 C 15.046875 -6.785156 16.460938 -6.40625 18.265625 -6.40625 Z M 18.265625 -6.40625 "/></g></g></g><g fill="#ffffff" fill-opacity="1"><g transform="translate(347.470135, 579.197627)"><g><path d="M 4.75 -48.953125 L 15.046875 -48.953125 L 15.046875 0 L 4.75 0 Z M 4.75 -48.953125 "/></g></g></g><g fill="#ffffff" fill-opacity="1"><g transform="translate(367.327231, 579.197627)"><g/></g></g><g fill="#ffffff" fill-opacity="1"><g transform="translate(385.996871, 579.197627)"><g><path d="M 36.671875 -23.8125 L 46.4375 -23.8125 L 46.4375 -5.078125 C 43.9375 -3.191406 41.035156 -1.738281 37.734375 -0.71875 C 34.429688 0.289062 31.109375 0.796875 27.765625 0.796875 C 22.972656 0.796875 18.664062 -0.222656 14.84375 -2.265625 C 11.019531 -4.316406 8.019531 -7.15625 5.84375 -10.78125 C 3.664062 -14.414062 2.578125 -18.519531 2.578125 -23.09375 C 2.578125 -27.664062 3.664062 -31.765625 5.84375 -35.390625 C 8.019531 -39.015625 11.039062 -41.847656 14.90625 -43.890625 C 18.78125 -45.941406 23.132812 -46.96875 27.96875 -46.96875 C 32.019531 -46.96875 35.691406 -46.285156 38.984375 -44.921875 C 42.285156 -43.554688 45.054688 -41.578125 47.296875 -38.984375 L 40.4375 -32.65625 C 37.132812 -36.125 33.15625 -37.859375 28.5 -37.859375 C 25.550781 -37.859375 22.929688 -37.242188 20.640625 -36.015625 C 18.359375 -34.785156 16.578125 -33.046875 15.296875 -30.796875 C 14.023438 -28.554688 13.390625 -25.988281 13.390625 -23.09375 C 13.390625 -20.226562 14.023438 -17.675781 15.296875 -15.4375 C 16.578125 -13.195312 18.347656 -11.445312 20.609375 -10.1875 C 22.878906 -8.9375 25.460938 -8.3125 28.359375 -8.3125 C 31.441406 -8.3125 34.210938 -8.972656 36.671875 -10.296875 Z M 36.671875 -23.8125 "/></g></g></g><g fill="#ffffff" fill-opacity="1"><g transform="translate(436.86009, 579.197627)"><g><path d="M 14.578125 -30.8125 C 15.804688 -32.519531 17.460938 -33.8125 19.546875 -34.6875 C 21.640625 -35.570312 24.050781 -36.015625 26.78125 -36.015625 L 26.78125 -26.515625 C 25.632812 -26.609375 24.863281 -26.65625 24.46875 -26.65625 C 21.519531 -26.65625 19.210938 -25.828125 17.546875 -24.171875 C 15.878906 -22.523438 15.046875 -20.050781 15.046875 -16.75 L 15.046875 0 L 4.75 0 L 4.75 -35.484375 L 14.578125 -35.484375 Z M 14.578125 -30.8125 "/></g></g></g><g fill="#ffffff" fill-opacity="1"><g transform="translate(464.699612, 579.197627)"><g><path d="M 21.640625 0.53125 C 17.898438 0.53125 14.546875 -0.25 11.578125 -1.8125 C 8.609375 -3.375 6.285156 -5.539062 4.609375 -8.3125 C 2.941406 -11.082031 2.109375 -14.226562 2.109375 -17.75 C 2.109375 -21.257812 2.941406 -24.398438 4.609375 -27.171875 C 6.285156 -29.941406 8.609375 -32.109375 11.578125 -33.671875 C 14.546875 -35.234375 17.898438 -36.015625 21.640625 -36.015625 C 25.378906 -36.015625 28.71875 -35.234375 31.65625 -33.671875 C 34.601562 -32.109375 36.910156 -29.941406 38.578125 -27.171875 C 40.253906 -24.398438 41.09375 -21.257812 41.09375 -17.75 C 41.09375 -14.226562 40.253906 -11.082031 38.578125 -8.3125 C 36.910156 -5.539062 34.601562 -3.375 31.65625 -1.8125 C 28.71875 -0.25 25.378906 0.53125 21.640625 0.53125 Z M 21.640625 -7.921875 C 24.273438 -7.921875 26.4375 -8.8125 28.125 -10.59375 C 29.820312 -12.375 30.671875 -14.757812 30.671875 -17.75 C 30.671875 -20.738281 29.820312 -23.125 28.125 -24.90625 C 26.4375 -26.6875 24.273438 -27.578125 21.640625 -27.578125 C 18.992188 -27.578125 16.8125 -26.6875 15.09375 -24.90625 C 13.382812 -23.125 12.53125 -20.738281 12.53125 -17.75 C 12.53125 -14.757812 13.382812 -12.375 15.09375 -10.59375 C 16.8125 -8.8125 18.992188 -7.921875 21.640625 -7.921875 Z M 21.640625 -7.921875 "/></g></g></g><g fill="#ffffff" fill-opacity="1"><g transform="translate(506.920697, 579.197627)"><g><path d="M 61.75 -35.484375 L 48.890625 0 L 38.984375 0 L 31 -22.03125 L 22.765625 0 L 12.859375 0 L 0.0625 -35.484375 L 9.765625 -35.484375 L 18.140625 -11.484375 L 26.84375 -35.484375 L 35.5625 -35.484375 L 44 -11.484375 L 52.640625 -35.484375 Z M 61.75 -35.484375 "/></g></g></g><g fill="#ffffff" fill-opacity="1"><g transform="translate(569.724542, 579.197627)"><g><path d="M 27.640625 -1.71875 C 26.628906 -0.96875 25.382812 -0.40625 23.90625 -0.03125 C 22.4375 0.34375 20.890625 0.53125 19.265625 0.53125 C 15.046875 0.53125 11.78125 -0.546875 9.46875 -2.703125 C 7.15625 -4.859375 6 -8.023438 6 -12.203125 L 6 -26.78125 L 0.53125 -26.78125 L 0.53125 -34.703125 L 6 -34.703125 L 6 -43.34375 L 16.296875 -43.34375 L 16.296875 -34.703125 L 25.140625 -34.703125 L 25.140625 -26.78125 L 16.296875 -26.78125 L 16.296875 -12.34375 C 16.296875 -10.84375 16.679688 -9.6875 17.453125 -8.875 C 18.222656 -8.0625 19.3125 -7.65625 20.71875 -7.65625 C 22.34375 -7.65625 23.726562 -8.09375 24.875 -8.96875 Z M 27.640625 -1.71875 "/></g></g></g><g fill="#ffffff" fill-opacity="1"><g transform="translate(598.421688, 579.197627)"><g><path d="M 26.328125 -36.015625 C 30.722656 -36.015625 34.269531 -34.695312 36.96875 -32.0625 C 39.675781 -29.425781 41.03125 -25.507812 41.03125 -20.3125 L 41.03125 0 L 30.734375 0 L 30.734375 -18.734375 C 30.734375 -21.546875 30.117188 -23.644531 28.890625 -25.03125 C 27.660156 -26.414062 25.878906 -27.109375 23.546875 -27.109375 C 20.953125 -27.109375 18.882812 -26.304688 17.34375 -24.703125 C 15.8125 -23.097656 15.046875 -20.710938 15.046875 -17.546875 L 15.046875 0 L 4.75 0 L 4.75 -48.953125 L 15.046875 -48.953125 L 15.046875 -31.796875 C 16.398438 -33.160156 18.046875 -34.203125 19.984375 -34.921875 C 21.921875 -35.648438 24.035156 -36.015625 26.328125 -36.015625 Z M 26.328125 -36.015625 "/></g></g></g><g fill="#ffffff" fill-opacity="1"><g transform="translate(644.007313, 579.197627)"><g/></g></g><g fill="#ffffff" fill-opacity="1"><g transform="translate(662.676931, 579.197627)"><g><path d="M 25.46875 -46.171875 C 29.550781 -46.171875 33.097656 -45.488281 36.109375 -44.125 C 39.128906 -42.769531 41.453125 -40.835938 43.078125 -38.328125 C 44.703125 -35.816406 45.515625 -32.847656 45.515625 -29.421875 C 45.515625 -26.035156 44.703125 -23.078125 43.078125 -20.546875 C 41.453125 -18.015625 39.128906 -16.078125 36.109375 -14.734375 C 33.097656 -13.398438 29.550781 -12.734375 25.46875 -12.734375 L 16.15625 -12.734375 L 16.15625 0 L 5.46875 0 L 5.46875 -46.171875 Z M 24.875 -21.4375 C 28.082031 -21.4375 30.519531 -22.128906 32.1875 -23.515625 C 33.863281 -24.898438 34.703125 -26.867188 34.703125 -29.421875 C 34.703125 -32.015625 33.863281 -34.003906 32.1875 -35.390625 C 30.519531 -36.773438 28.082031 -37.46875 24.875 -37.46875 L 16.15625 -37.46875 L 16.15625 -21.4375 Z M 24.875 -21.4375 "/></g></g></g><g fill="#ffffff" fill-opacity="1"><g transform="translate(709.977714, 579.197627)"><g><path d="M 19.0625 -36.015625 C 24.5625 -36.015625 28.785156 -34.707031 31.734375 -32.09375 C 34.679688 -29.476562 36.15625 -25.53125 36.15625 -20.25 L 36.15625 0 L 26.515625 0 L 26.515625 -4.421875 C 24.578125 -1.117188 20.972656 0.53125 15.703125 0.53125 C 12.972656 0.53125 10.609375 0.0664062 8.609375 -0.859375 C 6.609375 -1.785156 5.078125 -3.0625 4.015625 -4.6875 C 2.960938 -6.3125 2.4375 -8.15625 2.4375 -10.21875 C 2.4375 -13.519531 3.675781 -16.113281 6.15625 -18 C 8.644531 -19.894531 12.484375 -20.84375 17.671875 -20.84375 L 25.859375 -20.84375 C 25.859375 -23.082031 25.175781 -24.804688 23.8125 -26.015625 C 22.445312 -27.234375 20.398438 -27.84375 17.671875 -27.84375 C 15.785156 -27.84375 13.929688 -27.546875 12.109375 -26.953125 C 10.285156 -26.359375 8.734375 -25.554688 7.453125 -24.546875 L 3.765625 -31.734375 C 5.691406 -33.097656 8.007812 -34.148438 10.71875 -34.890625 C 13.425781 -35.640625 16.207031 -36.015625 19.0625 -36.015625 Z M 18.265625 -6.40625 C 20.023438 -6.40625 21.585938 -6.8125 22.953125 -7.625 C 24.316406 -8.4375 25.285156 -9.632812 25.859375 -11.21875 L 25.859375 -14.84375 L 18.796875 -14.84375 C 14.578125 -14.84375 12.46875 -13.457031 12.46875 -10.6875 C 12.46875 -9.363281 12.984375 -8.316406 14.015625 -7.546875 C 15.046875 -6.785156 16.460938 -6.40625 18.265625 -6.40625 Z M 18.265625 -6.40625 "/></g></g></g><g fill="#ffffff" fill-opacity="1"><g transform="translate(750.681513, 579.197627)"><g><path d="M 14.578125 -30.8125 C 15.804688 -32.519531 17.460938 -33.8125 19.546875 -34.6875 C 21.640625 -35.570312 24.050781 -36.015625 26.78125 -36.015625 L 26.78125 -26.515625 C 25.632812 -26.609375 24.863281 -26.65625 24.46875 -26.65625 C 21.519531 -26.65625 19.210938 -25.828125 17.546875 -24.171875 C 15.878906 -22.523438 15.046875 -20.050781 15.046875 -16.75 L 15.046875 0 L 4.75 0 L 4.75 -35.484375 L 14.578125 -35.484375 Z M 14.578125 -30.8125 "/></g></g></g><g fill="#ffffff" fill-opacity="1"><g transform="translate(780.104301, 579.197627)"><g><path d="M 27.640625 -1.71875 C 26.628906 -0.96875 25.382812 -0.40625 23.90625 -0.03125 C 22.4375 0.34375 20.890625 0.53125 19.265625 0.53125 C 15.046875 0.53125 11.78125 -0.546875 9.46875 -2.703125 C 7.15625 -4.859375 6 -8.023438 6 -12.203125 L 6 -26.78125 L 0.53125 -26.78125 L 0.53125 -34.703125 L 6 -34.703125 L 6 -43.34375 L 16.296875 -43.34375 L 16.296875 -34.703125 L 25.140625 -34.703125 L 25.140625 -26.78125 L 16.296875 -26.78125 L 16.296875 -12.34375 C 16.296875 -10.84375 16.679688 -9.6875 17.453125 -8.875 C 18.222656 -8.0625 19.3125 -7.65625 20.71875 -7.65625 C 22.34375 -7.65625 23.726562 -8.09375 24.875 -8.96875 Z M 27.640625 -1.71875 "/></g></g></g><g fill="#ffffff" fill-opacity="1"><g transform="translate(808.801447, 579.197627)"><g><path d="M 26.328125 -36.015625 C 30.722656 -36.015625 34.269531 -34.695312 36.96875 -32.0625 C 39.675781 -29.425781 41.03125 -25.507812 41.03125 -20.3125 L 41.03125 0 L 30.734375 0 L 30.734375 -18.734375 C 30.734375 -21.546875 30.117188 -23.644531 28.890625 -25.03125 C 27.660156 -26.414062 25.878906 -27.109375 23.546875 -27.109375 C 20.953125 -27.109375 18.882812 -26.304688 17.34375 -24.703125 C 15.8125 -23.097656 15.046875 -20.710938 15.046875 -17.546875 L 15.046875 0 L 4.75 0 L 4.75 -35.484375 L 14.578125 -35.484375 L 14.578125 -31.328125 C 15.941406 -32.828125 17.632812 -33.984375 19.65625 -34.796875 C 21.675781 -35.609375 23.898438 -36.015625 26.328125 -36.015625 Z M 26.328125 -36.015625 "/></g></g></g><g fill="#ffffff" fill-opacity="1"><g transform="translate(854.782862, 579.197627)"><g><path d="M 39.515625 -17.609375 C 39.515625 -17.484375 39.445312 -16.5625 39.3125 -14.84375 L 12.46875 -14.84375 C 12.945312 -12.644531 14.085938 -10.90625 15.890625 -9.625 C 17.703125 -8.351562 19.945312 -7.71875 22.625 -7.71875 C 24.46875 -7.71875 26.101562 -7.992188 27.53125 -8.546875 C 28.96875 -9.097656 30.300781 -9.96875 31.53125 -11.15625 L 37.015625 -5.21875 C 33.671875 -1.382812 28.785156 0.53125 22.359375 0.53125 C 18.359375 0.53125 14.816406 -0.25 11.734375 -1.8125 C 8.660156 -3.375 6.285156 -5.539062 4.609375 -8.3125 C 2.941406 -11.082031 2.109375 -14.226562 2.109375 -17.75 C 2.109375 -21.21875 2.929688 -24.347656 4.578125 -27.140625 C 6.234375 -29.929688 8.5 -32.109375 11.375 -33.671875 C 14.257812 -35.234375 17.484375 -36.015625 21.046875 -36.015625 C 24.515625 -36.015625 27.65625 -35.265625 30.46875 -33.765625 C 33.289062 -32.273438 35.503906 -30.132812 37.109375 -27.34375 C 38.710938 -24.550781 39.515625 -21.304688 39.515625 -17.609375 Z M 21.109375 -28.234375 C 18.773438 -28.234375 16.816406 -27.570312 15.234375 -26.25 C 13.648438 -24.9375 12.6875 -23.132812 12.34375 -20.84375 L 29.8125 -20.84375 C 29.46875 -23.082031 28.503906 -24.875 26.921875 -26.21875 C 25.335938 -27.5625 23.398438 -28.234375 21.109375 -28.234375 Z M 21.109375 -28.234375 "/></g></g></g><g fill="#ffffff" fill-opacity="1"><g transform="translate(896.410242, 579.197627)"><g><path d="M 14.578125 -30.8125 C 15.804688 -32.519531 17.460938 -33.8125 19.546875 -34.6875 C 21.640625 -35.570312 24.050781 -36.015625 26.78125 -36.015625 L 26.78125 -26.515625 C 25.632812 -26.609375 24.863281 -26.65625 24.46875 -26.65625 C 21.519531 -26.65625 19.210938 -25.828125 17.546875 -24.171875 C 15.878906 -22.523438 15.046875 -20.050781 15.046875 -16.75 L 15.046875 0 L 4.75 0 L 4.75 -35.484375 L 14.578125 -35.484375 Z M 14.578125 -30.8125 "/></g></g></g><g fill="#ffffff" fill-opacity="1"><g transform="translate(924.711508, 579.197627)"><g><path d="M 16.6875 0.53125 C 13.738281 0.53125 10.859375 0.164062 8.046875 -0.5625 C 5.234375 -1.289062 2.988281 -2.203125 1.3125 -3.296875 L 4.75 -10.6875 C 6.332031 -9.675781 8.242188 -8.847656 10.484375 -8.203125 C 12.734375 -7.566406 14.929688 -7.25 17.078125 -7.25 C 21.429688 -7.25 23.609375 -8.328125 23.609375 -10.484375 C 23.609375 -11.492188 23.015625 -12.21875 21.828125 -12.65625 C 20.640625 -13.101562 18.816406 -13.476562 16.359375 -13.78125 C 13.453125 -14.226562 11.050781 -14.734375 9.15625 -15.296875 C 7.269531 -15.867188 5.632812 -16.878906 4.25 -18.328125 C 2.863281 -19.785156 2.171875 -21.859375 2.171875 -24.546875 C 2.171875 -26.785156 2.816406 -28.769531 4.109375 -30.5 C 5.410156 -32.238281 7.304688 -33.59375 9.796875 -34.5625 C 12.285156 -35.53125 15.222656 -36.015625 18.609375 -36.015625 C 21.109375 -36.015625 23.597656 -35.738281 26.078125 -35.1875 C 28.566406 -34.644531 30.628906 -33.890625 32.265625 -32.921875 L 28.828125 -25.59375 C 25.703125 -27.351562 22.296875 -28.234375 18.609375 -28.234375 C 16.410156 -28.234375 14.757812 -27.925781 13.65625 -27.3125 C 12.550781 -26.695312 12 -25.90625 12 -24.9375 C 12 -23.832031 12.59375 -23.0625 13.78125 -22.625 C 14.96875 -22.1875 16.859375 -21.769531 19.453125 -21.375 C 22.359375 -20.882812 24.734375 -20.363281 26.578125 -19.8125 C 28.429688 -19.269531 30.039062 -18.269531 31.40625 -16.8125 C 32.769531 -15.363281 33.453125 -13.34375 33.453125 -10.75 C 33.453125 -8.550781 32.789062 -6.59375 31.46875 -4.875 C 30.144531 -3.164062 28.21875 -1.835938 25.6875 -0.890625 C 23.164062 0.0546875 20.164062 0.53125 16.6875 0.53125 Z M 16.6875 0.53125 "/></g></g></g></svg>