<svg xmlns="http://www.w3.org/2000/svg" xmlns:xlink="http://www.w3.org/1999/xlink" width="1916" zoomAndPan="magnify" viewBox="0 0 1437 326.999992" height="436" preserveAspectRatio="xMidYMid meet" version="1.0"><defs><g/><clipPath id="0d843e6a31"><path d="M 103 57 L 184.5 57 L 184.5 231 L 103 231 Z M 103 57 " clip-rule="nonzero"/></clipPath></defs><rect x="-143.7" width="1724.4" fill="#ffffff" y="-32.699999" height="392.39999" fill-opacity="1"/><path fill="#e2e8f0" d="M 63.390625 238.070312 L 121.25 238.070312 L 121.25 248.921875 L 63.390625 248.921875 Z M 63.390625 238.070312 " fill-opacity="1" fill-rule="nonzero"/><path fill="#4f46e5" d="M 70.34375 257.5 L 114.296875 257.5 L 114.296875 268.351562 L 70.34375 268.351562 Z M 70.34375 257.5 " fill-opacity="1" fill-rule="nonzero"/><path fill="#e2e8f0" d="M 78.742188 276.933594 L 105.890625 276.933594 L 105.890625 287.78125 L 78.742188 287.78125 Z M 78.742188 276.933594 " fill-opacity="1" fill-rule="nonzero"/><path fill="#4f46e5" d="M 91.40625 15.8125 C 94.480469 14.636719 96.671875 11.683594 96.671875 8.199219 C 96.679688 3.703125 93.015625 0.0390625 88.511719 0.0390625 C 84.007812 0.0390625 80.34375 3.703125 80.34375 8.203125 C 80.34375 11.683594 82.539062 14.644531 85.613281 15.816406 C 86.519531 16.164062 87.492188 16.371094 88.511719 16.371094 C 89.535156 16.371094 90.503906 16.160156 91.40625 15.8125 Z M 91.40625 15.8125 " fill-opacity="1" fill-rule="nonzero"/><path fill="#4f46e5" d="M 132.832031 23.734375 C 135.902344 22.558594 138.101562 19.605469 138.101562 16.121094 C 138.101562 11.617188 134.4375 7.953125 129.933594 7.953125 C 125.433594 7.953125 121.765625 11.617188 121.765625 16.121094 C 121.765625 19.597656 123.960938 22.550781 127.03125 23.726562 C 127.933594 24.074219 128.910156 24.28125 129.929688 24.28125 C 130.960938 24.289062 131.929688 24.082031 132.832031 23.734375 Z M 132.832031 23.734375 " fill-opacity="1" fill-rule="nonzero"/><path fill="#4f46e5" d="M 65.359375 21.320312 C 68.429688 20.144531 70.628906 17.191406 70.628906 13.707031 C 70.628906 9.203125 66.964844 5.539062 62.460938 5.539062 C 57.957031 5.539062 54.292969 9.203125 54.292969 13.707031 C 54.292969 17.183594 56.488281 20.144531 59.558594 21.320312 C 60.460938 21.667969 61.433594 21.875 62.453125 21.875 C 63.488281 21.875 64.453125 21.667969 65.359375 21.320312 Z M 65.359375 21.320312 " fill-opacity="1" fill-rule="nonzero"/><path fill="#4f46e5" d="M 82.027344 109.417969 C 85.253906 108.328125 87.59375 105.300781 87.59375 101.714844 C 87.59375 97.210938 83.929688 93.546875 79.429688 93.546875 C 74.925781 93.546875 71.261719 97.210938 71.261719 101.714844 C 71.261719 105.082031 73.3125 107.980469 76.226562 109.226562 C 77.207031 109.644531 78.292969 109.882812 79.429688 109.882812 C 80.34375 109.882812 81.207031 109.695312 82.027344 109.417969 Z M 82.027344 109.417969 " fill-opacity="1" fill-rule="nonzero"/><path fill="#4f46e5" d="M 151.289062 40.234375 C 152.191406 40.582031 153.164062 40.789062 154.191406 40.789062 C 158.695312 40.789062 162.359375 37.125 162.359375 32.621094 C 162.359375 28.121094 158.695312 24.457031 154.191406 24.457031 C 149.6875 24.457031 146.023438 28.121094 146.023438 32.621094 C 146.023438 33.972656 146.386719 35.230469 146.964844 36.351562 C 147.882812 38.125 149.410156 39.519531 151.289062 40.234375 Z M 151.289062 40.234375 " fill-opacity="1" fill-rule="nonzero"/><path fill="#4f46e5" d="M 111.96875 74.179688 C 117.121094 72.1875 120.785156 67.222656 120.785156 61.363281 C 120.785156 53.757812 114.621094 47.589844 107.011719 47.589844 C 99.40625 47.589844 93.238281 53.757812 93.238281 61.363281 C 93.238281 67.3125 97.027344 72.332031 102.308594 74.257812 C 103.789062 74.800781 105.355469 75.136719 107.019531 75.136719 C 108.769531 75.136719 110.425781 74.773438 111.96875 74.179688 Z M 107.011719 56.410156 C 109.75 56.410156 111.96875 58.628906 111.96875 61.363281 C 111.96875 64.097656 109.75 66.316406 107.011719 66.316406 C 104.277344 66.316406 102.058594 64.097656 102.058594 61.363281 C 102.058594 58.628906 104.277344 56.410156 107.011719 56.410156 Z M 107.011719 56.410156 " fill-opacity="1" fill-rule="nonzero"/><path fill="#4f46e5" d="M 79.859375 155.359375 C 80.925781 153.402344 81.582031 151.195312 81.582031 148.816406 C 81.582031 141.210938 75.414062 135.042969 67.808594 135.042969 C 60.203125 135.042969 54.035156 141.210938 54.035156 148.816406 C 54.035156 156.421875 60.203125 162.589844 67.808594 162.589844 C 69.480469 162.589844 71.066406 162.246094 72.542969 161.699219 C 75.699219 160.542969 78.273438 158.28125 79.859375 155.359375 Z M 62.855469 148.824219 C 62.855469 146.085938 65.074219 143.867188 67.808594 143.867188 C 70.542969 143.867188 72.765625 146.085938 72.765625 148.824219 C 72.765625 151.558594 70.542969 153.777344 67.808594 153.777344 C 65.074219 153.777344 62.855469 151.558594 62.855469 148.824219 Z M 62.855469 148.824219 " fill-opacity="1" fill-rule="nonzero"/><path fill="#4f46e5" d="M 146.964844 36.359375 L 132.832031 50.492188 L 132.832031 23.734375 C 131.929688 24.082031 130.953125 24.289062 129.933594 24.289062 C 128.910156 24.289062 127.941406 24.074219 127.039062 23.734375 L 127.039062 71.871094 L 111.980469 86.929688 L 111.980469 74.167969 C 110.433594 74.769531 108.769531 75.144531 107.011719 75.144531 C 105.347656 75.144531 103.800781 74.800781 102.304688 74.253906 L 102.304688 100.675781 L 91.414062 89.789062 L 91.414062 15.8125 C 90.511719 16.160156 89.535156 16.367188 88.519531 16.367188 C 87.492188 16.367188 86.523438 16.152344 85.621094 15.8125 L 85.621094 48.761719 L 65.371094 28.511719 L 65.371094 21.320312 C 64.46875 21.667969 63.492188 21.875 62.472656 21.875 C 61.449219 21.875 60.480469 21.660156 59.578125 21.320312 L 59.578125 30.914062 L 85.628906 56.964844 L 85.628906 92.1875 L 100.441406 107 L 89.316406 118.121094 L 82.046875 110.851562 L 82.046875 109.410156 C 81.226562 109.6875 80.363281 109.875 79.445312 109.875 C 78.3125 109.875 77.226562 109.644531 76.246094 109.21875 L 76.246094 113.25 L 87.871094 124.875 L 87.871094 163.355469 L 79.878906 155.351562 C 78.292969 158.265625 75.71875 160.539062 72.5625 161.699219 L 87.871094 177.019531 L 87.871094 230.476562 L 97.550781 230.476562 L 97.550781 123.578125 L 111.992188 109.109375 L 111.992188 95.128906 L 132.851562 74.273438 L 132.851562 58.691406 L 151.300781 40.242188 C 149.410156 39.519531 147.882812 38.125 146.964844 36.359375 Z M 146.964844 36.359375 " fill-opacity="1" fill-rule="nonzero"/><g clip-path="url(#0d843e6a31)"><path fill="#e2e8f0" d="M 176.152344 57.375 C 171.648438 57.375 167.984375 61.039062 167.984375 65.542969 C 167.984375 69.019531 170.179688 71.980469 173.25 73.15625 L 173.25 106.199219 L 156.101562 123.347656 L 156.101562 90.175781 C 161.402344 88.257812 165.210938 83.226562 165.210938 77.265625 C 165.210938 69.660156 159.042969 63.492188 151.4375 63.492188 C 143.832031 63.492188 137.664062 69.660156 137.664062 77.265625 C 137.664062 83.105469 141.308594 88.066406 146.429688 90.070312 C 147.082031 90.328125 147.757812 90.535156 148.457031 90.695312 C 147.757812 90.542969 147.082031 90.335938 146.429688 90.082031 L 146.429688 144.234375 L 133.050781 130.855469 L 133.050781 110.613281 C 135.765625 109.289062 137.664062 106.535156 137.664062 103.308594 C 137.664062 98.804688 134 95.140625 129.496094 95.140625 C 124.992188 95.140625 121.328125 98.804688 121.328125 103.308594 C 121.328125 106.785156 123.523438 109.746094 126.597656 110.921875 C 126.804688 111 127.03125 111.042969 127.25 111.109375 L 127.25 133.238281 L 146.203125 152.191406 L 132.484375 164.191406 L 114.101562 145.835938 L 114.101562 138.417969 C 114.179688 138.390625 114.269531 138.378906 114.347656 138.347656 C 117.417969 137.171875 119.613281 134.21875 119.613281 130.734375 C 119.613281 126.230469 115.949219 122.566406 111.445312 122.566406 C 106.941406 122.566406 103.277344 126.230469 103.277344 130.734375 C 103.277344 134.113281 105.363281 136.992188 108.296875 138.222656 L 108.296875 148.214844 L 128.082031 168.003906 L 110.683594 183.222656 L 110.683594 230.484375 L 120.359375 230.484375 L 120.359375 187.613281 L 134.949219 174.867188 L 139.339844 171.046875 L 153.035156 159.046875 L 156.109375 156.378906 L 156.109375 131.546875 L 179.046875 108.605469 L 179.046875 73.164062 C 182.117188 71.988281 184.3125 69.035156 184.3125 65.550781 C 184.320312 61.039062 180.65625 57.375 176.152344 57.375 Z M 146.488281 77.257812 C 146.488281 74.523438 148.707031 72.304688 151.441406 72.304688 C 154.179688 72.304688 156.398438 74.523438 156.398438 77.257812 C 156.398438 79.996094 154.179688 82.214844 151.441406 82.214844 C 148.707031 82.214844 146.488281 80 146.488281 77.257812 Z M 146.488281 77.257812 " fill-opacity="1" fill-rule="nonzero"/></g><path fill="#e2e8f0" d="M 58.914062 131.398438 L 68.589844 121.695312 L 68.589844 93.027344 C 73.898438 91.117188 77.71875 86.078125 77.71875 80.109375 C 77.71875 72.503906 71.550781 66.335938 63.945312 66.335938 C 56.339844 66.335938 50.171875 72.503906 50.171875 80.109375 C 50.171875 85.9375 53.804688 90.898438 58.917969 92.902344 L 58.917969 100.535156 L 30.921875 72.535156 L 52.976562 50.480469 C 53.121094 50.542969 53.269531 50.613281 53.417969 50.667969 C 54.3125 51.007812 55.273438 51.214844 56.289062 51.214844 C 60.789062 51.214844 64.453125 47.550781 64.453125 43.046875 C 64.449219 38.539062 60.789062 34.875 56.289062 34.875 C 51.785156 34.875 48.121094 38.539062 48.121094 43.042969 C 48.121094 44.234375 48.402344 45.355469 48.875 46.375 L 29.722656 65.53125 L 29.722656 42.9375 C 32.792969 41.765625 34.984375 38.808594 34.984375 35.324219 C 34.984375 30.824219 31.320312 27.160156 26.816406 27.160156 C 22.316406 27.160156 18.652344 30.824219 18.652344 35.324219 C 18.652344 38.804688 20.84375 41.757812 23.914062 42.9375 L 23.914062 73.730469 L 58.914062 108.726562 L 58.914062 117.726562 L 43.726562 132.972656 L 35.796875 140.867188 L 35.792969 140.875 L 35.792969 117.371094 C 40.847656 115.335938 44.421875 110.398438 44.421875 104.613281 C 44.421875 97.007812 38.257812 90.839844 30.648438 90.839844 C 23.042969 90.839844 16.875 97.007812 16.875 104.613281 C 16.875 110.632812 20.761719 115.6875 26.132812 117.566406 L 26.132812 124.695312 L 11.605469 110.167969 L 11.605469 72.660156 C 14.394531 71.355469 16.335938 68.550781 16.335938 65.277344 C 16.335938 60.777344 12.671875 57.113281 8.167969 57.113281 C 3.664062 57.113281 0 60.777344 0 65.277344 C 0 68.957031 2.457031 72.039062 5.804688 73.058594 L 5.804688 112.574219 L 26.132812 132.902344 L 26.132812 149.867188 L 63.152344 186.886719 L 63.152344 230.496094 L 72.816406 230.496094 L 72.816406 182.878906 L 40.140625 150.203125 L 50.53125 139.785156 Z M 63.945312 75.148438 C 66.679688 75.148438 68.898438 77.367188 68.898438 80.105469 C 68.898438 82.839844 66.679688 85.058594 63.945312 85.058594 C 61.210938 85.058594 58.992188 82.839844 58.992188 80.105469 C 58.992188 77.367188 61.210938 75.148438 63.945312 75.148438 Z M 30.507812 108.871094 C 27.773438 108.871094 25.554688 106.652344 25.554688 103.914062 C 25.554688 101.179688 27.773438 98.960938 30.507812 98.960938 C 33.242188 98.960938 35.460938 101.179688 35.460938 103.914062 C 35.460938 106.652344 33.242188 108.871094 30.507812 108.871094 Z M 30.507812 108.871094 " fill-opacity="1" fill-rule="nonzero"/><g fill="#e2e8f0" fill-opacity="1"><g transform="translate(147.2489, 287.433643)"><g><path d="M 6.140625 -51.796875 L 29.671875 -51.796875 C 35.296875 -51.796875 40.265625 -50.722656 44.578125 -48.578125 C 48.898438 -46.429688 52.253906 -43.410156 54.640625 -39.515625 C 57.035156 -35.617188 58.234375 -31.082031 58.234375 -25.90625 C 58.234375 -20.71875 57.035156 -16.175781 54.640625 -12.28125 C 52.253906 -8.382812 48.898438 -5.363281 44.578125 -3.21875 C 40.265625 -1.070312 35.296875 0 29.671875 0 L 6.140625 0 Z M 29.078125 -9.84375 C 34.265625 -9.84375 38.398438 -11.285156 41.484375 -14.171875 C 44.566406 -17.054688 46.109375 -20.96875 46.109375 -25.90625 C 46.109375 -30.832031 44.566406 -34.738281 41.484375 -37.625 C 38.398438 -40.507812 34.265625 -41.953125 29.078125 -41.953125 L 18.125 -41.953125 L 18.125 -9.84375 Z M 29.078125 -9.84375 "/></g></g></g><g fill="#e2e8f0" fill-opacity="1"><g transform="translate(208.3664, 287.433643)"><g><path d="M 6.140625 -51.796875 L 18.125 -51.796875 L 18.125 0 L 6.140625 0 Z M 6.140625 -51.796875 "/></g></g></g><g fill="#e2e8f0" fill-opacity="1"><g transform="translate(232.635814, 287.433643)"><g><path d="M 41.140625 -26.71875 L 52.09375 -26.71875 L 52.09375 -5.703125 C 49.28125 -3.578125 46.023438 -1.945312 42.328125 -0.8125 C 38.628906 0.320312 34.90625 0.890625 31.15625 0.890625 C 25.78125 0.890625 20.945312 -0.253906 16.65625 -2.546875 C 12.363281 -4.847656 8.992188 -8.03125 6.546875 -12.09375 C 4.109375 -16.164062 2.890625 -20.769531 2.890625 -25.90625 C 2.890625 -31.03125 4.109375 -35.628906 6.546875 -39.703125 C 8.992188 -43.773438 12.382812 -46.957031 16.71875 -49.25 C 21.0625 -51.539062 25.945312 -52.6875 31.375 -52.6875 C 35.914062 -52.6875 40.035156 -51.921875 43.734375 -50.390625 C 47.429688 -48.859375 50.539062 -46.640625 53.0625 -43.734375 L 45.359375 -36.625 C 41.660156 -40.519531 37.195312 -42.46875 31.96875 -42.46875 C 28.664062 -42.46875 25.726562 -41.773438 23.15625 -40.390625 C 20.59375 -39.015625 18.59375 -37.066406 17.15625 -34.546875 C 15.726562 -32.035156 15.015625 -29.15625 15.015625 -25.90625 C 15.015625 -22.695312 15.726562 -19.832031 17.15625 -17.3125 C 18.59375 -14.800781 20.582031 -12.84375 23.125 -11.4375 C 25.664062 -10.03125 28.5625 -9.328125 31.8125 -9.328125 C 35.269531 -9.328125 38.378906 -10.066406 41.140625 -11.546875 Z M 41.140625 -26.71875 "/></g></g></g><g fill="#e2e8f0" fill-opacity="1"><g transform="translate(289.68375, 287.433643)"><g><path d="M 6.140625 -51.796875 L 18.125 -51.796875 L 18.125 0 L 6.140625 0 Z M 6.140625 -51.796875 "/></g></g></g><g fill="#e2e8f0" fill-opacity="1"><g transform="translate(313.953165, 287.433643)"><g><path d="M 16.875 -42.03125 L 0.296875 -42.03125 L 0.296875 -51.796875 L 45.4375 -51.796875 L 45.4375 -42.03125 L 28.859375 -42.03125 L 28.859375 0 L 16.875 0 Z M 16.875 -42.03125 "/></g></g></g><g fill="#e2e8f0" fill-opacity="1"><g transform="translate(359.680297, 287.433643)"><g><path d="M 40.25 -11.09375 L 16.203125 -11.09375 L 11.625 0 L -0.671875 0 L 22.421875 -51.796875 L 34.265625 -51.796875 L 57.421875 0 L 44.84375 0 Z M 36.484375 -20.203125 L 28.265625 -40.03125 L 20.046875 -20.203125 Z M 36.484375 -20.203125 "/></g></g></g><g fill="#e2e8f0" fill-opacity="1"><g transform="translate(416.358256, 287.433643)"><g><path d="M 6.140625 -51.796875 L 18.125 -51.796875 L 18.125 -9.765625 L 44.109375 -9.765625 L 44.109375 0 L 6.140625 0 Z M 6.140625 -51.796875 "/></g></g></g><g fill="#4f46e5" fill-opacity="1"><g transform="translate(461.053567, 287.433643)"><g/></g></g><g fill="#4f46e5" fill-opacity="1"><g transform="translate(481.994975, 287.433643)"><g><path d="M 41.140625 -26.71875 L 52.09375 -26.71875 L 52.09375 -5.703125 C 49.28125 -3.578125 46.023438 -1.945312 42.328125 -0.8125 C 38.628906 0.320312 34.90625 0.890625 31.15625 0.890625 C 25.78125 0.890625 20.945312 -0.253906 16.65625 -2.546875 C 12.363281 -4.847656 8.992188 -8.03125 6.546875 -12.09375 C 4.109375 -16.164062 2.890625 -20.769531 2.890625 -25.90625 C 2.890625 -31.03125 4.109375 -35.628906 6.546875 -39.703125 C 8.992188 -43.773438 12.382812 -46.957031 16.71875 -49.25 C 21.0625 -51.539062 25.945312 -52.6875 31.375 -52.6875 C 35.914062 -52.6875 40.035156 -51.921875 43.734375 -50.390625 C 47.429688 -48.859375 50.539062 -46.640625 53.0625 -43.734375 L 45.359375 -36.625 C 41.660156 -40.519531 37.195312 -42.46875 31.96875 -42.46875 C 28.664062 -42.46875 25.726562 -41.773438 23.15625 -40.390625 C 20.59375 -39.015625 18.59375 -37.066406 17.15625 -34.546875 C 15.726562 -32.035156 15.015625 -29.15625 15.015625 -25.90625 C 15.015625 -22.695312 15.726562 -19.832031 17.15625 -17.3125 C 18.59375 -14.800781 20.582031 -12.84375 23.125 -11.4375 C 25.664062 -10.03125 28.5625 -9.328125 31.8125 -9.328125 C 35.269531 -9.328125 38.378906 -10.066406 41.140625 -11.546875 Z M 41.140625 -26.71875 "/></g></g></g><g fill="#4f46e5" fill-opacity="1"><g transform="translate(539.042911, 287.433643)"><g><path d="M 39.140625 0 L 29.15625 -14.4375 L 18.125 -14.4375 L 18.125 0 L 6.140625 0 L 6.140625 -51.796875 L 28.5625 -51.796875 C 33.15625 -51.796875 37.140625 -51.03125 40.515625 -49.5 C 43.890625 -47.976562 46.488281 -45.8125 48.3125 -43 C 50.144531 -40.1875 51.0625 -36.851562 51.0625 -33 C 51.0625 -29.15625 50.132812 -25.835938 48.28125 -23.046875 C 46.4375 -20.265625 43.8125 -18.132812 40.40625 -16.65625 L 52.015625 0 Z M 38.921875 -33 C 38.921875 -35.914062 37.984375 -38.148438 36.109375 -39.703125 C 34.234375 -41.253906 31.492188 -42.03125 27.890625 -42.03125 L 18.125 -42.03125 L 18.125 -23.96875 L 27.890625 -23.96875 C 31.492188 -23.96875 34.234375 -24.757812 36.109375 -26.34375 C 37.984375 -27.925781 38.921875 -30.144531 38.921875 -33 Z M 38.921875 -33 "/></g></g></g><g fill="#4f46e5" fill-opacity="1"><g transform="translate(593.427119, 287.433643)"><g><path d="M 31.234375 0.890625 C 25.847656 0.890625 21 -0.265625 16.6875 -2.578125 C 12.375 -4.898438 8.992188 -8.097656 6.546875 -12.171875 C 4.109375 -16.242188 2.890625 -20.820312 2.890625 -25.90625 C 2.890625 -30.976562 4.109375 -35.550781 6.546875 -39.625 C 8.992188 -43.695312 12.375 -46.890625 16.6875 -49.203125 C 21 -51.523438 25.847656 -52.6875 31.234375 -52.6875 C 36.609375 -52.6875 41.441406 -51.523438 45.734375 -49.203125 C 50.023438 -46.890625 53.398438 -43.695312 55.859375 -39.625 C 58.328125 -35.550781 59.5625 -30.976562 59.5625 -25.90625 C 59.5625 -20.820312 58.328125 -16.242188 55.859375 -12.171875 C 53.398438 -8.097656 50.023438 -4.898438 45.734375 -2.578125 C 41.441406 -0.265625 36.609375 0.890625 31.234375 0.890625 Z M 31.234375 -9.328125 C 34.285156 -9.328125 37.046875 -10.03125 39.515625 -11.4375 C 41.984375 -12.84375 43.921875 -14.800781 45.328125 -17.3125 C 46.734375 -19.832031 47.4375 -22.695312 47.4375 -25.90625 C 47.4375 -29.101562 46.734375 -31.960938 45.328125 -34.484375 C 43.921875 -37.003906 41.984375 -38.960938 39.515625 -40.359375 C 37.046875 -41.765625 34.285156 -42.46875 31.234375 -42.46875 C 28.171875 -42.46875 25.40625 -41.765625 22.9375 -40.359375 C 20.46875 -38.960938 18.53125 -37.003906 17.125 -34.484375 C 15.71875 -31.960938 15.015625 -29.101562 15.015625 -25.90625 C 15.015625 -22.695312 15.71875 -19.832031 17.125 -17.3125 C 18.53125 -14.800781 20.46875 -12.84375 22.9375 -11.4375 C 25.40625 -10.03125 28.171875 -9.328125 31.234375 -9.328125 Z M 31.234375 -9.328125 "/></g></g></g><g fill="#4f46e5" fill-opacity="1"><g transform="translate(655.876471, 287.433643)"><g><path d="M 84.4375 -51.796875 L 67.484375 0 L 54.609375 0 L 43.21875 -35.078125 L 31.453125 0 L 18.640625 0 L 1.625 -51.796875 L 14.0625 -51.796875 L 25.75 -15.390625 L 37.96875 -51.796875 L 49.0625 -51.796875 L 60.90625 -15.09375 L 72.96875 -51.796875 Z M 84.4375 -51.796875 "/></g></g></g><g fill="#4f46e5" fill-opacity="1"><g transform="translate(741.92933, 287.433643)"><g><path d="M 16.875 -42.03125 L 0.296875 -42.03125 L 0.296875 -51.796875 L 45.4375 -51.796875 L 45.4375 -42.03125 L 28.859375 -42.03125 L 28.859375 0 L 16.875 0 Z M 16.875 -42.03125 "/></g></g></g><g fill="#4f46e5" fill-opacity="1"><g transform="translate(787.656438, 287.433643)"><g><path d="M 53.65625 -51.796875 L 53.65625 0 L 41.65625 0 L 41.65625 -21.234375 L 18.125 -21.234375 L 18.125 0 L 6.140625 0 L 6.140625 -51.796875 L 18.125 -51.796875 L 18.125 -31.375 L 41.65625 -31.375 L 41.65625 -51.796875 Z M 53.65625 -51.796875 "/></g></g></g><g fill="#c026d3" fill-opacity="1"><g transform="translate(847.444166, 287.433643)"><g/></g></g><g fill="#e2e8f0" fill-opacity="1"><g transform="translate(868.385575, 287.433643)"><g><path d="M 28.5625 -51.796875 C 33.15625 -51.796875 37.140625 -51.03125 40.515625 -49.5 C 43.890625 -47.976562 46.488281 -45.8125 48.3125 -43 C 50.144531 -40.1875 51.0625 -36.851562 51.0625 -33 C 51.0625 -29.207031 50.144531 -25.890625 48.3125 -23.046875 C 46.488281 -20.210938 43.890625 -18.039062 40.515625 -16.53125 C 37.140625 -15.03125 33.15625 -14.28125 28.5625 -14.28125 L 18.125 -14.28125 L 18.125 0 L 6.140625 0 L 6.140625 -51.796875 Z M 27.890625 -24.046875 C 31.492188 -24.046875 34.234375 -24.820312 36.109375 -26.375 C 37.984375 -27.9375 38.921875 -30.144531 38.921875 -33 C 38.921875 -35.914062 37.984375 -38.148438 36.109375 -39.703125 C 34.234375 -41.253906 31.492188 -42.03125 27.890625 -42.03125 L 18.125 -42.03125 L 18.125 -24.046875 Z M 27.890625 -24.046875 "/></g></g></g><g fill="#e2e8f0" fill-opacity="1"><g transform="translate(922.547814, 287.433643)"><g><path d="M 40.25 -11.09375 L 16.203125 -11.09375 L 11.625 0 L -0.671875 0 L 22.421875 -51.796875 L 34.265625 -51.796875 L 57.421875 0 L 44.84375 0 Z M 36.484375 -20.203125 L 28.265625 -40.03125 L 20.046875 -20.203125 Z M 36.484375 -20.203125 "/></g></g></g><g fill="#e2e8f0" fill-opacity="1"><g transform="translate(979.225785, 287.433643)"><g><path d="M 39.140625 0 L 29.15625 -14.4375 L 18.125 -14.4375 L 18.125 0 L 6.140625 0 L 6.140625 -51.796875 L 28.5625 -51.796875 C 33.15625 -51.796875 37.140625 -51.03125 40.515625 -49.5 C 43.890625 -47.976562 46.488281 -45.8125 48.3125 -43 C 50.144531 -40.1875 51.0625 -36.851562 51.0625 -33 C 51.0625 -29.15625 50.132812 -25.835938 48.28125 -23.046875 C 46.4375 -20.265625 43.8125 -18.132812 40.40625 -16.65625 L 52.015625 0 Z M 38.921875 -33 C 38.921875 -35.914062 37.984375 -38.148438 36.109375 -39.703125 C 34.234375 -41.253906 31.492188 -42.03125 27.890625 -42.03125 L 18.125 -42.03125 L 18.125 -23.96875 L 27.890625 -23.96875 C 31.492188 -23.96875 34.234375 -24.757812 36.109375 -26.34375 C 37.984375 -27.925781 38.921875 -30.144531 38.921875 -33 Z M 38.921875 -33 "/></g></g></g><g fill="#e2e8f0" fill-opacity="1"><g transform="translate(1033.609994, 287.433643)"><g><path d="M 16.875 -42.03125 L 0.296875 -42.03125 L 0.296875 -51.796875 L 45.4375 -51.796875 L 45.4375 -42.03125 L 28.859375 -42.03125 L 28.859375 0 L 16.875 0 Z M 16.875 -42.03125 "/></g></g></g><g fill="#e2e8f0" fill-opacity="1"><g transform="translate(1079.337114, 287.433643)"><g><path d="M 53.65625 -51.796875 L 53.65625 0 L 43.8125 0 L 17.984375 -31.453125 L 17.984375 0 L 6.140625 0 L 6.140625 -51.796875 L 16.0625 -51.796875 L 41.8125 -20.34375 L 41.8125 -51.796875 Z M 53.65625 -51.796875 "/></g></g></g><g fill="#e2e8f0" fill-opacity="1"><g transform="translate(1139.122762, 287.433643)"><g><path d="M 46.25 -9.625 L 46.25 0 L 6.140625 0 L 6.140625 -51.796875 L 45.28125 -51.796875 L 45.28125 -42.1875 L 18.0625 -42.1875 L 18.0625 -30.9375 L 42.109375 -30.9375 L 42.109375 -21.609375 L 18.0625 -21.609375 L 18.0625 -9.625 Z M 46.25 -9.625 "/></g></g></g><g fill="#e2e8f0" fill-opacity="1"><g transform="translate(1188.771464, 287.433643)"><g><path d="M 39.140625 0 L 29.15625 -14.4375 L 18.125 -14.4375 L 18.125 0 L 6.140625 0 L 6.140625 -51.796875 L 28.5625 -51.796875 C 33.15625 -51.796875 37.140625 -51.03125 40.515625 -49.5 C 43.890625 -47.976562 46.488281 -45.8125 48.3125 -43 C 50.144531 -40.1875 51.0625 -36.851562 51.0625 -33 C 51.0625 -29.15625 50.132812 -25.835938 48.28125 -23.046875 C 46.4375 -20.265625 43.8125 -18.132812 40.40625 -16.65625 L 52.015625 0 Z M 38.921875 -33 C 38.921875 -35.914062 37.984375 -38.148438 36.109375 -39.703125 C 34.234375 -41.253906 31.492188 -42.03125 27.890625 -42.03125 L 18.125 -42.03125 L 18.125 -23.96875 L 27.890625 -23.96875 C 31.492188 -23.96875 34.234375 -24.757812 36.109375 -26.34375 C 37.984375 -27.925781 38.921875 -30.144531 38.921875 -33 Z M 38.921875 -33 "/></g></g></g><g fill="#e2e8f0" fill-opacity="1"><g transform="translate(1243.155685, 287.433643)"><g><path d="M 23.15625 0.890625 C 19.0625 0.890625 15.101562 0.335938 11.28125 -0.765625 C 7.457031 -1.878906 4.390625 -3.328125 2.078125 -5.109375 L 6.140625 -14.140625 C 8.359375 -12.503906 10.992188 -11.191406 14.046875 -10.203125 C 17.109375 -9.222656 20.171875 -8.734375 23.234375 -8.734375 C 26.640625 -8.734375 29.15625 -9.238281 30.78125 -10.25 C 32.40625 -11.257812 33.21875 -12.601562 33.21875 -14.28125 C 33.21875 -15.507812 32.738281 -16.53125 31.78125 -17.34375 C 30.820312 -18.164062 29.585938 -18.820312 28.078125 -19.3125 C 26.578125 -19.800781 24.546875 -20.34375 21.984375 -20.9375 C 18.035156 -21.875 14.800781 -22.8125 12.28125 -23.75 C 9.769531 -24.6875 7.613281 -26.191406 5.8125 -28.265625 C 4.007812 -30.335938 3.109375 -33.101562 3.109375 -36.5625 C 3.109375 -39.5625 3.921875 -42.28125 5.546875 -44.71875 C 7.171875 -47.164062 9.625 -49.101562 12.90625 -50.53125 C 16.1875 -51.96875 20.195312 -52.6875 24.9375 -52.6875 C 28.238281 -52.6875 31.46875 -52.289062 34.625 -51.5 C 37.789062 -50.707031 40.554688 -49.570312 42.921875 -48.09375 L 39.21875 -39 C 34.4375 -41.707031 29.648438 -43.0625 24.859375 -43.0625 C 21.503906 -43.0625 19.023438 -42.519531 17.421875 -41.4375 C 15.816406 -40.351562 15.015625 -38.921875 15.015625 -37.140625 C 15.015625 -35.367188 15.941406 -34.050781 17.796875 -33.1875 C 19.648438 -32.320312 22.472656 -31.472656 26.265625 -30.640625 C 30.210938 -29.703125 33.441406 -28.765625 35.953125 -27.828125 C 38.472656 -26.890625 40.632812 -25.40625 42.4375 -23.375 C 44.238281 -21.351562 45.140625 -18.617188 45.140625 -15.171875 C 45.140625 -12.210938 44.3125 -9.507812 42.65625 -7.0625 C 41.007812 -4.625 38.53125 -2.6875 35.21875 -1.25 C 31.914062 0.175781 27.894531 0.890625 23.15625 0.890625 Z M 23.15625 0.890625 "/></g></g></g></svg>