<svg xmlns="http://www.w3.org/2000/svg" xmlns:xlink="http://www.w3.org/1999/xlink" width="1760" zoomAndPan="magnify" viewBox="0 0 1320 445.499982" height="594" preserveAspectRatio="xMidYMid meet" version="1.0"><defs><g/><clipPath id="b5aa5cd2ba"><path d="M 0.738281 128.582031 L 1318.972656 128.582031 L 1318.972656 282.574219 L 0.738281 282.574219 Z M 0.738281 128.582031 " clip-rule="nonzero"/></clipPath><clipPath id="aa72ca381b"><path d="M 0.738281 0.582031 L 1318.972656 0.582031 L 1318.972656 154.574219 L 0.738281 154.574219 Z M 0.738281 0.582031 " clip-rule="nonzero"/></clipPath><clipPath id="46562b40b5"><rect x="0" width="1319" y="0" height="155"/></clipPath></defs><g fill="#c026d3" fill-opacity="1"><g transform="translate(78.319309, 180.275109)"><g><path d="M 10.140625 -101.375 L 58.078125 -101.375 C 69.179688 -101.375 79.03125 -99.296875 87.625 -95.140625 C 96.21875 -90.992188 102.878906 -85.109375 107.609375 -77.484375 C 112.335938 -69.859375 114.703125 -60.925781 114.703125 -50.6875 C 114.703125 -40.457031 112.335938 -31.523438 107.609375 -23.890625 C 102.878906 -16.265625 96.21875 -10.375 87.625 -6.21875 C 79.03125 -2.070312 69.179688 0 58.078125 0 L 10.140625 0 Z M 56.921875 -22.890625 C 65.609375 -22.890625 72.582031 -25.347656 77.84375 -30.265625 C 83.101562 -35.191406 85.734375 -42 85.734375 -50.6875 C 85.734375 -59.375 83.101562 -66.179688 77.84375 -71.109375 C 72.582031 -76.035156 65.609375 -78.5 56.921875 -78.5 L 38.8125 -78.5 L 38.8125 -22.890625 Z M 56.921875 -22.890625 "/></g></g></g><g fill="#c026d3" fill-opacity="1"><g transform="translate(197.951812, 180.275109)"><g><path d="M 8.828125 -78.5 L 36.359375 -78.5 L 36.359375 0 L 8.828125 0 Z M 22.59375 -87.1875 C 17.570312 -87.1875 13.515625 -88.585938 10.421875 -91.390625 C 7.335938 -94.191406 5.796875 -97.664062 5.796875 -101.8125 C 5.796875 -105.96875 7.335938 -109.441406 10.421875 -112.234375 C 13.515625 -115.035156 17.570312 -116.4375 22.59375 -116.4375 C 27.613281 -116.4375 31.671875 -115.109375 34.765625 -112.453125 C 37.859375 -109.796875 39.40625 -106.394531 39.40625 -102.25 C 39.40625 -97.90625 37.859375 -94.304688 34.765625 -91.453125 C 31.671875 -88.609375 27.613281 -87.1875 22.59375 -87.1875 Z M 22.59375 -87.1875 "/></g></g></g><g fill="#c026d3" fill-opacity="1"><g transform="translate(243.284707, 180.275109)"><g><path d="M 93.265625 -78.5 L 93.265625 -14.34375 C 93.265625 0.238281 89.304688 11.175781 81.390625 18.46875 C 73.472656 25.757812 62.082031 29.40625 47.21875 29.40625 C 39.488281 29.40625 32.242188 28.535156 25.484375 26.796875 C 18.734375 25.054688 12.988281 22.5 8.25 19.125 L 18.25 -0.140625 C 21.4375 2.460938 25.46875 4.507812 30.34375 6 C 35.21875 7.5 40.019531 8.25 44.75 8.25 C 51.988281 8.25 57.296875 6.65625 60.671875 3.46875 C 64.054688 0.289062 65.75 -4.4375 65.75 -10.71875 L 65.75 -13.328125 C 60.4375 -7.148438 52.664062 -4.0625 42.4375 -4.0625 C 35.476562 -4.0625 29.054688 -5.628906 23.171875 -8.765625 C 17.285156 -11.898438 12.601562 -16.335938 9.125 -22.078125 C 5.644531 -27.828125 3.90625 -34.46875 3.90625 -42 C 3.90625 -49.4375 5.644531 -56.023438 9.125 -61.765625 C 12.601562 -67.515625 17.285156 -71.957031 23.171875 -75.09375 C 29.054688 -78.226562 35.476562 -79.796875 42.4375 -79.796875 C 53.632812 -79.796875 61.84375 -76.175781 67.0625 -68.9375 L 67.0625 -78.5 Z M 48.953125 -25.921875 C 53.878906 -25.921875 57.957031 -27.414062 61.1875 -30.40625 C 64.425781 -33.40625 66.046875 -37.269531 66.046875 -42 C 66.046875 -46.726562 64.453125 -50.566406 61.265625 -53.515625 C 58.078125 -56.460938 53.972656 -57.9375 48.953125 -57.9375 C 43.929688 -57.9375 39.800781 -56.460938 36.5625 -53.515625 C 33.332031 -50.566406 31.71875 -46.726562 31.71875 -42 C 31.71875 -37.269531 33.359375 -33.40625 36.640625 -30.40625 C 39.921875 -27.414062 44.023438 -25.921875 48.953125 -25.921875 Z M 48.953125 -25.921875 "/></g></g></g><g fill="#c026d3" fill-opacity="1"><g transform="translate(345.392344, 180.275109)"><g><path d="M 8.828125 -78.5 L 36.359375 -78.5 L 36.359375 0 L 8.828125 0 Z M 22.59375 -87.1875 C 17.570312 -87.1875 13.515625 -88.585938 10.421875 -91.390625 C 7.335938 -94.191406 5.796875 -97.664062 5.796875 -101.8125 C 5.796875 -105.96875 7.335938 -109.441406 10.421875 -112.234375 C 13.515625 -115.035156 17.570312 -116.4375 22.59375 -116.4375 C 27.613281 -116.4375 31.671875 -115.109375 34.765625 -112.453125 C 37.859375 -109.796875 39.40625 -106.394531 39.40625 -102.25 C 39.40625 -97.90625 37.859375 -94.304688 34.765625 -91.453125 C 31.671875 -88.609375 27.613281 -87.1875 22.59375 -87.1875 Z M 22.59375 -87.1875 "/></g></g></g><g fill="#c026d3" fill-opacity="1"><g transform="translate(390.725251, 180.275109)"><g><path d="M 63 -3.1875 C 60.6875 -1.738281 57.863281 -0.628906 54.53125 0.140625 C 51.195312 0.910156 47.648438 1.296875 43.890625 1.296875 C 33.648438 1.296875 25.773438 -1.210938 20.265625 -6.234375 C 14.765625 -11.253906 12.015625 -18.734375 12.015625 -28.671875 L 12.015625 -55.03125 L 0.578125 -55.03125 L 0.578125 -75.59375 L 12.015625 -75.59375 L 12.015625 -96.015625 L 39.53125 -96.015625 L 39.53125 -75.59375 L 57.5 -75.59375 L 57.5 -55.03125 L 39.53125 -55.03125 L 39.53125 -28.96875 C 39.53125 -26.164062 40.28125 -23.96875 41.78125 -22.375 C 43.28125 -20.78125 45.285156 -19.984375 47.796875 -19.984375 C 50.984375 -19.984375 53.78125 -20.804688 56.1875 -22.453125 Z M 63 -3.1875 "/></g></g></g><g fill="#c026d3" fill-opacity="1"><g transform="translate(455.465833, 180.275109)"><g><path d="M 42.296875 -79.796875 C 55.328125 -79.796875 65.269531 -76.828125 72.125 -70.890625 C 78.976562 -64.953125 82.40625 -55.851562 82.40625 -43.59375 L 82.40625 0 L 56.765625 0 L 56.765625 -10.140625 C 52.804688 -2.515625 45.082031 1.296875 33.59375 1.296875 C 27.507812 1.296875 22.25 0.238281 17.8125 -1.875 C 13.375 -4 10.019531 -6.875 7.75 -10.5 C 5.476562 -14.125 4.34375 -18.253906 4.34375 -22.890625 C 4.34375 -30.316406 7.191406 -36.082031 12.890625 -40.1875 C 18.585938 -44.289062 27.375 -46.34375 39.25 -46.34375 L 54.890625 -46.34375 C 54.410156 -54.644531 48.859375 -58.796875 38.234375 -58.796875 C 34.472656 -58.796875 30.660156 -58.191406 26.796875 -56.984375 C 22.929688 -55.773438 19.644531 -54.113281 16.9375 -52 L 7.671875 -70.671875 C 12.015625 -73.566406 17.300781 -75.8125 23.53125 -77.40625 C 29.757812 -79 36.015625 -79.796875 42.296875 -79.796875 Z M 41.28125 -16.078125 C 44.46875 -16.078125 47.265625 -16.847656 49.671875 -18.390625 C 52.085938 -19.929688 53.828125 -22.203125 54.890625 -25.203125 L 54.890625 -32 L 43.015625 -32 C 35.003906 -32 31 -29.347656 31 -24.046875 C 31 -21.628906 31.914062 -19.695312 33.75 -18.25 C 35.582031 -16.800781 38.09375 -16.078125 41.28125 -16.078125 Z M 41.28125 -16.078125 "/></g></g></g><g fill="#c026d3" fill-opacity="1"><g transform="translate(546.421314, 180.275109)"><g><path d="M 8.828125 -107.46875 L 36.359375 -107.46875 L 36.359375 0 L 8.828125 0 Z M 8.828125 -107.46875 "/></g></g></g><g fill="#c026d3" fill-opacity="1"><g transform="translate(591.754221, 180.275109)"><g/></g></g><g fill="#c026d3" fill-opacity="1"><g transform="translate(633.900778, 180.275109)"><g><path d="M 78.0625 -52.859375 L 103.40625 -52.859375 L 103.40625 -10.859375 C 97.613281 -6.710938 90.953125 -3.523438 83.421875 -1.296875 C 75.890625 0.921875 68.359375 2.03125 60.828125 2.03125 C 50.203125 2.03125 40.640625 -0.210938 32.140625 -4.703125 C 23.648438 -9.191406 16.988281 -15.441406 12.15625 -23.453125 C 7.332031 -31.472656 4.921875 -40.550781 4.921875 -50.6875 C 4.921875 -60.820312 7.332031 -69.894531 12.15625 -77.90625 C 16.988281 -85.925781 23.703125 -92.179688 32.296875 -96.671875 C 40.890625 -101.160156 50.59375 -103.40625 61.40625 -103.40625 C 70.863281 -103.40625 79.359375 -101.8125 86.890625 -98.625 C 94.421875 -95.4375 100.695312 -90.851562 105.71875 -84.875 L 87.46875 -68.359375 C 80.613281 -75.890625 72.410156 -79.65625 62.859375 -79.65625 C 54.171875 -79.65625 47.171875 -77.023438 41.859375 -71.765625 C 36.546875 -66.503906 33.890625 -59.476562 33.890625 -50.6875 C 33.890625 -45.09375 35.09375 -40.097656 37.5 -35.703125 C 39.914062 -31.304688 43.296875 -27.875 47.640625 -25.40625 C 51.992188 -22.945312 56.96875 -21.71875 62.5625 -21.71875 C 68.070312 -21.71875 73.238281 -22.832031 78.0625 -25.0625 Z M 78.0625 -52.859375 "/></g></g></g><g fill="#c026d3" fill-opacity="1"><g transform="translate(745.422607, 180.275109)"><g><path d="M 35.046875 -69.078125 C 37.847656 -72.648438 41.492188 -75.328125 45.984375 -77.109375 C 50.472656 -78.898438 55.613281 -79.796875 61.40625 -79.796875 L 61.40625 -55.03125 C 58.894531 -55.320312 56.816406 -55.46875 55.171875 -55.46875 C 49.285156 -55.46875 44.675781 -53.875 41.34375 -50.6875 C 38.019531 -47.5 36.359375 -42.625 36.359375 -36.0625 L 36.359375 0 L 8.828125 0 L 8.828125 -78.5 L 35.046875 -78.5 Z M 35.046875 -69.078125 "/></g></g></g><g fill="#c026d3" fill-opacity="1"><g transform="translate(809.583853, 180.275109)"><g><path d="M 48.234375 1.296875 C 39.828125 1.296875 32.242188 -0.4375 25.484375 -3.90625 C 18.734375 -7.382812 13.445312 -12.210938 9.625 -18.390625 C 5.8125 -24.566406 3.90625 -31.566406 3.90625 -39.390625 C 3.90625 -47.117188 5.8125 -54.070312 9.625 -60.25 C 13.445312 -66.425781 18.710938 -71.226562 25.421875 -74.65625 C 32.128906 -78.082031 39.734375 -79.796875 48.234375 -79.796875 C 56.722656 -79.796875 64.347656 -78.082031 71.109375 -74.65625 C 77.867188 -71.226562 83.128906 -66.445312 86.890625 -60.3125 C 90.660156 -54.1875 92.546875 -47.210938 92.546875 -39.390625 C 92.546875 -31.566406 90.660156 -24.566406 86.890625 -18.390625 C 83.128906 -12.210938 77.867188 -7.382812 71.109375 -3.90625 C 64.347656 -0.4375 56.722656 1.296875 48.234375 1.296875 Z M 48.234375 -20.5625 C 53.054688 -20.5625 57.007812 -22.226562 60.09375 -25.5625 C 63.1875 -28.894531 64.734375 -33.503906 64.734375 -39.390625 C 64.734375 -45.179688 63.1875 -49.71875 60.09375 -53 C 57.007812 -56.289062 53.054688 -57.9375 48.234375 -57.9375 C 43.398438 -57.9375 39.4375 -56.289062 36.34375 -53 C 33.257812 -49.71875 31.71875 -45.179688 31.71875 -39.390625 C 31.71875 -33.503906 33.257812 -28.894531 36.34375 -25.5625 C 39.4375 -22.226562 43.398438 -20.5625 48.234375 -20.5625 Z M 48.234375 -20.5625 "/></g></g></g><g fill="#c026d3" fill-opacity="1"><g transform="translate(906.043029, 180.275109)"><g><path d="M 138.890625 -78.5 L 110.9375 0 L 84.296875 0 L 69.515625 -42.71875 L 54.171875 0 L 27.515625 0 L -0.4375 -78.5 L 25.640625 -78.5 L 41.703125 -31 L 58.359375 -78.5 L 81.828125 -78.5 L 98.046875 -30.5625 L 114.703125 -78.5 Z M 138.890625 -78.5 "/></g></g></g><g fill="#c026d3" fill-opacity="1"><g transform="translate(1044.503863, 180.275109)"><g><path d="M 63 -3.1875 C 60.6875 -1.738281 57.863281 -0.628906 54.53125 0.140625 C 51.195312 0.910156 47.648438 1.296875 43.890625 1.296875 C 33.648438 1.296875 25.773438 -1.210938 20.265625 -6.234375 C 14.765625 -11.253906 12.015625 -18.734375 12.015625 -28.671875 L 12.015625 -55.03125 L 0.578125 -55.03125 L 0.578125 -75.59375 L 12.015625 -75.59375 L 12.015625 -96.015625 L 39.53125 -96.015625 L 39.53125 -75.59375 L 57.5 -75.59375 L 57.5 -55.03125 L 39.53125 -55.03125 L 39.53125 -28.96875 C 39.53125 -26.164062 40.28125 -23.96875 41.78125 -22.375 C 43.28125 -20.78125 45.285156 -19.984375 47.796875 -19.984375 C 50.984375 -19.984375 53.78125 -20.804688 56.1875 -22.453125 Z M 63 -3.1875 "/></g></g></g><g fill="#c026d3" fill-opacity="1"><g transform="translate(1109.244491, 180.275109)"><g><path d="M 59.953125 -79.796875 C 69.710938 -79.796875 77.5625 -76.898438 83.5 -71.109375 C 89.4375 -65.316406 92.40625 -56.578125 92.40625 -44.890625 L 92.40625 0 L 64.890625 0 L 64.890625 -40.40625 C 64.890625 -51.125 60.59375 -56.484375 52 -56.484375 C 47.257812 -56.484375 43.46875 -54.9375 40.625 -51.84375 C 37.78125 -48.757812 36.359375 -44.125 36.359375 -37.9375 L 36.359375 0 L 8.828125 0 L 8.828125 -107.46875 L 36.359375 -107.46875 L 36.359375 -71.25 C 39.347656 -74.050781 42.867188 -76.175781 46.921875 -77.625 C 50.972656 -79.070312 55.316406 -79.796875 59.953125 -79.796875 Z M 59.953125 -79.796875 "/></g></g></g><g fill="#c026d3" fill-opacity="1"><g transform="translate(1210.052942, 180.275109)"><g/></g></g><g fill="#c026d3" fill-opacity="1"><g transform="translate(78.319309, 305.997499)"><g><path d="M 10.140625 -101.375 L 58.078125 -101.375 C 69.179688 -101.375 79.03125 -99.296875 87.625 -95.140625 C 96.21875 -90.992188 102.878906 -85.109375 107.609375 -77.484375 C 112.335938 -69.859375 114.703125 -60.925781 114.703125 -50.6875 C 114.703125 -40.457031 112.335938 -31.523438 107.609375 -23.890625 C 102.878906 -16.265625 96.21875 -10.375 87.625 -6.21875 C 79.03125 -2.070312 69.179688 0 58.078125 0 L 10.140625 0 Z M 56.921875 -22.890625 C 65.609375 -22.890625 72.582031 -25.347656 77.84375 -30.265625 C 83.101562 -35.191406 85.734375 -42 85.734375 -50.6875 C 85.734375 -59.375 83.101562 -66.179688 77.84375 -71.109375 C 72.582031 -76.035156 65.609375 -78.5 56.921875 -78.5 L 38.8125 -78.5 L 38.8125 -22.890625 Z M 56.921875 -22.890625 "/></g></g></g><g fill="#c026d3" fill-opacity="1"><g transform="translate(197.951812, 305.997499)"><g><path d="M 8.828125 -78.5 L 36.359375 -78.5 L 36.359375 0 L 8.828125 0 Z M 22.59375 -87.1875 C 17.570312 -87.1875 13.515625 -88.585938 10.421875 -91.390625 C 7.335938 -94.191406 5.796875 -97.664062 5.796875 -101.8125 C 5.796875 -105.96875 7.335938 -109.441406 10.421875 -112.234375 C 13.515625 -115.035156 17.570312 -116.4375 22.59375 -116.4375 C 27.613281 -116.4375 31.671875 -115.109375 34.765625 -112.453125 C 37.859375 -109.796875 39.40625 -106.394531 39.40625 -102.25 C 39.40625 -97.90625 37.859375 -94.304688 34.765625 -91.453125 C 31.671875 -88.609375 27.613281 -87.1875 22.59375 -87.1875 Z M 22.59375 -87.1875 "/></g></g></g><g fill="#c026d3" fill-opacity="1"><g transform="translate(243.284707, 305.997499)"><g><path d="M 93.265625 -78.5 L 93.265625 -14.34375 C 93.265625 0.238281 89.304688 11.175781 81.390625 18.46875 C 73.472656 25.757812 62.082031 29.40625 47.21875 29.40625 C 39.488281 29.40625 32.242188 28.535156 25.484375 26.796875 C 18.734375 25.054688 12.988281 22.5 8.25 19.125 L 18.25 -0.140625 C 21.4375 2.460938 25.46875 4.507812 30.34375 6 C 35.21875 7.5 40.019531 8.25 44.75 8.25 C 51.988281 8.25 57.296875 6.65625 60.671875 3.46875 C 64.054688 0.289062 65.75 -4.4375 65.75 -10.71875 L 65.75 -13.328125 C 60.4375 -7.148438 52.664062 -4.0625 42.4375 -4.0625 C 35.476562 -4.0625 29.054688 -5.628906 23.171875 -8.765625 C 17.285156 -11.898438 12.601562 -16.335938 9.125 -22.078125 C 5.644531 -27.828125 3.90625 -34.46875 3.90625 -42 C 3.90625 -49.4375 5.644531 -56.023438 9.125 -61.765625 C 12.601562 -67.515625 17.285156 -71.957031 23.171875 -75.09375 C 29.054688 -78.226562 35.476562 -79.796875 42.4375 -79.796875 C 53.632812 -79.796875 61.84375 -76.175781 67.0625 -68.9375 L 67.0625 -78.5 Z M 48.953125 -25.921875 C 53.878906 -25.921875 57.957031 -27.414062 61.1875 -30.40625 C 64.425781 -33.40625 66.046875 -37.269531 66.046875 -42 C 66.046875 -46.726562 64.453125 -50.566406 61.265625 -53.515625 C 58.078125 -56.460938 53.972656 -57.9375 48.953125 -57.9375 C 43.929688 -57.9375 39.800781 -56.460938 36.5625 -53.515625 C 33.332031 -50.566406 31.71875 -46.726562 31.71875 -42 C 31.71875 -37.269531 33.359375 -33.40625 36.640625 -30.40625 C 39.921875 -27.414062 44.023438 -25.921875 48.953125 -25.921875 Z M 48.953125 -25.921875 "/></g></g></g><g fill="#c026d3" fill-opacity="1"><g transform="translate(345.392344, 305.997499)"><g><path d="M 8.828125 -78.5 L 36.359375 -78.5 L 36.359375 0 L 8.828125 0 Z M 22.59375 -87.1875 C 17.570312 -87.1875 13.515625 -88.585938 10.421875 -91.390625 C 7.335938 -94.191406 5.796875 -97.664062 5.796875 -101.8125 C 5.796875 -105.96875 7.335938 -109.441406 10.421875 -112.234375 C 13.515625 -115.035156 17.570312 -116.4375 22.59375 -116.4375 C 27.613281 -116.4375 31.671875 -115.109375 34.765625 -112.453125 C 37.859375 -109.796875 39.40625 -106.394531 39.40625 -102.25 C 39.40625 -97.90625 37.859375 -94.304688 34.765625 -91.453125 C 31.671875 -88.609375 27.613281 -87.1875 22.59375 -87.1875 Z M 22.59375 -87.1875 "/></g></g></g><g fill="#c026d3" fill-opacity="1"><g transform="translate(390.725251, 305.997499)"><g><path d="M 63 -3.1875 C 60.6875 -1.738281 57.863281 -0.628906 54.53125 0.140625 C 51.195312 0.910156 47.648438 1.296875 43.890625 1.296875 C 33.648438 1.296875 25.773438 -1.210938 20.265625 -6.234375 C 14.765625 -11.253906 12.015625 -18.734375 12.015625 -28.671875 L 12.015625 -55.03125 L 0.578125 -55.03125 L 0.578125 -75.59375 L 12.015625 -75.59375 L 12.015625 -96.015625 L 39.53125 -96.015625 L 39.53125 -75.59375 L 57.5 -75.59375 L 57.5 -55.03125 L 39.53125 -55.03125 L 39.53125 -28.96875 C 39.53125 -26.164062 40.28125 -23.96875 41.78125 -22.375 C 43.28125 -20.78125 45.285156 -19.984375 47.796875 -19.984375 C 50.984375 -19.984375 53.78125 -20.804688 56.1875 -22.453125 Z M 63 -3.1875 "/></g></g></g><g fill="#c026d3" fill-opacity="1"><g transform="translate(455.465833, 305.997499)"><g><path d="M 42.296875 -79.796875 C 55.328125 -79.796875 65.269531 -76.828125 72.125 -70.890625 C 78.976562 -64.953125 82.40625 -55.851562 82.40625 -43.59375 L 82.40625 0 L 56.765625 0 L 56.765625 -10.140625 C 52.804688 -2.515625 45.082031 1.296875 33.59375 1.296875 C 27.507812 1.296875 22.25 0.238281 17.8125 -1.875 C 13.375 -4 10.019531 -6.875 7.75 -10.5 C 5.476562 -14.125 4.34375 -18.253906 4.34375 -22.890625 C 4.34375 -30.316406 7.191406 -36.082031 12.890625 -40.1875 C 18.585938 -44.289062 27.375 -46.34375 39.25 -46.34375 L 54.890625 -46.34375 C 54.410156 -54.644531 48.859375 -58.796875 38.234375 -58.796875 C 34.472656 -58.796875 30.660156 -58.191406 26.796875 -56.984375 C 22.929688 -55.773438 19.644531 -54.113281 16.9375 -52 L 7.671875 -70.671875 C 12.015625 -73.566406 17.300781 -75.8125 23.53125 -77.40625 C 29.757812 -79 36.015625 -79.796875 42.296875 -79.796875 Z M 41.28125 -16.078125 C 44.46875 -16.078125 47.265625 -16.847656 49.671875 -18.390625 C 52.085938 -19.929688 53.828125 -22.203125 54.890625 -25.203125 L 54.890625 -32 L 43.015625 -32 C 35.003906 -32 31 -29.347656 31 -24.046875 C 31 -21.628906 31.914062 -19.695312 33.75 -18.25 C 35.582031 -16.800781 38.09375 -16.078125 41.28125 -16.078125 Z M 41.28125 -16.078125 "/></g></g></g><g fill="#c026d3" fill-opacity="1"><g transform="translate(546.421314, 305.997499)"><g><path d="M 8.828125 -107.46875 L 36.359375 -107.46875 L 36.359375 0 L 8.828125 0 Z M 8.828125 -107.46875 "/></g></g></g><g fill="#c026d3" fill-opacity="1"><g transform="translate(591.754221, 305.997499)"><g/></g></g><g fill="#c026d3" fill-opacity="1"><g transform="translate(633.900778, 305.997499)"><g><path d="M 78.0625 -52.859375 L 103.40625 -52.859375 L 103.40625 -10.859375 C 97.613281 -6.710938 90.953125 -3.523438 83.421875 -1.296875 C 75.890625 0.921875 68.359375 2.03125 60.828125 2.03125 C 50.203125 2.03125 40.640625 -0.210938 32.140625 -4.703125 C 23.648438 -9.191406 16.988281 -15.441406 12.15625 -23.453125 C 7.332031 -31.472656 4.921875 -40.550781 4.921875 -50.6875 C 4.921875 -60.820312 7.332031 -69.894531 12.15625 -77.90625 C 16.988281 -85.925781 23.703125 -92.179688 32.296875 -96.671875 C 40.890625 -101.160156 50.59375 -103.40625 61.40625 -103.40625 C 70.863281 -103.40625 79.359375 -101.8125 86.890625 -98.625 C 94.421875 -95.4375 100.695312 -90.851562 105.71875 -84.875 L 87.46875 -68.359375 C 80.613281 -75.890625 72.410156 -79.65625 62.859375 -79.65625 C 54.171875 -79.65625 47.171875 -77.023438 41.859375 -71.765625 C 36.546875 -66.503906 33.890625 -59.476562 33.890625 -50.6875 C 33.890625 -45.09375 35.09375 -40.097656 37.5 -35.703125 C 39.914062 -31.304688 43.296875 -27.875 47.640625 -25.40625 C 51.992188 -22.945312 56.96875 -21.71875 62.5625 -21.71875 C 68.070312 -21.71875 73.238281 -22.832031 78.0625 -25.0625 Z M 78.0625 -52.859375 "/></g></g></g><g fill="#c026d3" fill-opacity="1"><g transform="translate(745.422607, 305.997499)"><g><path d="M 35.046875 -69.078125 C 37.847656 -72.648438 41.492188 -75.328125 45.984375 -77.109375 C 50.472656 -78.898438 55.613281 -79.796875 61.40625 -79.796875 L 61.40625 -55.03125 C 58.894531 -55.320312 56.816406 -55.46875 55.171875 -55.46875 C 49.285156 -55.46875 44.675781 -53.875 41.34375 -50.6875 C 38.019531 -47.5 36.359375 -42.625 36.359375 -36.0625 L 36.359375 0 L 8.828125 0 L 8.828125 -78.5 L 35.046875 -78.5 Z M 35.046875 -69.078125 "/></g></g></g><g fill="#c026d3" fill-opacity="1"><g transform="translate(809.583853, 305.997499)"><g><path d="M 48.234375 1.296875 C 39.828125 1.296875 32.242188 -0.4375 25.484375 -3.90625 C 18.734375 -7.382812 13.445312 -12.210938 9.625 -18.390625 C 5.8125 -24.566406 3.90625 -31.566406 3.90625 -39.390625 C 3.90625 -47.117188 5.8125 -54.070312 9.625 -60.25 C 13.445312 -66.425781 18.710938 -71.226562 25.421875 -74.65625 C 32.128906 -78.082031 39.734375 -79.796875 48.234375 -79.796875 C 56.722656 -79.796875 64.347656 -78.082031 71.109375 -74.65625 C 77.867188 -71.226562 83.128906 -66.445312 86.890625 -60.3125 C 90.660156 -54.1875 92.546875 -47.210938 92.546875 -39.390625 C 92.546875 -31.566406 90.660156 -24.566406 86.890625 -18.390625 C 83.128906 -12.210938 77.867188 -7.382812 71.109375 -3.90625 C 64.347656 -0.4375 56.722656 1.296875 48.234375 1.296875 Z M 48.234375 -20.5625 C 53.054688 -20.5625 57.007812 -22.226562 60.09375 -25.5625 C 63.1875 -28.894531 64.734375 -33.503906 64.734375 -39.390625 C 64.734375 -45.179688 63.1875 -49.71875 60.09375 -53 C 57.007812 -56.289062 53.054688 -57.9375 48.234375 -57.9375 C 43.398438 -57.9375 39.4375 -56.289062 36.34375 -53 C 33.257812 -49.71875 31.71875 -45.179688 31.71875 -39.390625 C 31.71875 -33.503906 33.257812 -28.894531 36.34375 -25.5625 C 39.4375 -22.226562 43.398438 -20.5625 48.234375 -20.5625 Z M 48.234375 -20.5625 "/></g></g></g><g fill="#c026d3" fill-opacity="1"><g transform="translate(906.043029, 305.997499)"><g><path d="M 138.890625 -78.5 L 110.9375 0 L 84.296875 0 L 69.515625 -42.71875 L 54.171875 0 L 27.515625 0 L -0.4375 -78.5 L 25.640625 -78.5 L 41.703125 -31 L 58.359375 -78.5 L 81.828125 -78.5 L 98.046875 -30.5625 L 114.703125 -78.5 Z M 138.890625 -78.5 "/></g></g></g><g fill="#c026d3" fill-opacity="1"><g transform="translate(1044.503863, 305.997499)"><g><path d="M 63 -3.1875 C 60.6875 -1.738281 57.863281 -0.628906 54.53125 0.140625 C 51.195312 0.910156 47.648438 1.296875 43.890625 1.296875 C 33.648438 1.296875 25.773438 -1.210938 20.265625 -6.234375 C 14.765625 -11.253906 12.015625 -18.734375 12.015625 -28.671875 L 12.015625 -55.03125 L 0.578125 -55.03125 L 0.578125 -75.59375 L 12.015625 -75.59375 L 12.015625 -96.015625 L 39.53125 -96.015625 L 39.53125 -75.59375 L 57.5 -75.59375 L 57.5 -55.03125 L 39.53125 -55.03125 L 39.53125 -28.96875 C 39.53125 -26.164062 40.28125 -23.96875 41.78125 -22.375 C 43.28125 -20.78125 45.285156 -19.984375 47.796875 -19.984375 C 50.984375 -19.984375 53.78125 -20.804688 56.1875 -22.453125 Z M 63 -3.1875 "/></g></g></g><g fill="#c026d3" fill-opacity="1"><g transform="translate(1109.244491, 305.997499)"><g><path d="M 59.953125 -79.796875 C 69.710938 -79.796875 77.5625 -76.898438 83.5 -71.109375 C 89.4375 -65.316406 92.40625 -56.578125 92.40625 -44.890625 L 92.40625 0 L 64.890625 0 L 64.890625 -40.40625 C 64.890625 -51.125 60.59375 -56.484375 52 -56.484375 C 47.257812 -56.484375 43.46875 -54.9375 40.625 -51.84375 C 37.78125 -48.757812 36.359375 -44.125 36.359375 -37.9375 L 36.359375 0 L 8.828125 0 L 8.828125 -107.46875 L 36.359375 -107.46875 L 36.359375 -71.25 C 39.347656 -74.050781 42.867188 -76.175781 46.921875 -77.625 C 50.972656 -79.070312 55.316406 -79.796875 59.953125 -79.796875 Z M 59.953125 -79.796875 "/></g></g></g><g fill="#c026d3" fill-opacity="1"><g transform="translate(1210.052942, 305.997499)"><g/></g></g><g clip-path="url(#b5aa5cd2ba)"><g transform="matrix(1, 0, 0, 1, 0, 128)"><g clip-path="url(#46562b40b5)"><g clip-path="url(#aa72ca381b)"><path fill="#0a0a0a" d="M 0.738281 0.582031 L 1318.675781 0.582031 L 1318.675781 154.574219 L 0.738281 154.574219 Z M 0.738281 0.582031 " fill-opacity="1" fill-rule="nonzero"/></g></g></g></g><g fill="#8000ff" fill-opacity="1"><g transform="translate(78.319309, 247.612237)"><g><path d="M 10.140625 -101.375 L 58.0625 -101.375 C 69.164062 -101.375 79.015625 -99.296875 87.609375 -95.140625 C 96.203125 -90.992188 102.863281 -85.101562 107.59375 -77.46875 C 112.320312 -69.84375 114.6875 -60.914062 114.6875 -50.6875 C 114.6875 -40.445312 112.320312 -31.515625 107.59375 -23.890625 C 102.863281 -16.265625 96.203125 -10.375 87.609375 -6.21875 C 79.015625 -2.070312 69.164062 0 58.0625 0 L 10.140625 0 Z M 56.90625 -22.875 C 65.59375 -22.875 72.566406 -25.335938 77.828125 -30.265625 C 83.097656 -35.191406 85.734375 -42 85.734375 -50.6875 C 85.734375 -59.375 83.097656 -66.175781 77.828125 -71.09375 C 72.566406 -76.019531 65.59375 -78.484375 56.90625 -78.484375 L 38.8125 -78.484375 L 38.8125 -22.875 Z M 56.90625 -22.875 "/></g></g></g><g fill="#8000ff" fill-opacity="1"><g transform="translate(197.932493, 247.612237)"><g><path d="M 8.828125 -78.484375 L 36.34375 -78.484375 L 36.34375 0 L 8.828125 0 Z M 22.59375 -87.171875 C 17.570312 -87.171875 13.515625 -88.570312 10.421875 -91.375 C 7.335938 -94.175781 5.796875 -97.648438 5.796875 -101.796875 C 5.796875 -105.953125 7.335938 -109.425781 10.421875 -112.21875 C 13.515625 -115.019531 17.570312 -116.421875 22.59375 -116.421875 C 27.613281 -116.421875 31.664062 -115.09375 34.75 -112.4375 C 37.84375 -109.789062 39.390625 -106.390625 39.390625 -102.234375 C 39.390625 -97.890625 37.84375 -94.289062 34.75 -91.4375 C 31.664062 -88.59375 27.613281 -87.171875 22.59375 -87.171875 Z M 22.59375 -87.171875 "/></g></g></g><g fill="#8000ff" fill-opacity="1"><g transform="translate(243.258073, 247.612237)"><g><path d="M 93.265625 -78.484375 L 93.265625 -14.34375 C 93.265625 0.238281 89.304688 11.171875 81.390625 18.453125 C 73.472656 25.742188 62.078125 29.390625 47.203125 29.390625 C 39.484375 29.390625 32.242188 28.519531 25.484375 26.78125 C 18.722656 25.050781 12.976562 22.492188 8.25 19.109375 L 18.25 -0.140625 C 21.4375 2.460938 25.46875 4.507812 30.34375 6 C 35.21875 7.5 40.019531 8.25 44.75 8.25 C 51.988281 8.25 57.296875 6.65625 60.671875 3.46875 C 64.054688 0.289062 65.75 -4.4375 65.75 -10.71875 L 65.75 -13.328125 C 60.4375 -7.148438 52.664062 -4.0625 42.4375 -4.0625 C 35.476562 -4.0625 29.054688 -5.628906 23.171875 -8.765625 C 17.285156 -11.898438 12.601562 -16.335938 9.125 -22.078125 C 5.644531 -27.828125 3.90625 -34.46875 3.90625 -42 C 3.90625 -49.425781 5.644531 -56.007812 9.125 -61.75 C 12.601562 -67.5 17.285156 -71.941406 23.171875 -75.078125 C 29.054688 -78.222656 35.476562 -79.796875 42.4375 -79.796875 C 53.632812 -79.796875 61.835938 -76.175781 67.046875 -68.9375 L 67.046875 -78.484375 Z M 48.953125 -25.921875 C 53.867188 -25.921875 57.941406 -27.414062 61.171875 -30.40625 C 64.410156 -33.40625 66.03125 -37.269531 66.03125 -42 C 66.03125 -46.726562 64.4375 -50.5625 61.25 -53.5 C 58.070312 -56.445312 53.972656 -57.921875 48.953125 -57.921875 C 43.929688 -57.921875 39.800781 -56.445312 36.5625 -53.5 C 33.332031 -50.5625 31.71875 -46.726562 31.71875 -42 C 31.71875 -37.269531 33.359375 -33.40625 36.640625 -30.40625 C 39.921875 -27.414062 44.023438 -25.921875 48.953125 -25.921875 Z M 48.953125 -25.921875 "/></g></g></g><g fill="#8000ff" fill-opacity="1"><g transform="translate(345.349226, 247.612237)"><g><path d="M 8.828125 -78.484375 L 36.34375 -78.484375 L 36.34375 0 L 8.828125 0 Z M 22.59375 -87.171875 C 17.570312 -87.171875 13.515625 -88.570312 10.421875 -91.375 C 7.335938 -94.175781 5.796875 -97.648438 5.796875 -101.796875 C 5.796875 -105.953125 7.335938 -109.425781 10.421875 -112.21875 C 13.515625 -115.019531 17.570312 -116.421875 22.59375 -116.421875 C 27.613281 -116.421875 31.664062 -115.09375 34.75 -112.4375 C 37.84375 -109.789062 39.390625 -106.390625 39.390625 -102.234375 C 39.390625 -97.890625 37.84375 -94.289062 34.75 -91.4375 C 31.664062 -88.59375 27.613281 -87.171875 22.59375 -87.171875 Z M 22.59375 -87.171875 "/></g></g></g><g fill="#8000ff" fill-opacity="1"><g transform="translate(390.674817, 247.612237)"><g><path d="M 63 -3.1875 C 60.675781 -1.738281 57.847656 -0.628906 54.515625 0.140625 C 51.191406 0.910156 47.644531 1.296875 43.875 1.296875 C 33.644531 1.296875 25.773438 -1.207031 20.265625 -6.21875 C 14.765625 -11.238281 12.015625 -18.722656 12.015625 -28.671875 L 12.015625 -55.03125 L 0.578125 -55.03125 L 0.578125 -75.59375 L 12.015625 -75.59375 L 12.015625 -96.015625 L 39.53125 -96.015625 L 39.53125 -75.59375 L 57.484375 -75.59375 L 57.484375 -55.03125 L 39.53125 -55.03125 L 39.53125 -28.96875 C 39.53125 -26.164062 40.273438 -23.96875 41.765625 -22.375 C 43.265625 -20.78125 45.269531 -19.984375 47.78125 -19.984375 C 50.96875 -19.984375 53.769531 -20.804688 56.1875 -22.453125 Z M 63 -3.1875 "/></g></g></g><g fill="#8000ff" fill-opacity="1"><g transform="translate(455.404928, 247.612237)"><g><path d="M 42.28125 -79.796875 C 55.3125 -79.796875 65.253906 -76.828125 72.109375 -70.890625 C 78.960938 -64.953125 82.390625 -55.851562 82.390625 -43.59375 L 82.390625 0 L 56.765625 0 L 56.765625 -10.140625 C 52.804688 -2.515625 45.082031 1.296875 33.59375 1.296875 C 27.507812 1.296875 22.25 0.238281 17.8125 -1.875 C 13.375 -4 10.019531 -6.867188 7.75 -10.484375 C 5.476562 -14.109375 4.34375 -18.238281 4.34375 -22.875 C 4.34375 -30.3125 7.191406 -36.082031 12.890625 -40.1875 C 18.585938 -44.289062 27.375 -46.34375 39.25 -46.34375 L 54.890625 -46.34375 C 54.398438 -54.644531 48.847656 -58.796875 38.234375 -58.796875 C 34.460938 -58.796875 30.644531 -58.191406 26.78125 -56.984375 C 22.925781 -55.773438 19.644531 -54.109375 16.9375 -51.984375 L 7.671875 -70.671875 C 12.015625 -73.566406 17.300781 -75.8125 23.53125 -77.40625 C 29.757812 -79 36.007812 -79.796875 42.28125 -79.796875 Z M 41.265625 -16.078125 C 44.453125 -16.078125 47.253906 -16.847656 49.671875 -18.390625 C 52.085938 -19.929688 53.828125 -22.203125 54.890625 -25.203125 L 54.890625 -32 L 43.015625 -32 C 34.992188 -32 30.984375 -29.34375 30.984375 -24.03125 C 30.984375 -21.625 31.898438 -19.695312 33.734375 -18.25 C 35.578125 -16.800781 38.085938 -16.078125 41.265625 -16.078125 Z M 41.265625 -16.078125 "/></g></g></g><g fill="#8000ff" fill-opacity="1"><g transform="translate(546.345686, 247.612237)"><g><path d="M 8.828125 -107.453125 L 36.34375 -107.453125 L 36.34375 0 L 8.828125 0 Z M 8.828125 -107.453125 "/></g></g></g><g fill="#8000ff" fill-opacity="1"><g transform="translate(591.671276, 247.612237)"><g/></g></g><g fill="#8000ff" fill-opacity="1"><g transform="translate(633.81102, 247.612237)"><g><path d="M 78.046875 -52.859375 L 103.390625 -52.859375 L 103.390625 -10.859375 C 97.597656 -6.710938 90.9375 -3.523438 83.40625 -1.296875 C 75.875 0.921875 68.347656 2.03125 60.828125 2.03125 C 50.203125 2.03125 40.640625 -0.210938 32.140625 -4.703125 C 23.648438 -9.191406 16.988281 -15.441406 12.15625 -23.453125 C 7.332031 -31.472656 4.921875 -40.550781 4.921875 -50.6875 C 4.921875 -60.820312 7.332031 -69.894531 12.15625 -77.90625 C 16.988281 -85.914062 23.703125 -92.164062 32.296875 -96.65625 C 40.890625 -101.144531 50.59375 -103.390625 61.40625 -103.390625 C 70.863281 -103.390625 79.359375 -101.796875 86.890625 -98.609375 C 94.421875 -95.429688 100.695312 -90.847656 105.71875 -84.859375 L 87.46875 -68.34375 C 80.613281 -75.875 72.40625 -79.640625 62.84375 -79.640625 C 54.15625 -79.640625 47.15625 -77.007812 41.84375 -71.75 C 36.539062 -66.488281 33.890625 -59.46875 33.890625 -50.6875 C 33.890625 -45.082031 35.09375 -40.082031 37.5 -35.6875 C 39.914062 -31.300781 43.296875 -27.875 47.640625 -25.40625 C 51.984375 -22.945312 56.957031 -21.71875 62.5625 -21.71875 C 68.0625 -21.71875 73.222656 -22.828125 78.046875 -25.046875 Z M 78.046875 -52.859375 "/></g></g></g><g fill="#8000ff" fill-opacity="1"><g transform="translate(745.314834, 247.612237)"><g><path d="M 35.046875 -69.078125 C 37.847656 -72.648438 41.492188 -75.328125 45.984375 -77.109375 C 50.472656 -78.898438 55.613281 -79.796875 61.40625 -79.796875 L 61.40625 -55.03125 C 58.894531 -55.320312 56.816406 -55.46875 55.171875 -55.46875 C 49.285156 -55.46875 44.675781 -53.875 41.34375 -50.6875 C 38.007812 -47.5 36.34375 -42.625 36.34375 -36.0625 L 36.34375 0 L 8.828125 0 L 8.828125 -78.484375 L 35.046875 -78.484375 Z M 35.046875 -69.078125 "/></g></g></g><g fill="#8000ff" fill-opacity="1"><g transform="translate(809.465745, 247.612237)"><g><path d="M 48.21875 1.296875 C 39.820312 1.296875 32.242188 -0.4375 25.484375 -3.90625 C 18.722656 -7.382812 13.4375 -12.210938 9.625 -18.390625 C 5.8125 -24.566406 3.90625 -31.566406 3.90625 -39.390625 C 3.90625 -47.109375 5.8125 -54.054688 9.625 -60.234375 C 13.4375 -66.421875 18.695312 -71.226562 25.40625 -74.65625 C 32.125 -78.082031 39.726562 -79.796875 48.21875 -79.796875 C 56.71875 -79.796875 64.34375 -78.082031 71.09375 -74.65625 C 77.851562 -71.226562 83.113281 -66.445312 86.875 -60.3125 C 90.644531 -54.1875 92.53125 -47.210938 92.53125 -39.390625 C 92.53125 -31.566406 90.644531 -24.566406 86.875 -18.390625 C 83.113281 -12.210938 77.851562 -7.382812 71.09375 -3.90625 C 64.34375 -0.4375 56.71875 1.296875 48.21875 1.296875 Z M 48.21875 -20.5625 C 53.050781 -20.5625 57.007812 -22.226562 60.09375 -25.5625 C 63.1875 -28.894531 64.734375 -33.503906 64.734375 -39.390625 C 64.734375 -45.179688 63.1875 -49.71875 60.09375 -53 C 57.007812 -56.28125 53.050781 -57.921875 48.21875 -57.921875 C 43.394531 -57.921875 39.4375 -56.28125 36.34375 -53 C 33.257812 -49.71875 31.71875 -45.179688 31.71875 -39.390625 C 31.71875 -33.503906 33.257812 -28.894531 36.34375 -25.5625 C 39.4375 -22.226562 43.394531 -20.5625 48.21875 -20.5625 Z M 48.21875 -20.5625 "/></g></g></g><g fill="#8000ff" fill-opacity="1"><g transform="translate(905.90933, 247.612237)"><g><path d="M 138.875 -78.484375 L 110.921875 0 L 84.28125 0 L 69.515625 -42.71875 L 54.15625 0 L 27.515625 0 L -0.4375 -78.484375 L 25.625 -78.484375 L 41.703125 -30.984375 L 58.359375 -78.484375 L 81.8125 -78.484375 L 98.03125 -30.5625 L 114.6875 -78.484375 Z M 138.875 -78.484375 "/></g></g></g><g fill="#8000ff" fill-opacity="1"><g transform="translate(1044.347757, 247.612237)"><g><path d="M 63 -3.1875 C 60.675781 -1.738281 57.847656 -0.628906 54.515625 0.140625 C 51.191406 0.910156 47.644531 1.296875 43.875 1.296875 C 33.644531 1.296875 25.773438 -1.207031 20.265625 -6.21875 C 14.765625 -11.238281 12.015625 -18.722656 12.015625 -28.671875 L 12.015625 -55.03125 L 0.578125 -55.03125 L 0.578125 -75.59375 L 12.015625 -75.59375 L 12.015625 -96.015625 L 39.53125 -96.015625 L 39.53125 -75.59375 L 57.484375 -75.59375 L 57.484375 -55.03125 L 39.53125 -55.03125 L 39.53125 -28.96875 C 39.53125 -26.164062 40.273438 -23.96875 41.765625 -22.375 C 43.265625 -20.78125 45.269531 -19.984375 47.78125 -19.984375 C 50.96875 -19.984375 53.769531 -20.804688 56.1875 -22.453125 Z M 63 -3.1875 "/></g></g></g><g fill="#8000ff" fill-opacity="1"><g transform="translate(1109.077959, 247.612237)"><g><path d="M 59.953125 -79.796875 C 69.703125 -79.796875 77.546875 -76.898438 83.484375 -71.109375 C 89.421875 -65.316406 92.390625 -56.578125 92.390625 -44.890625 L 92.390625 0 L 64.875 0 L 64.875 -40.40625 C 64.875 -51.125 60.578125 -56.484375 51.984375 -56.484375 C 47.253906 -56.484375 43.460938 -54.9375 40.609375 -51.84375 C 37.765625 -48.75 36.34375 -44.113281 36.34375 -37.9375 L 36.34375 0 L 8.828125 0 L 8.828125 -107.453125 L 36.34375 -107.453125 L 36.34375 -71.25 C 39.34375 -74.050781 42.867188 -76.175781 46.921875 -77.625 C 50.972656 -79.070312 55.316406 -79.796875 59.953125 -79.796875 Z M 59.953125 -79.796875 "/></g></g></g><g fill="#8000ff" fill-opacity="1"><g transform="translate(1209.877354, 247.612237)"><g/></g></g><g fill="#8000ff" fill-opacity="1"><g transform="translate(445.780819, 392.274412)"><g><path d="M 44.34375 -68.515625 C 52.039062 -68.515625 58.039062 -66.816406 62.34375 -63.421875 C 66.65625 -60.035156 68.8125 -55.273438 68.8125 -49.140625 C 68.8125 -40.398438 65.988281 -33.628906 60.34375 -28.828125 C 54.695312 -24.035156 46.914062 -21.640625 37 -21.640625 L 17.625 -21.640625 L 13.21875 0 L 6.0625 0 L 19.78125 -68.515625 Z M 37.09375 -28 C 44.925781 -28 50.960938 -29.726562 55.203125 -33.1875 C 59.453125 -36.644531 61.578125 -41.734375 61.578125 -48.453125 C 61.578125 -52.953125 60.039062 -56.378906 56.96875 -58.734375 C 53.90625 -61.085938 49.5 -62.265625 43.75 -62.265625 L 25.75 -62.265625 L 18.796875 -28 Z M 37.09375 -28 "/></g></g></g><g fill="#8000ff" fill-opacity="1"><g transform="translate(516.060327, 392.274412)"><g><path d="M 61.859375 -51.484375 L 51.59375 0 L 44.9375 0 L 46.59375 -8.125 C 44.113281 -5.382812 41.175781 -3.265625 37.78125 -1.765625 C 34.394531 -0.265625 30.644531 0.484375 26.53125 0.484375 C 22.15625 0.484375 18.269531 -0.394531 14.875 -2.15625 C 11.476562 -3.914062 8.832031 -6.441406 6.9375 -9.734375 C 5.050781 -13.035156 4.109375 -16.90625 4.109375 -21.34375 C 4.109375 -27.144531 5.363281 -32.363281 7.875 -37 C 10.394531 -41.632812 13.875 -45.269531 18.3125 -47.90625 C 22.75 -50.550781 27.707031 -51.875 33.1875 -51.875 C 38.082031 -51.875 42.191406 -50.910156 45.515625 -48.984375 C 48.847656 -47.066406 51.265625 -44.3125 52.765625 -40.71875 L 54.921875 -51.484375 Z M 28 -5.671875 C 32.238281 -5.671875 36.054688 -6.695312 39.453125 -8.75 C 42.847656 -10.8125 45.503906 -13.6875 47.421875 -17.375 C 49.347656 -21.0625 50.3125 -25.191406 50.3125 -29.765625 C 50.3125 -34.785156 48.828125 -38.710938 45.859375 -41.546875 C 42.890625 -44.390625 38.726562 -45.8125 33.375 -45.8125 C 29.132812 -45.8125 25.316406 -44.765625 21.921875 -42.671875 C 18.535156 -40.585938 15.878906 -37.703125 13.953125 -34.015625 C 12.023438 -30.328125 11.0625 -26.203125 11.0625 -21.640625 C 11.0625 -16.609375 12.546875 -12.6875 15.515625 -9.875 C 18.484375 -7.070312 22.644531 -5.671875 28 -5.671875 Z M 28 -5.671875 "/></g></g></g><g fill="#8000ff" fill-opacity="1"><g transform="translate(582.424536, 392.274412)"><g><path d="M 19.671875 -42.09375 C 21.960938 -45.414062 24.835938 -47.875 28.296875 -49.46875 C 31.753906 -51.070312 35.929688 -51.875 40.828125 -51.875 L 39.546875 -45.125 L 37.59375 -45.21875 C 32.039062 -45.21875 27.484375 -43.617188 23.921875 -40.421875 C 20.367188 -37.222656 17.972656 -32.460938 16.734375 -26.140625 L 11.546875 0 L 4.59375 0 L 14.78125 -51.484375 L 21.4375 -51.484375 Z M 19.671875 -42.09375 "/></g></g></g><g fill="#8000ff" fill-opacity="1"><g transform="translate(621.675349, 392.274412)"><g><path d="M 15.765625 -15.5625 C 15.503906 -14 15.375 -12.921875 15.375 -12.328125 C 15.375 -7.765625 17.851562 -5.484375 22.8125 -5.484375 C 25.75 -5.484375 28.390625 -6.363281 30.734375 -8.125 L 32.40625 -2.84375 C 29.46875 -0.625 25.648438 0.484375 20.953125 0.484375 C 17.097656 0.484375 14.046875 -0.554688 11.796875 -2.640625 C 9.546875 -4.734375 8.421875 -7.601562 8.421875 -11.25 C 8.421875 -12.6875 8.550781 -14.023438 8.8125 -15.265625 L 14.78125 -45.609375 L 5.671875 -45.609375 L 6.75 -51.484375 L 15.953125 -51.484375 L 18.203125 -62.75 L 25.15625 -62.75 L 22.90625 -51.484375 L 38.5625 -51.484375 L 37.390625 -45.609375 L 21.734375 -45.609375 Z M 15.765625 -15.5625 "/></g></g></g><g fill="#8000ff" fill-opacity="1"><g transform="translate(661.415557, 392.274412)"><g><path d="M 39.9375 -51.875 C 45.75 -51.875 50.269531 -50.390625 53.5 -47.421875 C 56.726562 -44.453125 58.34375 -40.359375 58.34375 -35.140625 C 58.34375 -33.316406 58.144531 -31.359375 57.75 -29.265625 L 51.875 0 L 44.9375 0 L 50.8125 -29.359375 C 51.132812 -31.191406 51.296875 -32.757812 51.296875 -34.0625 C 51.296875 -37.78125 50.171875 -40.632812 47.921875 -42.625 C 45.671875 -44.613281 42.359375 -45.609375 37.984375 -45.609375 C 32.429688 -45.609375 27.859375 -44.09375 24.265625 -41.0625 C 20.679688 -38.03125 18.269531 -33.546875 17.03125 -27.609375 L 11.546875 0 L 4.59375 0 L 14.78125 -51.484375 L 21.4375 -51.484375 L 19.78125 -43.265625 C 24.664062 -49.003906 31.382812 -51.875 39.9375 -51.875 Z M 39.9375 -51.875 "/></g></g></g><g fill="#8000ff" fill-opacity="1"><g transform="translate(727.681892, 392.274412)"><g><path d="M 11.0625 -23.78125 C 11 -23.332031 10.96875 -22.648438 10.96875 -21.734375 C 10.96875 -16.515625 12.453125 -12.53125 15.421875 -9.78125 C 18.390625 -7.039062 22.8125 -5.671875 28.6875 -5.671875 C 32.070312 -5.671875 35.25 -6.242188 38.21875 -7.390625 C 41.195312 -8.535156 43.628906 -10.117188 45.515625 -12.140625 L 48.65625 -7.140625 C 46.238281 -4.734375 43.21875 -2.859375 39.59375 -1.515625 C 35.96875 -0.179688 32.132812 0.484375 28.09375 0.484375 C 20.65625 0.484375 14.796875 -1.46875 10.515625 -5.375 C 6.242188 -9.289062 4.109375 -14.644531 4.109375 -21.4375 C 4.109375 -27.175781 5.332031 -32.363281 7.78125 -37 C 10.226562 -41.632812 13.617188 -45.269531 17.953125 -47.90625 C 22.296875 -50.550781 27.175781 -51.875 32.59375 -51.875 C 39.445312 -51.875 44.894531 -49.929688 48.9375 -46.046875 C 52.988281 -42.171875 55.015625 -36.835938 55.015625 -30.046875 C 55.015625 -28.160156 54.785156 -26.070312 54.328125 -23.78125 Z M 32.40625 -46.015625 C 27.25 -46.015625 22.84375 -44.476562 19.1875 -41.40625 C 15.53125 -38.34375 13.050781 -34.195312 11.75 -28.96875 L 48.453125 -28.96875 C 48.515625 -29.425781 48.546875 -30.046875 48.546875 -30.828125 C 48.546875 -35.660156 47.078125 -39.398438 44.140625 -42.046875 C 41.210938 -44.691406 37.300781 -46.015625 32.40625 -46.015625 Z M 32.40625 -46.015625 "/></g></g></g><g fill="#8000ff" fill-opacity="1"><g transform="translate(786.80282, 392.274412)"><g><path d="M 19.671875 -42.09375 C 21.960938 -45.414062 24.835938 -47.875 28.296875 -49.46875 C 31.753906 -51.070312 35.929688 -51.875 40.828125 -51.875 L 39.546875 -45.125 L 37.59375 -45.21875 C 32.039062 -45.21875 27.484375 -43.617188 23.921875 -40.421875 C 20.367188 -37.222656 17.972656 -32.460938 16.734375 -26.140625 L 11.546875 0 L 4.59375 0 L 14.78125 -51.484375 L 21.4375 -51.484375 Z M 19.671875 -42.09375 "/></g></g></g><g fill="#8000ff" fill-opacity="1"><g transform="translate(826.05361, 392.274412)"><g><path d="M 19.578125 0.484375 C 15.460938 0.484375 11.53125 -0.0976562 7.78125 -1.265625 C 4.03125 -2.441406 1.144531 -3.945312 -0.875 -5.78125 L 2.453125 -11.25 C 4.410156 -9.5625 6.988281 -8.191406 10.1875 -7.140625 C 13.382812 -6.097656 16.742188 -5.578125 20.265625 -5.578125 C 25.160156 -5.578125 28.925781 -6.375 31.5625 -7.96875 C 34.207031 -9.570312 35.53125 -11.84375 35.53125 -14.78125 C 35.53125 -16.414062 34.988281 -17.722656 33.90625 -18.703125 C 32.832031 -19.679688 31.515625 -20.429688 29.953125 -20.953125 C 28.390625 -21.472656 26.109375 -22.054688 23.109375 -22.703125 C 19.515625 -23.492188 16.609375 -24.28125 14.390625 -25.0625 C 12.171875 -25.84375 10.273438 -27.082031 8.703125 -28.78125 C 7.140625 -30.476562 6.359375 -32.828125 6.359375 -35.828125 C 6.359375 -40.722656 8.378906 -44.617188 12.421875 -47.515625 C 16.472656 -50.421875 21.894531 -51.875 28.6875 -51.875 C 32.007812 -51.875 35.253906 -51.429688 38.421875 -50.546875 C 41.585938 -49.671875 44.148438 -48.515625 46.109375 -47.078125 L 43.171875 -41.5 C 41.210938 -42.9375 38.910156 -44.03125 36.265625 -44.78125 C 33.617188 -45.53125 30.894531 -45.90625 28.09375 -45.90625 C 23.394531 -45.90625 19.738281 -45.054688 17.125 -43.359375 C 14.519531 -41.671875 13.21875 -39.390625 13.21875 -36.515625 C 13.21875 -34.816406 13.769531 -33.441406 14.875 -32.390625 C 15.988281 -31.347656 17.375 -30.566406 19.03125 -30.046875 C 20.695312 -29.523438 22.96875 -28.972656 25.84375 -28.390625 C 29.363281 -27.609375 32.21875 -26.84375 34.40625 -26.09375 C 36.59375 -25.34375 38.46875 -24.117188 40.03125 -22.421875 C 41.601562 -20.722656 42.390625 -18.4375 42.390625 -15.5625 C 42.390625 -10.539062 40.316406 -6.609375 36.171875 -3.765625 C 32.023438 -0.929688 26.492188 0.484375 19.578125 0.484375 Z M 19.578125 0.484375 "/></g></g></g></svg>