<svg xmlns="http://www.w3.org/2000/svg" xmlns:xlink="http://www.w3.org/1999/xlink" width="438" zoomAndPan="magnify" viewBox="0 0 328.5 328.499999" height="438" preserveAspectRatio="xMidYMid meet" version="1.0"><defs><clipPath id="c47459010b"><path d="M 150 296 L 178 296 L 178 307.804688 L 150 307.804688 Z M 150 296 " clip-rule="nonzero"/></clipPath><clipPath id="0818c2f8a4"><path d="M 152 20.242188 L 169 20.242188 L 169 37 L 152 37 Z M 152 20.242188 " clip-rule="nonzero"/></clipPath><clipPath id="04d22421e5"><path d="M 71.910156 47 L 150 47 L 150 251 L 71.910156 251 Z M 71.910156 47 " clip-rule="nonzero"/></clipPath><clipPath id="a5a293e6e5"><path d="M 0 0 L 327.847656 0 L 327.847656 327.847656 L 0 327.847656 Z M 0 0 " clip-rule="nonzero"/></clipPath><clipPath id="35b7b9ec29"><path d="M 163.925781 0 C 73.390625 0 0 73.390625 0 163.925781 C 0 254.457031 73.390625 327.847656 163.925781 327.847656 C 254.457031 327.847656 327.847656 254.457031 327.847656 163.925781 C 327.847656 73.390625 254.457031 0 163.925781 0 Z M 163.925781 0 " clip-rule="nonzero"/></clipPath></defs><path fill="#e2e8f0" d="M 135.203125 257.949219 L 192.976562 257.949219 L 192.976562 268.785156 L 135.203125 268.785156 Z M 135.203125 257.949219 " fill-opacity="1" fill-rule="nonzero"/><path fill="#4f46e5" d="M 142.148438 277.351562 L 186.035156 277.351562 L 186.035156 288.1875 L 142.148438 288.1875 Z M 142.148438 277.351562 " fill-opacity="1" fill-rule="nonzero"/><g clip-path="url(#c47459010b)"><path fill="#e2e8f0" d="M 150.535156 296.753906 L 177.640625 296.753906 L 177.640625 307.589844 L 150.535156 307.589844 Z M 150.535156 296.753906 " fill-opacity="1" fill-rule="nonzero"/></g><g clip-path="url(#0818c2f8a4)"><path fill="#4f46e5" d="M 163.179688 36.03125 C 166.246094 34.855469 168.433594 31.90625 168.433594 28.429688 C 168.441406 23.9375 164.78125 20.28125 160.285156 20.28125 C 155.789062 20.28125 152.132812 23.9375 152.132812 28.433594 C 152.132812 31.90625 154.320312 34.863281 157.394531 36.035156 C 158.296875 36.382812 159.269531 36.589844 160.285156 36.589844 C 161.3125 36.589844 162.277344 36.378906 163.179688 36.03125 Z M 163.179688 36.03125 " fill-opacity="1" fill-rule="nonzero"/></g><path fill="#4f46e5" d="M 204.539062 43.941406 C 207.605469 42.765625 209.800781 39.816406 209.800781 36.339844 C 209.800781 31.84375 206.144531 28.183594 201.648438 28.183594 C 197.152344 28.183594 193.492188 31.84375 193.492188 36.339844 C 193.492188 39.8125 195.683594 42.761719 198.75 43.933594 C 199.652344 44.28125 200.625 44.488281 201.640625 44.488281 C 202.671875 44.492188 203.636719 44.289062 204.539062 43.941406 Z M 204.539062 43.941406 " fill-opacity="1" fill-rule="nonzero"/><path fill="#4f46e5" d="M 137.167969 41.53125 C 140.234375 40.359375 142.429688 37.410156 142.429688 33.929688 C 142.429688 29.433594 138.773438 25.773438 134.277344 25.773438 C 129.78125 25.773438 126.121094 29.433594 126.121094 33.929688 C 126.121094 37.402344 128.3125 40.359375 131.378906 41.53125 C 132.28125 41.878906 133.253906 42.085938 134.269531 42.085938 C 135.300781 42.085938 136.265625 41.878906 137.167969 41.53125 Z M 137.167969 41.53125 " fill-opacity="1" fill-rule="nonzero"/><path fill="#4f46e5" d="M 153.8125 129.496094 C 157.035156 128.40625 159.371094 125.386719 159.371094 121.804688 C 159.371094 117.308594 155.714844 113.648438 151.21875 113.648438 C 146.722656 113.648438 143.0625 117.308594 143.0625 121.804688 C 143.0625 125.167969 145.109375 128.058594 148.023438 129.300781 C 149 129.71875 150.082031 129.960938 151.21875 129.960938 C 152.132812 129.960938 152.996094 129.773438 153.8125 129.496094 Z M 153.8125 129.496094 " fill-opacity="1" fill-rule="nonzero"/><path fill="#4f46e5" d="M 222.96875 60.417969 C 223.871094 60.765625 224.84375 60.972656 225.867188 60.972656 C 230.363281 60.972656 234.023438 57.3125 234.023438 52.816406 C 234.023438 48.320312 230.363281 44.660156 225.867188 44.660156 C 221.371094 44.660156 217.710938 48.320312 217.710938 52.816406 C 217.710938 54.164062 218.074219 55.417969 218.652344 56.539062 C 219.566406 58.3125 221.09375 59.703125 222.96875 60.417969 Z M 222.96875 60.417969 " fill-opacity="1" fill-rule="nonzero"/><path fill="#4f46e5" d="M 183.707031 94.3125 C 188.855469 92.320312 192.511719 87.363281 192.511719 81.511719 C 192.511719 73.917969 186.355469 67.761719 178.761719 67.761719 C 171.167969 67.761719 165.007812 73.917969 165.007812 81.511719 C 165.007812 87.453125 168.789062 92.464844 174.066406 94.390625 C 175.539062 94.929688 177.105469 95.265625 178.765625 95.265625 C 180.511719 95.265625 182.167969 94.90625 183.707031 94.3125 Z M 178.761719 76.566406 C 181.492188 76.566406 183.707031 78.78125 183.707031 81.511719 C 183.707031 84.242188 181.492188 86.460938 178.761719 86.460938 C 176.03125 86.460938 173.8125 84.242188 173.8125 81.511719 C 173.8125 78.78125 176.03125 76.566406 178.761719 76.566406 Z M 178.761719 76.566406 " fill-opacity="1" fill-rule="nonzero"/><path fill="#4f46e5" d="M 151.648438 175.363281 C 152.710938 173.414062 153.367188 171.210938 153.367188 168.832031 C 153.367188 161.238281 147.210938 155.082031 139.617188 155.082031 C 132.023438 155.082031 125.863281 161.238281 125.863281 168.832031 C 125.863281 176.425781 132.023438 182.585938 139.617188 182.585938 C 141.285156 182.585938 142.867188 182.246094 144.34375 181.695312 C 147.492188 180.542969 150.0625 178.28125 151.648438 175.363281 Z M 134.667969 168.839844 C 134.667969 166.109375 136.886719 163.894531 139.617188 163.894531 C 142.347656 163.894531 144.5625 166.109375 144.5625 168.839844 C 144.5625 171.570312 142.347656 173.785156 139.617188 173.785156 C 136.886719 173.785156 134.667969 171.570312 134.667969 168.839844 Z M 134.667969 168.839844 " fill-opacity="1" fill-rule="nonzero"/><path fill="#4f46e5" d="M 218.652344 56.546875 L 204.539062 70.660156 L 204.539062 43.941406 C 203.636719 44.289062 202.664062 44.492188 201.648438 44.492188 C 200.625 44.492188 199.65625 44.28125 198.753906 43.941406 L 198.753906 92.007812 L 183.722656 107.039062 L 183.722656 94.300781 C 182.175781 94.898438 180.511719 95.273438 178.761719 95.273438 C 177.097656 95.273438 175.554688 94.929688 174.058594 94.382812 L 174.058594 120.765625 L 163.183594 109.894531 L 163.183594 36.03125 C 162.285156 36.378906 161.3125 36.582031 160.292969 36.582031 C 159.269531 36.582031 158.304688 36.371094 157.402344 36.03125 L 157.402344 68.933594 L 137.179688 48.714844 L 137.179688 41.53125 C 136.28125 41.878906 135.308594 42.085938 134.289062 42.085938 C 133.265625 42.085938 132.296875 41.871094 131.398438 41.53125 L 131.398438 51.109375 L 157.40625 77.121094 L 157.40625 112.289062 L 172.195312 127.078125 L 161.09375 138.183594 L 153.832031 130.925781 L 153.832031 129.488281 C 153.015625 129.765625 152.152344 129.953125 151.238281 129.953125 C 150.101562 129.953125 149.019531 129.71875 148.042969 129.296875 L 148.042969 133.320312 L 159.648438 144.929688 L 159.648438 183.351562 L 151.667969 175.359375 C 150.082031 178.269531 147.511719 180.539062 144.363281 181.695312 L 159.648438 196.996094 L 159.648438 250.371094 L 169.3125 250.371094 L 169.3125 143.632812 L 183.734375 129.1875 L 183.734375 115.226562 L 204.558594 94.402344 L 204.558594 78.847656 L 222.980469 60.421875 C 221.09375 59.703125 219.566406 58.3125 218.652344 56.546875 Z M 218.652344 56.546875 " fill-opacity="1" fill-rule="nonzero"/><path fill="#e2e8f0" d="M 247.792969 77.53125 C 243.296875 77.53125 239.640625 81.191406 239.640625 85.6875 C 239.640625 89.160156 241.828125 92.117188 244.894531 93.289062 L 244.894531 126.28125 L 227.773438 143.402344 L 227.773438 110.28125 C 233.070312 108.367188 236.871094 103.34375 236.871094 97.390625 C 236.871094 89.796875 230.710938 83.636719 223.117188 83.636719 C 215.523438 83.636719 209.363281 89.796875 209.363281 97.390625 C 209.363281 103.21875 213.003906 108.175781 218.117188 110.175781 C 218.769531 110.433594 219.445312 110.640625 220.140625 110.800781 C 219.445312 110.648438 218.769531 110.441406 218.117188 110.191406 L 218.117188 164.261719 L 204.757812 150.898438 L 204.757812 130.6875 C 207.46875 129.367188 209.363281 126.617188 209.363281 123.394531 C 209.363281 118.898438 205.707031 115.242188 201.210938 115.242188 C 196.714844 115.242188 193.054688 118.898438 193.054688 123.394531 C 193.054688 126.867188 195.246094 129.824219 198.316406 130.996094 C 198.523438 131.074219 198.75 131.117188 198.96875 131.183594 L 198.96875 153.277344 L 217.894531 172.203125 L 204.191406 184.183594 L 185.839844 165.855469 L 185.839844 158.449219 C 185.917969 158.425781 186.007812 158.410156 186.085938 158.378906 C 189.152344 157.207031 191.339844 154.257812 191.339844 150.777344 C 191.339844 146.28125 187.683594 142.621094 183.1875 142.621094 C 178.691406 142.621094 175.03125 146.28125 175.03125 150.777344 C 175.03125 154.152344 177.113281 157.027344 180.042969 158.257812 L 180.042969 168.234375 L 199.796875 187.988281 L 182.425781 203.183594 L 182.425781 250.375 L 192.089844 250.375 L 192.089844 207.570312 L 206.652344 194.84375 L 211.039062 191.03125 L 224.714844 179.050781 L 227.78125 176.382812 L 227.78125 151.589844 L 250.6875 128.683594 L 250.6875 93.292969 C 253.753906 92.121094 255.941406 89.171875 255.941406 85.691406 C 255.949219 81.191406 252.289062 77.53125 247.792969 77.53125 Z M 218.175781 97.382812 C 218.175781 94.652344 220.390625 92.4375 223.125 92.4375 C 225.855469 92.4375 228.070312 94.652344 228.070312 97.382812 C 228.070312 100.117188 225.855469 102.332031 223.125 102.332031 C 220.390625 102.332031 218.175781 100.121094 218.175781 97.382812 Z M 218.175781 97.382812 " fill-opacity="1" fill-rule="nonzero"/><g clip-path="url(#04d22421e5)"><path fill="#e2e8f0" d="M 130.734375 151.441406 L 140.394531 141.753906 L 140.394531 113.128906 C 145.695312 111.222656 149.511719 106.191406 149.511719 100.230469 C 149.511719 92.636719 143.351562 86.480469 135.757812 86.480469 C 128.164062 86.480469 122.003906 92.636719 122.003906 100.230469 C 122.003906 106.046875 125.632812 111 130.738281 113.003906 L 130.738281 120.625 L 102.785156 92.667969 L 124.808594 70.644531 C 124.949219 70.710938 125.097656 70.78125 125.246094 70.832031 C 126.140625 71.175781 127.101562 71.378906 128.113281 71.378906 C 132.609375 71.378906 136.265625 67.722656 136.265625 63.226562 C 136.261719 58.722656 132.609375 55.0625 128.113281 55.0625 C 123.617188 55.0625 119.957031 58.722656 119.957031 63.21875 C 119.957031 64.410156 120.242188 65.53125 120.710938 66.550781 L 101.585938 85.675781 L 101.585938 63.117188 C 104.652344 61.945312 106.84375 58.992188 106.84375 55.515625 C 106.84375 51.019531 103.183594 47.359375 98.6875 47.359375 C 94.191406 47.359375 90.53125 51.019531 90.53125 55.515625 C 90.53125 58.988281 92.722656 61.9375 95.789062 63.117188 L 95.789062 93.859375 L 130.734375 128.804688 L 130.734375 137.792969 L 115.570312 153.011719 L 107.652344 160.898438 L 107.648438 160.902344 L 107.648438 137.4375 C 112.699219 135.402344 116.265625 130.472656 116.265625 124.695312 C 116.265625 117.101562 110.109375 110.945312 102.511719 110.945312 C 94.917969 110.945312 88.761719 117.101562 88.761719 124.695312 C 88.761719 130.707031 92.636719 135.757812 98.003906 137.628906 L 98.003906 144.75 L 83.5 130.242188 L 83.5 92.792969 C 86.28125 91.492188 88.21875 88.6875 88.21875 85.421875 C 88.21875 80.925781 84.5625 77.269531 80.066406 77.269531 C 75.570312 77.269531 71.910156 80.925781 71.910156 85.421875 C 71.910156 89.09375 74.363281 92.171875 77.707031 93.191406 L 77.707031 132.644531 L 98.003906 152.941406 L 98.003906 169.882812 L 134.964844 206.84375 L 134.964844 250.386719 L 144.613281 250.386719 L 144.613281 202.84375 L 111.988281 170.21875 L 122.367188 159.816406 Z M 135.757812 95.277344 C 138.488281 95.277344 140.703125 97.492188 140.703125 100.226562 C 140.703125 102.957031 138.488281 105.171875 135.757812 105.171875 C 133.027344 105.171875 130.8125 102.957031 130.8125 100.226562 C 130.8125 97.492188 133.027344 95.277344 135.757812 95.277344 Z M 102.371094 128.949219 C 99.640625 128.949219 97.425781 126.730469 97.425781 124 C 97.425781 121.269531 99.640625 119.054688 102.371094 119.054688 C 105.101562 119.054688 107.320312 121.269531 107.320312 124 C 107.320312 126.730469 105.101562 128.949219 102.371094 128.949219 Z M 102.371094 128.949219 " fill-opacity="1" fill-rule="nonzero"/></g><g clip-path="url(#a5a293e6e5)"><g clip-path="url(#35b7b9ec29)"><path stroke-linecap="butt" transform="matrix(0.74886, 0, 0, 0.74886, 0.0000005, 0.0000099848)" fill="none" stroke-linejoin="miter" d="M 218.900393 -0.0000133333 C 98.003111 -0.0000133333 -0.000000667681 98.003099 -0.000000667681 218.90038 C -0.000000667681 339.792445 98.003111 437.795557 218.900393 437.795557 C 339.792458 437.795557 437.79557 339.792445 437.79557 218.90038 C 437.79557 98.003099 339.792458 -0.0000133333 218.900393 -0.0000133333 Z M 218.900393 -0.0000133333 " stroke="#e2e8f0" stroke-width="12" stroke-opacity="1" stroke-miterlimit="4"/></g></g></svg>