<svg xmlns="http://www.w3.org/2000/svg" xmlns:xlink="http://www.w3.org/1999/xlink" width="1653" zoomAndPan="magnify" viewBox="0 0 1239.75 358.49999" height="478" preserveAspectRatio="xMidYMid meet" version="1.0"><defs><g/><clipPath id="541d40ed61"><path d="M 654 76.878906 L 930.363281 76.878906 L 930.363281 208.675781 L 654 208.675781 Z M 654 76.878906 " clip-rule="nonzero"/></clipPath></defs><g clip-path="url(#541d40ed61)"><path fill="#c026d3" d="M 870.222656 90.773438 L 882.253906 104.601562 L 858.21875 127.113281 L 834.542969 149.289062 L 816.90625 121.507812 L 816.617188 121.054688 L 811.523438 113.039062 L 805.148438 118.839844 L 805.03125 118.945312 L 764.792969 155.566406 L 752.257812 166.972656 L 745.003906 155.566406 L 734.113281 138.425781 L 731.660156 134.574219 L 728.605469 137.503906 L 710.769531 154.597656 L 654.050781 208.945312 L 718.65625 155.566406 L 729.898438 146.277344 L 734.910156 155.566406 L 746.902344 177.78125 L 749.652344 182.882812 L 754.417969 179.144531 L 784.519531 155.566406 L 805.148438 139.40625 L 807.5 137.558594 L 816.90625 155.007812 L 816.90625 155.566406 L 817.203125 155.566406 L 824.695312 169.449219 L 829.859375 179.046875 L 838.722656 171.890625 L 898.695312 123.484375 L 911.582031 138.292969 L 930.042969 76.878906 L 870.222656 90.773438 " fill-opacity="1" fill-rule="nonzero"/></g><g fill="#8000ff" fill-opacity="1"><g transform="translate(77.619001, 213.691026)"><g><path d="M 48.5 -102.078125 C 59.21875 -102.078125 68.601562 -99.925781 76.65625 -95.625 C 84.71875 -91.332031 90.921875 -85.320312 95.265625 -77.59375 C 99.609375 -69.875 101.78125 -61.046875 101.78125 -51.109375 C 101.78125 -41.265625 99.582031 -32.476562 95.1875 -24.75 C 90.800781 -17.03125 84.578125 -10.972656 76.515625 -6.578125 C 68.453125 -2.191406 59.113281 0 48.5 0 L 8.109375 0 L 8.109375 -102.078125 Z M 46.328125 -25.046875 C 54.628906 -25.046875 61.144531 -27.3125 65.875 -31.84375 C 70.601562 -36.382812 72.96875 -42.804688 72.96875 -51.109375 C 72.96875 -59.503906 70.601562 -65.992188 65.875 -70.578125 C 61.144531 -75.160156 54.628906 -77.453125 46.328125 -77.453125 L 36.484375 -77.453125 L 36.484375 -25.046875 Z M 46.328125 -25.046875 "/></g></g></g><g fill="#8000ff" fill-opacity="1"><g transform="translate(184.025509, 213.691026)"><g><path d="M 22.4375 -88.75 C 17.414062 -88.75 13.382812 -90.125 10.34375 -92.875 C 7.3125 -95.625 5.796875 -99.078125 5.796875 -103.234375 C 5.796875 -107.472656 7.3125 -110.992188 10.34375 -113.796875 C 13.382812 -116.597656 17.414062 -118 22.4375 -118 C 27.363281 -118 31.347656 -116.597656 34.390625 -113.796875 C 37.429688 -110.992188 38.953125 -107.472656 38.953125 -103.234375 C 38.953125 -99.078125 37.429688 -95.625 34.390625 -92.875 C 31.347656 -90.125 27.363281 -88.75 22.4375 -88.75 Z M 36.484375 -81.21875 L 36.484375 0 L 8.109375 0 L 8.109375 -81.21875 Z M 36.484375 -81.21875 "/></g></g></g><g fill="#8000ff" fill-opacity="1"><g transform="translate(228.614901, 213.691026)"><g><path d="M 38.078125 -82.234375 C 43.578125 -82.234375 48.378906 -81.125 52.484375 -78.90625 C 56.585938 -76.6875 59.75 -73.691406 61.96875 -69.921875 L 61.96875 -81.21875 L 90.34375 -81.21875 L 90.34375 -0.875 C 90.34375 6.75 88.894531 13.625 86 19.75 C 83.101562 25.882812 78.585938 30.785156 72.453125 34.453125 C 66.328125 38.117188 58.582031 39.953125 49.21875 39.953125 C 36.675781 39.953125 26.640625 37.007812 19.109375 31.125 C 11.578125 25.238281 7.28125 17.226562 6.21875 7.09375 L 34.171875 7.09375 C 34.742188 9.695312 36.1875 11.722656 38.5 13.171875 C 40.820312 14.617188 43.816406 15.34375 47.484375 15.34375 C 57.140625 15.34375 61.96875 9.9375 61.96875 -0.875 L 61.96875 -11.296875 C 59.75 -7.523438 56.585938 -4.53125 52.484375 -2.3125 C 48.378906 -0.09375 43.578125 1.015625 38.078125 1.015625 C 31.609375 1.015625 25.742188 -0.671875 20.484375 -4.046875 C 15.222656 -7.429688 11.070312 -12.285156 8.03125 -18.609375 C 4.988281 -24.929688 3.46875 -32.289062 3.46875 -40.6875 C 3.46875 -49.082031 4.988281 -56.414062 8.03125 -62.6875 C 11.070312 -68.957031 15.222656 -73.78125 20.484375 -77.15625 C 25.742188 -80.539062 31.609375 -82.234375 38.078125 -82.234375 Z M 61.96875 -40.6875 C 61.96875 -45.894531 60.539062 -49.992188 57.6875 -52.984375 C 54.84375 -55.984375 51.347656 -57.484375 47.203125 -57.484375 C 42.953125 -57.484375 39.425781 -56.007812 36.625 -53.0625 C 33.832031 -50.113281 32.4375 -45.988281 32.4375 -40.6875 C 32.4375 -35.46875 33.832031 -31.335938 36.625 -28.296875 C 39.425781 -25.265625 42.953125 -23.75 47.203125 -23.75 C 51.347656 -23.75 54.84375 -25.242188 57.6875 -28.234375 C 60.539062 -31.222656 61.96875 -35.375 61.96875 -40.6875 Z M 61.96875 -40.6875 "/></g></g></g><g fill="#8000ff" fill-opacity="1"><g transform="translate(327.059015, 213.691026)"><g><path d="M 22.4375 -88.75 C 17.414062 -88.75 13.382812 -90.125 10.34375 -92.875 C 7.3125 -95.625 5.796875 -99.078125 5.796875 -103.234375 C 5.796875 -107.472656 7.3125 -110.992188 10.34375 -113.796875 C 13.382812 -116.597656 17.414062 -118 22.4375 -118 C 27.363281 -118 31.347656 -116.597656 34.390625 -113.796875 C 37.429688 -110.992188 38.953125 -107.472656 38.953125 -103.234375 C 38.953125 -99.078125 37.429688 -95.625 34.390625 -92.875 C 31.347656 -90.125 27.363281 -88.75 22.4375 -88.75 Z M 36.484375 -81.21875 L 36.484375 0 L 8.109375 0 L 8.109375 -81.21875 Z M 36.484375 -81.21875 "/></g></g></g><g fill="#8000ff" fill-opacity="1"><g transform="translate(371.648397, 213.691026)"><g><path d="M 56.03125 -24.171875 L 56.03125 0 L 43.71875 0 C 22.96875 0 12.59375 -10.28125 12.59375 -30.84375 L 12.59375 -57.625 L 2.609375 -57.625 L 2.609375 -81.21875 L 12.59375 -81.21875 L 12.59375 -100.90625 L 41.125 -100.90625 L 41.125 -81.21875 L 55.890625 -81.21875 L 55.890625 -57.625 L 41.125 -57.625 L 41.125 -30.40625 C 41.125 -28.1875 41.628906 -26.59375 42.640625 -25.625 C 43.648438 -24.65625 45.363281 -24.171875 47.78125 -24.171875 Z M 56.03125 -24.171875 "/></g></g></g><g fill="#8000ff" fill-opacity="1"><g transform="translate(432.596903, 213.691026)"><g><path d="M 3.46875 -40.6875 C 3.46875 -49.082031 4.988281 -56.414062 8.03125 -62.6875 C 11.070312 -68.957031 15.222656 -73.78125 20.484375 -77.15625 C 25.742188 -80.539062 31.609375 -82.234375 38.078125 -82.234375 C 43.671875 -82.234375 48.492188 -81.125 52.546875 -78.90625 C 56.609375 -76.6875 59.75 -73.691406 61.96875 -69.921875 L 61.96875 -81.21875 L 90.34375 -81.21875 L 90.34375 0 L 61.96875 0 L 61.96875 -11.296875 C 59.75 -7.523438 56.585938 -4.53125 52.484375 -2.3125 C 48.378906 -0.09375 43.578125 1.015625 38.078125 1.015625 C 31.609375 1.015625 25.742188 -0.671875 20.484375 -4.046875 C 15.222656 -7.429688 11.070312 -12.285156 8.03125 -18.609375 C 4.988281 -24.929688 3.46875 -32.289062 3.46875 -40.6875 Z M 61.96875 -40.6875 C 61.96875 -45.894531 60.539062 -49.992188 57.6875 -52.984375 C 54.84375 -55.984375 51.347656 -57.484375 47.203125 -57.484375 C 42.953125 -57.484375 39.425781 -56.007812 36.625 -53.0625 C 33.832031 -50.113281 32.4375 -45.988281 32.4375 -40.6875 C 32.4375 -35.46875 33.832031 -31.335938 36.625 -28.296875 C 39.425781 -25.265625 42.953125 -23.75 47.203125 -23.75 C 51.347656 -23.75 54.84375 -25.242188 57.6875 -28.234375 C 60.539062 -31.222656 61.96875 -35.375 61.96875 -40.6875 Z M 61.96875 -40.6875 "/></g></g></g><g fill="#8000ff" fill-opacity="1"><g transform="translate(531.040994, 213.691026)"><g><path d="M 36.484375 -107.140625 L 36.484375 0 L 8.109375 0 L 8.109375 -107.140625 Z M 36.484375 -107.140625 "/></g></g></g><g fill="#8000ff" fill-opacity="1"><g transform="translate(575.630398, 213.691026)"><g/></g></g><g fill="#8000ff" fill-opacity="1"><g transform="translate(603.281635, 213.691026)"><g><path d="M 73.265625 -68.484375 C 71.617188 -71.179688 69.367188 -73.253906 66.515625 -74.703125 C 63.671875 -76.148438 60.320312 -76.875 56.46875 -76.875 C 49.320312 -76.875 43.695312 -74.554688 39.59375 -69.921875 C 35.488281 -65.296875 33.4375 -59.070312 33.4375 -51.25 C 33.4375 -42.46875 35.632812 -35.785156 40.03125 -31.203125 C 44.425781 -26.617188 50.820312 -24.328125 59.21875 -24.328125 C 69.15625 -24.328125 76.25 -28.8125 80.5 -37.78125 L 51.96875 -37.78125 L 51.96875 -58.203125 L 104.96875 -58.203125 L 104.96875 -30.6875 C 102.75 -25.28125 99.488281 -20.210938 95.1875 -15.484375 C 90.894531 -10.753906 85.46875 -6.867188 78.90625 -3.828125 C 72.34375 -0.796875 64.863281 0.71875 56.46875 0.71875 C 46.238281 0.71875 37.1875 -1.472656 29.3125 -5.859375 C 21.445312 -10.253906 15.367188 -16.382812 11.078125 -24.25 C 6.785156 -32.113281 4.640625 -41.113281 4.640625 -51.25 C 4.640625 -61.289062 6.785156 -70.242188 11.078125 -78.109375 C 15.367188 -85.972656 21.421875 -92.097656 29.234375 -96.484375 C 37.054688 -100.878906 46.082031 -103.078125 56.3125 -103.078125 C 69.15625 -103.078125 79.773438 -99.988281 88.171875 -93.8125 C 96.566406 -87.632812 101.78125 -79.191406 103.8125 -68.484375 Z M 73.265625 -68.484375 "/></g></g></g><g fill="#8000ff" fill-opacity="1"><g transform="translate(712.873089, 213.691026)"><g><path d="M 36.484375 -66.890625 C 39.671875 -71.523438 43.53125 -75.191406 48.0625 -77.890625 C 52.601562 -80.597656 57.476562 -81.953125 62.6875 -81.953125 L 62.6875 -51.6875 L 54.734375 -51.6875 C 48.554688 -51.6875 43.96875 -50.476562 40.96875 -48.0625 C 37.976562 -45.65625 36.484375 -41.457031 36.484375 -35.46875 L 36.484375 0 L 8.109375 0 L 8.109375 -81.21875 L 36.484375 -81.21875 Z M 36.484375 -66.890625 "/></g></g></g><g fill="#8000ff" fill-opacity="1"><g transform="translate(777.585641, 213.691026)"><g><path d="M 45.890625 1.015625 C 37.785156 1.015625 30.523438 -0.671875 24.109375 -4.046875 C 17.691406 -7.429688 12.644531 -12.257812 8.96875 -18.53125 C 5.300781 -24.800781 3.46875 -32.1875 3.46875 -40.6875 C 3.46875 -49.082031 5.328125 -56.414062 9.046875 -62.6875 C 12.765625 -68.957031 17.832031 -73.78125 24.25 -77.15625 C 30.664062 -80.539062 37.929688 -82.234375 46.046875 -82.234375 C 54.148438 -82.234375 61.410156 -80.539062 67.828125 -77.15625 C 74.242188 -73.78125 79.3125 -68.957031 83.03125 -62.6875 C 86.75 -56.414062 88.609375 -49.082031 88.609375 -40.6875 C 88.609375 -32.289062 86.75 -24.929688 83.03125 -18.609375 C 79.3125 -12.285156 74.21875 -7.429688 67.75 -4.046875 C 61.289062 -0.671875 54.003906 1.015625 45.890625 1.015625 Z M 45.890625 -23.59375 C 49.847656 -23.59375 53.15625 -25.066406 55.8125 -28.015625 C 58.46875 -30.960938 59.796875 -35.1875 59.796875 -40.6875 C 59.796875 -46.1875 58.46875 -50.382812 55.8125 -53.28125 C 53.15625 -56.175781 49.898438 -57.625 46.046875 -57.625 C 42.179688 -57.625 38.945312 -56.175781 36.34375 -53.28125 C 33.738281 -50.382812 32.4375 -46.1875 32.4375 -40.6875 C 32.4375 -35.082031 33.6875 -30.832031 36.1875 -27.9375 C 38.695312 -25.039062 41.929688 -23.59375 45.890625 -23.59375 Z M 45.890625 -23.59375 "/></g></g></g><g fill="#8000ff" fill-opacity="1"><g transform="translate(869.659794, 213.691026)"><g><path d="M 128.125 -81.21875 L 107.421875 0 L 75.578125 0 L 64.28125 -49.21875 L 52.5625 0 L 20.84375 0 L 0.296875 -81.21875 L 28.515625 -81.21875 L 37.640625 -27.359375 L 49.65625 -81.21875 L 80.0625 -81.21875 L 92.515625 -27.21875 L 101.484375 -81.21875 Z M 128.125 -81.21875 "/></g></g></g><g fill="#8000ff" fill-opacity="1"><g transform="translate(997.781906, 213.691026)"><g><path d="M 56.03125 -24.171875 L 56.03125 0 L 43.71875 0 C 22.96875 0 12.59375 -10.28125 12.59375 -30.84375 L 12.59375 -57.625 L 2.609375 -57.625 L 2.609375 -81.21875 L 12.59375 -81.21875 L 12.59375 -100.90625 L 41.125 -100.90625 L 41.125 -81.21875 L 55.890625 -81.21875 L 55.890625 -57.625 L 41.125 -57.625 L 41.125 -30.40625 C 41.125 -28.1875 41.628906 -26.59375 42.640625 -25.625 C 43.648438 -24.65625 45.363281 -24.171875 47.78125 -24.171875 Z M 56.03125 -24.171875 "/></g></g></g><g fill="#8000ff" fill-opacity="1"><g transform="translate(1058.730435, 213.691026)"><g><path d="M 61.53125 -81.953125 C 70.800781 -81.953125 78.160156 -78.835938 83.609375 -72.609375 C 89.066406 -66.378906 91.796875 -57.957031 91.796875 -47.34375 L 91.796875 0 L 63.421875 0 L 63.421875 -43.578125 C 63.421875 -48.210938 62.210938 -51.851562 59.796875 -54.5 C 57.378906 -57.15625 54.144531 -58.484375 50.09375 -58.484375 C 45.84375 -58.484375 42.507812 -57.15625 40.09375 -54.5 C 37.6875 -51.851562 36.484375 -48.210938 36.484375 -43.578125 L 36.484375 0 L 8.109375 0 L 8.109375 -107.140625 L 36.484375 -107.140625 L 36.484375 -69.640625 C 38.992188 -73.304688 42.394531 -76.273438 46.6875 -78.546875 C 50.988281 -80.816406 55.9375 -81.953125 61.53125 -81.953125 Z M 61.53125 -81.953125 "/></g></g></g><g fill="#8000ff" fill-opacity="1"><g transform="translate(1158.045651, 213.691026)"><g/></g></g><g fill="#c026d3" fill-opacity="1"><g transform="translate(409.725348, 290.585151)"><g><path d="M 41.96875 -33.890625 C 40.894531 -33.828125 40.117188 -34.109375 39.640625 -34.734375 C 39.160156 -35.367188 39.007812 -36.34375 39.1875 -37.65625 C 39.300781 -38.789062 39.613281 -39.671875 40.125 -40.296875 C 40.632812 -40.929688 41.3125 -41.28125 42.15625 -41.34375 C 48.144531 -41.757812 53.566406 -42.910156 58.421875 -44.796875 C 63.273438 -46.691406 67.421875 -49.117188 70.859375 -52.078125 C 74.304688 -55.046875 76.957031 -58.398438 78.8125 -62.140625 C 80.675781 -65.890625 81.609375 -69.832031 81.609375 -73.96875 C 81.609375 -77.207031 80.859375 -79.648438 79.359375 -81.296875 C 77.859375 -82.941406 75.703125 -83.765625 72.890625 -83.765625 C 70.429688 -83.765625 67.851562 -83.117188 65.15625 -81.828125 C 62.457031 -80.546875 59.742188 -78.71875 57.015625 -76.34375 C 54.296875 -73.976562 51.660156 -71.160156 49.109375 -67.890625 C 46.566406 -64.628906 44.203125 -61.003906 42.015625 -57.015625 C 39.828125 -53.035156 37.925781 -48.800781 36.3125 -44.3125 L 22.375 -1.265625 C 22.132812 -0.421875 21.65625 0.207031 20.9375 0.625 C 20.21875 1.050781 19.171875 1.265625 17.796875 1.265625 C 16.472656 1.265625 15.484375 1.050781 14.828125 0.625 C 14.171875 0.207031 13.992188 -0.476562 14.296875 -1.4375 L 37.5625 -72.890625 C 36.070312 -71.390625 34.484375 -69.945312 32.796875 -68.5625 C 31.117188 -67.1875 29.367188 -65.828125 27.546875 -64.484375 C 25.722656 -63.140625 23.789062 -61.75 21.75 -60.3125 C 20.488281 -59.46875 19.4375 -59.195312 18.59375 -59.5 C 17.757812 -59.800781 17.015625 -60.488281 16.359375 -61.5625 C 15.753906 -62.519531 15.507812 -63.429688 15.625 -64.296875 C 15.75 -65.171875 16.382812 -65.9375 17.53125 -66.59375 C 21.0625 -68.8125 24.335938 -71.070312 27.359375 -73.375 C 30.390625 -75.6875 33.160156 -78.113281 35.671875 -80.65625 C 38.191406 -83.207031 40.378906 -85.859375 42.234375 -88.609375 C 42.953125 -89.628906 43.613281 -90.316406 44.21875 -90.671875 C 44.820312 -91.035156 45.78125 -91.21875 47.09375 -91.21875 C 48.46875 -91.21875 49.46875 -91.007812 50.09375 -90.59375 C 50.726562 -90.175781 50.867188 -89.488281 50.515625 -88.53125 L 45.84375 -73.703125 C 48.59375 -77.410156 51.507812 -80.582031 54.59375 -83.21875 C 57.6875 -85.851562 60.863281 -87.84375 64.125 -89.1875 C 67.394531 -90.539062 70.675781 -91.21875 73.96875 -91.21875 C 77.207031 -91.21875 80.007812 -90.554688 82.375 -89.234375 C 84.738281 -87.921875 86.546875 -86.066406 87.796875 -83.671875 C 89.054688 -81.273438 89.6875 -78.429688 89.6875 -75.140625 C 89.6875 -69.503906 88.519531 -64.273438 86.1875 -59.453125 C 83.851562 -54.628906 80.539062 -50.375 76.25 -46.6875 C 71.96875 -43 66.90625 -40.046875 61.0625 -37.828125 C 55.226562 -35.617188 48.863281 -34.304688 41.96875 -33.890625 Z M 41.96875 -33.890625 "/></g></g></g><g fill="#c026d3" fill-opacity="1"><g transform="translate(486.568094, 290.585151)"><g><path d="M 13.296875 1.53125 C 11.265625 1.53125 9.484375 0.992188 7.953125 -0.078125 C 6.421875 -1.160156 5.234375 -2.691406 4.390625 -4.671875 C 3.554688 -6.648438 3.140625 -8.988281 3.140625 -11.6875 C 3.140625 -14.4375 3.554688 -17.398438 4.390625 -20.578125 C 5.234375 -23.753906 6.492188 -26.867188 8.171875 -29.921875 C 9.847656 -32.984375 11.898438 -35.769531 14.328125 -38.28125 C 16.753906 -40.800781 19.523438 -42.820312 22.640625 -44.34375 C 25.765625 -45.875 29.242188 -46.640625 33.078125 -46.640625 C 34.753906 -46.640625 36.550781 -46.414062 38.46875 -45.96875 C 40.382812 -45.519531 42.238281 -44.875 44.03125 -44.03125 L 44.125 -44.390625 C 44.425781 -45.234375 44.875 -45.757812 45.46875 -45.96875 C 46.070312 -46.175781 46.882812 -46.28125 47.90625 -46.28125 C 49.757812 -46.28125 50.941406 -45.992188 51.453125 -45.421875 C 51.960938 -44.859375 52.007812 -43.976562 51.59375 -42.78125 L 40.359375 -9.25 C 39.992188 -8.175781 39.796875 -7.367188 39.765625 -6.828125 C 39.734375 -6.285156 39.835938 -5.925781 40.078125 -5.75 C 40.316406 -5.570312 40.585938 -5.484375 40.890625 -5.484375 C 41.492188 -5.484375 42.109375 -5.675781 42.734375 -6.0625 C 43.359375 -6.457031 44.046875 -7.023438 44.796875 -7.765625 C 45.546875 -8.515625 46.34375 -9.398438 47.1875 -10.421875 C 47.664062 -11.023438 48.144531 -11.367188 48.625 -11.453125 C 49.101562 -11.546875 49.671875 -11.351562 50.328125 -10.875 C 51.285156 -10.269531 51.867188 -9.664062 52.078125 -9.0625 C 52.285156 -8.46875 52.242188 -7.875 51.953125 -7.28125 C 51.410156 -6.382812 50.539062 -5.242188 49.34375 -3.859375 C 48.144531 -2.484375 46.691406 -1.269531 44.984375 -0.21875 C 43.273438 0.820312 41.3125 1.34375 39.09375 1.34375 C 36.875 1.34375 35.238281 0.847656 34.1875 -0.140625 C 33.144531 -1.128906 32.53125 -2.367188 32.34375 -3.859375 C 32.164062 -5.359375 32.242188 -6.945312 32.578125 -8.625 C 32.910156 -10.300781 33.316406 -11.859375 33.796875 -13.296875 C 33.910156 -13.421875 33.984375 -13.554688 34.015625 -13.703125 C 34.046875 -13.859375 34.09375 -14.023438 34.15625 -14.203125 C 31.632812 -10.660156 29.160156 -7.722656 26.734375 -5.390625 C 24.304688 -3.054688 21.96875 -1.316406 19.71875 -0.171875 C 17.476562 0.960938 15.335938 1.53125 13.296875 1.53125 Z M 11.328125 -13.125 C 11.328125 -11.625 11.503906 -10.300781 11.859375 -9.15625 C 12.222656 -8.019531 12.75 -7.148438 13.4375 -6.546875 C 14.125 -5.953125 14.914062 -5.65625 15.8125 -5.65625 C 17.914062 -5.65625 20.3125 -6.78125 23 -9.03125 C 25.695312 -11.28125 28.554688 -14.5625 31.578125 -18.875 C 34.609375 -23.1875 37.710938 -28.457031 40.890625 -34.6875 L 41.875 -37.65625 C 39.957031 -38.4375 38.144531 -38.945312 36.4375 -39.1875 C 34.738281 -39.425781 33.195312 -39.546875 31.8125 -39.546875 C 29.238281 -39.546875 26.875 -38.945312 24.71875 -37.75 C 22.5625 -36.550781 20.65625 -34.976562 19 -33.03125 C 17.351562 -31.082031 15.960938 -28.925781 14.828125 -26.5625 C 13.691406 -24.195312 12.820312 -21.84375 12.21875 -19.5 C 11.625 -17.164062 11.328125 -15.039062 11.328125 -13.125 Z M 11.328125 -13.125 "/></g></g></g><g fill="#c026d3" fill-opacity="1"><g transform="translate(542.470066, 290.585151)"><g><path d="M -16.265625 1.53125 C -17.398438 1.53125 -18.160156 1.179688 -18.546875 0.484375 C -18.941406 -0.203125 -19.050781 -0.976562 -18.875 -1.84375 C -18.695312 -2.707031 -18.25 -3.484375 -17.53125 -4.171875 C -16.8125 -4.867188 -15.878906 -5.21875 -14.734375 -5.21875 C -12.640625 -5.21875 -10.453125 -5.84375 -8.171875 -7.09375 C -5.898438 -8.351562 -3.472656 -10.332031 -0.890625 -13.03125 C 1.679688 -15.726562 4.40625 -19.265625 7.28125 -23.640625 C 10.15625 -28.015625 13.238281 -33.316406 16.53125 -39.546875 L 21.484375 -37.125 C 17.890625 -29.875 14.503906 -23.773438 11.328125 -18.828125 C 8.148438 -13.890625 5.046875 -9.921875 2.015625 -6.921875 C -1.003906 -3.921875 -4.007812 -1.757812 -7 -0.4375 C -10 0.875 -13.085938 1.53125 -16.265625 1.53125 Z M 34.15625 1.34375 C 31.9375 1.34375 30.285156 0.90625 29.203125 0.03125 C 28.128906 -0.832031 27.472656 -1.921875 27.234375 -3.234375 C 26.992188 -4.554688 26.992188 -5.9375 27.234375 -7.375 C 27.472656 -8.8125 27.800781 -10.097656 28.21875 -11.234375 C 28.582031 -12.253906 29.109375 -13.644531 29.796875 -15.40625 C 30.484375 -17.175781 31.257812 -19.140625 32.125 -21.296875 C 33 -23.453125 33.835938 -25.609375 34.640625 -27.765625 C 35.453125 -29.921875 36.128906 -31.898438 36.671875 -33.703125 C 37.148438 -35.503906 37.253906 -36.75 36.984375 -37.4375 C 36.710938 -38.125 35.945312 -38.46875 34.6875 -38.46875 C 33.3125 -38.46875 31.84375 -38.179688 30.28125 -37.609375 C 28.726562 -37.046875 27.113281 -36.476562 25.4375 -35.90625 C 23.757812 -35.332031 21.988281 -35.046875 20.125 -35.046875 C 19.050781 -35.046875 18.125 -35.492188 17.34375 -36.390625 C 16.5625 -37.296875 15.945312 -38.453125 15.5 -39.859375 C 15.050781 -41.265625 14.828125 -42.75 14.828125 -44.3125 C 14.828125 -45.570312 15.035156 -46.753906 15.453125 -47.859375 C 15.878906 -48.960938 16.554688 -49.875 17.484375 -50.59375 C 18.410156 -51.3125 19.59375 -51.671875 21.03125 -51.671875 C 22.226562 -51.671875 23.1875 -51.28125 23.90625 -50.5 C 24.625 -49.726562 24.984375 -48.742188 24.984375 -47.546875 C 24.984375 -46.765625 24.878906 -45.910156 24.671875 -44.984375 C 24.460938 -44.054688 24.148438 -43.113281 23.734375 -42.15625 C 24.328125 -42.15625 25.398438 -42.484375 26.953125 -43.140625 C 28.515625 -43.796875 30.328125 -44.453125 32.390625 -45.109375 C 34.460938 -45.773438 36.546875 -46.109375 38.640625 -46.109375 C 40.503906 -46.109375 41.988281 -45.65625 43.09375 -44.75 C 44.195312 -43.851562 44.867188 -42.488281 45.109375 -40.65625 C 45.359375 -38.832031 45.09375 -36.453125 44.3125 -33.515625 C 43.882812 -31.835938 43.25 -29.890625 42.40625 -27.671875 C 41.570312 -25.460938 40.707031 -23.1875 39.8125 -20.84375 C 38.914062 -18.507812 38.0625 -16.320312 37.25 -14.28125 C 36.445312 -12.25 35.832031 -10.601562 35.40625 -9.34375 C 34.8125 -7.664062 34.660156 -6.601562 34.953125 -6.15625 C 35.253906 -5.707031 35.675781 -5.484375 36.21875 -5.484375 C 36.820312 -5.484375 37.4375 -5.675781 38.0625 -6.0625 C 38.6875 -6.457031 39.34375 -7.023438 40.03125 -7.765625 C 40.726562 -8.515625 41.460938 -9.398438 42.234375 -10.421875 C 42.710938 -11.023438 43.175781 -11.367188 43.625 -11.453125 C 44.082031 -11.546875 44.671875 -11.351562 45.390625 -10.875 C 46.347656 -10.269531 46.929688 -9.664062 47.140625 -9.0625 C 47.347656 -8.46875 47.300781 -7.875 47 -7.28125 C 46.46875 -6.382812 45.597656 -5.242188 44.390625 -3.859375 C 43.191406 -2.484375 41.738281 -1.269531 40.03125 -0.21875 C 38.332031 0.820312 36.375 1.34375 34.15625 1.34375 Z M 34.15625 1.34375 "/></g></g></g><g fill="#c026d3" fill-opacity="1"><g transform="translate(593.518822, 290.585151)"><g><path d="M 13.84375 1.34375 C 11.445312 1.34375 9.554688 0.789062 8.171875 -0.3125 C 6.796875 -1.425781 5.988281 -3.070312 5.75 -5.25 C 5.507812 -7.4375 5.929688 -10.117188 7.015625 -13.296875 L 14.921875 -37.75 L 8.09375 -37.75 C 7.425781 -37.75 6.972656 -38.046875 6.734375 -38.640625 C 6.492188 -39.242188 6.523438 -40.144531 6.828125 -41.34375 C 7.191406 -42.539062 7.671875 -43.4375 8.265625 -44.03125 C 8.867188 -44.632812 9.5 -44.9375 10.15625 -44.9375 L 17.34375 -44.9375 L 23.1875 -62.734375 C 23.550781 -63.929688 24.015625 -64.707031 24.578125 -65.0625 C 25.148438 -65.425781 26.035156 -65.609375 27.234375 -65.609375 C 29.085938 -65.609375 30.269531 -65.320312 30.78125 -64.75 C 31.289062 -64.1875 31.335938 -63.304688 30.921875 -62.109375 L 25.171875 -44.9375 L 36.484375 -44.9375 C 37.148438 -44.9375 37.613281 -44.648438 37.875 -44.078125 C 38.144531 -43.515625 38.101562 -42.601562 37.75 -41.34375 C 37.445312 -40.207031 36.992188 -39.320312 36.390625 -38.6875 C 35.796875 -38.0625 35.171875 -37.75 34.515625 -37.75 L 22.828125 -37.75 L 14.015625 -11.234375 C 13.359375 -9.191406 13.164062 -7.722656 13.4375 -6.828125 C 13.707031 -5.929688 14.410156 -5.484375 15.546875 -5.484375 C 16.742188 -5.484375 18.164062 -6.003906 19.8125 -7.046875 C 21.457031 -8.097656 23.125 -9.734375 24.8125 -11.953125 C 25.34375 -12.554688 25.894531 -12.882812 26.46875 -12.9375 C 27.039062 -13 27.742188 -12.757812 28.578125 -12.21875 C 29.472656 -11.6875 29.976562 -11.132812 30.09375 -10.5625 C 30.21875 -9.988281 30.160156 -9.460938 29.921875 -8.984375 C 29.265625 -7.785156 28.1875 -6.378906 26.6875 -4.765625 C 25.195312 -3.148438 23.367188 -1.726562 21.203125 -0.5 C 19.046875 0.726562 16.59375 1.34375 13.84375 1.34375 Z M 13.84375 1.34375 "/></g></g></g><g fill="#c026d3" fill-opacity="1"><g transform="translate(628.390149, 290.585151)"><g><path d="M 7.28125 1.34375 C 6.320312 1.34375 5.4375 1.132812 4.625 0.71875 C 3.820312 0.300781 3.597656 -0.476562 3.953125 -1.625 L 15.640625 -37.75 C 15.816406 -38.34375 15.816406 -38.847656 15.640625 -39.265625 C 15.460938 -39.691406 15.070312 -39.90625 14.46875 -39.90625 C 13.925781 -39.90625 13.296875 -39.722656 12.578125 -39.359375 C 11.859375 -39.003906 11.019531 -38.390625 10.0625 -37.515625 C 9.101562 -36.648438 7.9375 -35.46875 6.5625 -33.96875 C 5.78125 -33.132812 5.070312 -32.65625 4.4375 -32.53125 C 3.8125 -32.414062 3.050781 -32.6875 2.15625 -33.34375 C 1.019531 -34.1875 0.539062 -34.96875 0.71875 -35.6875 C 0.894531 -36.40625 1.222656 -37.0625 1.703125 -37.65625 C 3.085938 -39.332031 4.484375 -40.84375 5.890625 -42.1875 C 7.296875 -43.539062 8.851562 -44.617188 10.5625 -45.421875 C 12.269531 -46.234375 14.234375 -46.640625 16.453125 -46.640625 C 18.660156 -46.640625 20.289062 -46.234375 21.34375 -45.421875 C 22.394531 -44.617188 23.039062 -43.570312 23.28125 -42.28125 C 23.519531 -41 23.519531 -39.640625 23.28125 -38.203125 C 23.039062 -36.765625 22.738281 -35.445312 22.375 -34.25 L 20.578125 -28.84375 C 22.441406 -31.71875 24.34375 -34.25 26.28125 -36.4375 C 28.226562 -38.625 30.191406 -40.484375 32.171875 -42.015625 C 34.148438 -43.546875 36.15625 -44.695312 38.1875 -45.46875 C 40.226562 -46.25 42.269531 -46.640625 44.3125 -46.640625 C 47.0625 -46.640625 49.1875 -45.960938 50.6875 -44.609375 C 52.1875 -43.265625 53.023438 -41.273438 53.203125 -38.640625 C 53.378906 -36.003906 52.8125 -32.738281 51.5 -28.84375 L 44.75 -9.34375 C 44.394531 -8.207031 44.203125 -7.367188 44.171875 -6.828125 C 44.140625 -6.285156 44.242188 -5.925781 44.484375 -5.75 C 44.722656 -5.570312 44.992188 -5.484375 45.296875 -5.484375 C 45.898438 -5.484375 46.515625 -5.675781 47.140625 -6.0625 C 47.765625 -6.457031 48.453125 -7.023438 49.203125 -7.765625 C 49.953125 -8.515625 50.75 -9.398438 51.59375 -10.421875 C 52.070312 -11.023438 52.550781 -11.367188 53.03125 -11.453125 C 53.507812 -11.546875 54.078125 -11.351562 54.734375 -10.875 C 55.691406 -10.269531 56.273438 -9.664062 56.484375 -9.0625 C 56.691406 -8.46875 56.617188 -7.875 56.265625 -7.28125 C 55.722656 -6.382812 54.867188 -5.242188 53.703125 -3.859375 C 52.535156 -2.484375 51.082031 -1.269531 49.34375 -0.21875 C 47.601562 0.820312 45.65625 1.34375 43.5 1.34375 C 41.28125 1.34375 39.644531 0.847656 38.59375 -0.140625 C 37.550781 -1.128906 36.9375 -2.367188 36.75 -3.859375 C 36.570312 -5.359375 36.648438 -6.945312 36.984375 -8.625 C 37.316406 -10.300781 37.722656 -11.859375 38.203125 -13.296875 L 44.3125 -30.921875 C 44.851562 -32.472656 45.195312 -33.894531 45.34375 -35.1875 C 45.488281 -36.476562 45.273438 -37.507812 44.703125 -38.28125 C 44.140625 -39.0625 43.019531 -39.453125 41.34375 -39.453125 C 39.363281 -39.453125 37.160156 -38.582031 34.734375 -36.84375 C 32.304688 -35.113281 29.816406 -32.6875 27.265625 -29.5625 C 24.722656 -26.445312 22.191406 -22.75 19.671875 -18.46875 C 17.160156 -14.1875 14.828125 -9.46875 12.671875 -4.3125 L 11.59375 -0.984375 C 11.351562 -0.203125 10.914062 0.378906 10.28125 0.765625 C 9.65625 1.148438 8.65625 1.34375 7.28125 1.34375 Z M 7.28125 1.34375 "/></g></g></g><g fill="#c026d3" fill-opacity="1"><g transform="translate(688.695982, 290.585151)"><g><path d="M 20.765625 1.53125 C 18.546875 1.53125 16.566406 1.179688 14.828125 0.484375 C 13.085938 -0.203125 11.554688 -1.144531 10.234375 -2.34375 C 8.921875 -3.539062 7.828125 -4.960938 6.953125 -6.609375 C 6.085938 -8.253906 5.429688 -10.035156 4.984375 -11.953125 C 4.535156 -13.867188 4.3125 -15.847656 4.3125 -17.890625 C 4.3125 -20.097656 4.550781 -22.488281 5.03125 -25.0625 C 5.507812 -27.644531 6.269531 -30.207031 7.3125 -32.75 C 8.363281 -35.300781 9.726562 -37.625 11.40625 -39.71875 C 13.09375 -41.820312 15.101562 -43.5 17.4375 -44.75 C 19.769531 -46.007812 22.492188 -46.640625 25.609375 -46.640625 C 27.410156 -46.640625 29.054688 -46.265625 30.546875 -45.515625 C 32.046875 -44.765625 33.226562 -43.6875 34.09375 -42.28125 C 34.96875 -40.875 35.40625 -39.179688 35.40625 -37.203125 C 35.40625 -34.503906 34.550781 -31.671875 32.84375 -28.703125 C 31.132812 -25.742188 28.875 -22.8125 26.0625 -19.90625 C 23.25 -17 20.101562 -14.289062 16.625 -11.78125 C 13.15625 -9.195312 9.546875 -6.898438 5.796875 -4.890625 C 2.054688 -2.890625 -1.535156 -1.316406 -4.984375 -0.171875 C -8.429688 0.960938 -11.472656 1.53125 -14.109375 1.53125 C -14.953125 1.53125 -15.582031 1.179688 -16 0.484375 C -16.414062 -0.203125 -16.578125 -0.976562 -16.484375 -1.84375 C -16.398438 -2.707031 -16.023438 -3.484375 -15.359375 -4.171875 C -14.703125 -4.867188 -13.75 -5.21875 -12.5 -5.21875 C -10.570312 -5.21875 -8.1875 -5.738281 -5.34375 -6.78125 C -2.5 -7.832031 0.519531 -9.253906 3.71875 -11.046875 C 6.925781 -12.847656 10 -14.859375 12.9375 -17.078125 C 15.632812 -19.054688 18.0625 -21.09375 20.21875 -23.1875 C 22.375 -25.28125 24.097656 -27.34375 25.390625 -29.375 C 26.679688 -31.414062 27.328125 -33.304688 27.328125 -35.046875 C 27.328125 -36.429688 27.023438 -37.507812 26.421875 -38.28125 C 25.828125 -39.0625 24.929688 -39.453125 23.734375 -39.453125 C 21.867188 -39.453125 20.21875 -38.71875 18.78125 -37.25 C 17.34375 -35.78125 16.128906 -33.9375 15.140625 -31.71875 C 14.148438 -29.507812 13.414062 -27.175781 12.9375 -24.71875 C 12.457031 -22.257812 12.21875 -20.039062 12.21875 -18.0625 C 12.21875 -16.382812 12.425781 -14.796875 12.84375 -13.296875 C 13.269531 -11.796875 13.898438 -10.476562 14.734375 -9.34375 C 15.578125 -8.207031 16.640625 -7.304688 17.921875 -6.640625 C 19.210938 -5.984375 20.726562 -5.65625 22.46875 -5.65625 C 24.320312 -5.65625 26.132812 -6.0625 27.90625 -6.875 C 29.675781 -7.6875 31.382812 -8.765625 33.03125 -10.109375 C 34.675781 -11.460938 36.21875 -12.914062 37.65625 -14.46875 C 38.375 -15.3125 39.210938 -15.613281 40.171875 -15.375 C 41.128906 -15.132812 41.910156 -14.679688 42.515625 -14.015625 C 43.109375 -13.359375 43.445312 -12.671875 43.53125 -11.953125 C 43.625 -11.234375 43.3125 -10.425781 42.59375 -9.53125 C 40.320312 -6.65625 37.972656 -4.421875 35.546875 -2.828125 C 33.117188 -1.242188 30.660156 -0.125 28.171875 0.53125 C 25.691406 1.195312 23.222656 1.53125 20.765625 1.53125 Z M 20.765625 1.53125 "/></g></g></g><g fill="#c026d3" fill-opacity="1"><g transform="translate(728.600278, 290.585151)"><g><path d="M -16.265625 1.53125 C -17.398438 1.53125 -18.160156 1.179688 -18.546875 0.484375 C -18.941406 -0.203125 -19.050781 -0.976562 -18.875 -1.84375 C -18.695312 -2.707031 -18.25 -3.484375 -17.53125 -4.171875 C -16.8125 -4.867188 -15.878906 -5.21875 -14.734375 -5.21875 C -12.640625 -5.21875 -10.453125 -5.84375 -8.171875 -7.09375 C -5.898438 -8.351562 -3.472656 -10.332031 -0.890625 -13.03125 C 1.679688 -15.726562 4.40625 -19.265625 7.28125 -23.640625 C 10.15625 -28.015625 13.238281 -33.316406 16.53125 -39.546875 L 21.484375 -37.125 C 17.890625 -29.875 14.503906 -23.773438 11.328125 -18.828125 C 8.148438 -13.890625 5.046875 -9.921875 2.015625 -6.921875 C -1.003906 -3.921875 -4.007812 -1.757812 -7 -0.4375 C -10 0.875 -13.085938 1.53125 -16.265625 1.53125 Z M 34.15625 1.34375 C 31.9375 1.34375 30.285156 0.90625 29.203125 0.03125 C 28.128906 -0.832031 27.472656 -1.921875 27.234375 -3.234375 C 26.992188 -4.554688 26.992188 -5.9375 27.234375 -7.375 C 27.472656 -8.8125 27.800781 -10.097656 28.21875 -11.234375 C 28.582031 -12.253906 29.109375 -13.644531 29.796875 -15.40625 C 30.484375 -17.175781 31.257812 -19.140625 32.125 -21.296875 C 33 -23.453125 33.835938 -25.609375 34.640625 -27.765625 C 35.453125 -29.921875 36.128906 -31.898438 36.671875 -33.703125 C 37.148438 -35.503906 37.253906 -36.75 36.984375 -37.4375 C 36.710938 -38.125 35.945312 -38.46875 34.6875 -38.46875 C 33.3125 -38.46875 31.84375 -38.179688 30.28125 -37.609375 C 28.726562 -37.046875 27.113281 -36.476562 25.4375 -35.90625 C 23.757812 -35.332031 21.988281 -35.046875 20.125 -35.046875 C 19.050781 -35.046875 18.125 -35.492188 17.34375 -36.390625 C 16.5625 -37.296875 15.945312 -38.453125 15.5 -39.859375 C 15.050781 -41.265625 14.828125 -42.75 14.828125 -44.3125 C 14.828125 -45.570312 15.035156 -46.753906 15.453125 -47.859375 C 15.878906 -48.960938 16.554688 -49.875 17.484375 -50.59375 C 18.410156 -51.3125 19.59375 -51.671875 21.03125 -51.671875 C 22.226562 -51.671875 23.1875 -51.28125 23.90625 -50.5 C 24.625 -49.726562 24.984375 -48.742188 24.984375 -47.546875 C 24.984375 -46.765625 24.878906 -45.910156 24.671875 -44.984375 C 24.460938 -44.054688 24.148438 -43.113281 23.734375 -42.15625 C 24.328125 -42.15625 25.398438 -42.484375 26.953125 -43.140625 C 28.515625 -43.796875 30.328125 -44.453125 32.390625 -45.109375 C 34.460938 -45.773438 36.546875 -46.109375 38.640625 -46.109375 C 40.503906 -46.109375 41.988281 -45.65625 43.09375 -44.75 C 44.195312 -43.851562 44.867188 -42.488281 45.109375 -40.65625 C 45.359375 -38.832031 45.09375 -36.453125 44.3125 -33.515625 C 43.882812 -31.835938 43.25 -29.890625 42.40625 -27.671875 C 41.570312 -25.460938 40.707031 -23.1875 39.8125 -20.84375 C 38.914062 -18.507812 38.0625 -16.320312 37.25 -14.28125 C 36.445312 -12.25 35.832031 -10.601562 35.40625 -9.34375 C 34.8125 -7.664062 34.660156 -6.601562 34.953125 -6.15625 C 35.253906 -5.707031 35.675781 -5.484375 36.21875 -5.484375 C 36.820312 -5.484375 37.4375 -5.675781 38.0625 -6.0625 C 38.6875 -6.457031 39.34375 -7.023438 40.03125 -7.765625 C 40.726562 -8.515625 41.460938 -9.398438 42.234375 -10.421875 C 42.710938 -11.023438 43.175781 -11.367188 43.625 -11.453125 C 44.082031 -11.546875 44.671875 -11.351562 45.390625 -10.875 C 46.347656 -10.269531 46.929688 -9.664062 47.140625 -9.0625 C 47.347656 -8.46875 47.300781 -7.875 47 -7.28125 C 46.46875 -6.382812 45.597656 -5.242188 44.390625 -3.859375 C 43.191406 -2.484375 41.738281 -1.269531 40.03125 -0.21875 C 38.332031 0.820312 36.375 1.34375 34.15625 1.34375 Z M 34.15625 1.34375 "/></g></g></g><g fill="#c026d3" fill-opacity="1"><g transform="translate(779.649056, 290.585151)"><g><path d="M -16.265625 1.53125 C -17.398438 1.53125 -18.160156 1.179688 -18.546875 0.484375 C -18.941406 -0.203125 -19.050781 -0.976562 -18.875 -1.84375 C -18.695312 -2.707031 -18.25 -3.484375 -17.53125 -4.171875 C -16.8125 -4.867188 -15.878906 -5.21875 -14.734375 -5.21875 C -12.765625 -5.21875 -10.65625 -5.90625 -8.40625 -7.28125 C -6.15625 -8.65625 -3.632812 -10.882812 -0.84375 -13.96875 C 1.9375 -17.0625 5.140625 -21.164062 8.765625 -26.28125 C 12.390625 -31.40625 16.597656 -37.710938 21.390625 -45.203125 L 25.703125 -42.6875 C 20.972656 -34.414062 16.703125 -27.445312 12.890625 -21.78125 C 9.085938 -16.125 5.566406 -11.585938 2.328125 -8.171875 C -0.898438 -4.765625 -4.007812 -2.296875 -7 -0.765625 C -10 0.765625 -13.085938 1.53125 -16.265625 1.53125 Z M 19.40625 1.703125 C 16.476562 1.703125 13.828125 1.253906 11.453125 0.359375 C 9.085938 -0.535156 7.457031 -1.492188 6.5625 -2.515625 C 5.664062 -3.472656 5.242188 -4.296875 5.296875 -4.984375 C 5.359375 -5.671875 5.78125 -6.375 6.5625 -7.09375 C 7.28125 -7.8125 7.921875 -8.140625 8.484375 -8.078125 C 9.054688 -8.023438 9.820312 -7.671875 10.78125 -7.015625 C 11.800781 -6.347656 13.015625 -5.757812 14.421875 -5.25 C 15.828125 -4.75 17.34375 -4.5 18.96875 -4.5 C 22.082031 -4.5 24.503906 -5.242188 26.234375 -6.734375 C 27.972656 -8.234375 28.84375 -10.300781 28.84375 -12.9375 C 28.84375 -14.4375 28.601562 -15.945312 28.125 -17.46875 C 27.644531 -19 27.015625 -20.546875 26.234375 -22.109375 C 25.460938 -23.671875 24.65625 -25.257812 23.8125 -26.875 C 22.976562 -28.488281 22.171875 -30.164062 21.390625 -31.90625 C 20.609375 -33.644531 19.976562 -35.457031 19.5 -37.34375 C 19.019531 -39.226562 18.78125 -41.191406 18.78125 -43.234375 C 18.78125 -46.410156 19.515625 -48.671875 20.984375 -50.015625 C 22.453125 -51.359375 23.992188 -52.03125 25.609375 -52.03125 C 26.992188 -52.03125 28.054688 -51.65625 28.796875 -50.90625 C 29.546875 -50.164062 29.921875 -49.222656 29.921875 -48.078125 C 29.921875 -46.878906 29.457031 -45.59375 28.53125 -44.21875 C 27.601562 -42.84375 26.628906 -41.554688 25.609375 -40.359375 C 25.609375 -38.921875 25.878906 -37.492188 26.421875 -36.078125 C 26.960938 -34.671875 27.648438 -33.234375 28.484375 -31.765625 C 29.328125 -30.296875 30.210938 -28.8125 31.140625 -27.3125 C 32.066406 -25.820312 32.945312 -24.28125 33.78125 -22.6875 C 34.625 -21.101562 35.316406 -19.488281 35.859375 -17.84375 C 36.398438 -16.195312 36.671875 -14.472656 36.671875 -12.671875 C 36.671875 -8.359375 35.125 -4.882812 32.03125 -2.25 C 28.945312 0.382812 24.738281 1.703125 19.40625 1.703125 Z M 19.40625 1.703125 "/></g></g></g></svg>