<svg xmlns="http://www.w3.org/2000/svg" xmlns:xlink="http://www.w3.org/1999/xlink" width="2515" zoomAndPan="magnify" viewBox="0 0 1886.25 1126.499967" height="1502" preserveAspectRatio="xMidYMid meet" version="1.2"><defs><clipPath id="2003ea4035"><rect x="0" width="1477" y="0" height="772"/></clipPath></defs><g id="fd7928fe7e"><g transform="matrix(1,0,0,1,204,176)"><g clip-path="url(#2003ea4035)"><g style="fill:#0080ff;fill-opacity:1;"><g transform="translate(1.676862, 612.04989)"><path style="stroke:none" d="M 52.515625 -442.90625 L 253.71875 -442.90625 C 301.800781 -442.90625 344.296875 -433.726562 381.203125 -415.375 C 418.117188 -397.03125 446.804688 -371.195312 467.265625 -337.875 C 487.722656 -304.550781 497.953125 -265.742188 497.953125 -221.453125 C 497.953125 -177.160156 487.722656 -138.351562 467.265625 -105.03125 C 446.804688 -71.707031 418.117188 -45.867188 381.203125 -27.515625 C 344.296875 -9.171875 301.800781 0 253.71875 0 L 52.515625 0 Z M 248.65625 -84.15625 C 292.945312 -84.15625 328.273438 -96.492188 354.640625 -121.171875 C 381.003906 -145.847656 394.1875 -179.273438 394.1875 -221.453125 C 394.1875 -263.628906 381.003906 -297.054688 354.640625 -321.734375 C 328.273438 -346.410156 292.945312 -358.75 248.65625 -358.75 L 155.015625 -358.75 L 155.015625 -84.15625 Z M 248.65625 -84.15625 "/></g></g><g style="fill:#00cc66;fill-opacity:1;"><g transform="translate(524.301687, 612.04989)"><path style="stroke:none" d="M 351.796875 -228.40625 L 445.4375 -228.40625 L 445.4375 -48.71875 C 421.394531 -30.582031 393.554688 -16.660156 361.921875 -6.953125 C 330.285156 2.742188 298.4375 7.59375 266.375 7.59375 C 220.394531 7.59375 179.054688 -2.210938 142.359375 -21.828125 C 105.660156 -41.441406 76.867188 -68.648438 55.984375 -103.453125 C 35.109375 -138.253906 24.671875 -177.585938 24.671875 -221.453125 C 24.671875 -265.316406 35.109375 -304.648438 55.984375 -339.453125 C 76.867188 -374.253906 105.867188 -401.460938 142.984375 -421.078125 C 180.109375 -440.691406 221.867188 -450.5 268.265625 -450.5 C 307.078125 -450.5 342.300781 -443.957031 373.9375 -430.875 C 405.570312 -417.800781 432.144531 -398.820312 453.65625 -373.9375 L 387.859375 -313.203125 C 356.222656 -346.523438 318.046875 -363.1875 273.328125 -363.1875 C 245.066406 -363.1875 219.96875 -357.28125 198.03125 -345.46875 C 176.101562 -333.65625 159.019531 -316.992188 146.78125 -295.484375 C 134.550781 -273.972656 128.4375 -249.296875 128.4375 -221.453125 C 128.4375 -194.035156 134.550781 -169.566406 146.78125 -148.046875 C 159.019531 -126.535156 176 -109.769531 197.71875 -97.75 C 219.445312 -85.726562 244.226562 -79.71875 272.0625 -79.71875 C 301.59375 -79.71875 328.171875 -86.046875 351.796875 -98.703125 Z M 351.796875 -228.40625 "/></g></g><g style="fill:#8000ff;fill-opacity:1;"><g transform="translate(1012.127038, 612.04989)"><path style="stroke:none" d="M 244.234375 -442.90625 C 283.460938 -442.90625 317.519531 -436.363281 346.40625 -423.28125 C 375.300781 -410.207031 397.550781 -391.648438 413.15625 -367.609375 C 428.769531 -343.566406 436.578125 -315.09375 436.578125 -282.1875 C 436.578125 -249.707031 428.769531 -221.335938 413.15625 -197.078125 C 397.550781 -172.828125 375.300781 -154.269531 346.40625 -141.40625 C 317.519531 -128.539062 283.460938 -122.109375 244.234375 -122.109375 L 155.015625 -122.109375 L 155.015625 0 L 52.515625 0 L 52.515625 -442.90625 Z M 238.53125 -205.640625 C 269.320312 -205.640625 292.734375 -212.28125 308.765625 -225.5625 C 324.796875 -238.851562 332.8125 -257.726562 332.8125 -282.1875 C 332.8125 -307.070312 324.796875 -326.160156 308.765625 -339.453125 C 292.734375 -352.742188 269.320312 -359.390625 238.53125 -359.390625 L 155.015625 -359.390625 L 155.015625 -205.640625 Z M 238.53125 -205.640625 "/></g></g></g></g><g style="fill:#000000;fill-opacity:1;"><g transform="translate(253.33328, 932.826592)"><path style="stroke:none" d="M 7.46875 -62.96875 L 36.078125 -62.96875 C 42.910156 -62.96875 48.945312 -61.660156 54.1875 -59.046875 C 59.4375 -56.441406 63.515625 -52.769531 66.421875 -48.03125 C 69.335938 -43.289062 70.796875 -37.773438 70.796875 -31.484375 C 70.796875 -25.179688 69.335938 -19.660156 66.421875 -14.921875 C 63.515625 -10.191406 59.4375 -6.519531 54.1875 -3.90625 C 48.945312 -1.300781 42.910156 0 36.078125 0 L 7.46875 0 Z M 35.359375 -11.96875 C 41.648438 -11.96875 46.671875 -13.71875 50.421875 -17.21875 C 54.171875 -20.726562 56.046875 -25.484375 56.046875 -31.484375 C 56.046875 -37.484375 54.171875 -42.234375 50.421875 -45.734375 C 46.671875 -49.242188 41.648438 -51 35.359375 -51 L 22.03125 -51 L 22.03125 -11.96875 Z M 35.359375 -11.96875 "/></g></g><g style="fill:#000000;fill-opacity:1;"><g transform="translate(327.630624, 932.826592)"><path style="stroke:none" d="M 7.46875 -62.96875 L 22.03125 -62.96875 L 22.03125 0 L 7.46875 0 Z M 7.46875 -62.96875 "/></g></g><g style="fill:#000000;fill-opacity:1;"><g transform="translate(357.133682, 932.826592)"><path style="stroke:none" d="M 50.015625 -32.46875 L 63.328125 -32.46875 L 63.328125 -6.921875 C 59.910156 -4.347656 55.953125 -2.367188 51.453125 -0.984375 C 46.953125 0.390625 42.425781 1.078125 37.875 1.078125 C 31.332031 1.078125 25.453125 -0.3125 20.234375 -3.09375 C 15.015625 -5.882812 10.921875 -9.753906 7.953125 -14.703125 C 4.992188 -19.648438 3.515625 -25.242188 3.515625 -31.484375 C 3.515625 -37.722656 4.992188 -43.316406 7.953125 -48.265625 C 10.921875 -53.210938 15.046875 -57.078125 20.328125 -59.859375 C 25.609375 -62.648438 31.546875 -64.046875 38.140625 -64.046875 C 43.660156 -64.046875 48.664062 -63.113281 53.15625 -61.25 C 57.65625 -59.394531 61.4375 -56.695312 64.5 -53.15625 L 55.140625 -44.53125 C 50.640625 -49.269531 45.210938 -51.640625 38.859375 -51.640625 C 34.835938 -51.640625 31.269531 -50.796875 28.15625 -49.109375 C 25.039062 -47.429688 22.613281 -45.0625 20.875 -42 C 19.132812 -38.945312 18.265625 -35.441406 18.265625 -31.484375 C 18.265625 -27.585938 19.132812 -24.109375 20.875 -21.046875 C 22.613281 -17.992188 25.023438 -15.609375 28.109375 -13.890625 C 31.203125 -12.179688 34.726562 -11.328125 38.6875 -11.328125 C 42.882812 -11.328125 46.660156 -12.226562 50.015625 -14.03125 Z M 50.015625 -32.46875 "/></g></g><g style="fill:#000000;fill-opacity:1;"><g transform="translate(426.48387, 932.826592)"><path style="stroke:none" d="M 7.46875 -62.96875 L 22.03125 -62.96875 L 22.03125 0 L 7.46875 0 Z M 7.46875 -62.96875 "/></g></g><g style="fill:#000000;fill-opacity:1;"><g transform="translate(455.986939, 932.826592)"><path style="stroke:none" d="M 20.515625 -51.09375 L 0.359375 -51.09375 L 0.359375 -62.96875 L 55.234375 -62.96875 L 55.234375 -51.09375 L 35.078125 -51.09375 L 35.078125 0 L 20.515625 0 Z M 20.515625 -51.09375 "/></g></g><g style="fill:#000000;fill-opacity:1;"><g transform="translate(508.426673, 932.826592)"><path style="stroke:none" d="M 48.9375 -13.5 L 19.703125 -13.5 L 14.125 0 L -0.8125 0 L 27.25 -62.96875 L 41.640625 -62.96875 L 69.796875 0 L 54.515625 0 Z M 44.34375 -24.5625 L 34.359375 -48.671875 L 24.375 -24.5625 Z M 44.34375 -24.5625 "/></g></g><g style="fill:#000000;fill-opacity:1;"><g transform="translate(577.327101, 932.826592)"><path style="stroke:none" d="M 7.46875 -62.96875 L 22.03125 -62.96875 L 22.03125 -11.875 L 53.609375 -11.875 L 53.609375 0 L 7.46875 0 Z M 7.46875 -62.96875 "/></g></g><g style="fill:#000000;fill-opacity:1;"><g transform="translate(631.655919, 932.826592)"><path style="stroke:none" d=""/></g></g><g style="fill:#000000;fill-opacity:1;"><g transform="translate(657.111293, 932.826592)"><path style="stroke:none" d="M 50.015625 -32.46875 L 63.328125 -32.46875 L 63.328125 -6.921875 C 59.910156 -4.347656 55.953125 -2.367188 51.453125 -0.984375 C 46.953125 0.390625 42.425781 1.078125 37.875 1.078125 C 31.332031 1.078125 25.453125 -0.3125 20.234375 -3.09375 C 15.015625 -5.882812 10.921875 -9.753906 7.953125 -14.703125 C 4.992188 -19.648438 3.515625 -25.242188 3.515625 -31.484375 C 3.515625 -37.722656 4.992188 -43.316406 7.953125 -48.265625 C 10.921875 -53.210938 15.046875 -57.078125 20.328125 -59.859375 C 25.609375 -62.648438 31.546875 -64.046875 38.140625 -64.046875 C 43.660156 -64.046875 48.664062 -63.113281 53.15625 -61.25 C 57.65625 -59.394531 61.4375 -56.695312 64.5 -53.15625 L 55.140625 -44.53125 C 50.640625 -49.269531 45.210938 -51.640625 38.859375 -51.640625 C 34.835938 -51.640625 31.269531 -50.796875 28.15625 -49.109375 C 25.039062 -47.429688 22.613281 -45.0625 20.875 -42 C 19.132812 -38.945312 18.265625 -35.441406 18.265625 -31.484375 C 18.265625 -27.585938 19.132812 -24.109375 20.875 -21.046875 C 22.613281 -17.992188 25.023438 -15.609375 28.109375 -13.890625 C 31.203125 -12.179688 34.726562 -11.328125 38.6875 -11.328125 C 42.882812 -11.328125 46.660156 -12.226562 50.015625 -14.03125 Z M 50.015625 -32.46875 "/></g></g><g style="fill:#000000;fill-opacity:1;"><g transform="translate(726.461504, 932.826592)"><path style="stroke:none" d="M 47.578125 0 L 35.4375 -17.546875 L 22.03125 -17.546875 L 22.03125 0 L 7.46875 0 L 7.46875 -62.96875 L 34.71875 -62.96875 C 40.300781 -62.96875 45.144531 -62.035156 49.25 -60.171875 C 53.351562 -58.316406 56.515625 -55.679688 58.734375 -52.265625 C 60.953125 -48.847656 62.0625 -44.800781 62.0625 -40.125 C 62.0625 -35.445312 60.9375 -31.410156 58.6875 -28.015625 C 56.445312 -24.628906 53.253906 -22.035156 49.109375 -20.234375 L 63.234375 0 Z M 47.3125 -40.125 C 47.3125 -43.65625 46.171875 -46.363281 43.890625 -48.25 C 41.617188 -50.144531 38.289062 -51.09375 33.90625 -51.09375 L 22.03125 -51.09375 L 22.03125 -29.140625 L 33.90625 -29.140625 C 38.289062 -29.140625 41.617188 -30.097656 43.890625 -32.015625 C 46.171875 -33.941406 47.3125 -36.644531 47.3125 -40.125 Z M 47.3125 -40.125 "/></g></g><g style="fill:#000000;fill-opacity:1;"><g transform="translate(792.573513, 932.826592)"><path style="stroke:none" d="M 37.953125 1.078125 C 31.421875 1.078125 25.53125 -0.328125 20.28125 -3.140625 C 15.03125 -5.960938 10.921875 -9.847656 7.953125 -14.796875 C 4.992188 -19.742188 3.515625 -25.304688 3.515625 -31.484375 C 3.515625 -37.660156 4.992188 -43.222656 7.953125 -48.171875 C 10.921875 -53.117188 15.03125 -57 20.28125 -59.8125 C 25.53125 -62.632812 31.421875 -64.046875 37.953125 -64.046875 C 44.492188 -64.046875 50.375 -62.632812 55.59375 -59.8125 C 60.8125 -57 64.914062 -53.117188 67.90625 -48.171875 C 70.90625 -43.222656 72.40625 -37.660156 72.40625 -31.484375 C 72.40625 -25.304688 70.90625 -19.742188 67.90625 -14.796875 C 64.914062 -9.847656 60.8125 -5.960938 55.59375 -3.140625 C 50.375 -0.328125 44.492188 1.078125 37.953125 1.078125 Z M 37.953125 -11.328125 C 41.671875 -11.328125 45.03125 -12.179688 48.03125 -13.890625 C 51.03125 -15.609375 53.382812 -17.992188 55.09375 -21.046875 C 56.800781 -24.109375 57.65625 -27.585938 57.65625 -31.484375 C 57.65625 -35.378906 56.800781 -38.851562 55.09375 -41.90625 C 53.382812 -44.96875 51.03125 -47.351562 48.03125 -49.0625 C 45.03125 -50.78125 41.671875 -51.640625 37.953125 -51.640625 C 34.242188 -51.640625 30.890625 -50.78125 27.890625 -49.0625 C 24.890625 -47.351562 22.535156 -44.96875 20.828125 -41.90625 C 19.117188 -38.851562 18.265625 -35.378906 18.265625 -31.484375 C 18.265625 -27.585938 19.117188 -24.109375 20.828125 -21.046875 C 22.535156 -17.992188 24.890625 -15.609375 27.890625 -13.890625 C 30.890625 -12.179688 34.242188 -11.328125 37.953125 -11.328125 Z M 37.953125 -11.328125 "/></g></g><g style="fill:#000000;fill-opacity:1;"><g transform="translate(866.421041, 932.826592)"><path style="stroke:none" d="M 102.640625 -62.96875 L 82.03125 0 L 66.390625 0 L 52.53125 -42.640625 L 38.234375 0 L 22.671875 0 L 1.984375 -62.96875 L 17.09375 -62.96875 L 31.296875 -18.703125 L 46.140625 -62.96875 L 59.640625 -62.96875 L 74.03125 -18.34375 L 88.6875 -62.96875 Z M 102.640625 -62.96875 "/></g></g><g style="fill:#000000;fill-opacity:1;"><g transform="translate(969.861617, 932.826592)"><path style="stroke:none" d="M 20.515625 -51.09375 L 0.359375 -51.09375 L 0.359375 -62.96875 L 55.234375 -62.96875 L 55.234375 -51.09375 L 35.078125 -51.09375 L 35.078125 0 L 20.515625 0 Z M 20.515625 -51.09375 "/></g></g><g style="fill:#000000;fill-opacity:1;"><g transform="translate(1025.449688, 932.826592)"><path style="stroke:none" d="M 65.21875 -62.96875 L 65.21875 0 L 50.640625 0 L 50.640625 -25.8125 L 22.03125 -25.8125 L 22.03125 0 L 7.46875 0 L 7.46875 -62.96875 L 22.03125 -62.96875 L 22.03125 -38.140625 L 50.640625 -38.140625 L 50.640625 -62.96875 Z M 65.21875 -62.96875 "/></g></g><g style="fill:#000000;fill-opacity:1;"><g transform="translate(1098.127965, 932.826592)"><path style="stroke:none" d=""/></g></g><g style="fill:#000000;fill-opacity:1;"><g transform="translate(1123.583339, 932.826592)"><path style="stroke:none" d="M 34.71875 -62.96875 C 40.300781 -62.96875 45.144531 -62.035156 49.25 -60.171875 C 53.351562 -58.316406 56.515625 -55.679688 58.734375 -52.265625 C 60.953125 -48.847656 62.0625 -44.800781 62.0625 -40.125 C 62.0625 -35.5 60.953125 -31.460938 58.734375 -28.015625 C 56.515625 -24.566406 53.351562 -21.925781 49.25 -20.09375 C 45.144531 -18.269531 40.300781 -17.359375 34.71875 -17.359375 L 22.03125 -17.359375 L 22.03125 0 L 7.46875 0 L 7.46875 -62.96875 Z M 33.90625 -29.234375 C 38.289062 -29.234375 41.617188 -30.175781 43.890625 -32.0625 C 46.171875 -33.957031 47.3125 -36.644531 47.3125 -40.125 C 47.3125 -43.65625 46.171875 -46.363281 43.890625 -48.25 C 41.617188 -50.144531 38.289062 -51.09375 33.90625 -51.09375 L 22.03125 -51.09375 L 22.03125 -29.234375 Z M 33.90625 -29.234375 "/></g></g><g style="fill:#000000;fill-opacity:1;"><g transform="translate(1185.377715, 932.826592)"><path style="stroke:none" d="M 48.9375 -13.5 L 19.703125 -13.5 L 14.125 0 L -0.8125 0 L 27.25 -62.96875 L 41.640625 -62.96875 L 69.796875 0 L 54.515625 0 Z M 44.34375 -24.5625 L 34.359375 -48.671875 L 24.375 -24.5625 Z M 44.34375 -24.5625 "/></g></g><g style="fill:#000000;fill-opacity:1;"><g transform="translate(1254.278098, 932.826592)"><path style="stroke:none" d="M 47.578125 0 L 35.4375 -17.546875 L 22.03125 -17.546875 L 22.03125 0 L 7.46875 0 L 7.46875 -62.96875 L 34.71875 -62.96875 C 40.300781 -62.96875 45.144531 -62.035156 49.25 -60.171875 C 53.351562 -58.316406 56.515625 -55.679688 58.734375 -52.265625 C 60.953125 -48.847656 62.0625 -44.800781 62.0625 -40.125 C 62.0625 -35.445312 60.9375 -31.410156 58.6875 -28.015625 C 56.445312 -24.628906 53.253906 -22.035156 49.109375 -20.234375 L 63.234375 0 Z M 47.3125 -40.125 C 47.3125 -43.65625 46.171875 -46.363281 43.890625 -48.25 C 41.617188 -50.144531 38.289062 -51.09375 33.90625 -51.09375 L 22.03125 -51.09375 L 22.03125 -29.140625 L 33.90625 -29.140625 C 38.289062 -29.140625 41.617188 -30.097656 43.890625 -32.015625 C 46.171875 -33.941406 47.3125 -36.644531 47.3125 -40.125 Z M 47.3125 -40.125 "/></g></g><g style="fill:#000000;fill-opacity:1;"><g transform="translate(1319.490634, 932.826592)"><path style="stroke:none" d="M 20.515625 -51.09375 L 0.359375 -51.09375 L 0.359375 -62.96875 L 55.234375 -62.96875 L 55.234375 -51.09375 L 35.078125 -51.09375 L 35.078125 0 L 20.515625 0 Z M 20.515625 -51.09375 "/></g></g><g style="fill:#000000;fill-opacity:1;"><g transform="translate(1375.07875, 932.826592)"><path style="stroke:none" d="M 65.21875 -62.96875 L 65.21875 0 L 53.25 0 L 21.859375 -38.234375 L 21.859375 0 L 7.46875 0 L 7.46875 -62.96875 L 19.515625 -62.96875 L 50.828125 -24.734375 L 50.828125 -62.96875 Z M 65.21875 -62.96875 "/></g></g><g style="fill:#000000;fill-opacity:1;"><g transform="translate(1447.757027, 932.826592)"><path style="stroke:none" d="M 56.21875 -11.6875 L 56.21875 0 L 7.46875 0 L 7.46875 -62.96875 L 55.046875 -62.96875 L 55.046875 -51.265625 L 21.953125 -51.265625 L 21.953125 -37.59375 L 51.1875 -37.59375 L 51.1875 -26.265625 L 21.953125 -26.265625 L 21.953125 -11.6875 Z M 56.21875 -11.6875 "/></g></g><g style="fill:#000000;fill-opacity:1;"><g transform="translate(1508.112375, 932.826592)"><path style="stroke:none" d="M 47.578125 0 L 35.4375 -17.546875 L 22.03125 -17.546875 L 22.03125 0 L 7.46875 0 L 7.46875 -62.96875 L 34.71875 -62.96875 C 40.300781 -62.96875 45.144531 -62.035156 49.25 -60.171875 C 53.351562 -58.316406 56.515625 -55.679688 58.734375 -52.265625 C 60.953125 -48.847656 62.0625 -44.800781 62.0625 -40.125 C 62.0625 -35.445312 60.9375 -31.410156 58.6875 -28.015625 C 56.445312 -24.628906 53.253906 -22.035156 49.109375 -20.234375 L 63.234375 0 Z M 47.3125 -40.125 C 47.3125 -43.65625 46.171875 -46.363281 43.890625 -48.25 C 41.617188 -50.144531 38.289062 -51.09375 33.90625 -51.09375 L 22.03125 -51.09375 L 22.03125 -29.140625 L 33.90625 -29.140625 C 38.289062 -29.140625 41.617188 -30.097656 43.890625 -32.015625 C 46.171875 -33.941406 47.3125 -36.644531 47.3125 -40.125 Z M 47.3125 -40.125 "/></g></g><g style="fill:#000000;fill-opacity:1;"><g transform="translate(1574.224384, 932.826592)"><path style="stroke:none" d="M 28.15625 1.078125 C 23.175781 1.078125 18.363281 0.40625 13.71875 -0.9375 C 9.070312 -2.289062 5.335938 -4.046875 2.515625 -6.203125 L 7.46875 -17.1875 C 10.164062 -15.207031 13.375 -13.613281 17.09375 -12.40625 C 20.8125 -11.207031 24.53125 -10.609375 28.25 -10.609375 C 32.382812 -10.609375 35.441406 -11.222656 37.421875 -12.453125 C 39.398438 -13.679688 40.390625 -15.316406 40.390625 -17.359375 C 40.390625 -18.859375 39.800781 -20.101562 38.625 -21.09375 C 37.457031 -22.082031 35.957031 -22.875 34.125 -23.46875 C 32.300781 -24.070312 29.832031 -24.734375 26.71875 -25.453125 C 21.914062 -26.597656 17.984375 -27.738281 14.921875 -28.875 C 11.867188 -30.007812 9.25 -31.835938 7.0625 -34.359375 C 4.875 -36.878906 3.78125 -40.238281 3.78125 -44.4375 C 3.78125 -48.09375 4.769531 -51.40625 6.75 -54.375 C 8.726562 -57.34375 11.707031 -59.695312 15.6875 -61.4375 C 19.675781 -63.175781 24.550781 -64.046875 30.3125 -64.046875 C 34.332031 -64.046875 38.257812 -63.566406 42.09375 -62.609375 C 45.9375 -61.648438 49.296875 -60.269531 52.171875 -58.46875 L 47.671875 -47.40625 C 41.859375 -50.707031 36.039062 -52.359375 30.21875 -52.359375 C 26.144531 -52.359375 23.132812 -51.695312 21.1875 -50.375 C 19.238281 -49.050781 18.265625 -47.3125 18.265625 -45.15625 C 18.265625 -43 19.382812 -41.394531 21.625 -40.34375 C 23.875 -39.289062 27.3125 -38.253906 31.9375 -37.234375 C 36.726562 -36.097656 40.65625 -34.957031 43.71875 -33.8125 C 46.78125 -32.675781 49.40625 -30.878906 51.59375 -28.421875 C 53.78125 -25.960938 54.875 -22.632812 54.875 -18.4375 C 54.875 -14.84375 53.867188 -11.5625 51.859375 -8.59375 C 49.847656 -5.625 46.832031 -3.269531 42.8125 -1.53125 C 38.800781 0.207031 33.914062 1.078125 28.15625 1.078125 Z M 28.15625 1.078125 "/></g></g><g style="fill:#000000;fill-opacity:1;"><g transform="translate(1631.619845, 932.826592)"><path style="stroke:none" d=""/></g></g></g></svg>