<svg xmlns="http://www.w3.org/2000/svg" xmlns:xlink="http://www.w3.org/1999/xlink" width="2000" zoomAndPan="magnify" viewBox="0 0 1500 1499.999933" height="2000" preserveAspectRatio="xMidYMid meet" version="1.0"><defs><clipPath id="28c7843530"><path d="M 450 623.25 L 1050 623.25 L 1050 876.75 L 450 876.75 Z M 450 623.25 " clip-rule="nonzero"/></clipPath></defs><g clip-path="url(#28c7843530)"><path fill="#4f46e5" d="M 1042.773438 733.269531 L 1018.253906 733.269531 L 1018.253906 697.472656 C 1018.253906 686.546875 1009.363281 677.660156 998.4375 677.660156 L 978.164062 677.660156 C 976.328125 677.660156 974.558594 677.929688 972.871094 678.398438 L 972.871094 666.585938 C 972.871094 652.074219 961.066406 640.269531 946.554688 640.269531 L 915.875 640.269531 C 901.363281 640.269531 889.558594 652.074219 889.558594 666.585938 L 889.558594 733.269531 L 867.734375 733.269531 C 873.484375 718.96875 876.753906 704.605469 876.753906 690.195312 C 876.753906 653.28125 846.722656 623.25 809.808594 623.25 C 779.832031 623.25 763.566406 637.097656 750.003906 660.191406 C 736.441406 637.097656 720.171875 623.25 690.195312 623.25 C 653.28125 623.25 623.25 653.28125 623.25 690.195312 C 623.25 704.605469 626.519531 718.96875 632.269531 733.269531 L 610.6875 733.269531 L 610.6875 666.585938 C 610.6875 652.074219 598.878906 640.269531 584.371094 640.269531 L 553.691406 640.269531 C 539.179688 640.269531 527.375 652.074219 527.375 666.585938 L 527.375 678.460938 C 525.617188 677.949219 523.761719 677.660156 521.839844 677.660156 L 501.566406 677.660156 C 490.640625 677.660156 481.75 686.546875 481.75 697.472656 L 481.75 733.269531 L 457.226562 733.269531 C 453.28125 733.269531 450.085938 736.46875 450.085938 740.414062 L 450.085938 774.929688 C 450.085938 778.871094 453.28125 782.070312 457.226562 782.070312 L 481.746094 782.070312 L 481.746094 817.867188 C 481.746094 828.792969 490.636719 837.679688 501.558594 837.679688 L 521.835938 837.679688 C 523.757812 837.679688 525.609375 837.390625 527.367188 836.878906 L 527.367188 848.757812 C 527.367188 863.269531 539.175781 875.074219 553.683594 875.074219 L 584.367188 875.074219 C 598.875 875.074219 610.683594 863.269531 610.683594 848.757812 L 610.683594 782.070312 L 660.585938 782.070312 C 683.652344 813.359375 714.5625 844.269531 744.949219 874.660156 C 746.34375 876.050781 748.171875 876.75 750 876.75 C 751.824219 876.75 753.652344 876.050781 755.046875 874.660156 C 785.433594 844.269531 816.34375 813.359375 839.410156 782.070312 L 889.554688 782.070312 L 889.554688 848.757812 C 889.554688 863.269531 901.359375 875.074219 915.871094 875.074219 L 946.550781 875.074219 C 961.0625 875.074219 972.871094 863.269531 972.871094 848.757812 L 972.871094 836.941406 C 974.558594 837.410156 976.328125 837.679688 978.160156 837.679688 L 998.4375 837.679688 C 1009.363281 837.679688 1018.25 828.792969 1018.25 817.867188 L 1018.25 782.070312 L 1042.773438 782.070312 C 1046.714844 782.070312 1049.914062 778.871094 1049.914062 774.929688 L 1049.914062 740.414062 C 1049.914062 736.46875 1046.714844 733.269531 1042.773438 733.269531 Z M 464.367188 767.789062 L 464.367188 747.554688 L 481.746094 747.554688 L 481.746094 767.789062 Z M 521.835938 823.398438 L 501.558594 823.398438 C 498.511719 823.398438 496.027344 820.917969 496.027344 817.867188 L 496.027344 697.472656 C 496.027344 694.425781 498.511719 691.941406 501.558594 691.941406 L 521.835938 691.941406 C 524.886719 691.941406 527.367188 694.425781 527.367188 697.472656 L 527.367188 817.867188 C 527.367188 820.917969 524.886719 823.398438 521.835938 823.398438 Z M 596.402344 848.757812 C 596.402344 855.394531 591.003906 860.792969 584.367188 860.792969 L 553.6875 860.792969 C 547.050781 860.792969 541.652344 855.394531 541.652344 848.757812 L 541.652344 666.585938 C 541.652344 659.949219 547.050781 654.550781 553.6875 654.550781 L 584.367188 654.550781 C 591.003906 654.550781 596.402344 659.949219 596.402344 666.585938 Z M 610.683594 767.789062 L 610.683594 747.554688 L 638.816406 747.554688 C 642.289062 754.3125 646.261719 761.058594 650.652344 767.789062 Z M 750 859.507812 C 693.84375 803.308594 637.53125 745.390625 637.53125 690.195312 C 637.53125 661.15625 661.15625 637.53125 690.195312 637.53125 C 714.84375 637.53125 728.320312 647.851562 743.613281 678.4375 C 744.824219 680.855469 747.296875 682.382812 750 682.382812 C 752.703125 682.382812 755.179688 680.855469 756.386719 678.4375 C 771.679688 647.851562 785.15625 637.53125 809.804688 637.53125 C 838.84375 637.53125 862.46875 661.15625 862.46875 690.195312 C 862.46875 745.390625 806.15625 803.308594 750 859.507812 Z M 849.347656 767.789062 C 853.738281 761.058594 857.710938 754.3125 861.183594 747.554688 L 889.554688 747.554688 L 889.554688 767.789062 Z M 946.554688 860.792969 L 915.875 860.792969 C 909.238281 860.792969 903.839844 855.394531 903.839844 848.757812 L 903.839844 666.585938 C 903.839844 659.949219 909.238281 654.550781 915.875 654.550781 L 946.554688 654.550781 C 953.191406 654.550781 958.589844 659.949219 958.589844 666.585938 L 958.589844 694.550781 C 958.445312 695.503906 958.347656 696.476562 958.347656 697.472656 L 958.347656 817.867188 C 958.347656 818.863281 958.445312 819.832031 958.589844 820.792969 L 958.589844 848.757812 C 958.589844 855.394531 953.191406 860.792969 946.554688 860.792969 Z M 1003.972656 817.867188 C 1003.972656 820.917969 1001.492188 823.398438 998.441406 823.398438 L 978.164062 823.398438 C 975.644531 823.398438 973.539062 821.699219 972.871094 819.390625 L 972.871094 695.949219 C 973.539062 693.644531 975.644531 691.941406 978.164062 691.941406 L 998.441406 691.941406 C 1001.492188 691.941406 1003.972656 694.421875 1003.972656 697.472656 Z M 1035.636719 767.789062 L 1018.253906 767.789062 L 1018.253906 747.554688 L 1035.636719 747.554688 Z M 830.894531 739.519531 C 830.894531 743.460938 827.695312 746.660156 823.753906 746.660156 L 791.949219 746.660156 C 788.46875 746.660156 785.496094 744.152344 784.910156 740.722656 L 782.550781 726.902344 L 772.695312 758.390625 C 771.828125 761.164062 769.367188 763.132812 766.472656 763.375 C 763.570312 763.613281 760.824219 762.078125 759.511719 759.484375 L 753.355469 747.339844 L 741.347656 782.382812 C 740.359375 785.277344 737.636719 787.210938 734.59375 787.210938 C 734.523438 787.210938 734.449219 787.210938 734.375 787.207031 C 731.246094 787.109375 728.542969 784.988281 727.707031 781.96875 L 715.617188 738.125 L 713.257812 743.347656 C 712.101562 745.90625 709.558594 747.550781 706.75 747.550781 L 676.25 747.550781 C 672.304688 747.550781 669.109375 744.355469 669.109375 740.410156 C 669.109375 736.46875 672.304688 733.269531 676.25 733.269531 L 702.140625 733.269531 L 710.734375 714.230469 C 711.972656 711.488281 714.789062 709.8125 717.796875 710.050781 C 720.796875 710.28125 723.328125 712.371094 724.128906 715.269531 L 735.332031 755.886719 L 745.324219 726.714844 C 746.253906 724 748.722656 722.105469 751.585938 721.90625 C 754.4375 721.707031 757.152344 723.242188 758.449219 725.800781 L 764.3125 737.363281 L 777.78125 694.316406 C 778.765625 691.167969 781.796875 689.097656 785.074219 689.324219 C 788.367188 689.546875 791.078125 691.992188 791.632812 695.246094 L 797.972656 732.375 L 823.753906 732.375 C 827.695312 732.375 830.894531 735.574219 830.894531 739.515625 Z M 830.894531 739.519531 " fill-opacity="1" fill-rule="nonzero"/></g></svg>