<svg xmlns="http://www.w3.org/2000/svg" xmlns:xlink="http://www.w3.org/1999/xlink" width="2000" zoomAndPan="magnify" viewBox="0 0 1500 1499.999933" height="2000" preserveAspectRatio="xMidYMid meet" version="1.0"><defs><clipPath id="fc470c638d"><path d="M 458 461 L 1043 461 L 1043 1045.875 L 458 1045.875 Z M 458 461 " clip-rule="nonzero"/></clipPath></defs><path fill="#4f46e5" d="M 651.148438 831.039062 C 654.472656 831.039062 657.792969 829.769531 660.328125 827.234375 L 679.277344 808.285156 C 684.347656 803.21875 684.347656 794.996094 679.277344 789.929688 C 674.210938 784.859375 665.988281 784.859375 660.921875 789.929688 L 641.972656 808.882812 C 636.902344 813.949219 636.902344 822.167969 641.972656 827.234375 C 644.503906 829.769531 647.828125 831.039062 651.148438 831.039062 Z M 651.148438 831.039062 " fill-opacity="1" fill-rule="nonzero"/><path fill="#4f46e5" d="M 630.980469 838.222656 C 625.917969 833.152344 617.691406 833.152344 612.628906 838.222656 L 507.0625 943.789062 C 501.992188 948.855469 501.992188 957.078125 507.0625 962.144531 C 509.59375 964.679688 512.917969 965.945312 516.238281 965.945312 C 519.558594 965.945312 522.882812 964.679688 525.414062 962.144531 L 630.980469 856.574219 C 636.050781 851.507812 636.050781 843.289062 630.980469 838.222656 Z M 630.980469 838.222656 " fill-opacity="1" fill-rule="nonzero"/><path fill="#4f46e5" d="M 695.707031 824.71875 L 603.949219 916.476562 C 598.878906 921.542969 598.878906 929.761719 603.949219 934.828125 C 606.480469 937.363281 609.804688 938.632812 613.125 938.632812 C 616.449219 938.632812 619.773438 937.363281 622.304688 934.828125 L 714.0625 843.070312 C 719.132812 838.003906 719.132812 829.785156 714.0625 824.71875 C 708.996094 819.648438 700.769531 819.648438 695.707031 824.71875 Z M 695.707031 824.71875 " fill-opacity="1" fill-rule="nonzero"/><path fill="#4f46e5" d="M 570.535156 949.890625 L 541.847656 978.578125 C 536.777344 983.648438 536.777344 991.867188 541.851562 996.9375 C 544.386719 999.46875 547.703125 1000.734375 551.027344 1000.734375 C 554.347656 1000.734375 557.671875 999.46875 560.207031 996.933594 L 588.890625 968.25 C 593.960938 963.179688 593.960938 954.960938 588.894531 949.890625 C 583.824219 944.824219 575.605469 944.824219 570.535156 949.890625 Z M 570.535156 949.890625 " fill-opacity="1" fill-rule="nonzero"/><g clip-path="url(#fc470c638d)"><path fill="#4f46e5" d="M 555.949219 582.011719 C 548.710938 589.234375 536.929688 589.230469 529.679688 581.976562 L 485.496094 537.792969 C 485.398438 537.695312 485.28125 537.628906 485.183594 537.535156 C 484.835938 537.210938 484.457031 536.914062 484.070312 536.628906 C 483.75 536.386719 483.433594 536.144531 483.097656 535.941406 C 482.75 535.726562 482.378906 535.546875 482.007812 535.367188 C 481.589844 535.160156 481.171875 534.960938 480.734375 534.800781 C 480.601562 534.753906 480.484375 534.675781 480.347656 534.632812 C 480.109375 534.554688 479.871094 534.539062 479.632812 534.476562 C 479.175781 534.355469 478.722656 534.246094 478.257812 534.175781 C 477.863281 534.117188 477.472656 534.085938 477.082031 534.0625 C 476.636719 534.039062 476.195312 534.023438 475.75 534.046875 C 475.363281 534.0625 474.984375 534.105469 474.601562 534.15625 C 474.140625 534.214844 473.695312 534.296875 473.246094 534.40625 C 472.894531 534.492188 472.554688 534.597656 472.214844 534.710938 C 471.757812 534.863281 471.3125 535.03125 470.875 535.238281 C 470.546875 535.390625 470.234375 535.558594 469.921875 535.738281 C 469.519531 535.96875 469.125 536.207031 468.746094 536.484375 C 468.402344 536.730469 468.085938 537.003906 467.769531 537.285156 C 467.566406 537.460938 467.339844 537.601562 467.144531 537.792969 C 467.035156 537.902344 466.960938 538.027344 466.859375 538.140625 C 466.554688 538.464844 466.285156 538.816406 466.011719 539.175781 C 465.753906 539.515625 465.5 539.851562 465.28125 540.207031 C 465.070312 540.546875 464.902344 540.90625 464.722656 541.265625 C 464.515625 541.691406 464.3125 542.113281 464.152344 542.554688 C 464.105469 542.6875 464.027344 542.804688 463.980469 542.941406 C 450.191406 585.191406 461.132812 630.945312 492.542969 662.355469 C 515.023438 684.84375 544.964844 696.777344 575.492188 696.777344 C 587.527344 696.777344 599.636719 694.820312 611.4375 691.027344 L 659.320312 738.910156 C 651.15625 739.832031 643.226562 743.25 636.980469 749.496094 L 479.320312 907.15625 C 457.667969 928.804688 457.667969 964.039062 479.320312 985.6875 L 518.300781 1024.671875 C 529.125 1035.5 543.34375 1040.910156 557.566406 1040.910156 C 571.789062 1040.910156 586.007812 1035.496094 596.832031 1024.671875 L 754.488281 867.011719 C 760.738281 860.765625 764.152344 852.835938 765.074219 844.671875 L 812.882812 892.476562 C 799.425781 934.222656 810.265625 980.089844 841.628906 1011.449219 C 864.058594 1033.882812 893.804688 1045.875 924.371094 1045.875 C 936.605469 1045.875 948.96875 1043.953125 961.046875 1040.011719 C 961.183594 1039.96875 961.300781 1039.890625 961.433594 1039.839844 C 961.871094 1039.683594 962.285156 1039.484375 962.703125 1039.28125 C 963.078125 1039.097656 963.449219 1038.917969 963.800781 1038.703125 C 964.132812 1038.496094 964.449219 1038.257812 964.765625 1038.019531 C 965.15625 1037.726562 965.53125 1037.4375 965.882812 1037.105469 C 965.980469 1037.011719 966.097656 1036.945312 966.195312 1036.851562 C 966.367188 1036.679688 966.484375 1036.476562 966.644531 1036.300781 C 966.964844 1035.941406 967.273438 1035.585938 967.550781 1035.195312 C 967.785156 1034.863281 967.996094 1034.519531 968.199219 1034.171875 C 968.410156 1033.800781 968.613281 1033.433594 968.792969 1033.046875 C 968.96875 1032.660156 969.113281 1032.277344 969.25 1031.878906 C 969.386719 1031.484375 969.507812 1031.085938 969.605469 1030.675781 C 969.699219 1030.277344 969.769531 1029.878906 969.824219 1029.476562 C 969.886719 1029.054688 969.929688 1028.628906 969.949219 1028.195312 C 969.964844 1027.785156 969.953125 1027.375 969.929688 1026.964844 C 969.90625 1026.546875 969.875 1026.132812 969.8125 1025.714844 C 969.742188 1025.261719 969.636719 1024.820312 969.519531 1024.375 C 969.453125 1024.132812 969.4375 1023.886719 969.359375 1023.644531 C 969.3125 1023.507812 969.234375 1023.390625 969.183594 1023.257812 C 969.027344 1022.824219 968.832031 1022.40625 968.625 1021.992188 C 968.441406 1021.617188 968.265625 1021.242188 968.046875 1020.894531 C 967.839844 1020.558594 967.601562 1020.246094 967.363281 1019.925781 C 967.074219 1019.539062 966.78125 1019.160156 966.453125 1018.8125 C 966.359375 1018.710938 966.292969 1018.59375 966.195312 1018.496094 L 922.011719 974.3125 C 914.757812 967.0625 914.742188 955.277344 921.976562 948.042969 L 944.132812 925.886719 C 951.367188 918.652344 963.148438 918.667969 970.402344 925.917969 L 1014.585938 970.105469 C 1014.683594 970.203125 1014.800781 970.265625 1014.898438 970.359375 C 1015.242188 970.683594 1015.621094 970.972656 1016 971.261719 C 1016.324219 971.503906 1016.644531 971.75 1016.984375 971.960938 C 1017.324219 972.167969 1017.6875 972.34375 1018.050781 972.523438 C 1018.480469 972.734375 1018.90625 972.9375 1019.351562 973.097656 C 1019.480469 973.144531 1019.589844 973.21875 1019.722656 973.261719 C 1019.855469 973.304688 1019.988281 973.285156 1020.121094 973.324219 C 1021.300781 973.667969 1022.507812 973.898438 1023.726562 973.902344 C 1023.742188 973.902344 1023.753906 973.910156 1023.769531 973.910156 C 1023.789062 973.910156 1023.808594 973.898438 1023.828125 973.898438 C 1025.011719 973.894531 1026.179688 973.671875 1027.324219 973.347656 C 1027.5625 973.28125 1027.796875 973.222656 1028.03125 973.140625 C 1029.121094 972.761719 1030.167969 972.253906 1031.144531 971.578125 C 1031.316406 971.457031 1031.464844 971.304688 1031.632812 971.175781 C 1032.078125 970.832031 1032.535156 970.511719 1032.945312 970.105469 C 1033.277344 969.769531 1033.527344 969.394531 1033.816406 969.035156 C 1033.984375 968.832031 1034.160156 968.644531 1034.3125 968.429688 C 1035.027344 967.425781 1035.578125 966.347656 1035.972656 965.21875 C 1036.003906 965.128906 1036.070312 965.0625 1036.101562 964.96875 C 1049.9375 922.746094 1038.996094 876.984375 1007.546875 845.539062 C 976.1875 814.175781 930.332031 803.34375 888.613281 816.796875 L 810.675781 738.863281 L 952.269531 597.269531 L 981.492188 599.316406 C 981.796875 599.339844 982.097656 599.347656 982.402344 599.347656 C 987.089844 599.347656 991.449219 596.808594 993.75 592.664062 L 1040.640625 508.15625 C 1043.445312 503.09375 1042.5625 496.777344 1038.464844 492.683594 L 1035.324219 489.539062 C 1035.316406 489.535156 1035.316406 489.527344 1035.308594 489.523438 L 1014.46875 468.683594 C 1014.464844 468.675781 1014.457031 468.675781 1014.453125 468.667969 L 1011.308594 465.527344 C 1007.210938 461.425781 1000.894531 460.535156 995.835938 463.351562 L 911.328125 510.242188 C 906.914062 512.6875 904.324219 517.472656 904.675781 522.5 L 906.722656 551.722656 L 765.128906 693.316406 L 687.195312 615.378906 C 700.648438 573.65625 689.8125 527.800781 658.453125 496.441406 C 627.007812 464.996094 581.238281 454.046875 539.023438 467.890625 C 538.890625 467.933594 538.78125 468.007812 538.652344 468.054688 C 538.207031 468.210938 537.78125 468.417969 537.355469 468.628906 C 536.988281 468.808594 536.628906 468.980469 536.285156 469.191406 C 535.945312 469.402344 535.625 469.644531 535.304688 469.890625 C 534.921875 470.175781 534.546875 470.464844 534.199219 470.789062 C 534.101562 470.882812 533.988281 470.949219 533.890625 471.046875 C 533.714844 471.21875 533.59375 471.421875 533.433594 471.605469 C 533.117188 471.960938 532.8125 472.316406 532.535156 472.703125 C 532.296875 473.042969 532.085938 473.386719 531.882812 473.738281 C 531.667969 474.101562 531.472656 474.46875 531.296875 474.851562 C 531.117188 475.242188 530.972656 475.632812 530.832031 476.035156 C 530.699219 476.425781 530.578125 476.816406 530.480469 477.21875 C 530.386719 477.625 530.316406 478.027344 530.261719 478.441406 C 530.203125 478.859375 530.15625 479.273438 530.140625 479.703125 C 530.121094 480.121094 530.136719 480.539062 530.160156 480.960938 C 530.183594 481.367188 530.214844 481.769531 530.277344 482.183594 C 530.34375 482.644531 530.457031 483.097656 530.578125 483.554688 C 530.640625 483.792969 530.65625 484.03125 530.734375 484.269531 C 530.777344 484.40625 530.855469 484.515625 530.902344 484.648438 C 531.058594 485.082031 531.257812 485.5 531.464844 485.917969 C 531.648438 486.296875 531.828125 486.671875 532.046875 487.023438 C 532.246094 487.347656 532.476562 487.652344 532.710938 487.960938 C 533.007812 488.359375 533.3125 488.75 533.652344 489.113281 C 533.738281 489.207031 533.800781 489.316406 533.890625 489.40625 L 578.074219 533.589844 C 585.328125 540.84375 585.34375 552.625 578.109375 559.859375 Z M 736.136719 848.660156 L 578.480469 1006.316406 C 566.945312 1017.847656 548.191406 1017.847656 536.65625 1006.316406 L 497.671875 967.335938 C 486.144531 955.804688 486.144531 937.042969 497.671875 925.511719 L 655.332031 767.855469 C 659.867188 763.324219 667.242188 763.324219 671.777344 767.855469 L 682.21875 778.300781 C 687.285156 783.367188 695.503906 783.371094 700.578125 778.304688 C 705.648438 773.234375 705.648438 765.019531 700.582031 759.949219 L 698.714844 758.078125 L 707.191406 749.597656 C 710.777344 746.03125 716.597656 746.023438 720.171875 749.597656 L 723.675781 753.101562 C 723.679688 753.105469 723.683594 753.109375 723.6875 753.117188 L 750.878906 780.308594 L 750.882812 780.308594 L 754.394531 783.824219 C 757.972656 787.398438 757.976562 793.226562 754.359375 796.839844 L 745.917969 805.28125 L 731.007812 790.371094 C 725.945312 785.300781 717.71875 785.300781 712.65625 790.371094 C 707.585938 795.4375 707.585938 803.660156 712.65625 808.726562 L 736.140625 832.210938 C 740.667969 836.75 740.667969 844.125 736.136719 848.660156 Z M 876.101562 840.984375 C 876.101562 840.984375 876.109375 840.992188 876.109375 840.992188 L 876.136719 841.019531 C 876.523438 841.410156 876.957031 841.707031 877.378906 842.035156 C 877.609375 842.210938 877.8125 842.425781 878.054688 842.589844 C 880.242188 844.070312 882.773438 844.824219 885.3125 844.824219 C 887.085938 844.824219 888.851562 844.433594 890.503906 843.710938 C 924.539062 830.046875 963.242188 837.933594 989.199219 863.890625 C 1008.207031 882.898438 1017.542969 908.621094 1015.753906 934.550781 L 988.765625 907.558594 C 971.398438 890.195312 943.144531 890.179688 925.785156 907.527344 L 903.628906 929.6875 C 886.273438 947.042969 886.289062 975.296875 903.664062 992.667969 L 930.636719 1019.640625 C 904.695312 1021.417969 878.976562 1012.078125 859.988281 993.097656 C 834.121094 967.226562 826.203125 928.691406 839.675781 894.710938 C 840.914062 894.097656 842.089844 893.328125 843.117188 892.292969 L 854.132812 881.210938 C 859.1875 876.125 859.164062 867.90625 854.078125 862.855469 C 848.996094 857.804688 840.777344 857.824219 835.722656 862.910156 L 827.902344 870.78125 L 772.511719 815.390625 L 772.75 815.152344 C 784.496094 803.410156 786.09375 785.386719 777.699219 771.835938 L 792.328125 757.210938 Z M 999.871094 490.800781 L 1013.191406 504.117188 L 975.058594 572.84375 L 948.148438 570.957031 C 947.996094 570.945312 947.855469 570.976562 947.703125 570.96875 C 947.296875 570.957031 946.898438 570.980469 946.496094 571.003906 C 946 571.03125 945.511719 571.0625 945.035156 571.144531 C 944.773438 571.1875 944.523438 571.261719 944.265625 571.320312 C 943.679688 571.460938 943.101562 571.617188 942.546875 571.832031 C 942.375 571.898438 942.210938 571.984375 942.042969 572.0625 C 941.425781 572.335938 940.828125 572.636719 940.261719 573 C 940.136719 573.082031 940.019531 573.179688 939.894531 573.261719 C 939.300781 573.675781 938.738281 574.125 938.21875 574.632812 C 938.179688 574.671875 938.136719 574.695312 938.097656 574.734375 L 760.054688 752.777344 L 751.21875 743.941406 L 929.261719 565.894531 C 929.316406 565.839844 929.351562 565.773438 929.40625 565.714844 C 929.851562 565.25 930.25 564.75 930.625 564.226562 C 930.761719 564.035156 930.90625 563.851562 931.035156 563.652344 C 931.339844 563.167969 931.59375 562.65625 931.835938 562.128906 C 931.953125 561.871094 932.085938 561.625 932.183594 561.363281 C 932.367188 560.882812 932.496094 560.386719 932.621094 559.882812 C 932.707031 559.554688 932.800781 559.226562 932.855469 558.894531 C 932.929688 558.457031 932.957031 558.011719 932.984375 557.5625 C 933.011719 557.132812 933.039062 556.707031 933.023438 556.277344 C 933.019531 556.128906 933.046875 555.988281 933.039062 555.839844 L 931.152344 528.929688 Z M 596.433594 515.230469 L 569.441406 488.238281 C 595.375 486.453125 621.097656 495.785156 640.101562 514.796875 C 665.691406 540.386719 673.6875 578.359375 660.804688 612.050781 C 660.195312 612.480469 659.597656 612.9375 659.050781 613.488281 L 648.035156 624.566406 C 642.980469 629.648438 643.007812 637.871094 648.089844 642.925781 C 650.621094 645.441406 653.933594 646.699219 657.242188 646.699219 C 660.574219 646.699219 663.910156 645.421875 666.449219 642.871094 L 672.203125 637.085938 L 746.78125 711.667969 L 732.152344 726.292969 C 718.609375 717.910156 700.574219 719.507812 688.800781 731.285156 L 688.597656 731.484375 L 624.246094 667.132812 C 620.671875 663.402344 615.070312 662.003906 609.996094 664.058594 C 575.84375 677.917969 536.945312 670.050781 510.898438 644.007812 C 491.914062 625.023438 482.585938 599.308594 484.355469 573.363281 L 511.328125 600.332031 C 520.019531 609.03125 531.4375 613.375 542.847656 613.375 C 554.242188 613.375 565.636719 609.042969 574.304688 600.367188 L 596.464844 578.210938 C 613.816406 560.855469 613.804688 532.605469 596.433594 515.230469 Z M 596.433594 515.230469 " fill-opacity="1" fill-rule="nonzero"/></g></svg>