<?xml version="1.0" encoding="UTF-8" standalone="no"?><!DOCTYPE svg PUBLIC "-//W3C//DTD SVG 1.1//EN" "http://www.w3.org/Graphics/SVG/1.1/DTD/svg11.dtd"><svg width="100%" height="100%" viewBox="0 0 11746 5313" version="1.1" xmlns="http://www.w3.org/2000/svg" xmlns:xlink="http://www.w3.org/1999/xlink" xml:space="preserve" xmlns:serif="http://www.serif.com/" style="fill-rule:evenodd;clip-rule:evenodd;stroke-linejoin:round;stroke-miterlimit:2;"><g><path d="M4034.05,710.48l438.509,0c104.846,0 197.503,20.067 277.973,60.066c80.402,39.865 142.892,96.16 187.47,168.885c44.511,72.591 66.8,157.168 66.8,253.731c-0,96.631 -22.289,181.276 -66.8,254.001c-44.578,72.591 -107.068,128.886 -187.47,168.885c-80.47,39.865 -173.127,59.797 -277.973,59.797l-438.509,-0l0,-965.365Zm427.465,781.935c96.563,-0 173.599,-26.801 231.106,-80.537c57.439,-53.871 86.193,-126.731 86.193,-218.716c-0,-91.917 -28.754,-164.709 -86.193,-218.446c-57.507,-53.87 -134.543,-80.806 -231.106,-80.806l-204.17,0l-0,598.505l204.17,-0Z" style="fill:url(#_Linear1);fill-rule:nonzero;"/><rect x="5173.07" y="710.48" width="223.294" height="965.364" style="fill:url(#_Linear2);fill-rule:nonzero;"/><path d="M6277.74,1178.08l203.901,-0l0,391.64c-52.255,39.528 -112.859,69.898 -181.814,91.042c-68.954,21.009 -138.38,31.514 -208.21,31.514c-100.402,0 -190.568,-21.346 -270.432,-64.106c-79.93,-42.693 -142.69,-101.95 -188.278,-177.774c-45.454,-75.957 -68.147,-161.679 -68.147,-257.233c0,-95.485 22.693,-181.14 68.147,-256.963c45.588,-75.958 108.819,-135.283 189.625,-178.043c80.941,-42.693 171.983,-64.106 273.125,-64.106c84.577,-0 161.343,14.275 230.298,42.827c68.954,28.417 126.865,69.695 173.733,123.903l-143.296,132.522c-68.955,-72.726 -152.185,-109.088 -249.692,-109.088c-61.614,-0 -116.36,12.929 -164.305,38.787c-47.811,25.723 -85.049,61.951 -111.782,108.819c-26.599,46.867 -39.865,100.671 -39.865,161.342c0,59.797 13.266,113.129 39.865,159.997c26.733,46.867 63.837,83.432 111.243,109.627c47.406,26.262 101.412,39.325 162.151,39.325c64.241,0 122.152,-13.804 173.733,-41.48l0,-282.552Z" style="fill:url(#_Linear3);fill-rule:nonzero;"/><rect x="6688.55" y="710.48" width="223.294" height="965.364" style="fill:url(#_Linear4);fill-rule:nonzero;"/><path d="M7340.7,892.564l-308.948,-0l-0,-182.084l841.461,0l0,182.084l-308.949,-0l0,783.281l-223.564,-0l0,-783.281Z" style="fill:url(#_Linear5);fill-rule:nonzero;"/><path d="M8628.71,1468.98l-448.205,-0l-85.385,206.864l-228.951,-0l430.158,-965.365l220.871,0l431.504,965.365l-234.337,-0l-85.655,-206.864Zm-70.301,-169.693l-152.993,-369.554l-152.993,369.554l305.986,-0Z" style="fill:url(#_Linear6);fill-rule:nonzero;"/><path d="M9049.32,710.48l223.294,0l-0,783.281l484.298,0l0,182.084l-707.592,-0l-0,-965.365Z" style="fill:url(#_Linear7);fill-rule:nonzero;"/><g><path d="M4747.03,2641.11l203.901,-0l0,391.641c-52.255,39.527 -112.859,69.897 -181.814,91.041c-68.954,21.01 -138.38,31.515 -208.21,31.515c-100.402,-0 -190.568,-21.347 -270.432,-64.107c-79.93,-42.692 -142.69,-101.95 -188.278,-177.773c-45.454,-75.958 -68.147,-161.68 -68.147,-257.233c0,-95.486 22.693,-181.141 68.147,-256.964c45.588,-75.958 108.819,-135.283 189.625,-178.043c80.941,-42.692 171.983,-64.106 273.125,-64.106c84.577,-0 161.343,14.276 230.298,42.827c68.954,28.417 126.865,69.696 173.733,123.903l-143.296,132.522c-68.955,-72.725 -152.185,-109.088 -249.692,-109.088c-61.614,-0 -116.36,12.929 -164.305,38.787c-47.811,25.723 -85.049,61.951 -111.782,108.819c-26.599,46.867 -39.865,100.671 -39.865,161.343c0,59.796 13.266,113.128 39.865,159.996c26.733,46.868 63.837,83.432 111.243,109.627c47.406,26.262 101.412,39.326 162.151,39.326c64.241,-0 122.152,-13.805 173.733,-41.481l0,-282.552Z" style="fill:url(#_Linear8);fill-rule:nonzero;"/><path d="M5772.77,3138.88l-186.124,-268.815l-205.517,-0l-0,268.815l-223.294,-0l-0,-965.364l417.768,-0c85.452,-0 159.726,14.275 222.755,42.827c63.029,28.417 111.513,68.82 145.451,121.209c34.074,52.457 51.178,114.475 51.178,186.124c-0,71.85 -17.239,133.734 -51.716,185.584c-34.478,51.918 -83.433,91.715 -146.798,119.324l216.291,310.296l-239.994,-0Zm-4.041,-615.204c0,-54.208 -17.508,-95.756 -52.524,-124.711c-34.881,-28.888 -85.856,-43.366 -152.993,-43.366l-182.083,-0l-0,336.423l182.083,-0c67.137,-0 118.112,-14.68 152.993,-44.174c35.016,-29.427 52.524,-70.84 52.524,-124.172Z" style="fill:url(#_Linear9);fill-rule:nonzero;"/><path d="M6638.96,3155.31c-100.199,-0 -190.568,-21.549 -270.97,-64.645c-80.469,-43.232 -143.498,-102.759 -189.086,-178.582c-45.454,-75.958 -68.147,-161.208 -68.147,-255.886c0,-94.611 22.693,-179.794 68.147,-255.617c45.588,-75.958 108.617,-135.485 189.086,-178.582c80.402,-43.231 170.771,-64.914 270.97,-64.914c100.2,-0 190.231,21.683 270.162,64.914c80.066,43.097 143.094,102.624 189.087,178.582c45.924,75.823 68.954,161.006 68.954,255.617c0,94.678 -23.03,179.928 -68.954,255.886c-45.993,75.823 -109.021,135.35 -189.087,178.582c-79.931,43.096 -169.962,64.645 -270.162,64.645Zm0,-190.164c56.901,-0 108.348,-13.064 154.34,-39.326c45.925,-26.195 82.018,-62.759 108.28,-109.627c26.195,-46.868 39.326,-100.2 39.326,-159.996c-0,-59.797 -13.131,-113.129 -39.326,-159.996c-26.262,-46.868 -62.355,-83.366 -108.28,-109.628c-45.992,-26.194 -97.439,-39.325 -154.34,-39.325c-57.103,-0 -108.684,13.131 -154.609,39.325c-45.992,26.262 -82.086,62.76 -108.28,109.628c-26.262,46.867 -39.326,100.199 -39.326,159.996c0,59.796 13.064,113.128 39.326,159.996c26.194,46.868 62.288,83.432 108.28,109.627c45.925,26.262 97.506,39.326 154.609,39.326Z" style="fill:url(#_Linear10);fill-rule:nonzero;"/><path d="M8794.3,2173.51l-315.953,965.364l-239.725,-0l-212.52,-653.722l-219.254,653.722l-238.647,-0l-317.03,-965.364l231.644,-0l217.908,678.502l227.604,-678.502l206.864,-0l220.6,684.158l224.642,-684.158l213.867,-0Z" style="fill:url(#_Linear11);fill-rule:nonzero;"/><path d="M9138.8,2355.6l-308.949,-0l0,-182.083l841.462,-0l-0,182.083l-308.949,-0l-0,783.281l-223.564,-0l0,-783.281Z" style="fill:url(#_Linear12);fill-rule:nonzero;"/><path d="M10676.5,2173.51l-0,965.364l-223.294,-0l-0,-395.681l-438.778,0l0,395.681l-223.294,-0l-0,-965.364l223.294,-0l0,380.597l438.778,-0l-0,-380.597l223.294,-0Z" style="fill:url(#_Linear13);fill-rule:nonzero;"/></g><path d="M4451.82,3636.55c85.453,-0 159.727,14.276 222.756,42.827c63.029,28.417 111.513,68.82 145.451,121.209c34.073,52.457 51.177,114.476 51.177,186.124c0,70.975 -17.104,132.926 -51.177,185.854c-33.938,52.793 -82.422,93.197 -145.451,121.209c-63.029,28.013 -137.303,42.02 -222.756,42.02l-194.473,-0l-0,266.121l-223.295,0l0,-965.364l417.768,-0Zm-12.39,517.159c67.137,0 118.112,-14.41 152.993,-43.366c35.016,-29.09 52.524,-70.301 52.524,-123.633c0,-54.208 -17.508,-95.755 -52.524,-124.711c-34.881,-28.888 -85.856,-43.366 -152.993,-43.366l-182.083,0l-0,335.076l182.083,0Z" style="fill:url(#_Linear14);fill-rule:nonzero;"/><path d="M5679.12,4395.05l-448.205,0l-85.385,206.864l-228.951,0l430.158,-965.364l220.87,-0l431.505,965.364l-234.338,0l-85.654,-206.864Zm-70.301,-169.693l-152.994,-369.553l-152.993,369.553l305.987,0Z" style="fill:url(#_Linear15);fill-rule:nonzero;"/><path d="M6714.66,4601.91l-186.123,-268.815l-205.517,0l-0,268.815l-223.295,0l0,-965.364l417.768,-0c85.453,-0 159.727,14.276 222.756,42.827c63.029,28.417 111.513,68.82 145.451,121.209c34.073,52.457 51.177,114.476 51.177,186.124c0,71.85 -17.238,133.734 -51.716,185.585c-34.477,51.918 -83.432,91.715 -146.797,119.324l216.291,310.295l-239.995,0Zm-4.04,-615.204c0,-54.208 -17.508,-95.755 -52.524,-124.711c-34.881,-28.888 -85.856,-43.366 -152.993,-43.366l-182.083,0l-0,336.423l182.083,0c67.137,0 118.112,-14.68 152.993,-44.174c35.016,-29.427 52.524,-70.84 52.524,-124.172Z" style="fill:url(#_Linear16);fill-rule:nonzero;"/><path d="M7313.12,3818.63l-308.949,0l0,-182.083l841.462,-0l-0,182.083l-308.949,0l-0,783.281l-223.564,0l0,-783.281Z" style="fill:url(#_Linear17);fill-rule:nonzero;"/><path d="M8850.83,3636.55l0,965.364l-183.43,0l-481.335,-586.114l-0,586.114l-220.601,0l-0,-965.364l184.777,-0l479.988,586.114l0,-586.114l220.601,-0Z" style="fill:url(#_Linear18);fill-rule:nonzero;"/><path d="M9827.11,4422.52l-0,179.39l-747.457,0l-0,-965.364l729.41,-0l-0,179.389l-507.463,0l0,209.558l448.205,-0l0,173.733l-448.205,0l0,223.294l525.51,0Z" style="fill:url(#_Linear19);fill-rule:nonzero;"/><path d="M10619.9,4601.91l-186.124,-268.815l-205.517,0l0,268.815l-223.294,0l-0,-965.364l417.768,-0c85.452,-0 159.726,14.276 222.755,42.827c63.029,28.417 111.513,68.82 145.451,121.209c34.074,52.457 51.178,114.476 51.178,186.124c-0,71.85 -17.239,133.734 -51.716,185.585c-34.478,51.918 -83.433,91.715 -146.798,119.324l216.291,310.295l-239.994,0Zm-4.041,-615.204c0,-54.208 -17.508,-95.755 -52.524,-124.711c-34.881,-28.888 -85.856,-43.366 -152.993,-43.366l-182.083,0l0,336.423l182.083,0c67.137,0 118.112,-14.68 152.993,-44.174c35.016,-29.427 52.524,-70.84 52.524,-124.172Z" style="fill:url(#_Linear20);fill-rule:nonzero;"/><path d="M11335.8,4618.34c-76.362,-0 -150.165,-10.37 -221.409,-30.976c-71.312,-20.605 -128.617,-47.474 -171.848,-80.537l75.958,-168.346c41.278,30.37 90.368,54.814 147.337,73.264c57.103,18.316 114.206,27.474 171.309,27.474c63.365,0 110.233,-9.427 140.602,-28.282c30.303,-18.854 45.521,-43.904 45.521,-75.149c0,-22.963 -9.023,-42.02 -26.935,-57.103c-17.98,-15.219 -40.942,-27.475 -68.955,-36.633c-28.013,-9.292 -65.924,-19.46 -113.667,-30.437c-73.668,-17.373 -133.869,-34.814 -180.737,-52.254c-46.867,-17.576 -87.136,-45.656 -120.67,-84.308c-33.602,-38.585 -50.369,-90.032 -50.369,-154.34c-0,-56.16 15.151,-107.001 45.52,-152.454c30.303,-45.386 76.026,-81.412 137.102,-108.011c61.21,-26.733 135.889,-40.134 224.102,-40.134c61.547,0 121.815,7.407 180.736,22.087c58.854,14.545 110.436,35.69 154.61,63.298l-68.955,169.693c-89.291,-50.638 -178.514,-75.957 -267.738,-75.957c-62.49,-0 -108.751,10.168 -138.717,30.437c-29.831,20.134 -44.713,46.8 -44.713,79.998c0,33.063 17.239,57.641 51.716,73.803c34.477,16.026 87.136,31.783 158.111,47.406c73.399,17.643 133.599,35.151 180.467,52.524c46.868,17.441 87.069,44.982 120.671,82.692c33.534,37.709 50.369,88.752 50.369,152.993c-0,55.352 -15.488,105.721 -46.329,151.107c-30.706,45.454 -76.901,81.547 -138.448,108.28c-61.615,26.532 -136.495,39.865 -224.641,39.865Z" style="fill:url(#_Linear21);fill-rule:nonzero;"/><g><g><g><g><g><rect x="1170.31" y="4394.57" width="1068.25" height="200.326" style="fill:url(#_Linear22);fill-rule:nonzero;"/><rect x="1298.7" y="4753.32" width="811.458" height="200.326" style="fill:url(#_Linear23);fill-rule:nonzero;"/><rect x="1453.78" y="5112.04" width="501.194" height="200.347" style="fill:url(#_Linear24);fill-rule:nonzero;"/></g><path d="M1687.59,291.211c56.684,-21.68 97.179,-76.237 97.179,-140.56c0.13,-83.008 -67.535,-150.651 -150.651,-150.651c-83.138,0 -150.803,67.643 -150.803,150.781c-0,64.193 40.494,118.859 97.309,140.538c16.688,6.446 34.657,10.243 53.494,10.243c18.923,0 36.783,-3.927 53.472,-10.351Z" style="fill:url(#_Linear25);fill-rule:nonzero;"/><path d="M2452.34,437.457c56.705,-21.68 97.309,-76.216 97.309,-140.539c-0,-83.138 -67.643,-150.781 -150.781,-150.781c-83.138,0 -150.782,67.643 -150.782,150.781c0,64.193 40.495,118.75 97.179,140.43c16.688,6.424 34.657,10.243 53.472,10.243c19.076,0.109 36.936,-3.689 53.603,-10.134Z" style="fill:url(#_Linear26);fill-rule:nonzero;"/><path d="M1206.64,392.925c56.684,-21.679 97.309,-76.237 97.309,-140.56c-0,-83.116 -67.644,-150.781 -150.782,-150.781c-83.138,0 -150.781,67.665 -150.781,150.781c0,64.215 40.495,118.881 97.179,140.56c16.667,6.424 34.657,10.243 53.472,10.243c19.054,0 36.936,-3.819 53.603,-10.243Z" style="fill:url(#_Linear27);fill-rule:nonzero;"/><path d="M1514.41,2019.4c59.548,-20.139 102.778,-75.998 102.778,-142.209c-0,-83.138 -67.644,-150.781 -150.782,-150.781c-83.138,-0 -150.781,67.643 -150.781,150.781c0,62.174 37.869,115.647 91.71,138.628c18.099,7.748 38.108,12.153 59.071,12.153c16.906,0 32.878,-3.45 48.004,-8.572Z" style="fill:url(#_Linear28);fill-rule:nonzero;"/><path d="M2793.1,742.122c16.688,6.446 34.657,10.243 53.602,10.243c83.138,0 150.782,-67.643 150.782,-150.781c-0,-83.138 -67.644,-150.781 -150.782,-150.781c-83.138,-0 -150.781,67.643 -150.781,150.781c0,24.892 6.662,48.112 17.383,68.837c16.905,32.769 45.139,58.485 79.796,71.701Z" style="fill:url(#_Linear29);fill-rule:nonzero;"/><path d="M2067.17,1368.86c95.16,-36.806 162.825,-128.516 162.825,-236.654c0,-140.43 -113.867,-254.297 -254.297,-254.297c-140.429,-0 -254.296,113.867 -254.296,254.297c-0,109.809 69.921,202.474 167.469,238.086c27.279,10.004 56.207,16.189 86.936,16.189c32.292,0 62.891,-6.662 91.363,-17.621Zm-91.472,-328.125c50.5,-0 91.472,40.972 91.472,91.471c-0,50.499 -40.972,91.471 -91.472,91.471c-50.499,0 -91.471,-40.972 -91.471,-91.471c0,-50.499 40.972,-91.471 91.471,-91.471Z" style="fill:url(#_Linear30);fill-rule:nonzero;"/><path d="M1474.39,2867.53c19.64,-36.09 31.793,-76.823 31.793,-120.769c-0,-140.429 -113.867,-254.275 -254.275,-254.275c-140.43,0 -254.297,113.846 -254.297,254.275c-0,140.43 113.867,254.297 254.297,254.297c30.837,0 60.134,-6.315 87.413,-16.449c58.246,-21.311 105.772,-63.13 135.069,-117.079Zm-313.954,-120.638c0,-50.499 40.951,-91.472 91.472,-91.472c50.499,0 91.471,40.973 91.471,91.472c0,50.499 -40.972,91.471 -91.471,91.471c-50.521,0 -91.472,-40.972 -91.472,-91.471Z" style="fill:url(#_Linear31);fill-rule:nonzero;"/><path d="M2713.3,670.551l-260.959,260.959l-0,-494.053c-16.667,6.445 -34.657,10.243 -53.472,10.243c-18.946,-0 -36.806,-3.928 -53.473,-10.243l0,888.758l-277.994,277.995l-0,-235.59c-28.581,11.068 -59.31,17.99 -91.711,17.99c-30.729,0 -59.309,-6.315 -86.935,-16.449l-0,487.847l-201.064,-201.042l0,-1365.76c-16.666,6.424 -34.657,10.243 -53.472,10.243c-18.945,-0 -36.805,-3.928 -53.472,-10.243l-0,608.377l-373.872,-373.872l0,-132.791c-16.666,6.424 -34.657,10.243 -53.472,10.243c-18.945,0 -36.805,-3.928 -53.494,-10.243l0,177.105l480.946,480.947l0,650.303l273.46,273.46l-205.317,205.338l-134.245,-134.245l-0,-26.54c-15.126,5.121 -31.076,8.572 -48.004,8.572c-20.963,-0 -40.972,-4.297 -59.071,-12.153l0,74.436l214.627,214.626l0,710.46l-147.569,-147.808c-29.297,53.82 -76.823,95.747 -135.07,117.188l282.639,282.877l0,986.893l178.668,-0l-0,-1973.55l266.666,-267.144l0,-258.117l385.07,-385.047l-0,-287.652l340.625,-340.625c-34.896,-13.347 -63.13,-39.063 -80.035,-71.702Z" style="fill:url(#_Linear32);fill-rule:nonzero;"/><path d="M3252.13,1058.59c-83.138,-0 -150.782,67.643 -150.782,150.781c0,64.193 40.495,118.859 97.179,140.538l0,610.048l-316.558,316.58l0,-612.435c97.895,-35.373 168.164,-128.277 168.164,-238.325c0,-140.408 -113.867,-254.275 -254.297,-254.275c-140.408,0 -254.275,113.867 -254.275,254.275c0,107.791 67.296,199.393 161.871,236.437c12.022,4.752 24.522,8.572 37.391,11.545c-12.869,-2.865 -25.369,-6.662 -37.391,-11.306l-0,999.739l-247.027,-247.005l-0,-373.763c50.13,-24.414 85.156,-75.26 85.156,-134.809c0,-83.138 -67.643,-150.803 -150.781,-150.803c-83.138,-0 -150.781,67.665 -150.781,150.803c-0,64.193 40.494,118.858 97.287,140.538c3.819,1.432 7.986,2.257 12.044,3.451l0,408.528l349.913,349.913l-253.32,221.55l-339.323,-338.846l0,-136.979c1.411,-0.477 3.082,-0.716 4.514,-1.302c56.706,-21.679 97.201,-76.237 97.201,-140.56c-0,-83.116 -67.665,-150.781 -150.803,-150.781c-83.117,0 -150.782,67.665 -150.782,150.781c0,62.414 38.477,115.539 92.665,138.282l0,184.505l365.3,365.278l-321.224,280.967l-0,872.57l178.646,-0l-0,-791.45l269.292,-235.351l81.12,-70.508l252.865,-221.528l56.684,-49.327l-0,-458.42l423.524,-423.546l-0,-654.341c56.706,-21.679 97.2,-76.237 97.2,-140.559c0.109,-83.247 -67.534,-150.89 -150.672,-150.89Zm-547.635,367.079c0,-50.499 40.972,-91.472 91.472,-91.472c50.499,0 91.471,40.973 91.471,91.472c-0,50.499 -40.972,91.471 -91.471,91.471c-50.5,0 -91.472,-40.864 -91.472,-91.471Z" style="fill:url(#_Linear33);fill-rule:nonzero;"/><path d="M1087.65,2425.2l178.667,-179.145l0,-529.297c98.026,-35.243 168.533,-128.276 168.533,-238.433c0,-140.429 -113.867,-254.297 -254.296,-254.297c-140.43,0 -254.276,113.868 -254.276,254.297c0,107.552 67.036,199.132 161.502,236.177l0,140.907l-516.927,-516.927l407.227,-407.205c2.625,1.193 5.36,2.495 8.094,3.45c16.558,6.315 34.31,10.135 52.995,10.135c83.138,-0 150.803,-67.665 150.803,-150.803c-0.13,-83.247 -67.665,-150.89 -150.803,-150.89c-83.116,0 -150.781,67.643 -150.781,150.781c-0,22.027 5.251,42.752 13.932,61.567l-353.602,353.624l-0,-417.1c56.684,-21.68 97.178,-76.237 97.178,-140.539c0,-83.138 -67.643,-150.781 -150.781,-150.781c-83.138,0 -150.781,67.643 -150.781,150.781c-0,64.193 40.495,118.75 97.179,140.539l-0,568.489l646.137,646.137l-0,166.146l-280.36,281.445l-146.376,145.79l-0.13,0.109l-0,-433.898c93.381,-37.63 159.353,-128.754 159.353,-235.59c-0,-140.408 -113.846,-254.275 -254.275,-254.275c-140.43,-0 -254.297,113.867 -254.297,254.275c-0,111.133 71.701,204.514 170.92,239.171l-0,131.597l-268.229,-268.207l-0,-692.47c51.454,-24.067 87.305,-75.868 87.305,-136.263c-0,-83.138 -67.644,-150.781 -150.782,-150.781c-83.138,-0 -150.781,67.643 -150.781,150.781c0,67.882 45.378,124.827 107.183,143.642l0,729.514l375.304,375.282l-0,313.259l683.42,683.42l0,805.144l178.407,-0l0,-879.124l-603.255,-603.255l191.884,-192.361l154.709,-154.818Zm92.904,-1038.48c50.499,-0 91.471,40.972 91.471,91.471c-0,50.499 -40.972,91.471 -91.471,91.471c-50.5,0 -91.472,-40.972 -91.472,-91.471c0,-50.499 40.972,-91.471 91.472,-91.471Zm-617.318,622.569c-50.499,0 -91.472,-40.972 -91.472,-91.493c0,-50.499 40.973,-91.471 91.472,-91.471c50.499,-0 91.471,40.972 91.471,91.471c0,50.521 -40.972,91.493 -91.471,91.493Z" style="fill:url(#_Linear34);fill-rule:nonzero;"/></g></g></g></g></g><defs><linearGradient id="_Linear1" x1="0" y1="0" x2="1" y2="0" gradientUnits="userSpaceOnUse" gradientTransform="matrix(7711.14,0,0,7711.14,4034.05,2656.2)"><stop offset="0" style="stop-color:#4f46e5;stop-opacity:1"/><stop offset="1" style="stop-color:#c026d3;stop-opacity:1"/></linearGradient><linearGradient id="_Linear2" x1="0" y1="0" x2="1" y2="0" gradientUnits="userSpaceOnUse" gradientTransform="matrix(7711.14,0,0,7711.14,4034.05,2656.2)"><stop offset="0" style="stop-color:#4f46e5;stop-opacity:1"/><stop offset="1" style="stop-color:#c026d3;stop-opacity:1"/></linearGradient><linearGradient id="_Linear3" x1="0" y1="0" x2="1" y2="0" gradientUnits="userSpaceOnUse" gradientTransform="matrix(7711.14,0,0,7711.14,4034.05,2656.2)"><stop offset="0" style="stop-color:#4f46e5;stop-opacity:1"/><stop offset="1" style="stop-color:#c026d3;stop-opacity:1"/></linearGradient><linearGradient id="_Linear4" x1="0" y1="0" x2="1" y2="0" gradientUnits="userSpaceOnUse" gradientTransform="matrix(7711.14,0,0,7711.14,4034.05,2656.2)"><stop offset="0" style="stop-color:#4f46e5;stop-opacity:1"/><stop offset="1" style="stop-color:#c026d3;stop-opacity:1"/></linearGradient><linearGradient id="_Linear5" x1="0" y1="0" x2="1" y2="0" gradientUnits="userSpaceOnUse" gradientTransform="matrix(7711.14,0,0,7711.14,4034.05,2656.2)"><stop offset="0" style="stop-color:#4f46e5;stop-opacity:1"/><stop offset="1" style="stop-color:#c026d3;stop-opacity:1"/></linearGradient><linearGradient id="_Linear6" x1="0" y1="0" x2="1" y2="0" gradientUnits="userSpaceOnUse" gradientTransform="matrix(7711.14,0,0,7711.14,4034.05,2656.2)"><stop offset="0" style="stop-color:#4f46e5;stop-opacity:1"/><stop offset="1" style="stop-color:#c026d3;stop-opacity:1"/></linearGradient><linearGradient id="_Linear7" x1="0" y1="0" x2="1" y2="0" gradientUnits="userSpaceOnUse" gradientTransform="matrix(7711.14,0,0,7711.14,4034.05,2656.2)"><stop offset="0" style="stop-color:#4f46e5;stop-opacity:1"/><stop offset="1" style="stop-color:#c026d3;stop-opacity:1"/></linearGradient><linearGradient id="_Linear8" x1="0" y1="0" x2="1" y2="0" gradientUnits="userSpaceOnUse" gradientTransform="matrix(7711.14,0,0,7711.14,4034.05,2656.2)"><stop offset="0" style="stop-color:#4f46e5;stop-opacity:1"/><stop offset="1" style="stop-color:#c026d3;stop-opacity:1"/></linearGradient><linearGradient id="_Linear9" x1="0" y1="0" x2="1" y2="0" gradientUnits="userSpaceOnUse" gradientTransform="matrix(7711.14,0,0,7711.14,4034.05,2656.2)"><stop offset="0" style="stop-color:#4f46e5;stop-opacity:1"/><stop offset="1" style="stop-color:#c026d3;stop-opacity:1"/></linearGradient><linearGradient id="_Linear10" x1="0" y1="0" x2="1" y2="0" gradientUnits="userSpaceOnUse" gradientTransform="matrix(7711.14,0,0,7711.14,4034.05,2656.2)"><stop offset="0" style="stop-color:#4f46e5;stop-opacity:1"/><stop offset="1" style="stop-color:#c026d3;stop-opacity:1"/></linearGradient><linearGradient id="_Linear11" x1="0" y1="0" x2="1" y2="0" gradientUnits="userSpaceOnUse" gradientTransform="matrix(7711.14,0,0,7711.14,4034.05,2656.2)"><stop offset="0" style="stop-color:#4f46e5;stop-opacity:1"/><stop offset="1" style="stop-color:#c026d3;stop-opacity:1"/></linearGradient><linearGradient id="_Linear12" x1="0" y1="0" x2="1" y2="0" gradientUnits="userSpaceOnUse" gradientTransform="matrix(7711.14,0,0,7711.14,4034.05,2656.2)"><stop offset="0" style="stop-color:#4f46e5;stop-opacity:1"/><stop offset="1" style="stop-color:#c026d3;stop-opacity:1"/></linearGradient><linearGradient id="_Linear13" x1="0" y1="0" x2="1" y2="0" gradientUnits="userSpaceOnUse" gradientTransform="matrix(7711.14,0,0,7711.14,4034.05,2656.2)"><stop offset="0" style="stop-color:#4f46e5;stop-opacity:1"/><stop offset="1" style="stop-color:#c026d3;stop-opacity:1"/></linearGradient><linearGradient id="_Linear14" x1="0" y1="0" x2="1" y2="0" gradientUnits="userSpaceOnUse" gradientTransform="matrix(7711.14,0,0,7711.14,4034.05,2656.2)"><stop offset="0" style="stop-color:#4f46e5;stop-opacity:1"/><stop offset="1" style="stop-color:#c026d3;stop-opacity:1"/></linearGradient><linearGradient id="_Linear15" x1="0" y1="0" x2="1" y2="0" gradientUnits="userSpaceOnUse" gradientTransform="matrix(7711.14,0,0,7711.14,4034.05,2656.2)"><stop offset="0" style="stop-color:#4f46e5;stop-opacity:1"/><stop offset="1" style="stop-color:#c026d3;stop-opacity:1"/></linearGradient><linearGradient id="_Linear16" x1="0" y1="0" x2="1" y2="0" gradientUnits="userSpaceOnUse" gradientTransform="matrix(7711.14,0,0,7711.14,4034.05,2656.2)"><stop offset="0" style="stop-color:#4f46e5;stop-opacity:1"/><stop offset="1" style="stop-color:#c026d3;stop-opacity:1"/></linearGradient><linearGradient id="_Linear17" x1="0" y1="0" x2="1" y2="0" gradientUnits="userSpaceOnUse" gradientTransform="matrix(7711.14,0,0,7711.14,4034.05,2656.2)"><stop offset="0" style="stop-color:#4f46e5;stop-opacity:1"/><stop offset="1" style="stop-color:#c026d3;stop-opacity:1"/></linearGradient><linearGradient id="_Linear18" x1="0" y1="0" x2="1" y2="0" gradientUnits="userSpaceOnUse" gradientTransform="matrix(7711.14,0,0,7711.14,4034.05,2656.2)"><stop offset="0" style="stop-color:#4f46e5;stop-opacity:1"/><stop offset="1" style="stop-color:#c026d3;stop-opacity:1"/></linearGradient><linearGradient id="_Linear19" x1="0" y1="0" x2="1" y2="0" gradientUnits="userSpaceOnUse" gradientTransform="matrix(7711.14,0,0,7711.14,4034.05,2656.2)"><stop offset="0" style="stop-color:#4f46e5;stop-opacity:1"/><stop offset="1" style="stop-color:#c026d3;stop-opacity:1"/></linearGradient><linearGradient id="_Linear20" x1="0" y1="0" x2="1" y2="0" gradientUnits="userSpaceOnUse" gradientTransform="matrix(7711.14,0,0,7711.14,4034.05,2656.2)"><stop offset="0" style="stop-color:#4f46e5;stop-opacity:1"/><stop offset="1" style="stop-color:#c026d3;stop-opacity:1"/></linearGradient><linearGradient id="_Linear21" x1="0" y1="0" x2="1" y2="0" gradientUnits="userSpaceOnUse" gradientTransform="matrix(7711.14,0,0,7711.14,4034.05,2656.2)"><stop offset="0" style="stop-color:#4f46e5;stop-opacity:1"/><stop offset="1" style="stop-color:#c026d3;stop-opacity:1"/></linearGradient><linearGradient id="_Linear22" x1="0" y1="0" x2="1" y2="0" gradientUnits="userSpaceOnUse" gradientTransform="matrix(3.2529e-13,-5312.39,5312.39,3.2529e-13,1701.4,5312.39)"><stop offset="0" style="stop-color:#c026d3;stop-opacity:1"/><stop offset="1" style="stop-color:#4f46e5;stop-opacity:1"/></linearGradient><linearGradient id="_Linear23" x1="0" y1="0" x2="1" y2="0" gradientUnits="userSpaceOnUse" gradientTransform="matrix(3.2529e-13,-5312.39,5312.39,3.2529e-13,1701.4,5312.39)"><stop offset="0" style="stop-color:#c026d3;stop-opacity:1"/><stop offset="1" style="stop-color:#4f46e5;stop-opacity:1"/></linearGradient><linearGradient id="_Linear24" x1="0" y1="0" x2="1" y2="0" gradientUnits="userSpaceOnUse" gradientTransform="matrix(3.2529e-13,-5312.39,5312.39,3.2529e-13,1701.4,5312.39)"><stop offset="0" style="stop-color:#c026d3;stop-opacity:1"/><stop offset="1" style="stop-color:#4f46e5;stop-opacity:1"/></linearGradient><linearGradient id="_Linear25" x1="0" y1="0" x2="1" y2="0" gradientUnits="userSpaceOnUse" gradientTransform="matrix(3.2529e-13,-5312.39,5312.39,3.2529e-13,1701.4,5312.39)"><stop offset="0" style="stop-color:#c026d3;stop-opacity:1"/><stop offset="1" style="stop-color:#4f46e5;stop-opacity:1"/></linearGradient><linearGradient id="_Linear26" x1="0" y1="0" x2="1" y2="0" gradientUnits="userSpaceOnUse" gradientTransform="matrix(3.2529e-13,-5312.39,5312.39,3.2529e-13,1701.4,5312.39)"><stop offset="0" style="stop-color:#c026d3;stop-opacity:1"/><stop offset="1" style="stop-color:#4f46e5;stop-opacity:1"/></linearGradient><linearGradient id="_Linear27" x1="0" y1="0" x2="1" y2="0" gradientUnits="userSpaceOnUse" gradientTransform="matrix(3.2529e-13,-5312.39,5312.39,3.2529e-13,1701.4,5312.39)"><stop offset="0" style="stop-color:#c026d3;stop-opacity:1"/><stop offset="1" style="stop-color:#4f46e5;stop-opacity:1"/></linearGradient><linearGradient id="_Linear28" x1="0" y1="0" x2="1" y2="0" gradientUnits="userSpaceOnUse" gradientTransform="matrix(3.2529e-13,-5312.39,5312.39,3.2529e-13,1701.4,5312.39)"><stop offset="0" style="stop-color:#c026d3;stop-opacity:1"/><stop offset="1" style="stop-color:#4f46e5;stop-opacity:1"/></linearGradient><linearGradient id="_Linear29" x1="0" y1="0" x2="1" y2="0" gradientUnits="userSpaceOnUse" gradientTransform="matrix(3.2529e-13,-5312.39,5312.39,3.2529e-13,1701.4,5312.39)"><stop offset="0" style="stop-color:#c026d3;stop-opacity:1"/><stop offset="1" style="stop-color:#4f46e5;stop-opacity:1"/></linearGradient><linearGradient id="_Linear30" x1="0" y1="0" x2="1" y2="0" gradientUnits="userSpaceOnUse" gradientTransform="matrix(3.2529e-13,-5312.39,5312.39,3.2529e-13,1701.4,5312.39)"><stop offset="0" style="stop-color:#c026d3;stop-opacity:1"/><stop offset="1" style="stop-color:#4f46e5;stop-opacity:1"/></linearGradient><linearGradient id="_Linear31" x1="0" y1="0" x2="1" y2="0" gradientUnits="userSpaceOnUse" gradientTransform="matrix(3.2529e-13,-5312.39,5312.39,3.2529e-13,1701.4,5312.39)"><stop offset="0" style="stop-color:#c026d3;stop-opacity:1"/><stop offset="1" style="stop-color:#4f46e5;stop-opacity:1"/></linearGradient><linearGradient id="_Linear32" x1="0" y1="0" x2="1" y2="0" gradientUnits="userSpaceOnUse" gradientTransform="matrix(3.2529e-13,-5312.39,5312.39,3.2529e-13,1701.4,5312.39)"><stop offset="0" style="stop-color:#c026d3;stop-opacity:1"/><stop offset="1" style="stop-color:#4f46e5;stop-opacity:1"/></linearGradient><linearGradient id="_Linear33" x1="0" y1="0" x2="1" y2="0" gradientUnits="userSpaceOnUse" gradientTransform="matrix(3.2529e-13,-5312.39,5312.39,3.2529e-13,1701.4,5312.39)"><stop offset="0" style="stop-color:#c026d3;stop-opacity:1"/><stop offset="1" style="stop-color:#4f46e5;stop-opacity:1"/></linearGradient><linearGradient id="_Linear34" x1="0" y1="0" x2="1" y2="0" gradientUnits="userSpaceOnUse" gradientTransform="matrix(3.2529e-13,-5312.39,5312.39,3.2529e-13,1701.4,5312.39)"><stop offset="0" style="stop-color:#c026d3;stop-opacity:1"/><stop offset="1" style="stop-color:#4f46e5;stop-opacity:1"/></linearGradient></defs></svg>
