<svg xmlns="http://www.w3.org/2000/svg" xmlns:xlink="http://www.w3.org/1999/xlink" width="2000" zoomAndPan="magnify" viewBox="0 0 1500 1499.999933" height="2000" preserveAspectRatio="xMidYMid meet" version="1.0"><defs><clipPath id="8bc552435b"><path d="M 450 792 L 1050 792 L 1050 1014 L 450 1014 Z M 450 792 " clip-rule="nonzero"/></clipPath></defs><g clip-path="url(#8bc552435b)"><path fill="#4f46e5" d="M 1049.507812 792.324219 L 1049.507812 969.082031 C 1049.507812 970.527344 1049.4375 971.96875 1049.296875 973.40625 C 1049.15625 974.84375 1048.945312 976.269531 1048.660156 977.683594 C 1048.378906 979.101562 1048.03125 980.5 1047.609375 981.882812 C 1047.191406 983.265625 1046.707031 984.621094 1046.152344 985.957031 C 1045.601562 987.289062 1044.984375 988.59375 1044.300781 989.867188 C 1043.621094 991.140625 1042.878906 992.378906 1042.078125 993.578125 C 1041.277344 994.78125 1040.417969 995.9375 1039.5 997.054688 C 1038.585938 998.171875 1037.617188 999.238281 1036.59375 1000.261719 C 1035.574219 1001.28125 1034.503906 1002.25 1033.390625 1003.167969 C 1032.273438 1004.082031 1031.113281 1004.941406 1029.914062 1005.742188 C 1028.710938 1006.546875 1027.476562 1007.289062 1026.203125 1007.96875 C 1024.929688 1008.648438 1023.625 1009.265625 1022.289062 1009.820312 C 1020.957031 1010.371094 1019.597656 1010.855469 1018.214844 1011.277344 C 1016.835938 1011.695312 1015.433594 1012.046875 1014.019531 1012.328125 C 1012.601562 1012.609375 1011.175781 1012.820312 1009.738281 1012.960938 C 1008.300781 1013.105469 1006.863281 1013.175781 1005.417969 1013.175781 L 493.601562 1013.175781 C 492.15625 1013.175781 490.714844 1013.105469 489.277344 1012.960938 C 487.84375 1012.820312 486.414062 1012.609375 485 1012.328125 C 483.582031 1012.046875 482.183594 1011.695312 480.800781 1011.277344 C 479.417969 1010.855469 478.0625 1010.371094 476.726562 1009.820312 C 475.394531 1009.265625 474.089844 1008.648438 472.816406 1007.96875 C 471.542969 1007.289062 470.304688 1006.546875 469.105469 1005.746094 C 467.902344 1004.941406 466.746094 1004.082031 465.628906 1003.167969 C 464.511719 1002.25 463.445312 1001.28125 462.421875 1000.261719 C 461.402344 999.238281 460.433594 998.171875 459.515625 997.054688 C 458.601562 995.9375 457.742188 994.78125 456.941406 993.578125 C 456.136719 992.378906 455.394531 991.140625 454.714844 989.867188 C 454.035156 988.59375 453.417969 987.289062 452.867188 985.957031 C 452.3125 984.621094 451.828125 983.265625 451.40625 981.882812 C 450.988281 980.5 450.636719 979.101562 450.355469 977.683594 C 450.074219 976.269531 449.863281 974.84375 449.722656 973.40625 C 449.578125 971.96875 449.507812 970.527344 449.507812 969.082031 L 449.507812 792.324219 L 678.902344 792.324219 C 679.101562 794.5 679.402344 796.667969 679.800781 798.816406 C 680.199219 800.964844 680.699219 803.09375 681.292969 805.199219 C 681.890625 807.300781 682.582031 809.375 683.371094 811.414062 C 684.160156 813.453125 685.039062 815.453125 686.011719 817.414062 C 686.984375 819.371094 688.046875 821.28125 689.199219 823.140625 C 690.347656 825 691.582031 826.804688 692.898438 828.550781 C 694.214844 830.296875 695.609375 831.980469 697.082031 833.597656 C 698.554688 835.214844 700.097656 836.761719 701.710938 838.234375 C 703.328125 839.707031 705.007812 841.105469 706.753906 842.425781 C 708.496094 843.742188 710.296875 844.980469 712.15625 846.132812 C 714.015625 847.285156 715.925781 848.347656 717.882812 849.324219 C 719.839844 850.296875 721.835938 851.179688 723.875 851.972656 C 725.917969 852.761719 727.988281 853.457031 730.089844 854.058594 C 732.195312 854.65625 734.320312 855.15625 736.46875 855.558594 C 738.621094 855.960938 740.785156 856.261719 742.960938 856.464844 C 745.140625 856.667969 747.320312 856.769531 749.507812 856.769531 C 751.695312 856.769531 753.878906 856.667969 756.054688 856.464844 C 758.234375 856.261719 760.398438 855.960938 762.546875 855.558594 C 764.695312 855.15625 766.824219 854.65625 768.925781 854.058594 C 771.03125 853.457031 773.101562 852.761719 775.140625 851.972656 C 777.179688 851.179688 779.179688 850.296875 781.136719 849.324219 C 783.09375 848.347656 785 847.285156 786.859375 846.132812 C 788.71875 844.980469 790.519531 843.742188 792.265625 842.425781 C 794.011719 841.105469 795.691406 839.707031 797.304688 838.234375 C 798.921875 836.761719 800.464844 835.214844 801.9375 833.597656 C 803.410156 831.980469 804.804688 830.296875 806.121094 828.550781 C 807.4375 826.804688 808.671875 825 809.820312 823.140625 C 810.96875 821.28125 812.03125 819.371094 813.003906 817.414062 C 813.976562 815.453125 814.859375 813.453125 815.648438 811.414062 C 816.433594 809.375 817.125 807.300781 817.722656 805.199219 C 818.320312 803.09375 818.816406 800.964844 819.214844 798.816406 C 819.617188 796.667969 819.914062 794.5 820.113281 792.324219 Z M 1049.507812 792.324219 " fill-opacity="1" fill-rule="nonzero"/></g><path fill="#4f46e5" d="M 798.609375 718.085938 L 798.609375 785.941406 C 798.757812 788.132812 798.757812 790.328125 798.609375 792.519531 C 798.421875 793.988281 798.167969 795.441406 797.851562 796.886719 C 797.535156 798.328125 797.152344 799.753906 796.703125 801.164062 C 796.257812 802.574219 795.746094 803.960938 795.175781 805.324219 C 794.605469 806.6875 793.972656 808.019531 793.277344 809.328125 C 792.585938 810.632812 791.835938 811.90625 791.027344 813.144531 C 790.222656 814.382812 789.359375 815.582031 788.441406 816.742188 C 787.527344 817.902344 786.5625 819.019531 785.542969 820.09375 C 784.527344 821.164062 783.464844 822.191406 782.355469 823.167969 C 781.246094 824.144531 780.09375 825.070312 778.902344 825.941406 C 777.707031 826.816406 776.480469 827.632812 775.210938 828.394531 C 773.945312 829.15625 772.648438 829.859375 771.316406 830.503906 C 769.988281 831.152344 768.628906 831.734375 767.246094 832.257812 C 765.863281 832.777344 764.460938 833.238281 763.035156 833.632812 C 761.609375 834.027344 760.171875 834.359375 758.71875 834.625 C 757.261719 834.890625 755.800781 835.089844 754.328125 835.222656 C 752.855469 835.355469 751.378906 835.421875 749.902344 835.421875 C 748.421875 835.421875 746.949219 835.355469 745.476562 835.222656 C 744.003906 835.089844 742.539062 834.890625 741.085938 834.625 C 739.632812 834.359375 738.191406 834.027344 736.769531 833.632812 C 735.34375 833.238281 733.941406 832.777344 732.558594 832.257812 C 731.171875 831.734375 729.816406 831.152344 728.488281 830.503906 C 727.15625 829.859375 725.859375 829.15625 724.589844 828.394531 C 723.324219 827.632812 722.09375 826.816406 720.902344 825.941406 C 719.707031 825.070312 718.558594 824.144531 717.449219 823.167969 C 716.339844 822.191406 715.277344 821.164062 714.257812 820.09375 C 713.242188 819.019531 712.277344 817.902344 711.359375 816.742188 C 710.445312 815.582031 709.582031 814.382812 708.773438 813.144531 C 707.96875 811.90625 707.21875 810.632812 706.523438 809.328125 C 705.832031 808.019531 705.199219 806.6875 704.628906 805.324219 C 704.054688 803.960938 703.546875 802.574219 703.097656 801.164062 C 702.652344 799.753906 702.269531 798.328125 701.953125 796.886719 C 701.632812 795.441406 701.382812 793.988281 701.195312 792.519531 C 700.878906 790.339844 700.71875 788.144531 700.703125 785.941406 L 700.703125 718.085938 C 700.703125 717.273438 700.78125 716.46875 700.941406 715.671875 C 701.101562 714.875 701.335938 714.101562 701.644531 713.351562 C 701.957031 712.597656 702.335938 711.886719 702.789062 711.210938 C 703.242188 710.535156 703.753906 709.910156 704.328125 709.335938 C 704.902344 708.761719 705.527344 708.25 706.203125 707.796875 C 706.878906 707.347656 707.589844 706.964844 708.34375 706.652344 C 709.09375 706.34375 709.867188 706.109375 710.664062 705.949219 C 711.460938 705.792969 712.265625 705.710938 713.078125 705.710938 L 786.726562 705.710938 C 787.519531 705.742188 788.300781 705.851562 789.070312 706.03125 C 789.839844 706.210938 790.589844 706.464844 791.3125 706.789062 C 792.035156 707.117188 792.71875 707.507812 793.367188 707.964844 C 794.011719 708.417969 794.613281 708.933594 795.160156 709.503906 C 795.707031 710.078125 796.199219 710.695312 796.628906 711.359375 C 797.058594 712.027344 797.421875 712.726562 797.714844 713.460938 C 798.011719 714.195312 798.234375 714.953125 798.382812 715.730469 C 798.535156 716.507812 798.609375 717.292969 798.609375 718.085938 Z M 798.609375 718.085938 " fill-opacity="1" fill-rule="nonzero"/><path fill="#4f46e5" d="M 1005.417969 610.65625 L 896.808594 610.65625 L 896.808594 557.039062 C 896.808594 555.878906 896.777344 554.722656 896.71875 553.566406 C 896.660156 552.410156 896.574219 551.253906 896.460938 550.101562 C 896.34375 548.953125 896.203125 547.800781 896.03125 546.65625 C 895.859375 545.511719 895.660156 544.371094 895.433594 543.238281 C 895.207031 542.101562 894.953125 540.972656 894.671875 539.847656 C 894.390625 538.726562 894.082031 537.609375 893.746094 536.503906 C 893.40625 535.394531 893.042969 534.296875 892.652344 533.207031 C 892.265625 532.117188 891.847656 531.035156 891.40625 529.964844 C 890.960938 528.894531 890.492188 527.835938 889.996094 526.789062 C 889.503906 525.742188 888.980469 524.710938 888.4375 523.6875 C 887.890625 522.667969 887.320312 521.660156 886.726562 520.667969 C 886.132812 519.671875 885.511719 518.695312 884.871094 517.730469 C 884.226562 516.769531 883.5625 515.820312 882.875 514.890625 C 882.183594 513.960938 881.472656 513.046875 880.738281 512.152344 C 880.007812 511.253906 879.25 510.378906 878.472656 509.519531 C 877.699219 508.660156 876.902344 507.820312 876.082031 507 C 875.265625 506.179688 874.429688 505.382812 873.570312 504.601562 C 872.714844 503.824219 871.839844 503.066406 870.945312 502.332031 C 870.050781 501.59375 869.140625 500.882812 868.210938 500.1875 C 867.285156 499.496094 866.339844 498.828125 865.378906 498.183594 C 864.414062 497.539062 863.4375 496.917969 862.449219 496.320312 C 861.457031 495.722656 860.449219 495.148438 859.429688 494.601562 C 858.410156 494.054688 857.378906 493.53125 856.332031 493.03125 C 855.285156 492.535156 854.230469 492.0625 853.160156 491.617188 C 852.09375 491.171875 851.015625 490.75 849.925781 490.359375 C 848.835938 489.964844 847.738281 489.597656 846.632812 489.257812 C 845.523438 488.917969 844.410156 488.605469 843.289062 488.320312 C 842.164062 488.035156 841.035156 487.777344 839.902344 487.550781 C 838.765625 487.320312 837.628906 487.117188 836.484375 486.945312 C 835.339844 486.769531 834.191406 486.625 833.039062 486.503906 C 831.886719 486.386719 830.730469 486.296875 829.574219 486.238281 C 828.417969 486.175781 827.261719 486.140625 826.105469 486.136719 L 672.914062 486.136719 C 671.753906 486.140625 670.597656 486.175781 669.441406 486.238281 C 668.285156 486.296875 667.132812 486.386719 665.980469 486.503906 C 664.828125 486.625 663.679688 486.769531 662.535156 486.945312 C 661.390625 487.117188 660.25 487.320312 659.117188 487.550781 C 657.980469 487.777344 656.851562 488.035156 655.730469 488.320312 C 654.609375 488.605469 653.492188 488.917969 652.386719 489.257812 C 651.28125 489.597656 650.183594 489.964844 649.09375 490.359375 C 648.003906 490.75 646.925781 491.171875 645.855469 491.617188 C 644.789062 492.0625 643.730469 492.535156 642.6875 493.03125 C 641.640625 493.53125 640.609375 494.054688 639.585938 494.601562 C 638.566406 495.148438 637.5625 495.722656 636.570312 496.320312 C 635.578125 496.917969 634.601562 497.539062 633.640625 498.183594 C 632.679688 498.828125 631.734375 499.496094 630.804688 500.1875 C 629.875 500.882812 628.964844 501.59375 628.070312 502.332031 C 627.179688 503.066406 626.304688 503.824219 625.445312 504.601562 C 624.589844 505.382812 623.753906 506.179688 622.933594 507 C 622.117188 507.820312 621.320312 508.660156 620.542969 509.519531 C 619.765625 510.378906 619.011719 511.253906 618.277344 512.152344 C 617.542969 513.046875 616.832031 513.960938 616.144531 514.890625 C 615.457031 515.820312 614.789062 516.769531 614.148438 517.730469 C 613.503906 518.695312 612.886719 519.671875 612.292969 520.667969 C 611.695312 521.660156 611.125 522.667969 610.582031 523.6875 C 610.035156 524.710938 609.515625 525.742188 609.019531 526.789062 C 608.527344 527.835938 608.058594 528.894531 607.613281 529.964844 C 607.171875 531.035156 606.753906 532.117188 606.363281 533.207031 C 605.972656 534.296875 605.609375 535.394531 605.273438 536.503906 C 604.9375 537.609375 604.628906 538.726562 604.347656 539.847656 C 604.0625 540.972656 603.808594 542.101562 603.582031 543.238281 C 603.355469 544.371094 603.15625 545.511719 602.988281 546.65625 C 602.816406 547.800781 602.671875 548.953125 602.558594 550.101562 C 602.445312 551.253906 602.355469 552.410156 602.300781 553.566406 C 602.242188 554.722656 602.210938 555.878906 602.210938 557.039062 L 602.210938 610.65625 L 494.191406 610.65625 C 492.746094 610.652344 491.308594 610.71875 489.871094 610.855469 C 488.433594 610.996094 487.007812 611.203125 485.59375 611.484375 C 484.175781 611.761719 482.777344 612.109375 481.398438 612.527344 C 480.015625 612.941406 478.65625 613.425781 477.324219 613.976562 C 475.988281 614.523438 474.6875 615.140625 473.414062 615.816406 C 472.140625 616.496094 470.902344 617.234375 469.703125 618.035156 C 468.5 618.835938 467.339844 619.691406 466.226562 620.605469 C 465.109375 621.519531 464.039062 622.484375 463.019531 623.503906 C 461.996094 624.523438 461.027344 625.589844 460.113281 626.707031 C 459.195312 627.820312 458.335938 628.976562 457.53125 630.175781 C 456.730469 631.375 455.988281 632.609375 455.308594 633.882812 C 454.625 635.15625 454.007812 636.457031 453.457031 637.789062 C 452.902344 639.121094 452.417969 640.480469 451.996094 641.859375 C 451.578125 643.242188 451.226562 644.636719 450.945312 646.054688 C 450.664062 647.46875 450.453125 648.894531 450.3125 650.328125 C 450.167969 651.765625 450.097656 653.207031 450.097656 654.648438 L 450.097656 736.449219 L 678.609375 736.449219 L 678.609375 718.675781 C 678.609375 717.542969 678.664062 716.414062 678.773438 715.285156 C 678.886719 714.160156 679.050781 713.039062 679.273438 711.929688 C 679.492188 710.820312 679.769531 709.722656 680.097656 708.640625 C 680.425781 707.558594 680.808594 706.492188 681.238281 705.445312 C 681.671875 704.398438 682.15625 703.378906 682.691406 702.378906 C 683.222656 701.382812 683.804688 700.410156 684.433594 699.46875 C 685.0625 698.527344 685.738281 697.621094 686.453125 696.746094 C 687.171875 695.871094 687.933594 695.03125 688.734375 694.230469 C 689.535156 693.429688 690.371094 692.671875 691.246094 691.953125 C 692.121094 691.234375 693.03125 690.5625 693.972656 689.933594 C 694.914062 689.304688 695.882812 688.722656 696.878906 688.1875 C 697.878906 687.65625 698.902344 687.171875 699.945312 686.738281 C 700.992188 686.304688 702.058594 685.925781 703.140625 685.597656 C 704.222656 685.269531 705.320312 684.992188 706.429688 684.773438 C 707.542969 684.550781 708.660156 684.386719 709.785156 684.273438 C 710.914062 684.164062 712.042969 684.109375 713.175781 684.109375 L 785.84375 684.109375 C 786.976562 684.109375 788.105469 684.164062 789.230469 684.273438 C 790.359375 684.386719 791.476562 684.550781 792.585938 684.773438 C 793.695312 684.992188 794.792969 685.269531 795.875 685.597656 C 796.960938 685.925781 798.023438 686.304688 799.070312 686.738281 C 800.117188 687.171875 801.140625 687.65625 802.136719 688.191406 C 803.136719 688.722656 804.105469 689.304688 805.046875 689.933594 C 805.988281 690.5625 806.894531 691.234375 807.773438 691.953125 C 808.648438 692.671875 809.484375 693.429688 810.285156 694.230469 C 811.085938 695.03125 811.84375 695.871094 812.5625 696.746094 C 813.28125 697.621094 813.953125 698.527344 814.582031 699.46875 C 815.210938 700.410156 815.792969 701.382812 816.328125 702.378906 C 816.859375 703.378906 817.34375 704.398438 817.777344 705.445312 C 818.210938 706.492188 818.59375 707.558594 818.921875 708.640625 C 819.25 709.722656 819.523438 710.820312 819.746094 711.929688 C 819.964844 713.039062 820.132812 714.160156 820.242188 715.285156 C 820.355469 716.414062 820.410156 717.542969 820.410156 718.675781 L 820.410156 736.449219 L 1049.507812 736.449219 L 1049.507812 654.648438 C 1049.507812 653.207031 1049.4375 651.765625 1049.296875 650.328125 C 1049.15625 648.894531 1048.941406 647.46875 1048.660156 646.054688 C 1048.378906 644.636719 1048.027344 643.242188 1047.609375 641.859375 C 1047.191406 640.480469 1046.703125 639.121094 1046.152344 637.789062 C 1045.597656 636.457031 1044.980469 635.15625 1044.300781 633.882812 C 1043.617188 632.609375 1042.875 631.375 1042.074219 630.175781 C 1041.273438 628.976562 1040.414062 627.820312 1039.496094 626.707031 C 1038.578125 625.589844 1037.609375 624.523438 1036.589844 623.503906 C 1035.566406 622.484375 1034.5 621.519531 1033.382812 620.605469 C 1032.265625 619.691406 1031.105469 618.835938 1029.90625 618.035156 C 1028.707031 617.234375 1027.46875 616.496094 1026.195312 615.816406 C 1024.921875 615.140625 1023.617188 614.523438 1022.28125 613.976562 C 1020.949219 613.425781 1019.589844 612.941406 1018.210938 612.527344 C 1016.828125 612.109375 1015.429688 611.761719 1014.015625 611.484375 C 1012.597656 611.203125 1011.171875 610.996094 1009.734375 610.855469 C 1008.300781 610.71875 1006.859375 610.652344 1005.417969 610.65625 Z M 646.695312 557.039062 C 646.695312 556.179688 646.742188 555.324219 646.828125 554.46875 C 646.914062 553.617188 647.042969 552.769531 647.214844 551.929688 C 647.382812 551.089844 647.59375 550.257812 647.84375 549.4375 C 648.097656 548.617188 648.386719 547.8125 648.714844 547.019531 C 649.046875 546.226562 649.414062 545.453125 649.820312 544.695312 C 650.222656 543.941406 650.664062 543.207031 651.144531 542.492188 C 651.621094 541.78125 652.128906 541.09375 652.675781 540.429688 C 653.21875 539.765625 653.796875 539.132812 654.402344 538.527344 C 655.007812 537.917969 655.644531 537.34375 656.304688 536.800781 C 656.96875 536.253906 657.65625 535.746094 658.371094 535.265625 C 659.082031 534.789062 659.816406 534.347656 660.574219 533.941406 C 661.328125 533.539062 662.101562 533.167969 662.894531 532.839844 C 663.6875 532.511719 664.492188 532.21875 665.3125 531.96875 C 666.132812 531.71875 666.964844 531.507812 667.804688 531.339844 C 668.644531 531.167969 669.492188 531.039062 670.347656 530.953125 C 671.199219 530.867188 672.054688 530.820312 672.914062 530.816406 L 826.105469 530.816406 C 826.960938 530.820312 827.816406 530.867188 828.671875 530.953125 C 829.523438 531.039062 830.371094 531.167969 831.214844 531.339844 C 832.054688 531.507812 832.882812 531.71875 833.703125 531.96875 C 834.523438 532.21875 835.332031 532.511719 836.125 532.839844 C 836.914062 533.167969 837.6875 533.539062 838.445312 533.941406 C 839.199219 534.347656 839.933594 534.789062 840.648438 535.265625 C 841.359375 535.746094 842.050781 536.253906 842.710938 536.800781 C 843.375 537.34375 844.007812 537.917969 844.617188 538.527344 C 845.222656 539.132812 845.796875 539.765625 846.34375 540.429688 C 846.886719 541.09375 847.398438 541.78125 847.875 542.492188 C 848.351562 543.207031 848.792969 543.941406 849.199219 544.695312 C 849.605469 545.453125 849.972656 546.226562 850.300781 547.019531 C 850.632812 547.8125 850.921875 548.617188 851.171875 549.4375 C 851.425781 550.257812 851.632812 551.089844 851.804688 551.929688 C 851.972656 552.769531 852.101562 553.617188 852.1875 554.46875 C 852.277344 555.324219 852.320312 556.179688 852.324219 557.039062 L 852.324219 610.65625 L 646.695312 610.65625 Z M 646.695312 557.039062 " fill-opacity="1" fill-rule="nonzero"/></svg>