<svg xmlns="http://www.w3.org/2000/svg" xmlns:xlink="http://www.w3.org/1999/xlink" width="2000" zoomAndPan="magnify" viewBox="0 0 1500 1499.999933" height="2000" preserveAspectRatio="xMidYMid meet" version="1.0"><defs><clipPath id="d3a0539779"><path d="M 450 502.960938 L 1050 502.960938 L 1050 1102.210938 L 450 1102.210938 Z M 450 502.960938 " clip-rule="nonzero"/></clipPath></defs><path fill="#4f46e5" d="M 878.683594 927.226562 C 880.804688 929.34375 881.890625 932.074219 881.929688 934.773438 C 881.964844 937.421875 881.007812 940.054688 879.03125 942.023438 C 877.0625 944 874.429688 944.957031 871.78125 944.921875 C 869.085938 944.882812 866.351562 943.796875 864.234375 941.675781 L 864.230469 941.675781 L 761.964844 839.414062 L 776.417969 824.957031 Z M 780.871094 811.753906 L 780.832031 811.71875 C 778.394531 809.277344 774.4375 809.277344 772.007812 811.71875 L 748.761719 834.960938 L 748.726562 834.992188 C 746.285156 837.429688 746.285156 841.386719 748.726562 843.824219 L 855.402344 950.503906 C 859.878906 954.980469 865.757812 957.273438 871.632812 957.363281 C 877.546875 957.445312 883.433594 955.285156 887.859375 950.859375 C 892.292969 946.425781 894.453125 940.539062 894.363281 934.625 C 894.28125 928.753906 891.988281 922.871094 887.511719 918.394531 Z M 738.171875 769.0625 L 759.28125 790.164062 C 761.71875 792.601562 761.71875 796.550781 759.28125 798.992188 L 759.242188 799.027344 L 736 822.265625 L 736 822.273438 C 733.558594 824.703125 729.609375 824.703125 727.171875 822.273438 L 706.0625 801.164062 C 697.550781 803.933594 688.394531 804.40625 679.578125 802.617188 C 669.628906 800.597656 660.109375 795.726562 652.40625 788.03125 L 586.683594 722.308594 C 584.246094 719.871094 584.246094 715.917969 586.683594 713.480469 L 601.234375 698.929688 C 603.671875 696.492188 607.628906 696.492188 610.058594 698.929688 L 659.574219 748.445312 C 659.925781 748.796875 660.34375 748.972656 660.738281 748.972656 C 661.09375 748.980469 661.4375 748.859375 661.691406 748.605469 C 661.945312 748.351562 662.066406 748.007812 662.058594 747.660156 C 662.050781 747.253906 661.878906 746.828125 661.539062 746.484375 L 661.523438 746.496094 L 661.507812 746.472656 L 612.007812 696.980469 C 609.570312 694.542969 609.570312 690.585938 612.007812 688.15625 L 625.160156 675.003906 C 627.601562 672.5625 631.550781 672.5625 633.988281 675.003906 L 683.503906 724.519531 C 683.847656 724.867188 684.273438 725.046875 684.667969 725.050781 C 685.015625 725.058594 685.359375 724.929688 685.613281 724.683594 C 685.867188 724.429688 685.988281 724.085938 685.988281 723.730469 C 685.980469 723.335938 685.796875 722.917969 685.453125 722.566406 L 635.9375 673.058594 C 633.5 670.621094 633.5 666.664062 635.9375 664.226562 L 650.488281 649.675781 C 652.925781 647.238281 656.875 647.238281 659.316406 649.675781 L 725.039062 715.398438 C 732.734375 723.101562 737.605469 732.621094 739.625 742.574219 C 741.414062 751.394531 740.9375 760.542969 738.171875 769.0625 Z M 726.808594 775.355469 L 726.757812 775.304688 C 724.839844 773.570312 724.128906 770.757812 725.191406 768.242188 L 725.214844 768.246094 C 728.289062 760.957031 729.019531 752.828125 727.429688 745.011719 C 725.902344 737.449219 722.152344 730.175781 716.210938 724.230469 L 654.902344 662.917969 L 649.179688 668.640625 L 694.28125 713.742188 C 696.980469 716.445312 698.371094 720.015625 698.421875 723.585938 C 698.472656 727.199219 697.152344 730.796875 694.441406 733.511719 C 691.726562 736.222656 688.128906 737.542969 684.519531 737.492188 C 680.945312 737.433594 677.375 736.050781 674.675781 733.34375 L 629.574219 688.25 L 625.257812 692.566406 L 670.359375 737.667969 L 665.9375 742.082031 L 670.351562 737.6875 C 673.058594 740.394531 674.441406 743.957031 674.5 747.511719 C 674.550781 751.125 673.230469 754.722656 670.515625 757.433594 C 667.804688 760.144531 664.203125 761.464844 660.589844 761.414062 C 657.023438 761.363281 653.453125 759.972656 650.75 757.273438 L 605.644531 712.171875 L 599.925781 717.894531 L 661.234375 779.203125 C 667.175781 785.148438 674.453125 788.894531 682.019531 790.425781 C 689.664062 791.980469 697.609375 791.308594 704.773438 788.40625 C 707.171875 787.148438 710.203125 787.558594 712.171875 789.609375 L 712.253906 789.695312 L 712.246094 789.695312 L 712.363281 789.800781 L 731.585938 809.03125 L 746.03125 794.578125 L 726.851562 775.390625 L 726.839844 775.378906 L 726.808594 775.355469 " fill-opacity="1" fill-rule="nonzero"/><path fill="#4f46e5" d="M 656.394531 927.324219 L 798.003906 785.710938 C 808.453125 775.265625 819.109375 775.621094 831.328125 776.027344 C 844.5625 776.464844 860.074219 776.980469 878.992188 758.0625 C 891.085938 745.96875 898.847656 728.683594 901.609375 712.425781 C 904.257812 696.878906 902.390625 682.640625 895.371094 675.617188 C 888.226562 668.472656 873.640625 666.664062 857.816406 669.503906 C 841.78125 672.378906 824.84375 680.089844 812.929688 692.003906 C 794.03125 710.902344 794.539062 726.367188 794.96875 739.585938 C 795.371094 751.84375 795.726562 762.546875 785.171875 773.09375 L 643.667969 914.597656 C 641.90625 916.363281 641.027344 918.667969 641.027344 920.960938 L 641.050781 920.960938 C 641.050781 923.273438 641.921875 925.582031 643.667969 927.324219 C 645.414062 929.070312 647.71875 929.945312 650.03125 929.945312 L 650.03125 929.964844 C 652.328125 929.964844 654.632812 929.089844 656.394531 927.324219 Z M 806.839844 794.539062 L 665.222656 936.15625 C 661.054688 940.324219 655.550781 942.40625 650.03125 942.40625 L 650.03125 942.429688 C 644.53125 942.429688 639.019531 940.335938 634.839844 936.15625 C 630.65625 931.972656 628.566406 926.464844 628.566406 920.960938 L 628.589844 920.960938 C 628.589844 915.449219 630.675781 909.941406 634.839844 905.769531 L 776.34375 764.265625 C 783.105469 757.503906 782.839844 749.335938 782.535156 739.976562 C 782.015625 724.257812 781.410156 705.867188 804.101562 683.175781 C 817.851562 669.425781 837.277344 660.554688 855.617188 657.257812 C 875.273438 653.734375 894.058594 656.648438 904.199219 666.792969 C 914.203125 676.800781 917.1875 695.160156 913.902344 714.472656 C 910.742188 733.078125 901.792969 752.917969 887.820312 766.890625 L 887.820312 766.894531 C 865.117188 789.597656 846.667969 788.984375 830.9375 788.460938 C 821.617188 788.152344 813.496094 787.882812 806.839844 794.539062 " fill-opacity="1" fill-rule="nonzero"/><g clip-path="url(#d3a0539779)"><path fill="#4f46e5" d="M 948.679688 603.972656 C 897.84375 553.128906 827.613281 521.6875 750.03125 521.6875 C 672.453125 521.6875 602.222656 553.128906 551.386719 603.972656 C 500.542969 654.808594 469.101562 725.039062 469.101562 802.617188 C 469.101562 880.195312 500.542969 950.425781 551.386719 1001.261719 C 602.222656 1052.097656 672.453125 1083.546875 750.03125 1083.546875 C 827.613281 1083.546875 897.84375 1052.097656 948.679688 1001.261719 C 999.515625 950.425781 1030.964844 880.195312 1030.964844 802.617188 C 1030.964844 725.039062 999.515625 654.808594 948.679688 603.972656 Z M 750.03125 502.960938 C 832.78125 502.960938 907.691406 536.503906 961.917969 590.722656 C 1016.148438 644.957031 1049.691406 719.871094 1049.691406 802.617188 C 1049.691406 885.363281 1016.148438 960.277344 961.917969 1014.503906 C 907.691406 1068.730469 832.78125 1102.273438 750.03125 1102.273438 C 667.285156 1102.273438 592.375 1068.730469 538.140625 1014.503906 C 483.917969 960.277344 450.375 885.363281 450.375 802.617188 C 450.375 719.871094 483.917969 644.957031 538.140625 590.722656 C 592.375 536.503906 667.285156 502.960938 750.03125 502.960938 " fill-opacity="1" fill-rule="nonzero"/></g><path fill="#4f46e5" d="M 916.914062 635.738281 C 874.207031 593.023438 815.203125 566.609375 750.03125 566.609375 C 684.855469 566.609375 625.859375 593.023438 583.144531 635.738281 C 540.445312 678.4375 514.027344 737.441406 514.027344 802.617188 C 514.027344 867.785156 540.445312 926.789062 583.144531 969.496094 C 625.859375 1012.203125 684.855469 1038.625 750.03125 1038.625 C 815.203125 1038.625 874.207031 1012.203125 916.914062 969.496094 C 959.621094 926.789062 986.039062 867.785156 986.039062 802.617188 C 986.039062 737.441406 959.621094 678.4375 916.914062 635.738281 Z M 750.03125 547.882812 C 820.371094 547.882812 884.0625 576.398438 930.160156 622.488281 C 976.253906 668.589844 1004.765625 732.273438 1004.765625 802.617188 C 1004.765625 872.960938 976.253906 936.644531 930.160156 982.738281 C 884.0625 1028.835938 820.371094 1057.351562 750.03125 1057.351562 C 679.6875 1057.351562 616.003906 1028.835938 569.90625 982.738281 C 523.804688 936.644531 495.300781 872.960938 495.300781 802.617188 C 495.300781 732.273438 523.804688 668.589844 569.90625 622.488281 C 616.003906 576.398438 679.6875 547.882812 750.03125 547.882812 " fill-opacity="1" fill-rule="nonzero"/></svg>