<svg xmlns="http://www.w3.org/2000/svg" xmlns:xlink="http://www.w3.org/1999/xlink" width="2000" zoomAndPan="magnify" viewBox="0 0 1500 1499.999933" height="2000" preserveAspectRatio="xMidYMid meet" version="1.0"><defs><clipPath id="2e2f9d7780"><path d="M 474 793 L 493 793 L 493 1049.625 L 474 1049.625 Z M 474 793 " clip-rule="nonzero"/></clipPath><clipPath id="9cb2c5cb6d"><path d="M 1007 793 L 1026 793 L 1026 1049.625 L 1007 1049.625 Z M 1007 793 " clip-rule="nonzero"/></clipPath><clipPath id="eb88bf16a4"><path d="M 450 1030 L 1050 1030 L 1050 1049.625 L 450 1049.625 Z M 450 1030 " clip-rule="nonzero"/></clipPath><clipPath id="8b313eb3dc"><path d="M 521 864 L 671 864 L 671 1049.625 L 521 1049.625 Z M 521 864 " clip-rule="nonzero"/></clipPath><clipPath id="5b03ee1df2"><path d="M 592 450.375 L 908 450.375 L 908 766 L 592 766 Z M 592 450.375 " clip-rule="nonzero"/></clipPath></defs><g clip-path="url(#2e2f9d7780)"><path fill="#4f46e5" d="M 483.574219 1049.457031 C 478.402344 1049.457031 474.207031 1045.265625 474.207031 1040.09375 L 474.207031 803.289062 C 474.207031 798.117188 478.402344 793.921875 483.574219 793.921875 C 488.746094 793.921875 492.941406 798.117188 492.941406 803.289062 L 492.941406 1040.09375 C 492.941406 1045.265625 488.746094 1049.457031 483.574219 1049.457031 Z M 483.574219 1049.457031 " fill-opacity="1" fill-rule="nonzero"/></g><g clip-path="url(#9cb2c5cb6d)"><path fill="#4f46e5" d="M 1016.542969 1049.457031 C 1011.371094 1049.457031 1007.175781 1045.265625 1007.175781 1040.09375 L 1007.175781 803.289062 C 1007.175781 798.117188 1011.371094 793.921875 1016.542969 793.921875 C 1021.714844 793.921875 1025.910156 798.117188 1025.910156 803.289062 L 1025.910156 1040.09375 C 1025.910156 1045.265625 1021.714844 1049.457031 1016.542969 1049.457031 Z M 1016.542969 1049.457031 " fill-opacity="1" fill-rule="nonzero"/></g><g clip-path="url(#eb88bf16a4)"><path fill="#4f46e5" d="M 1040.230469 1049.457031 L 459.886719 1049.457031 C 454.714844 1049.457031 450.519531 1045.265625 450.519531 1040.09375 C 450.519531 1034.917969 454.714844 1030.726562 459.886719 1030.726562 L 1040.230469 1030.726562 C 1045.402344 1030.726562 1049.597656 1034.917969 1049.597656 1040.09375 C 1049.597656 1045.265625 1045.402344 1049.457031 1040.230469 1049.457031 Z M 1040.230469 1049.457031 " fill-opacity="1" fill-rule="nonzero"/></g><path fill="#4f46e5" d="M 653.804688 729.695312 L 459.886719 729.695312 C 456.875 729.695312 454.050781 728.25 452.289062 725.804688 C 450.527344 723.363281 450.050781 720.222656 451.003906 717.367188 L 486.535156 610.796875 C 487.808594 606.972656 491.386719 604.394531 495.417969 604.394531 L 602.128906 604.394531 C 607.304688 604.394531 611.496094 608.585938 611.496094 613.757812 C 611.496094 618.933594 607.304688 623.125 602.128906 623.125 L 502.167969 623.125 L 472.882812 710.964844 L 653.804688 710.964844 C 658.976562 710.964844 663.171875 715.15625 663.171875 720.328125 C 663.171875 725.5 658.976562 729.695312 653.804688 729.695312 Z M 653.804688 729.695312 " fill-opacity="1" fill-rule="nonzero"/><path fill="#4f46e5" d="M 1040.230469 729.695312 L 846.3125 729.695312 C 841.140625 729.695312 836.945312 725.503906 836.945312 720.328125 C 836.945312 715.15625 841.140625 710.964844 846.3125 710.964844 L 1027.234375 710.964844 L 997.949219 623.125 L 897.984375 623.125 C 892.8125 623.125 888.621094 618.933594 888.621094 613.761719 C 888.621094 608.589844 892.8125 604.394531 897.984375 604.394531 L 1004.699219 604.394531 C 1008.730469 604.394531 1012.308594 606.972656 1013.582031 610.796875 L 1049.113281 717.367188 C 1050.066406 720.222656 1049.589844 723.363281 1047.828125 725.808594 C 1046.070312 728.246094 1043.242188 729.695312 1040.230469 729.695312 Z M 1040.230469 729.695312 " fill-opacity="1" fill-rule="nonzero"/><path fill="#4f46e5" d="M 496.15625 812.652344 C 470.992188 812.652344 450.519531 792.179688 450.519531 767.019531 L 450.519531 720.332031 C 450.519531 715.160156 454.714844 710.964844 459.886719 710.964844 L 532.429688 710.964844 C 537.601562 710.964844 541.792969 715.160156 541.792969 720.332031 L 541.792969 767.019531 C 541.792969 792.179688 521.320312 812.652344 496.15625 812.652344 Z M 469.253906 729.695312 L 469.253906 767.019531 C 469.253906 781.851562 481.324219 793.921875 496.15625 793.921875 C 510.992188 793.921875 523.0625 781.851562 523.0625 767.019531 L 523.0625 729.695312 Z M 469.253906 729.695312 " fill-opacity="1" fill-rule="nonzero"/><path fill="#4f46e5" d="M 568.699219 812.652344 C 543.535156 812.652344 523.0625 792.179688 523.0625 767.019531 L 523.0625 720.332031 C 523.0625 715.160156 527.257812 710.964844 532.429688 710.964844 L 604.972656 710.964844 C 610.144531 710.964844 614.339844 715.160156 614.339844 720.332031 L 614.339844 767.019531 C 614.339844 792.179688 593.867188 812.652344 568.699219 812.652344 Z M 541.792969 729.695312 L 541.792969 767.019531 C 541.792969 781.851562 553.863281 793.921875 568.699219 793.921875 C 583.535156 793.921875 595.605469 781.851562 595.605469 767.019531 L 595.605469 729.695312 Z M 541.792969 729.695312 " fill-opacity="1" fill-rule="nonzero"/><path fill="#4f46e5" d="M 641.25 812.648438 C 616.078125 812.648438 595.605469 792.179688 595.605469 767.015625 L 595.605469 720.328125 C 595.605469 715.15625 599.800781 710.964844 604.972656 710.964844 L 653.804688 710.964844 C 658.976562 710.964844 663.171875 715.15625 663.171875 720.328125 C 663.171875 725.5 658.976562 729.695312 653.804688 729.695312 L 614.339844 729.695312 L 614.339844 767.015625 C 614.339844 781.847656 626.40625 793.917969 641.238281 793.917969 C 656.082031 793.917969 668.152344 781.847656 668.152344 767.015625 L 668.152344 736.921875 C 668.152344 731.75 672.34375 727.558594 677.515625 727.558594 C 682.6875 727.558594 686.882812 731.75 686.882812 736.921875 L 686.882812 767.019531 C 686.882812 792.179688 666.410156 812.648438 641.25 812.648438 Z M 641.25 812.648438 " fill-opacity="1" fill-rule="nonzero"/><path fill="#4f46e5" d="M 713.792969 812.648438 C 688.621094 812.648438 668.148438 792.179688 668.148438 767.015625 L 668.148438 736.921875 C 668.148438 731.75 672.34375 727.558594 677.515625 727.558594 C 682.6875 727.558594 686.882812 731.75 686.882812 736.921875 L 686.882812 767.019531 C 686.882812 781.851562 698.949219 793.917969 713.78125 793.917969 C 728.625 793.917969 740.691406 781.847656 740.691406 767.019531 L 740.691406 755.882812 C 740.691406 750.710938 744.886719 746.519531 750.058594 746.519531 C 755.230469 746.519531 759.425781 750.710938 759.425781 755.882812 L 759.425781 767.019531 C 759.425781 792.179688 738.953125 812.648438 713.792969 812.648438 Z M 713.792969 812.648438 " fill-opacity="1" fill-rule="nonzero"/><path fill="#4f46e5" d="M 786.335938 812.648438 C 761.160156 812.648438 740.691406 792.179688 740.691406 767.015625 L 740.691406 755.882812 C 740.691406 750.710938 744.886719 746.515625 750.058594 746.515625 C 755.230469 746.515625 759.425781 750.710938 759.425781 755.882812 L 759.425781 767.015625 C 759.425781 781.847656 771.492188 793.917969 786.324219 793.917969 C 801.167969 793.917969 813.234375 781.847656 813.234375 767.015625 L 813.234375 736.921875 C 813.234375 731.75 817.429688 727.558594 822.601562 727.558594 C 827.773438 727.558594 831.96875 731.75 831.96875 736.921875 L 831.96875 767.019531 C 831.96875 792.179688 811.496094 812.648438 786.335938 812.648438 Z M 786.335938 812.648438 " fill-opacity="1" fill-rule="nonzero"/><path fill="#4f46e5" d="M 858.878906 812.648438 C 833.703125 812.648438 813.234375 792.179688 813.234375 767.015625 L 813.234375 736.921875 C 813.234375 731.75 817.429688 727.558594 822.601562 727.558594 C 827.773438 727.558594 831.96875 731.75 831.96875 736.921875 L 831.96875 767.019531 C 831.96875 781.851562 844.035156 793.917969 858.867188 793.917969 C 873.710938 793.917969 885.777344 781.847656 885.777344 767.019531 L 885.777344 729.695312 L 846.3125 729.695312 C 841.140625 729.695312 836.945312 725.503906 836.945312 720.328125 C 836.945312 715.15625 841.140625 710.964844 846.3125 710.964844 L 895.144531 710.964844 C 900.316406 710.964844 904.511719 715.15625 904.511719 720.328125 L 904.511719 767.019531 C 904.511719 792.179688 884.039062 812.648438 858.878906 812.648438 Z M 858.878906 812.648438 " fill-opacity="1" fill-rule="nonzero"/><path fill="#4f46e5" d="M 931.414062 812.652344 C 906.25 812.652344 885.777344 792.179688 885.777344 767.019531 L 885.777344 720.332031 C 885.777344 715.160156 889.972656 710.964844 895.144531 710.964844 L 967.6875 710.964844 C 972.859375 710.964844 977.054688 715.160156 977.054688 720.332031 L 977.054688 767.019531 C 977.054688 792.179688 956.582031 812.652344 931.414062 812.652344 Z M 904.511719 729.695312 L 904.511719 767.019531 C 904.511719 781.851562 916.582031 793.921875 931.414062 793.921875 C 946.253906 793.921875 958.320312 781.851562 958.320312 767.019531 L 958.320312 729.695312 Z M 904.511719 729.695312 " fill-opacity="1" fill-rule="nonzero"/><path fill="#4f46e5" d="M 1003.957031 812.652344 C 978.792969 812.652344 958.320312 792.179688 958.320312 767.019531 L 958.320312 720.332031 C 958.320312 715.160156 962.515625 710.964844 967.6875 710.964844 L 1040.230469 710.964844 C 1045.402344 710.964844 1049.597656 715.160156 1049.597656 720.332031 L 1049.597656 767.019531 C 1049.597656 792.179688 1029.125 812.652344 1003.957031 812.652344 Z M 977.054688 729.695312 L 977.054688 767.019531 C 977.054688 781.851562 989.125 793.921875 1003.957031 793.921875 C 1018.796875 793.921875 1030.863281 781.851562 1030.863281 767.019531 L 1030.863281 729.695312 Z M 977.054688 729.695312 " fill-opacity="1" fill-rule="nonzero"/><g clip-path="url(#8b313eb3dc)"><path fill="#4f46e5" d="M 661.230469 1049.457031 L 530.949219 1049.457031 C 525.777344 1049.457031 521.582031 1045.265625 521.582031 1040.09375 L 521.582031 874.320312 C 521.582031 869.148438 525.777344 864.957031 530.949219 864.957031 L 661.230469 864.957031 C 666.402344 864.957031 670.597656 869.148438 670.597656 874.320312 L 670.597656 1040.09375 C 670.597656 1045.265625 666.402344 1049.457031 661.230469 1049.457031 Z M 540.316406 1030.726562 L 651.863281 1030.726562 L 651.863281 883.6875 L 540.316406 883.6875 Z M 540.316406 1030.726562 " fill-opacity="1" fill-rule="nonzero"/></g><path fill="#4f46e5" d="M 969.167969 1002.09375 L 708.605469 1002.09375 C 703.433594 1002.09375 699.238281 997.898438 699.238281 992.726562 L 699.238281 850.652344 C 699.238281 845.480469 703.433594 841.289062 708.605469 841.289062 L 969.167969 841.289062 C 974.339844 841.289062 978.535156 845.480469 978.535156 850.652344 L 978.535156 992.726562 C 978.535156 997.898438 974.339844 1002.09375 969.167969 1002.09375 Z M 717.972656 983.359375 L 959.800781 983.359375 L 959.800781 860.019531 L 717.972656 860.019531 Z M 717.972656 983.359375 " fill-opacity="1" fill-rule="nonzero"/><path fill="#4f46e5" d="M 755.980469 1002.09375 C 750.808594 1002.09375 746.617188 997.898438 746.617188 992.726562 L 746.617188 850.652344 C 746.617188 845.480469 750.808594 841.289062 755.980469 841.289062 C 761.152344 841.289062 765.347656 845.480469 765.347656 850.652344 L 765.347656 992.726562 C 765.347656 997.898438 761.152344 1002.09375 755.980469 1002.09375 Z M 755.980469 1002.09375 " fill-opacity="1" fill-rule="nonzero"/><path fill="#4f46e5" d="M 921.792969 1002.09375 C 916.621094 1002.09375 912.425781 997.898438 912.425781 992.726562 L 912.425781 850.652344 C 912.425781 845.480469 916.621094 841.289062 921.792969 841.289062 C 926.964844 841.289062 931.15625 845.480469 931.15625 850.652344 L 931.15625 992.726562 C 931.15625 997.898438 926.964844 1002.09375 921.792969 1002.09375 Z M 921.792969 1002.09375 " fill-opacity="1" fill-rule="nonzero"/><path fill="#4f46e5" d="M 578.324219 966.59375 C 573.152344 966.59375 568.957031 962.402344 568.957031 957.230469 L 568.957031 945.402344 C 568.957031 940.230469 573.152344 936.035156 578.324219 936.035156 C 583.496094 936.035156 587.691406 940.230469 587.691406 945.402344 L 587.691406 957.230469 C 587.691406 962.402344 583.496094 966.59375 578.324219 966.59375 Z M 578.324219 966.59375 " fill-opacity="1" fill-rule="nonzero"/><g clip-path="url(#5b03ee1df2)"><path fill="#4f46e5" d="M 750.058594 765.25 C 663.261719 765.25 592.644531 694.636719 592.644531 607.835938 C 592.644531 521.039062 663.261719 450.425781 750.058594 450.425781 C 836.855469 450.425781 907.472656 521.039062 907.472656 607.839844 C 907.472656 694.636719 836.855469 765.25 750.058594 765.25 Z M 750.058594 469.15625 C 673.589844 469.15625 611.378906 531.367188 611.378906 607.839844 C 611.378906 684.308594 673.589844 746.519531 750.058594 746.519531 C 826.527344 746.519531 888.738281 684.304688 888.738281 607.835938 C 888.738281 531.367188 826.527344 469.15625 750.058594 469.15625 Z M 750.058594 469.15625 " fill-opacity="1" fill-rule="nonzero"/></g><path fill="#4f46e5" d="M 785.589844 676.421875 L 738.214844 676.421875 C 733.042969 676.421875 728.847656 672.230469 728.847656 667.058594 C 728.847656 661.882812 733.042969 657.691406 738.214844 657.691406 L 785.589844 657.691406 C 790.761719 657.691406 794.957031 661.882812 794.957031 667.058594 C 794.957031 672.230469 790.761719 676.421875 785.589844 676.421875 Z M 785.589844 676.421875 " fill-opacity="1" fill-rule="nonzero"/><path fill="#4f46e5" d="M 812.722656 652.984375 C 811.652344 652.984375 810.5625 652.800781 809.496094 652.410156 C 804.640625 650.628906 802.148438 645.246094 803.929688 640.390625 L 825.472656 581.671875 L 692.816406 581.671875 C 687.644531 581.671875 683.453125 577.480469 683.453125 572.304688 C 683.453125 567.132812 687.644531 562.941406 692.816406 562.941406 L 838.886719 562.941406 C 841.945312 562.941406 844.8125 564.433594 846.566406 566.945312 C 848.316406 569.453125 848.734375 572.660156 847.679688 575.53125 L 821.515625 646.84375 C 820.125 650.636719 816.539062 652.984375 812.722656 652.984375 Z M 812.722656 652.984375 " fill-opacity="1" fill-rule="nonzero"/><path fill="#4f46e5" d="M 712.578125 652.820312 C 708.476562 652.820312 704.710938 650.105469 703.558594 645.960938 L 683.855469 575.042969 L 678.167969 557.984375 L 661.230469 557.984375 C 656.058594 557.984375 651.863281 553.792969 651.863281 548.617188 C 651.863281 543.445312 656.058594 539.253906 661.230469 539.253906 L 684.917969 539.253906 C 688.949219 539.253906 692.527344 541.832031 693.800781 545.65625 L 701.703125 569.34375 C 701.75 569.496094 701.796875 569.644531 701.839844 569.800781 L 721.605469 640.945312 C 722.992188 645.929688 720.074219 651.09375 715.089844 652.476562 C 714.253906 652.707031 713.410156 652.820312 712.578125 652.820312 Z M 712.578125 652.820312 " fill-opacity="1" fill-rule="nonzero"/><path fill="#4f46e5" d="M 809.277344 700.109375 C 791.050781 700.109375 776.222656 685.28125 776.222656 667.058594 C 776.222656 648.832031 791.050781 634.003906 809.277344 634.003906 C 827.503906 634.003906 842.328125 648.832031 842.328125 667.058594 C 842.328125 685.28125 827.503906 700.109375 809.277344 700.109375 Z M 809.277344 652.734375 C 801.382812 652.734375 794.957031 659.160156 794.957031 667.054688 C 794.957031 674.953125 801.382812 681.378906 809.277344 681.378906 C 817.175781 681.378906 823.597656 674.953125 823.597656 667.054688 C 823.597656 659.160156 817.175781 652.734375 809.277344 652.734375 Z M 809.277344 652.734375 " fill-opacity="1" fill-rule="nonzero"/><path fill="#4f46e5" d="M 714.527344 700.109375 C 696.300781 700.109375 681.472656 685.28125 681.472656 667.058594 C 681.472656 648.832031 696.300781 634.003906 714.527344 634.003906 C 732.753906 634.003906 747.578125 648.832031 747.578125 667.058594 C 747.578125 685.28125 732.753906 700.109375 714.527344 700.109375 Z M 714.527344 652.734375 C 706.628906 652.734375 700.207031 659.160156 700.207031 667.054688 C 700.207031 674.953125 706.628906 681.378906 714.527344 681.378906 C 722.421875 681.378906 728.847656 674.953125 728.847656 667.054688 C 728.847656 659.160156 722.425781 652.734375 714.527344 652.734375 Z M 714.527344 652.734375 " fill-opacity="1" fill-rule="nonzero"/></svg>