<svg xmlns="http://www.w3.org/2000/svg" xmlns:xlink="http://www.w3.org/1999/xlink" width="2000" zoomAndPan="magnify" viewBox="0 0 1500 1499.999933" height="2000" preserveAspectRatio="xMidYMid meet" version="1.0"><defs><clipPath id="d9c7e67ef9"><path d="M 531.375 470 L 583 470 L 583 522 L 531.375 522 Z M 531.375 470 " clip-rule="nonzero"/></clipPath><clipPath id="3eea0d9004"><path d="M 531.375 541 L 583 541 L 583 593 L 531.375 593 Z M 531.375 541 " clip-rule="nonzero"/></clipPath><clipPath id="1e572c3f4c"><path d="M 531.375 612 L 583 612 L 583 664 L 531.375 664 Z M 531.375 612 " clip-rule="nonzero"/></clipPath><clipPath id="8145f3facf"><path d="M 531.375 683 L 583 683 L 583 735 L 531.375 735 Z M 531.375 683 " clip-rule="nonzero"/></clipPath><clipPath id="706fb962f5"><path d="M 531.375 755 L 583 755 L 583 806 L 531.375 806 Z M 531.375 755 " clip-rule="nonzero"/></clipPath><clipPath id="04a57227bf"><path d="M 917 470 L 968.625 470 L 968.625 522 L 917 522 Z M 917 470 " clip-rule="nonzero"/></clipPath><clipPath id="0ac1333f48"><path d="M 917 541 L 968.625 541 L 968.625 593 L 917 593 Z M 917 541 " clip-rule="nonzero"/></clipPath><clipPath id="6cbc8f801d"><path d="M 917 612 L 968.625 612 L 968.625 664 L 917 664 Z M 917 612 " clip-rule="nonzero"/></clipPath><clipPath id="b336b2af6b"><path d="M 917 683 L 968.625 683 L 968.625 735 L 917 735 Z M 917 683 " clip-rule="nonzero"/></clipPath><clipPath id="68e3d4e4cc"><path d="M 917 755 L 968.625 755 L 968.625 806 L 917 806 Z M 917 755 " clip-rule="nonzero"/></clipPath></defs><path fill="#4f46e5" d="M 861.855469 450.027344 L 638.144531 450.027344 C 618.445312 450.027344 602.554688 466.042969 602.554688 485.617188 L 602.554688 790.675781 C 602.554688 810.375 618.570312 826.265625 638.144531 826.265625 L 667 826.265625 L 672.082031 876.597656 C 673.226562 888.546875 683.140625 897.445312 695.214844 897.445312 L 734.746094 897.445312 L 734.746094 907.613281 L 673.101562 907.613281 C 667.886719 907.613281 663.566406 903.292969 663.566406 898.082031 L 663.566406 872.023438 C 663.566406 867.957031 662.042969 864.140625 659.117188 861.21875 C 656.195312 858.296875 652.382812 856.769531 648.3125 856.769531 C 639.925781 856.769531 633.0625 863.632812 633.0625 872.023438 L 633.0625 912.570312 C 633.0625 932.273438 649.078125 948.289062 668.777344 948.289062 L 734.746094 948.289062 L 734.746094 968.625 L 719.496094 968.625 C 715.425781 968.625 711.613281 970.148438 708.691406 973.074219 C 705.765625 975.996094 704.242188 979.808594 704.242188 983.878906 C 704.242188 992.265625 711.105469 999.128906 719.496094 999.128906 L 734.746094 999.128906 L 734.746094 1019.46875 L 699.15625 1019.46875 C 685.175781 1019.46875 673.734375 1030.90625 673.734375 1044.890625 C 673.734375 1047.6875 676.023438 1049.972656 678.820312 1049.972656 L 821.179688 1049.972656 C 823.976562 1049.972656 826.265625 1047.6875 826.265625 1044.890625 C 826.265625 1030.90625 814.824219 1019.46875 800.84375 1019.46875 L 765.253906 1019.46875 L 765.253906 999.128906 L 780.503906 999.128906 C 784.574219 999.128906 788.386719 997.605469 791.308594 994.683594 C 794.234375 991.757812 795.757812 987.945312 795.757812 983.878906 C 795.757812 975.488281 788.894531 968.625 780.503906 968.625 L 765.253906 968.625 L 765.253906 948.289062 L 778.34375 948.289062 L 807.324219 977.269531 C 808.34375 978.285156 809.613281 978.792969 810.882812 978.792969 C 812.15625 978.792969 813.425781 978.285156 814.445312 977.269531 C 816.476562 975.234375 816.476562 972.058594 814.445312 970.023438 L 792.835938 948.289062 L 831.347656 948.289062 C 851.050781 948.289062 867.066406 932.273438 867.066406 912.570312 L 867.066406 872.023438 C 867.066406 867.957031 865.539062 864.140625 862.617188 861.21875 C 859.695312 858.296875 855.878906 856.769531 851.8125 856.769531 C 843.425781 856.769531 836.558594 863.632812 836.558594 872.023438 L 836.558594 898.082031 C 836.558594 903.292969 832.238281 907.613281 827.027344 907.613281 L 765.253906 907.613281 L 765.253906 897.445312 L 804.785156 897.445312 C 816.730469 897.445312 826.644531 888.421875 827.917969 876.597656 L 833 826.265625 L 861.855469 826.265625 C 881.554688 826.265625 897.445312 810.25 897.445312 790.675781 L 897.445312 485.617188 C 897.445312 466.042969 881.429688 450.027344 861.855469 450.027344 Z M 826.644531 794.996094 C 821.308594 789.023438 813.554688 785.589844 805.546875 785.589844 L 694.453125 785.589844 C 686.445312 785.589844 678.691406 789.023438 673.355469 794.996094 C 673.101562 795.25 672.84375 795.503906 672.589844 795.757812 L 644.5 795.757812 C 638.144531 795.757812 632.933594 790.546875 632.933594 784.191406 L 632.933594 492.097656 C 632.933594 485.742188 638.144531 480.53125 644.5 480.53125 L 855.371094 480.53125 C 861.726562 480.53125 866.9375 485.742188 866.9375 492.097656 L 866.9375 784.320312 C 866.9375 790.675781 861.726562 795.886719 855.371094 795.886719 L 827.28125 795.886719 C 827.152344 795.503906 826.898438 795.25 826.644531 794.996094 Z M 720.382812 856.769531 C 717.078125 856.769531 714.410156 854.101562 714.410156 850.796875 L 714.410156 842.28125 C 714.410156 838.976562 717.078125 836.304688 720.382812 836.304688 L 779.742188 836.304688 C 783.046875 836.304688 785.71875 838.976562 785.71875 842.28125 L 785.71875 850.796875 C 785.71875 854.101562 783.046875 856.769531 779.742188 856.769531 Z M 755.085938 866.9375 L 755.085938 938.117188 L 744.914062 938.117188 L 744.914062 866.9375 Z M 668.777344 938.117188 C 654.667969 938.117188 643.230469 926.679688 643.230469 912.570312 L 643.230469 872.023438 C 643.230469 869.226562 645.515625 866.9375 648.3125 866.9375 C 649.710938 866.9375 650.984375 867.449219 651.871094 868.464844 C 652.890625 869.480469 653.398438 870.753906 653.398438 872.023438 L 653.398438 898.082031 C 653.398438 908.882812 662.167969 917.78125 673.101562 917.78125 L 734.746094 917.78125 L 734.746094 938.117188 Z M 719.496094 988.960938 C 716.699219 988.960938 714.410156 986.675781 714.410156 983.878906 C 714.410156 982.480469 714.917969 981.207031 715.933594 980.320312 C 716.953125 979.300781 718.222656 978.792969 719.496094 978.792969 L 734.746094 978.792969 L 734.746094 988.960938 Z M 815.207031 1039.804688 L 684.792969 1039.804688 C 686.953125 1033.832031 692.546875 1029.636719 699.15625 1029.636719 L 800.84375 1029.636719 C 807.453125 1029.636719 813.171875 1033.832031 815.207031 1039.804688 Z M 780.503906 978.792969 C 783.300781 978.792969 785.589844 981.082031 785.589844 983.878906 C 785.589844 985.277344 785.082031 986.546875 784.066406 987.4375 C 783.046875 988.453125 781.777344 988.960938 780.503906 988.960938 L 765.253906 988.960938 L 765.253906 978.792969 Z M 755.085938 1019.46875 L 744.914062 1019.46875 L 744.914062 948.289062 L 755.085938 948.289062 Z M 826.898438 917.78125 C 837.703125 917.78125 846.601562 909.011719 846.601562 898.082031 L 846.601562 872.023438 C 846.601562 869.226562 848.890625 866.9375 851.6875 866.9375 C 853.085938 866.9375 854.355469 867.449219 855.246094 868.464844 C 856.261719 869.480469 856.769531 870.753906 856.769531 872.023438 L 856.769531 912.570312 C 856.769531 926.679688 845.332031 938.117188 831.222656 938.117188 L 765.253906 938.117188 L 765.253906 917.78125 Z M 823.722656 815.839844 L 817.75 875.582031 C 817.113281 882.320312 811.519531 887.277344 804.785156 887.277344 L 765.253906 887.277344 L 765.253906 866.9375 L 779.617188 866.9375 C 788.511719 866.9375 795.757812 859.695312 795.757812 850.796875 L 795.757812 842.28125 C 795.757812 833.382812 788.511719 826.136719 779.617188 826.136719 L 720.257812 826.136719 C 711.359375 826.136719 704.113281 833.382812 704.113281 842.28125 L 704.113281 850.796875 C 704.113281 859.695312 711.359375 866.9375 720.257812 866.9375 L 734.746094 866.9375 L 734.746094 887.277344 L 695.214844 887.277344 C 688.480469 887.277344 682.886719 882.191406 682.25 875.582031 L 676.277344 815.839844 C 675.769531 810.628906 677.421875 805.671875 680.851562 801.734375 C 684.414062 797.917969 689.117188 795.757812 694.453125 795.757812 L 805.546875 795.757812 C 810.757812 795.757812 815.585938 797.917969 819.148438 801.734375 C 822.578125 805.671875 824.230469 810.628906 823.722656 815.839844 Z M 887.277344 790.675781 C 887.277344 804.65625 875.835938 816.097656 861.855469 816.097656 L 833.890625 816.097656 C 834.144531 812.664062 833.765625 809.230469 832.746094 805.925781 L 855.371094 805.925781 C 867.320312 805.925781 877.109375 796.140625 877.109375 784.191406 L 877.109375 492.097656 C 877.109375 480.152344 867.320312 470.363281 855.371094 470.363281 L 644.628906 470.363281 C 632.679688 470.363281 622.890625 480.152344 622.890625 492.097656 L 622.890625 784.320312 C 622.890625 796.265625 632.679688 806.054688 644.628906 806.054688 L 667.253906 806.054688 C 666.234375 809.359375 665.855469 812.792969 666.109375 816.222656 L 638.144531 816.222656 C 624.164062 816.222656 612.722656 804.785156 612.722656 790.800781 L 612.722656 485.617188 C 612.722656 471.632812 624.164062 460.195312 638.144531 460.195312 L 861.855469 460.195312 C 875.835938 460.195312 887.277344 471.632812 887.277344 485.617188 Z M 887.277344 790.675781 " fill-opacity="1" fill-rule="nonzero"/><path fill="#4f46e5" d="M 706.148438 642.085938 C 707.039062 642.847656 708.179688 643.230469 709.324219 643.230469 C 710.851562 643.230469 712.25 642.59375 713.265625 641.324219 L 753.941406 590.480469 C 755.71875 588.320312 755.339844 585.140625 753.175781 583.363281 C 751.015625 581.582031 747.839844 581.964844 746.058594 584.125 L 705.386719 634.96875 C 703.605469 637.128906 703.988281 640.304688 706.148438 642.085938 Z M 706.148438 642.085938 " fill-opacity="1" fill-rule="nonzero"/><path fill="#4f46e5" d="M 796.902344 573.828125 L 695.214844 695.851562 C 693.4375 698.011719 693.691406 701.191406 695.851562 702.96875 C 696.742188 703.734375 698.011719 704.113281 699.15625 704.113281 C 700.554688 704.113281 702.082031 703.480469 703.097656 702.335938 L 804.785156 580.3125 C 806.5625 578.152344 806.308594 574.972656 804.148438 573.191406 C 801.988281 571.414062 798.683594 571.667969 796.902344 573.828125 Z M 796.902344 573.828125 " fill-opacity="1" fill-rule="nonzero"/><path fill="#4f46e5" d="M 793.851562 634.203125 C 791.691406 632.425781 788.511719 632.808594 786.734375 634.96875 L 746.058594 685.8125 C 744.28125 687.972656 744.660156 691.148438 746.824219 692.929688 C 747.710938 693.691406 748.855469 694.074219 750 694.074219 C 751.523438 694.074219 752.921875 693.4375 753.941406 692.164062 L 794.613281 641.324219 C 796.394531 639.164062 796.011719 635.984375 793.851562 634.203125 Z M 793.851562 634.203125 " fill-opacity="1" fill-rule="nonzero"/><g clip-path="url(#d9c7e67ef9)"><path fill="#4f46e5" d="M 556.796875 470.363281 C 542.816406 470.363281 531.375 481.804688 531.375 495.785156 C 531.375 509.765625 542.816406 521.207031 556.796875 521.207031 C 570.777344 521.207031 582.21875 509.765625 582.21875 495.785156 C 582.21875 481.804688 570.777344 470.363281 556.796875 470.363281 Z M 556.796875 511.039062 C 548.40625 511.039062 541.542969 504.175781 541.542969 495.785156 C 541.542969 487.394531 548.40625 480.53125 556.796875 480.53125 C 565.1875 480.53125 572.050781 487.394531 572.050781 495.785156 C 572.050781 504.175781 565.1875 511.039062 556.796875 511.039062 Z M 556.796875 511.039062 " fill-opacity="1" fill-rule="nonzero"/></g><g clip-path="url(#3eea0d9004)"><path fill="#4f46e5" d="M 556.796875 541.542969 C 542.816406 541.542969 531.375 552.984375 531.375 566.964844 C 531.375 580.945312 542.816406 592.386719 556.796875 592.386719 C 570.777344 592.386719 582.21875 580.945312 582.21875 566.964844 C 582.21875 552.984375 570.777344 541.542969 556.796875 541.542969 Z M 556.796875 582.21875 C 548.40625 582.21875 541.542969 575.355469 541.542969 566.964844 C 541.542969 558.574219 548.40625 551.710938 556.796875 551.710938 C 565.1875 551.710938 572.050781 558.574219 572.050781 566.964844 C 572.050781 575.355469 565.1875 582.21875 556.796875 582.21875 Z M 556.796875 582.21875 " fill-opacity="1" fill-rule="nonzero"/></g><g clip-path="url(#1e572c3f4c)"><path fill="#4f46e5" d="M 556.796875 612.722656 C 542.816406 612.722656 531.375 624.164062 531.375 638.144531 C 531.375 652.128906 542.816406 663.566406 556.796875 663.566406 C 570.777344 663.566406 582.21875 652.128906 582.21875 638.144531 C 582.21875 624.164062 570.777344 612.722656 556.796875 612.722656 Z M 556.796875 653.398438 C 548.40625 653.398438 541.542969 646.535156 541.542969 638.144531 C 541.542969 629.757812 548.40625 622.890625 556.796875 622.890625 C 565.1875 622.890625 572.050781 629.757812 572.050781 638.144531 C 572.050781 646.535156 565.1875 653.398438 556.796875 653.398438 Z M 556.796875 653.398438 " fill-opacity="1" fill-rule="nonzero"/></g><g clip-path="url(#8145f3facf)"><path fill="#4f46e5" d="M 556.796875 683.902344 C 542.816406 683.902344 531.375 695.34375 531.375 709.324219 C 531.375 723.308594 542.816406 734.746094 556.796875 734.746094 C 570.777344 734.746094 582.21875 723.308594 582.21875 709.324219 C 582.21875 695.34375 570.777344 683.902344 556.796875 683.902344 Z M 556.796875 724.578125 C 548.40625 724.578125 541.542969 717.714844 541.542969 709.324219 C 541.542969 700.9375 548.40625 694.074219 556.796875 694.074219 C 565.1875 694.074219 572.050781 700.9375 572.050781 709.324219 C 572.050781 717.714844 565.1875 724.578125 556.796875 724.578125 Z M 556.796875 724.578125 " fill-opacity="1" fill-rule="nonzero"/></g><g clip-path="url(#706fb962f5)"><path fill="#4f46e5" d="M 556.796875 755.085938 C 542.816406 755.085938 531.375 766.523438 531.375 780.503906 C 531.375 794.488281 542.816406 805.925781 556.796875 805.925781 C 570.777344 805.925781 582.21875 794.488281 582.21875 780.503906 C 582.21875 766.523438 570.777344 755.085938 556.796875 755.085938 Z M 556.796875 795.757812 C 548.40625 795.757812 541.542969 788.894531 541.542969 780.503906 C 541.542969 772.117188 548.40625 765.253906 556.796875 765.253906 C 565.1875 765.253906 572.050781 772.117188 572.050781 780.503906 C 572.050781 788.894531 565.1875 795.757812 556.796875 795.757812 Z M 556.796875 795.757812 " fill-opacity="1" fill-rule="nonzero"/></g><g clip-path="url(#04a57227bf)"><path fill="#4f46e5" d="M 943.203125 521.207031 C 957.183594 521.207031 968.625 509.765625 968.625 495.785156 C 968.625 481.804688 957.183594 470.363281 943.203125 470.363281 C 929.222656 470.363281 917.78125 481.804688 917.78125 495.785156 C 917.78125 509.765625 929.222656 521.207031 943.203125 521.207031 Z M 943.203125 480.53125 C 951.59375 480.53125 958.457031 487.394531 958.457031 495.785156 C 958.457031 504.175781 951.59375 511.039062 943.203125 511.039062 C 934.8125 511.039062 927.949219 504.175781 927.949219 495.785156 C 927.949219 487.394531 934.8125 480.53125 943.203125 480.53125 Z M 943.203125 480.53125 " fill-opacity="1" fill-rule="nonzero"/></g><g clip-path="url(#0ac1333f48)"><path fill="#4f46e5" d="M 943.203125 541.542969 C 929.222656 541.542969 917.78125 552.984375 917.78125 566.964844 C 917.78125 580.945312 929.222656 592.386719 943.203125 592.386719 C 957.183594 592.386719 968.625 580.945312 968.625 566.964844 C 968.625 552.984375 957.183594 541.542969 943.203125 541.542969 Z M 943.203125 582.21875 C 934.8125 582.21875 927.949219 575.355469 927.949219 566.964844 C 927.949219 558.574219 934.8125 551.710938 943.203125 551.710938 C 951.59375 551.710938 958.457031 558.574219 958.457031 566.964844 C 958.457031 575.355469 951.59375 582.21875 943.203125 582.21875 Z M 943.203125 582.21875 " fill-opacity="1" fill-rule="nonzero"/></g><g clip-path="url(#6cbc8f801d)"><path fill="#4f46e5" d="M 943.203125 612.722656 C 929.222656 612.722656 917.78125 624.164062 917.78125 638.144531 C 917.78125 652.128906 929.222656 663.566406 943.203125 663.566406 C 957.183594 663.566406 968.625 652.128906 968.625 638.144531 C 968.625 624.164062 957.183594 612.722656 943.203125 612.722656 Z M 943.203125 653.398438 C 934.8125 653.398438 927.949219 646.535156 927.949219 638.144531 C 927.949219 629.757812 934.8125 622.890625 943.203125 622.890625 C 951.59375 622.890625 958.457031 629.757812 958.457031 638.144531 C 958.457031 646.535156 951.59375 653.398438 943.203125 653.398438 Z M 943.203125 653.398438 " fill-opacity="1" fill-rule="nonzero"/></g><g clip-path="url(#b336b2af6b)"><path fill="#4f46e5" d="M 943.203125 683.902344 C 929.222656 683.902344 917.78125 695.34375 917.78125 709.324219 C 917.78125 723.308594 929.222656 734.746094 943.203125 734.746094 C 957.183594 734.746094 968.625 723.308594 968.625 709.324219 C 968.625 695.34375 957.183594 683.902344 943.203125 683.902344 Z M 943.203125 724.578125 C 934.8125 724.578125 927.949219 717.714844 927.949219 709.324219 C 927.949219 700.9375 934.8125 694.074219 943.203125 694.074219 C 951.59375 694.074219 958.457031 700.9375 958.457031 709.324219 C 958.457031 717.714844 951.59375 724.578125 943.203125 724.578125 Z M 943.203125 724.578125 " fill-opacity="1" fill-rule="nonzero"/></g><g clip-path="url(#68e3d4e4cc)"><path fill="#4f46e5" d="M 943.203125 755.085938 C 929.222656 755.085938 917.78125 766.523438 917.78125 780.503906 C 917.78125 794.488281 929.222656 805.925781 943.203125 805.925781 C 957.183594 805.925781 968.625 794.488281 968.625 780.503906 C 968.625 766.523438 957.183594 755.085938 943.203125 755.085938 Z M 943.203125 795.757812 C 934.8125 795.757812 927.949219 788.894531 927.949219 780.503906 C 927.949219 772.117188 934.8125 765.253906 943.203125 765.253906 C 951.59375 765.253906 958.457031 772.117188 958.457031 780.503906 C 958.457031 788.894531 951.59375 795.757812 943.203125 795.757812 Z M 943.203125 795.757812 " fill-opacity="1" fill-rule="nonzero"/></g></svg>